<svg width="30" height="30" viewBox="0 0 30 30" fill="none" xmlns="http://www.w3.org/2000/svg">
<g clip-path="url(#clip0)">
<path d="M19.0057 30H4.7409C3.15353 30 1.8667 28.7132 1.8667 27.1258V9.42315C1.8667 7.83578 3.15353 6.54895 4.7409 6.54895H19.0057C20.5931 6.54895 21.8799 7.83578 21.8799 9.42315V27.1258C21.8799 28.7132 20.5931 30 19.0057 30Z" fill="#27A600"/>
<path d="M17.3138 17.3497H6.43273C6.05319 17.3497 5.74548 17.0421 5.74548 16.6625C5.74548 16.2829 6.05319 15.9752 6.43273 15.9752H17.3138C17.6934 15.9752 18.0011 16.2829 18.0011 16.6625C18.001 17.0421 17.6933 17.3497 17.3138 17.3497Z" fill="#EFC534"/>
<path d="M17.3138 21.2042H6.43273C6.05319 21.2042 5.74548 20.8965 5.74548 20.517C5.74548 20.1374 6.05319 19.8297 6.43273 19.8297H17.3138C17.6934 19.8297 18.0011 20.1374 18.0011 20.517C18.001 20.8965 17.6933 21.2042 17.3138 21.2042Z" fill="#EFC534"/>
<path d="M17.3138 25.0575H6.43273C6.05319 25.0575 5.74548 24.7498 5.74548 24.3702C5.74548 23.9906 6.05319 23.683 6.43273 23.683H17.3138C17.6934 23.683 18.0011 23.9906 18.0011 24.3702C18.001 24.7498 17.6933 25.0575 17.3138 25.0575Z" fill="#EFC534"/>
<path d="M4.39697 4.36339C4.39697 8.2757 7.77424 10.8519 10.7052 12.4421C11.4334 12.8371 12.313 12.8371 13.0413 12.4421C15.9722 10.8519 19.3495 8.2757 19.3495 4.36339C19.3495 1.95353 17.3959 0 14.9861 0C13.767 0 12.665 0.500139 11.8732 1.3062C11.0815 0.500139 9.97942 0 8.76036 0C6.3505 0 4.39697 1.95353 4.39697 4.36339Z" fill="#FF8300"/>
<path opacity="0.4" d="M6.62111 7.43462C7.11407 7.43462 7.5137 7.11347 7.5137 6.71731C7.5137 6.32115 7.11407 6 6.62111 6C6.12814 6 5.72852 6.32115 5.72852 6.71731C5.72852 7.11347 6.12814 7.43462 6.62111 7.43462Z" fill="#EFC5DB"/>
<path opacity="0.4" d="M17.1254 7.43462C17.6183 7.43462 18.018 7.11347 18.018 6.71731C18.018 6.32115 17.6183 6 17.1254 6C16.6324 6 16.2328 6.32115 16.2328 6.71731C16.2328 7.11347 16.6324 7.43462 17.1254 7.43462Z" fill="#EFC5DB"/>
<path d="M8.15147 6.71737C9.12901 6.71737 9.92147 5.92491 9.92147 4.94737C9.92147 3.96982 9.12901 3.17737 8.15147 3.17737C7.17393 3.17737 6.38147 3.96982 6.38147 4.94737C6.38147 5.92491 7.17393 6.71737 8.15147 6.71737Z" fill="white"/>
<path d="M15.5951 6.71737C16.5726 6.71737 17.3651 5.92491 17.3651 4.94737C17.3651 3.96982 16.5726 3.17737 15.5951 3.17737C14.6175 3.17737 13.8251 3.96982 13.8251 4.94737C13.8251 5.92491 14.6175 6.71737 15.5951 6.71737Z" fill="white"/>
<path d="M8.15109 6.0036C8.7337 6.0036 9.20599 5.53131 9.20599 4.9487C9.20599 4.36609 8.7337 3.8938 8.15109 3.8938C7.56849 3.8938 7.09619 4.36609 7.09619 4.9487C7.09619 5.53131 7.56849 6.0036 8.15109 6.0036Z" fill="#3B3B44"/>
<path d="M15.5947 6.0036C16.1773 6.0036 16.6496 5.53131 16.6496 4.9487C16.6496 4.36609 16.1773 3.8938 15.5947 3.8938C15.0121 3.8938 14.5398 4.36609 14.5398 4.9487C14.5398 5.53131 15.0121 6.0036 15.5947 6.0036Z" fill="#3B3B44"/>
<path d="M11.8729 6.77498C11.5593 6.77498 11.2457 6.65647 10.9899 6.41928C10.8689 6.30705 10.8618 6.11803 10.974 5.99701C11.0862 5.876 11.2752 5.86889 11.3963 5.981C11.6769 6.24131 12.069 6.2412 12.3497 5.981C12.4707 5.86889 12.6597 5.876 12.772 5.99701C12.8841 6.11803 12.877 6.30705 12.756 6.41928C12.5001 6.65647 12.1865 6.77498 11.8729 6.77498Z" fill="#3B3B44"/>
<path d="M27.9063 13.7923L26.3288 12.2148C26.0261 11.9121 25.5353 11.9121 25.2326 12.2148L23.3958 14.0517L26.0694 16.7253L27.9063 14.8884C28.209 14.5858 28.209 14.095 27.9063 13.7923Z" fill="#4E5660"/>
<path d="M19.3495 24.3424L15.7787 20.7716L14.0627 24.4373C13.8451 24.9022 13.9419 25.4535 14.3048 25.8163C14.6676 26.1792 15.219 26.276 15.6837 26.0584L19.3495 24.3424Z" fill="#FFDD00"/>
<path d="M17.8823 24.2025L15.9197 22.2398C15.3305 21.6506 15.3305 20.6953 15.9197 20.1061L22.2911 13.7347C22.8803 13.1456 23.8355 13.1456 24.4247 13.7347L26.3874 15.6974C26.9766 16.2866 26.9766 17.2419 26.3874 17.831L20.016 24.2025C19.4268 24.7916 18.4716 24.7916 17.8823 24.2025Z" fill="#3B5CAD"/>
<path d="M21.5695 22.6538L21.2521 22.3364C20.8274 21.9117 20.8274 21.2231 21.2521 20.7984L24.5142 17.5363C24.8065 17.2441 25.2802 17.2441 25.5724 17.5363L26.3696 18.3335C26.6617 18.6257 26.6617 19.0995 26.3696 19.3917L23.1075 22.6538C22.6828 23.0785 21.9942 23.0785 21.5695 22.6538Z" fill="#27A600"/>
</g>
<defs>
<clipPath id="clip0">
<rect width="30" height="30" fill="white"/>
</clipPath>
</defs>
</svg>
