<svg width="32" height="32" viewBox="0 0 32 32" fill="none" xmlns="http://www.w3.org/2000/svg">
<g clip-path="url(#clip0)">
<path d="M20.4333 22.0766H10.0103V18.5226H21.5947L20.4333 22.0766Z" fill="#C4D7FB"/>
<path d="M26.1505 16.4443H22.5386V14.5094H25.312C25.3833 14.5094 25.441 14.4516 25.441 14.3804V7.75703C25.441 7.68576 25.3832 7.62805 25.312 7.62805H22.5386V5.69312H26.1505C26.8273 5.69312 27.376 6.24178 27.376 6.9186V15.2188C27.376 15.8957 26.8273 16.4443 26.1505 16.4443Z" fill="#8C8F99"/>
<path d="M22.8946 31.9999H8.7105C8.28306 31.9999 7.93652 31.6534 7.93652 31.2259V29.2097H23.6686L22.8715 31.143C22.8715 31.5704 23.322 31.9999 22.8946 31.9999Z" fill="#8C8E99"/>
<path d="M23.6687 29.2101V31.2257C23.6687 31.6533 23.3223 31.9997 22.8947 31.9997H21.2822C21.7098 31.9997 22.0562 31.6533 22.0562 31.2257V29.2101H23.6687Z" fill="#616370"/>
<path d="M19.9824 18.5227H21.5949V22.0766H19.9824V18.5227Z" fill="#A9C6F9"/>
<path d="M24.1641 30.1244H7.44066C6.96621 30.1244 6.60348 29.7015 6.67569 29.2326L7.84353 21.6521C7.90167 21.2746 8.22652 20.996 8.60851 20.996H22.9963C23.3782 20.996 23.2454 21.6161 23.3036 21.9936L24.4126 29.2098C24.4848 29.6787 24.6385 30.1244 24.1641 30.1244Z" fill="#289906"/>
<path d="M24.1641 30.1248H22.5517C23.0264 30.1248 23.3889 29.7016 23.3167 29.2327L22.1493 21.6523C22.0912 21.275 21.7661 20.9963 21.3843 20.9963H22.9967C23.3786 20.9963 23.7036 21.275 23.7617 21.6523L24.9291 29.2327C25.0013 29.7016 24.6388 30.1248 24.1641 30.1248Z" fill="#268509"/>
<path d="M9.2742 10.9178L4.70011 6.34376C4.53756 6.18121 4.65272 5.90332 4.88254 5.90332H9.2742V10.9178Z" fill="#8C8F99"/>
<path d="M17.5141 25.5602C17.5141 26.8574 17.1004 27.9098 15.8026 27.9098C14.5053 27.9098 13.4531 26.8576 13.4531 25.5604C13.4531 25.1277 13.57 24.7226 13.7738 24.375C13.8516 24.2421 14.2975 24.4569 14.3991 24.3422C14.5058 24.2217 14.2693 23.7728 14.3984 23.6761C14.7898 23.3841 15.2762 23.2109 15.8026 23.2109C17.1004 23.2109 17.5141 24.2623 17.5141 25.5602Z" fill="#EEF5FF"/>
<path d="M23.0212 2.65613V12.0909C23.0212 12.0909 11.5613 16.427 11.5613 16L8.58447 11.8665V2.65613H23.0212Z" fill="#EEF5FF"/>
<path d="M23.0211 2.65613V12.091C23.0211 12.518 21.9257 13.4069 21.9257 13.4069C21.8601 13.2846 21.4089 12.0469 21.4089 11.6199L21.4087 2.65613H23.0211Z" fill="#DFE9FB"/>
<path d="M23.1805 3.74409H8.42437C7.99693 3.74409 7.65039 3.39755 7.65039 2.97011V0.774343C7.65039 0.346905 7.99693 0.000366211 8.42437 0.000366211H23.1805C23.6079 0.000366211 23.6176 0.384729 23.6176 0.812167L23.2384 2.87933C23.2383 3.30683 23.6079 3.74409 23.1805 3.74409Z" fill="#3B5CAD"/>
<path d="M23.0212 12.091L21.9992 18.0305C21.9992 18.4575 22.6742 19.18 22.2472 19.18H9.35845C8.93082 19.18 8.58447 18.8329 8.58447 18.406V11.8665C9.14564 12.0916 9.55776 12.3831 10.6252 12.3831C12.3647 12.3831 12.3647 11.6091 14.1049 11.6091C15.8444 11.6091 15.8444 12.3831 17.5839 12.3831C19.3241 12.3831 19.3241 11.6091 21.0636 11.6091C22.0769 11.6091 22.5007 11.8716 23.0212 12.091Z" fill="#FF8300"/>
<path d="M23.9543 0.773977V2.97018C23.9543 3.39781 23.608 3.74416 23.1804 3.74416H21.5679C21.9955 3.74416 22.3419 3.39781 22.3419 2.97018V0.773977C22.3419 0.346977 21.9955 0 21.5679 0H23.1804C23.608 0 23.9543 0.347039 23.9543 0.773977Z" fill="#3052A6"/>
<path d="M18.152 25.5601C18.152 26.8578 17.1 27.9098 15.8023 27.9098C15.5192 27.9098 15.2477 27.8595 14.9961 27.7679C15.8965 27.4389 16.5395 26.5747 16.5395 25.5601C16.5395 24.5456 15.8965 23.6813 14.9961 23.3524C15.2476 23.2608 15.5192 23.2104 15.8023 23.2104C17.1 23.2104 18.152 24.2624 18.152 25.5601Z" fill="#DFE9FB"/>
<path d="M23.0212 12.0907V18.4057C23.0212 18.8327 22.6742 19.1797 22.2472 19.1797H20.6348C21.0618 19.1797 21.4087 18.8327 21.4087 18.4057V11.6199C22.1814 11.6721 22.5639 11.8978 23.0212 12.0907Z" fill="#EA7800"/>
<path d="M16.0247 25.7585C15.9322 25.8623 15.804 25.9154 15.6746 25.9154C15.564 25.9154 15.4521 25.876 15.3627 25.796L13.7734 24.375C13.9329 24.1024 14.146 23.8648 14.398 23.676L15.9872 25.0964C16.1804 25.269 16.1973 25.5653 16.0247 25.7585Z" fill="#C9BFC8"/>
</g>
<defs>
<clipPath id="clip0">
<rect width="32" height="32" fill="white"/>
</clipPath>
</defs>
</svg>
