<svg width="30" height="30" viewBox="0 0 30 30" fill="none" xmlns="http://www.w3.org/2000/svg">
<g clip-path="url(#clip0)">
<path d="M23.6097 1.36633H6.49096C3.57695 1.36633 1.21472 3.72856 1.21472 6.64257V24.7075H16.455L28.7853 21.0728V6.54193C28.7853 3.68356 26.4681 1.36633 23.6097 1.36633Z" fill="#27A600"/>
<path d="M1.21472 6.64263V24.7076H6.49096V1.36633C3.57695 1.36633 1.21472 3.72862 1.21472 6.64263Z" fill="#289906"/>
<path d="M3.12225 22.1451H27.1276V27.2695H3.12225V22.1451Z" fill="#FFDD00"/>
<path d="M27.1275 30H6.50721C3.58896 30 1.21472 27.6258 1.21472 24.7075C1.21472 21.7892 3.58896 19.415 6.50721 19.415H27.1275C28.0431 19.415 28.7853 20.1573 28.7853 21.0728C28.7853 21.9883 28.0431 22.7306 27.1275 22.7306H6.50721C5.41711 22.7306 4.53026 23.6174 4.53026 24.7076C4.53026 25.7977 5.41711 26.6846 6.50721 26.6846H27.1275C28.0431 26.6846 28.7853 27.4268 28.7853 28.3424C28.7853 29.2578 28.0431 30 27.1275 30Z" fill="#FF8300"/>
<path d="M10.6559 7.11741L11.3994 6.63586C11.8436 6.34811 12.4155 6.34811 12.8597 6.63586L13.6032 7.11741C14.4969 7.69626 15.6766 7.05478 15.6766 5.99002V1.36626C15.6765 0.611713 15.0648 0 14.3102 0H9.94877C9.19417 0 8.58252 0.611713 8.58252 1.36626V5.99002C8.58246 7.05478 9.76214 7.69626 10.6559 7.11741Z" fill="#3B5CAD"/>
<path opacity="0.2" d="M12.3861 14.84C12.879 14.84 13.2786 14.5189 13.2786 14.1227C13.2786 13.7265 12.879 13.4054 12.3861 13.4054C11.8931 13.4054 11.4935 13.7265 11.4935 14.1227C11.4935 14.5189 11.8931 14.84 12.3861 14.84Z" fill="#EAADCD"/>
<path opacity="0.2" d="M22.8903 14.84C23.3833 14.84 23.7829 14.5189 23.7829 14.1227C23.7829 13.7265 23.3833 13.4054 22.8903 13.4054C22.3974 13.4054 21.9977 13.7265 21.9977 14.1227C21.9977 14.5189 22.3974 14.84 22.8903 14.84Z" fill="#EAADCD"/>
<path d="M13.9165 14.1224C14.894 14.1224 15.6865 13.3299 15.6865 12.3524C15.6865 11.3749 14.894 10.5824 13.9165 10.5824C12.9389 10.5824 12.1465 11.3749 12.1465 12.3524C12.1465 13.3299 12.9389 14.1224 13.9165 14.1224Z" fill="white"/>
<path d="M15.6585 12.6017C15.7925 12.0348 15.4416 11.4666 14.8747 11.3326C14.3078 11.1986 13.7397 11.5495 13.6057 12.1164C13.4717 12.6833 13.8226 13.2515 14.3895 13.3854C14.9563 13.5194 15.5245 13.1685 15.6585 12.6017Z" fill="#3B3B44"/>
<path d="M21.36 14.1224C22.3376 14.1224 23.13 13.3299 23.13 12.3524C23.13 11.3749 22.3376 10.5824 21.36 10.5824C20.3825 10.5824 19.59 11.3749 19.59 12.3524C19.59 13.3299 20.3825 14.1224 21.36 14.1224Z" fill="white"/>
<path d="M22.8136 13.0998C23.2255 12.6879 23.2255 12.0201 22.8136 11.6082C22.4017 11.1963 21.7338 11.1963 21.3219 11.6082C20.91 12.0201 20.91 12.6879 21.3219 13.0998C21.7338 13.5117 22.4017 13.5117 22.8136 13.0998Z" fill="#3B3B44"/>
<path d="M17.6383 14.7307C18.0756 14.7307 18.4302 14.2664 18.4302 13.6937C18.4302 13.121 18.0756 12.6567 17.6383 12.6567C17.2009 12.6567 16.8463 13.121 16.8463 13.6937C16.8463 14.2664 17.2009 14.7307 17.6383 14.7307Z" fill="#3B3B44"/>
</g>
<defs>
<clipPath id="clip0">
<rect width="30" height="30" fill="white"/>
</clipPath>
</defs>
</svg>
