<svg width="30" height="30" viewBox="0 0 30 30" fill="none" xmlns="http://www.w3.org/2000/svg">
<g clip-path="url(#clip0)">
<path d="M24.9844 23.8091L27.9776 22.7197C28.9857 22.3528 29.6567 21.3945 29.6567 20.3217V16.7534C29.6567 15.6806 28.9857 14.7224 27.9776 14.3554L24.9844 13.266V23.8091Z" fill="#FF8300"/>
<path opacity="0.3" d="M26.926 20.1591V16.659L28.5908 16.0531C28.88 15.9478 29.1527 15.8128 29.407 15.6533C29.1247 15.063 28.6197 14.5892 27.9776 14.3555L25.1332 13.3202V20.159C25.1332 20.6541 25.5345 21.0554 26.0296 21.0554C26.5247 21.0555 26.926 20.6541 26.926 20.1591Z" fill="#E05D6F"/>
<path d="M24.9844 14.589L26.9259 14.7513L27.9776 14.3685C28.9857 14.0016 29.6567 13.0433 29.6567 11.9705V8.40221C29.6567 7.32938 28.9857 6.37111 27.9776 6.00424L24.9844 4.91479V14.589Z" fill="#FFDD00"/>
<path d="M26.9259 5.62141L24.9844 4.91479V15.4579L26.9259 14.7512V5.62141Z" fill="#EFC534"/>
<path d="M20.9323 0H4.54427C3.53879 1.54327 2.44385 10.7845 2.44385 15C2.44385 19.2155 3.53879 28.4567 4.54427 30H20.9322C23.2523 30 25.1331 28.1192 25.1331 25.7991V4.2009C25.1331 1.8808 23.2523 0 20.9323 0V0Z" fill="#27A600"/>
<path d="M19.5837 24.1887C21.1182 24.1887 22.1556 22.6087 21.5303 21.2073C20.3884 18.6484 17.8218 16.8649 14.8387 16.8649C11.8555 16.8649 9.28891 18.6484 8.14706 21.2073C7.52172 22.6087 8.55911 24.1887 10.0937 24.1887H19.5837Z" fill="url(#paint0_linear)"/>
<path opacity="0.4" d="M17.9207 17.5435C16.9945 17.9764 15.9476 18.2207 14.8387 18.2207C14.295 18.2207 13.7663 18.1618 13.2592 18.0508C12.8438 17.9599 12.4219 18.1736 12.2494 18.5624C12.0203 19.0785 12.3192 19.6787 12.8707 19.8003C13.503 19.9396 14.1618 20.0136 14.8387 20.0136C16.6087 20.0136 18.2557 19.51 19.6267 18.6477C19.1149 18.205 18.5416 17.8319 17.9207 17.5435Z" fill="#F5C98D"/>
<path d="M14.8386 18.2208C18.6164 18.2208 21.6789 15.3902 21.6789 11.8985C21.6789 8.40676 18.6164 5.57617 14.8386 5.57617C11.0608 5.57617 7.99829 8.40676 7.99829 11.8985C7.99829 15.3902 11.0608 18.2208 14.8386 18.2208Z" fill="url(#paint1_linear)"/>
<path d="M0.343384 4.2009V25.7991C0.343384 28.1192 2.22418 30 4.54428 30V0C2.22418 0 0.343384 1.8808 0.343384 4.2009Z" fill="#3B5CAD"/>
<path opacity="0.2" d="M9.58656 13.9358C10.0795 13.9358 10.4791 13.6147 10.4791 13.2185C10.4791 12.8224 10.0795 12.5012 9.58656 12.5012C9.09359 12.5012 8.69397 12.8224 8.69397 13.2185C8.69397 13.6147 9.09359 13.9358 9.58656 13.9358Z" fill="#EAADCD"/>
<path opacity="0.2" d="M20.0908 13.9358C20.5838 13.9358 20.9834 13.6147 20.9834 13.2185C20.9834 12.8224 20.5838 12.5012 20.0908 12.5012C19.5979 12.5012 19.1982 12.8224 19.1982 13.2185C19.1982 13.6147 19.5979 13.9358 20.0908 13.9358Z" fill="#EAADCD"/>
<path d="M11.1169 13.2185C12.0945 13.2185 12.8869 12.426 12.8869 11.4485C12.8869 10.4709 12.0945 9.67847 11.1169 9.67847C10.1394 9.67847 9.34692 10.4709 9.34692 11.4485C9.34692 12.426 10.1394 13.2185 11.1169 13.2185Z" fill="white"/>
<path d="M12.8583 11.6968C12.9923 11.1299 12.6414 10.5617 12.0745 10.4277C11.5077 10.2937 10.9395 10.6446 10.8055 11.2115C10.6715 11.7784 11.0224 12.3465 11.5893 12.4805C12.1562 12.6145 12.7243 12.2636 12.8583 11.6968Z" fill="#3B3B44"/>
<path d="M18.5604 13.2185C19.538 13.2185 20.3304 12.426 20.3304 11.4485C20.3304 10.4709 19.538 9.67847 18.5604 9.67847C17.5829 9.67847 16.7904 10.4709 16.7904 11.4485C16.7904 12.426 17.5829 13.2185 18.5604 13.2185Z" fill="white"/>
<path d="M20.0144 12.1949C20.4263 11.783 20.4263 11.1152 20.0144 10.7033C19.6025 10.2914 18.9347 10.2914 18.5228 10.7033C18.1109 11.1152 18.1109 11.783 18.5228 12.1949C18.9347 12.6068 19.6025 12.6068 20.0144 12.1949Z" fill="#3B3B44"/>
<path d="M14.8387 13.8269C15.2761 13.8269 15.6307 13.3626 15.6307 12.7899C15.6307 12.2172 15.2761 11.7529 14.8387 11.7529C14.4013 11.7529 14.0468 12.2172 14.0468 12.7899C14.0468 13.3626 14.4013 13.8269 14.8387 13.8269Z" fill="#3B3B44"/>
</g>
<defs>
<linearGradient id="paint0_linear" x1="14.8386" y1="18.3281" x2="14.8386" y2="24.3349" gradientUnits="userSpaceOnUse">
<stop stop-color="#F0E09C"/>
<stop offset="1" stop-color="#FCF7CF"/>
</linearGradient>
<linearGradient id="paint1_linear" x1="5.87546" y1="11.8985" x2="21.1304" y2="11.8985" gradientUnits="userSpaceOnUse">
<stop stop-color="#F9EDAF"/>
<stop offset="1" stop-color="#FFFCDD"/>
</linearGradient>
<clipPath id="clip0">
<rect width="30" height="30" fill="white"/>
</clipPath>
</defs>
</svg>
