<svg width="32" height="32" viewBox="0 0 32 32" fill="none" xmlns="http://www.w3.org/2000/svg">
<path d="M21.8775 31.9999H10.122C7.50355 31.9999 5.38086 29.8773 5.38086 27.2588V10.7621H26.6187V27.2588C26.6187 29.8773 24.496 31.9999 21.8775 31.9999Z" fill="#FFDD00"/>
<path d="M21.693 5.45169H19.4755C18.6438 5.45169 18.0356 4.65975 18.2586 3.85862C18.4028 3.34062 18.4831 2.85162 18.4831 2.48294C18.4831 1.11163 17.3715 0 16.0003 0C14.629 0 13.5174 1.11163 13.5174 2.48288C13.5174 2.85156 13.5978 3.34056 13.7419 3.85856C13.9648 4.65969 13.3566 5.45162 12.5251 5.45162H10.3076C5.13696 5.45162 5.38321 9.68044 5.38321 9.68044H26.6174C26.6173 9.6805 26.8636 5.45169 21.693 5.45169Z" fill="#FFDD00"/>
<path d="M26.9226 12.7001H5.07765C4.00734 12.7001 3.13965 11.8324 3.13965 10.7621C3.13965 9.69178 4.00734 8.8241 5.07765 8.8241H26.9226C27.993 8.8241 28.8606 9.69178 28.8606 10.7621C28.8606 11.8324 27.993 12.7001 26.9226 12.7001Z" fill="#27A600"/>
<path d="M9.20922 29.0819C10.8644 30.5701 13.1686 30.7061 14.3558 29.3856C15.543 28.0652 15.1637 25.7884 13.5085 24.3002C11.8533 22.812 9.5491 22.676 8.36191 23.9964C7.17472 25.3169 7.55404 27.5937 9.20922 29.0819Z" fill="#27A600"/>
<path d="M18.1501 29.0819C16.4949 30.5701 14.1907 30.7061 13.0035 29.3856C11.8163 28.0652 12.1956 25.7884 13.8508 24.3002C15.506 22.812 17.8102 22.676 18.9974 23.9964C20.1846 25.3169 19.8053 27.5937 18.1501 29.0819Z" fill="#3B5CAD"/>
<path d="M22.3854 29.0819C20.7302 30.5701 18.4261 30.7061 17.2389 29.3856C16.0517 28.0652 16.431 25.7884 18.0862 24.3002C19.7414 22.812 22.0455 22.676 23.2327 23.9964C24.4199 25.3169 24.0405 27.5937 22.3854 29.0819Z" fill="#FF8300"/>
<path d="M10.5067 21.0068C11.0223 21.0068 11.4402 20.671 11.4402 20.2567C11.4402 19.8423 11.0223 19.5065 10.5067 19.5065C9.99118 19.5065 9.57324 19.8423 9.57324 20.2567C9.57324 20.671 9.99118 21.0068 10.5067 21.0068Z" fill="#EBCF43"/>
<path d="M21.4926 21.0068C22.0081 21.0068 22.4261 20.671 22.4261 20.2567C22.4261 19.8423 22.0081 19.5065 21.4926 19.5065C20.977 19.5065 20.5591 19.8423 20.5591 20.2567C20.5591 20.671 20.977 21.0068 21.4926 21.0068Z" fill="#EBCF43"/>
<path d="M16.0002 20.8934C15.5973 20.8934 15.1943 20.7587 14.8581 20.4893C14.5463 20.2395 14.496 19.7842 14.7458 19.4724C14.9956 19.1605 15.4509 19.1103 15.7627 19.36C15.9025 19.472 16.0978 19.472 16.2376 19.36C16.5493 19.1102 17.0046 19.1605 17.2545 19.4724C17.5043 19.7842 17.4541 20.2395 17.1422 20.4893C16.8061 20.7587 16.4031 20.8934 16.0002 20.8934Z" fill="#383842"/>
<path d="M12.1075 18.6535C12.5297 18.6535 12.9214 18.7413 13.2445 18.8913C13.5743 19.0445 13.9552 18.9068 13.9552 18.2925C13.9552 17.3647 13.1454 16.6121 12.2191 16.5577C11.1461 16.4947 10.2563 17.3462 10.2563 18.4055C10.2563 18.9682 10.629 19.0617 10.9097 18.9207C11.244 18.7528 11.6584 18.6535 12.1075 18.6535Z" fill="white"/>
<path d="M12.1076 18.6535C12.478 18.6535 12.8247 18.7211 13.1225 18.8389C13.1794 18.7059 13.2109 18.5596 13.2109 18.4056C13.2109 17.7963 12.717 17.3024 12.1076 17.3024C11.4983 17.3024 11.0044 17.7963 11.0044 18.4056C11.0044 18.5596 11.0359 18.7058 11.0928 18.8389C11.3906 18.7211 11.7373 18.6535 12.1076 18.6535Z" fill="#383842"/>
<path d="M19.8941 18.6535C20.3163 18.6535 20.708 18.7413 21.0311 18.8913C21.3609 19.0445 21.7418 18.9068 21.7418 18.2925C21.7418 17.3647 20.932 16.6121 20.0057 16.5577C18.9327 16.4947 18.043 17.3462 18.043 18.4055C18.043 18.9682 18.4156 19.0617 18.6963 18.9207C19.0305 18.7528 19.445 18.6535 19.8941 18.6535Z" fill="white"/>
<path d="M19.8943 18.6535C20.2646 18.6535 20.6113 18.7211 20.9091 18.8389C20.966 18.7059 20.9975 18.5596 20.9975 18.4056C20.9975 17.7963 20.5036 17.3024 19.8943 17.3024C19.285 17.3024 18.791 17.7963 18.791 18.4056C18.791 18.5596 18.8225 18.7058 18.8795 18.8389C19.1771 18.7211 19.5239 18.6535 19.8943 18.6535Z" fill="#383842"/>
<path d="M16.0004 19.9998C15.5684 19.9998 15.2183 20.3029 15.2183 20.6769C15.2183 20.6898 15.2196 20.7025 15.2205 20.7153C15.4678 20.8331 15.7339 20.8934 16.0004 20.8934C16.267 20.8934 16.5331 20.8331 16.7804 20.7153C16.7812 20.7024 16.7826 20.6898 16.7826 20.6769C16.7826 20.3029 16.4324 19.9998 16.0004 19.9998Z" fill="#FF737D"/>
</svg>
