<svg width="32" height="32" viewBox="0 0 32 32" fill="none" xmlns="http://www.w3.org/2000/svg">
<path d="M20.9409 16.6299C20.9409 20.8738 17.5007 24.314 13.2568 24.314C9.01294 24.314 5.57275 20.8738 5.57275 16.6299C5.57275 12.386 9.01294 8.9458 13.2568 8.9458C17.5007 8.9458 20.9409 12.386 20.9409 16.6299Z" fill="#27A600"/>
<path d="M18.6899 11.1963C21.6909 14.1973 21.6909 19.0623 18.6899 22.0632C16.0581 24.6953 11.9915 25.019 9.00732 23.0335C9.42578 22.7554 9.82251 22.4321 10.1917 22.0632C13.1924 19.0623 13.1924 14.1973 10.1917 11.1963C9.82251 10.8274 9.42578 10.5042 9.00732 10.2261C11.9919 8.24097 16.0586 8.5647 18.6899 11.1963Z" fill="#279406"/>
<path d="M27.7192 18.6157C27.4543 14.2405 23.823 10.7739 19.3813 10.7739C15.7991 10.7739 12.7439 13.0291 11.5566 16.1968C8.47192 16.2339 5.98242 18.7449 5.98242 21.8384C5.98242 24.9553 8.50903 27.4822 11.626 27.4822H27.5642C30.0139 27.4822 31.9995 25.4963 31.9995 23.0469C31.9995 20.6494 30.0969 18.6973 27.7192 18.6157Z" fill="#FF8300"/>
<path d="M32 23.0466C32 25.4961 30.0139 27.4822 27.5645 27.4822H27.2209C27.5425 26.8684 27.7246 26.1692 27.7246 25.4285C27.7246 23.031 25.822 21.0789 23.4443 20.9968C23.1794 16.6221 19.5479 13.155 15.106 13.155C14.5071 13.155 13.9231 13.2183 13.3604 13.3379C14.8799 11.7578 17.0156 10.7742 19.3816 10.7742C23.8232 10.7742 27.4548 14.2405 27.7197 18.616C30.0974 18.697 32 20.6494 32 23.0466Z" fill="#EA7800"/>
<path d="M25.5086 18.1252C25.2937 18.1252 25.0987 17.9788 25.0464 17.7605C24.969 17.439 24.8633 17.1221 24.7322 16.8188C24.6277 16.5776 24.7386 16.2976 24.9798 16.1934C25.2212 16.0889 25.501 16.1999 25.6053 16.4409C25.7583 16.7944 25.8814 17.1636 25.9715 17.5383C26.0327 17.7937 25.8755 18.0505 25.6201 18.1121C25.5828 18.1208 25.5454 18.1252 25.5086 18.1252Z" fill="#FAB03C"/>
<path d="M23.9299 15.2444C23.8049 15.2444 23.6802 15.1953 23.5867 15.0979C22.4749 13.9397 20.9814 13.3018 19.3816 13.3018C19.1189 13.3018 18.9058 13.0889 18.9058 12.8262C18.9058 12.5635 19.1189 12.3506 19.3816 12.3506C21.2432 12.3506 22.9802 13.0923 24.2732 14.4392C24.4551 14.6289 24.449 14.9299 24.2593 15.1118C24.167 15.2002 24.0483 15.2444 23.9299 15.2444Z" fill="#FAB03C"/>
<path d="M4.76709 21.1433C4.95654 18.0154 7.55273 15.5371 10.728 15.5371C13.2891 15.5371 15.4734 17.1492 16.322 19.4138C18.5276 19.4404 20.3074 21.2356 20.3074 23.4473C20.3074 25.6755 18.501 27.4819 16.2727 27.4819C15.3398 27.4819 5.83643 27.4819 4.87793 27.4819C3.12671 27.4819 1.70703 26.0623 1.70703 24.3113C1.70703 22.5972 3.06738 21.2017 4.76709 21.1433Z" fill="#F8E98E"/>
<path d="M20.3074 23.4478C20.3074 25.6567 18.531 27.4514 16.3284 27.4812C16.9888 26.7625 17.3914 25.8049 17.3914 24.7529C17.3914 22.5413 15.6118 20.7461 13.406 20.7192C12.5571 18.4551 10.3733 16.8425 7.81177 16.8425C7.50928 16.8425 7.21216 16.8655 6.92139 16.9087C7.95459 16.052 9.28101 15.5374 10.728 15.5374C13.2893 15.5374 15.4731 17.1492 16.322 19.4141C18.5278 19.4409 20.3074 21.2354 20.3074 23.4478Z" fill="#F6CB43"/>
<path d="M27.4177 7.73584C26.8718 7.73584 26.3804 7.97339 26.041 8.35034C25.7017 7.97339 25.2102 7.73584 24.6643 7.73584C23.6428 7.73584 22.812 8.56689 22.812 9.58813C22.812 9.85107 23.0249 10.064 23.2876 10.064C23.5505 10.064 23.7634 9.85083 23.7634 9.58813C23.7634 9.09155 24.1675 8.68726 24.6643 8.68726C25.0293 8.68726 25.3435 8.90552 25.4851 9.21826C25.2766 9.2688 25.1218 9.45605 25.1218 9.68018C25.1218 9.94287 25.3347 10.1558 25.5974 10.1558H26.4846C26.7473 10.1558 26.9604 9.94287 26.9604 9.68018C26.9604 9.4563 26.8054 9.2688 26.5972 9.21826C26.7388 8.90576 27.053 8.68726 27.4177 8.68726C27.9146 8.68726 28.3188 9.09155 28.3188 9.58838C28.3188 9.85107 28.5317 10.064 28.7944 10.064C29.0574 10.064 29.2703 9.85107 29.2703 9.58838C29.2703 8.56689 28.4392 7.73584 27.4177 7.73584Z" fill="#27A600"/>
<path d="M23.2874 6.89062C23.55 6.89062 23.7632 6.67773 23.7632 6.41504C23.7632 5.39355 22.9321 4.5625 21.9106 4.5625C21.3647 4.5625 20.8733 4.80005 20.5339 5.177C20.1946 4.80005 19.7031 4.5625 19.1572 4.5625C18.1357 4.5625 17.3047 5.39355 17.3047 6.41504C17.3047 6.67773 17.5176 6.89062 17.7805 6.89062C18.0432 6.89062 18.2561 6.67773 18.2561 6.41504C18.2561 5.91821 18.6604 5.51392 19.1572 5.51392C19.522 5.51392 19.8362 5.73242 19.9778 6.04492C19.7695 6.09546 19.6145 6.28271 19.6145 6.50684C19.6145 6.76953 19.8274 6.98242 20.0903 6.98242H20.9775C21.2402 6.98242 21.4534 6.76953 21.4534 6.50684C21.4534 6.28296 21.2983 6.0957 21.0901 6.04492C21.2317 5.73242 21.5459 5.51392 21.9106 5.51392C22.4075 5.51392 22.8115 5.91821 22.8115 6.41504C22.8115 6.67773 23.0247 6.89062 23.2874 6.89062Z" fill="#27A600"/>
<path d="M4.60596 8.82983C4.06006 8.82983 3.5686 9.06738 3.229 9.44434C2.88989 9.06738 2.39844 8.82983 1.85254 8.82983C0.831055 8.82983 0 9.66064 0 10.6821C0 10.9448 0.212891 11.158 0.475586 11.158C0.738525 11.158 0.951416 10.9448 0.951416 10.6821C0.951416 10.1853 1.35547 9.78125 1.85229 9.78125C2.21729 9.78125 2.53149 9.99951 2.67285 10.3123C2.4646 10.3628 2.30981 10.55 2.30981 10.7739C2.30981 11.0366 2.52271 11.2495 2.7854 11.2495H3.67261C3.9353 11.2495 4.14819 11.0366 4.14819 10.7739C4.14819 10.55 3.99341 10.3628 3.78516 10.312C3.92651 9.99951 4.24072 9.78101 4.60571 9.78101C5.10254 9.78101 5.50659 10.1853 5.50659 10.6821C5.50659 10.9448 5.71973 11.1577 5.98242 11.1577C6.24512 11.1577 6.45801 10.9448 6.45801 10.6821C6.45825 9.66064 5.6272 8.82983 4.60596 8.82983Z" fill="#27A600"/>
</svg>
