<svg width="30" height="30" viewBox="0 0 30 30" fill="none" xmlns="http://www.w3.org/2000/svg">
<g clip-path="url(#clip0)">
<path d="M0.000244141 14.9995L30.0002 14.9995C30.0002 6.71523 23.2845 -0.000491818 15.0002 -0.000491917C6.71597 -0.000492016 0.000244239 6.71523 0.000244141 14.9995Z" fill="#DF7709"/>
<path d="M15 2.41447C6.71572 2.41447 2.6176e-07 8.04926 1.78873e-07 15C8.00842e-08 23.2843 6.71572 30 15 30C23.2843 30 30 23.2843 30 15C30 8.04926 23.2843 2.41447 15 2.41447Z" fill="#FF8300"/>
<path d="M11.2583 6.217L11.2583 8.02785L15.0007 9.83875L18.7432 8.02785L18.7432 6.217L11.2583 6.217Z" fill="#DEF1FF"/>
<path d="M11.2584 18.1076L8.54211 18.1076L15.0008 24.5664L21.4596 18.1076L18.7433 18.1076L18.7433 8.02715L11.2584 8.02715L11.2584 18.1076Z" fill="white"/>
</g>
<defs>
<clipPath id="clip0">
<rect width="30" height="30" fill="white" transform="translate(0 30) rotate(-90)"/>
</clipPath>
</defs>
</svg>
