<svg width="30" height="30" viewBox="0 0 30 30" fill="none" xmlns="http://www.w3.org/2000/svg">
<g clip-path="url(#clip0)">
<path d="M15 30C23.2843 30 30 23.2843 30 15C30 6.71573 23.2843 0 15 0C6.71573 0 0 6.71573 0 15C0 23.2843 6.71573 30 15 30Z" fill="#FFD93B"/>
<path d="M15 24.8765C10.9706 24.8765 7.42964 22.2946 6.18933 18.4518C6.07027 18.0824 6.27277 17.6859 6.64214 17.5668C7.01339 17.4468 7.40808 17.6503 7.52714 18.0196C8.57996 21.2793 11.5828 23.4703 15 23.4703C18.4171 23.4703 21.42 21.2803 22.4728 18.0196C22.5918 17.6503 22.9865 17.4468 23.3578 17.5668C23.7271 17.6859 23.9296 18.0824 23.8106 18.4518C22.5703 22.2946 19.0293 24.8765 15 24.8765Z" fill="#3E4347"/>
<path d="M30 14.9999C30 23.2874 23.2828 29.9999 15 29.9999C10.2844 29.9999 6.07499 27.8249 3.32343 24.4171C5.89686 26.4984 9.17343 27.7406 12.7406 27.7406C21.0234 27.7406 27.7406 21.0281 27.7406 12.7406C27.7406 9.17336 26.4984 5.8968 24.4172 3.32336C27.8203 6.07493 30 10.2843 30 14.9999Z" fill="#F4C534"/>
<path d="M12.5063 12.5493C11.8013 11.5875 10.5301 10.9481 9.08068 10.9481C7.62475 10.9546 6.3535 11.594 5.6485 12.5559C5.68131 10.6912 7.20381 9.18933 9.08068 9.18933C10.9444 9.18933 12.4735 10.6846 12.5063 12.5493Z" fill="#3E4347"/>
<path d="M24.3527 12.5493C23.6477 11.5875 22.3764 10.9481 20.9271 10.9481C19.4711 10.9546 18.1999 11.594 17.4949 12.5559C17.5277 10.6912 19.0502 9.18933 20.9271 9.18933C22.7917 9.18933 24.3199 10.6846 24.3527 12.5493Z" fill="#3E4347"/>
</g>
<defs>
<clipPath id="clip0">
<rect width="30" height="30" fill="white"/>
</clipPath>
</defs>
</svg>
