<svg width="24" height="24" viewBox="0 0 24 24" fill="none" xmlns="http://www.w3.org/2000/svg">
<g clip-path="url(#clip0)">
<path d="M12.0004 0.000244141L12.0004 24.0002C18.6278 24.0002 24.0004 18.6277 24.0004 12.0002C24.0004 5.37282 18.6278 0.000244141 12.0004 0.000244141Z" fill="#DF7709"/>
<path d="M22.0684 12C22.0684 5.37258 17.5606 0 12 0C5.37258 0 0 5.37258 0 12C0 18.6274 5.37258 24 12 24C17.5606 24 22.0684 18.6274 22.0684 12Z" fill="#FF8300"/>
<path d="M19.0263 9.00671H17.5776L16.1289 12.0007L17.5776 14.9946H19.0263V9.00671Z" fill="#DEF1FF"/>
<path d="M9.51396 9.00677V6.83374L4.34692 12.0007L9.51396 17.1677V14.9947H17.5783V9.00677H9.51396Z" fill="white"/>
</g>
<defs>
<clipPath id="clip0">
<rect width="24" height="24" fill="white"/>
</clipPath>
</defs>
</svg>
