<svg width="24" height="24" viewBox="0 0 24 24" fill="none" xmlns="http://www.w3.org/2000/svg">
<g clip-path="url(#clip0)">
<path d="M23.8254 12.0001C23.8254 15.6152 22.2151 18.854 19.6726 21.0386C19.1158 21.5175 18.5144 21.9454 17.8749 22.3154C17.3853 22.5994 16.8733 22.8493 16.3428 23.0618C15.8002 23.2791 15.2381 23.458 14.6595 23.5942C14.0362 23.7415 13.3944 23.8397 12.7374 23.8845C12.4651 23.9034 12.1899 23.9127 11.9128 23.9127C11.6357 23.9127 11.3604 23.9034 11.0882 23.8845C10.4313 23.8397 9.78901 23.7415 9.16566 23.5942C8.58704 23.458 8.02496 23.2791 7.48281 23.0618C6.95232 22.8493 6.44035 22.5993 5.9507 22.3154C5.31132 21.9454 4.70935 21.517 4.15262 21.0386C1.61017 18.8535 0.000244141 15.6147 0.000244141 12.0001C0.000244141 5.42096 5.33368 0.0875244 11.9128 0.0875244C18.492 0.0875244 23.8254 5.42092 23.8254 12.0001Z" fill="#FFDD00"/>
<path d="M23.172 15.901C21.5568 20.5644 17.1258 23.9126 11.913 23.9126C10.003 23.9126 8.19816 23.4633 6.59799 22.6644C4.13667 17.9611 2.16891 13.0089 0.729189 7.88747C0.487549 7.02877 0.260955 6.16477 0.0494551 5.29683C-0.180045 4.35549 0.411705 3.40927 1.35839 3.20166C2.50345 2.95079 3.64805 2.6994 4.79311 2.44801C7.99003 1.7469 11.1865 1.04527 14.3835 0.344115C14.523 0.313505 14.663 0.282849 14.8026 0.252239C14.9917 0.210896 15.1808 0.169083 15.3705 0.127786C15.9034 0.0111145 16.4324 0.153568 16.8268 0.47349C17.1098 0.702005 17.3232 1.02197 17.418 1.40218C17.4209 1.41385 17.4238 1.42599 17.4272 1.43766C17.6334 2.26135 17.8571 3.07965 18.0982 3.89213C18.3909 4.87721 18.7089 5.85357 19.0522 6.82069C20.1652 9.95832 21.5437 12.9958 23.172 15.901Z" fill="#F2F2F2"/>
<path d="M18.0981 3.89213L13.4094 16.8676L12.399 11.5268L14.8025 0.252239C14.9916 0.210896 15.1808 0.169083 15.3704 0.127786C15.9033 0.0111145 16.4323 0.153568 16.8267 0.47349C17.1097 0.702005 17.3231 1.02197 17.4179 1.40218C17.4208 1.41385 17.4237 1.42599 17.4271 1.43766C17.6333 2.2613 17.8569 3.07965 18.0981 3.89213Z" fill="#D5D4E2"/>
<path d="M23.172 15.901C21.5567 20.5645 17.1257 23.9126 11.9129 23.9126C10.003 23.9126 8.1981 23.4633 6.59793 22.6645C6.07814 21.6716 5.58074 20.6676 5.10571 19.6533C5.57929 19.984 6.07767 20.281 6.59793 20.5407C8.1981 21.3396 10.003 21.7888 11.9129 21.7888C16.6604 21.7888 20.7598 19.0115 22.6736 14.9928C22.837 15.2972 23.0033 15.5996 23.172 15.901Z" fill="#D5D4E2"/>
<path d="M3.74403 8.85294C3.43091 8.85294 3.14146 8.64969 3.04616 8.33446C2.92963 7.94887 3.14764 7.5418 3.53324 7.42527L16.0779 3.6327C16.4637 3.51617 16.8706 3.73423 16.9871 4.11978C17.1036 4.50538 16.8856 4.91244 16.5 5.02897L3.95535 8.82154C3.88499 8.84277 3.81392 8.85294 3.74403 8.85294Z" fill="#D5D4E2"/>
<path d="M5.5922 13.229C5.29764 13.229 5.02023 13.0493 4.90989 12.7574C4.76743 12.3806 4.95732 11.9597 5.33411 11.8172L16.9063 7.44116C17.283 7.29866 17.704 7.48859 17.8465 7.86538C17.989 8.24216 17.7991 8.6631 17.4223 8.80555L5.85006 13.1816C5.76507 13.2137 5.67789 13.229 5.5922 13.229Z" fill="#D5D4E2"/>
<path d="M7.75613 17.9453C7.48177 17.9453 7.21894 17.7897 7.095 17.5248C6.92433 17.1599 7.08174 16.7258 7.44661 16.5551L14.6185 13.2001C14.9833 13.0294 15.4175 13.1868 15.5882 13.5517C15.7588 13.9166 15.6014 14.3507 15.2366 14.5214L8.06471 17.8764C7.96477 17.9231 7.85963 17.9453 7.75613 17.9453Z" fill="#D5D4E2"/>
<path d="M18.8982 13.2799L16.2209 15.0301L13.4098 16.8676L13.3137 13.5106L13.2224 10.3134L14.5272 10.3705L18.0346 10.5251L18.8982 13.2799Z" fill="#D5D4E2"/>
<path d="M13.4098 16.8676L13.3137 13.5106L13.2224 10.3134L14.5272 10.3705L15.0771 11.6332L13.4098 16.8676Z" fill="#CBCBD3"/>
<path d="M23.8742 3.7598L22.7321 5.94474L17.0564 2.97811L18.1984 0.793176C18.4812 0.252192 19.1488 0.0429417 19.6898 0.325645L23.4066 2.26838C23.9476 2.55118 24.1569 3.21886 23.8742 3.7598Z" fill="#DF7709"/>
<path d="M23.8742 3.75991L22.7322 5.94485L18.7893 3.88399L19.9313 1.69905C20.2141 1.15811 20.8818 0.948817 21.4227 1.23152L23.4067 2.26849C23.9476 2.55129 24.1569 3.21897 23.8742 3.75991Z" fill="#FF8300"/>
<path d="M22.706 5.99492L18.8983 13.2799C18.1147 12.8704 17.1472 13.1736 16.7376 13.9572C17.1472 13.1736 16.844 12.2061 16.0604 11.7966C15.2768 11.387 14.3093 11.6903 13.8998 12.4738C14.3093 11.6903 14.0061 10.7228 13.2225 10.3132L17.0303 3.0282L22.706 5.99492Z" fill="#247D09"/>
<path d="M22.7059 5.99496L18.8982 13.28C18.1146 12.8704 17.1471 13.1737 16.7376 13.9572C17.1471 13.1737 16.8439 12.2062 16.0603 11.7966L19.8681 4.5116L22.7059 5.99496Z" fill="#3FBA19"/>
<path d="M21.2869 5.25326L16.7375 13.9572C17.1471 13.1737 16.8438 12.2062 16.0603 11.7966C15.2767 11.3871 14.3092 11.6903 13.8997 12.4739L18.4491 3.7699L21.2869 5.25326Z" fill="#27A600"/>
<path d="M23.0574 6.1787C22.9702 6.34548 22.8242 6.46093 22.6582 6.51296C22.4923 6.56499 22.3064 6.55351 22.1397 6.46637L16.9662 3.76234C16.6332 3.58829 16.5045 3.17762 16.6785 2.84457C16.7657 2.67779 16.9117 2.56234 17.0777 2.5103C17.2436 2.45827 17.4295 2.46976 17.5963 2.5569L22.7697 5.26098C23.1027 5.43498 23.2315 5.8457 23.0574 6.1787Z" fill="#CBCBD3"/>
<path d="M23.0574 6.17875C22.9702 6.34553 22.8241 6.46098 22.6582 6.51302C22.4922 6.56505 22.3063 6.55356 22.1396 6.46642L18.5232 4.57618C18.1902 4.40213 18.0615 3.99146 18.2355 3.65841C18.3227 3.49163 18.4688 3.37618 18.6347 3.32415C18.8006 3.27212 18.9865 3.2836 19.1533 3.37074L22.7697 5.26098C23.1027 5.43503 23.2315 5.84575 23.0574 6.17875Z" fill="#D5D4E2"/>
<path d="M16.2209 15.0301L13.4098 16.8676L13.3137 13.5106C13.6853 13.4995 14.0628 13.5505 14.4293 13.6679C14.6113 13.7258 14.7904 13.8004 14.9652 13.8917C15.4932 14.1676 15.917 14.5643 16.2209 15.0301Z" fill="#454A5B"/>
<path d="M13.4098 16.8677L13.3137 13.5108C13.6853 13.4997 14.0628 13.5506 14.4293 13.668L13.4098 16.8677Z" fill="#33384A"/>
</g>
<defs>
<clipPath id="clip0">
<rect width="24" height="24" fill="white"/>
</clipPath>
</defs>
</svg>
