<svg width="32" height="32" viewBox="0 0 32 32" fill="none" xmlns="http://www.w3.org/2000/svg">
<g clip-path="url(#clip0)">
<path d="M20.2728 32.0001H5.05703C3.36383 32.0001 1.99121 30.6275 1.99121 28.9343V10.0514C1.99121 8.35822 3.36383 6.9856 5.05703 6.9856H20.2728C21.966 6.9856 23.3387 8.35822 23.3387 10.0514V28.9343C23.3387 30.6275 21.966 32.0001 20.2728 32.0001Z" fill="#27A600"/>
<path d="M18.4679 18.5063H6.86149C6.45664 18.5063 6.12842 18.1781 6.12842 17.7732C6.12842 17.3683 6.45664 17.0402 6.86149 17.0402H18.468C18.8728 17.0402 19.2011 17.3683 19.2011 17.7732C19.201 18.1781 18.8728 18.5063 18.4679 18.5063Z" fill="#EFC534"/>
<path d="M18.4679 22.6178H6.86149C6.45664 22.6178 6.12842 22.2895 6.12842 21.8847C6.12842 21.4798 6.45664 21.1516 6.86149 21.1516H18.468C18.8728 21.1516 19.2011 21.4798 19.2011 21.8847C19.201 22.2895 18.8728 22.6178 18.4679 22.6178Z" fill="#EFC534"/>
<path d="M18.4679 26.729H6.86149C6.45664 26.729 6.12842 26.4008 6.12842 25.9959C6.12842 25.591 6.45664 25.2628 6.86149 25.2628H18.468C18.8728 25.2628 19.2011 25.591 19.2011 25.9959C19.201 26.4008 18.8728 26.729 18.4679 26.729Z" fill="#EFC534"/>
<path d="M4.69043 4.65428C4.69043 8.82741 8.29285 11.5754 11.4192 13.2715C12.196 13.6929 13.1342 13.6929 13.911 13.2715C17.0373 11.5754 20.6398 8.82741 20.6398 4.65428C20.6398 2.08376 18.556 0 15.9855 0C14.6851 0 13.5096 0.533482 12.6651 1.39328C11.8206 0.533482 10.645 0 9.34471 0C6.77419 0 4.69043 2.08376 4.69043 4.65428Z" fill="#FF8300"/>
<path opacity="0.4" d="M7.06294 7.92955C7.58877 7.92955 8.01503 7.58699 8.01503 7.16442C8.01503 6.74185 7.58877 6.39929 7.06294 6.39929C6.53711 6.39929 6.11084 6.74185 6.11084 7.16442C6.11084 7.58699 6.53711 7.92955 7.06294 7.92955Z" fill="#EFC5DB"/>
<path opacity="0.4" d="M18.2675 7.92955C18.7934 7.92955 19.2196 7.58699 19.2196 7.16442C19.2196 6.74185 18.7934 6.39929 18.2675 6.39929C17.7417 6.39929 17.3154 6.74185 17.3154 7.16442C17.3154 7.58699 17.7417 7.92955 18.2675 7.92955Z" fill="#EFC5DB"/>
<path d="M8.69562 7.16443C9.73833 7.16443 10.5836 6.31914 10.5836 5.27643C10.5836 4.23371 9.73833 3.38843 8.69562 3.38843C7.6529 3.38843 6.80762 4.23371 6.80762 5.27643C6.80762 6.31914 7.6529 7.16443 8.69562 7.16443Z" fill="white"/>
<path d="M16.6351 7.16443C17.6778 7.16443 18.5231 6.31914 18.5231 5.27643C18.5231 4.23371 17.6778 3.38843 16.6351 3.38843C15.5924 3.38843 14.7471 4.23371 14.7471 5.27643C14.7471 6.31914 15.5924 7.16443 16.6351 7.16443Z" fill="white"/>
<path d="M8.69554 6.4017C9.31698 6.4017 9.82076 5.89792 9.82076 5.27647C9.82076 4.65503 9.31698 4.15125 8.69554 4.15125C8.07409 4.15125 7.57031 4.65503 7.57031 5.27647C7.57031 5.89792 8.07409 6.4017 8.69554 6.4017Z" fill="#3B3B44"/>
<path d="M16.6355 6.4017C17.2569 6.4017 17.7607 5.89792 17.7607 5.27647C17.7607 4.65503 17.2569 4.15125 16.6355 4.15125C16.014 4.15125 15.5103 4.65503 15.5103 5.27647C15.5103 5.89792 16.014 6.4017 16.6355 6.4017Z" fill="#3B3B44"/>
<path d="M12.6655 7.22445C12.331 7.22445 11.9964 7.09805 11.7236 6.84505C11.5945 6.72533 11.5869 6.52371 11.7066 6.39462C11.8262 6.26554 12.0279 6.25796 12.157 6.37754C12.4564 6.65521 12.8746 6.65509 13.174 6.37754C13.3031 6.25796 13.5047 6.26554 13.6244 6.39462C13.7441 6.52371 13.7365 6.72533 13.6074 6.84505C13.3345 7.09805 12.9999 7.22445 12.6655 7.22445Z" fill="#3B3B44"/>
<path d="M29.7668 14.7132L28.0841 13.0305C27.7612 12.7076 27.2378 12.7076 26.9149 13.0305L24.9556 14.9898L27.8075 17.8417L29.7668 15.8824C30.0897 15.5595 30.0897 15.036 29.7668 14.7132Z" fill="#4E5660"/>
<path d="M20.6399 25.9665L16.8311 22.1577L15.0006 26.0678C14.7685 26.5636 14.8718 27.1517 15.2589 27.5388C15.6459 27.9258 16.234 28.0291 16.7298 27.797L20.6399 25.9665Z" fill="#FFDD00"/>
<path d="M19.0746 25.8165L16.9811 23.723C16.3527 23.0945 16.3527 22.0755 16.9811 21.4471L23.7773 14.6509C24.4057 14.0224 25.4247 14.0224 26.0532 14.6509L28.1467 16.7444C28.7751 17.3729 28.7751 18.3918 28.1467 19.0203L21.3506 25.8165C20.722 26.4449 19.7031 26.4449 19.0746 25.8165Z" fill="#3B5CAD"/>
<path d="M23.0088 24.1646L22.6703 23.8261C22.2173 23.3731 22.2173 22.6385 22.6703 22.1855L26.1499 18.7059C26.4616 18.3943 26.9669 18.3943 27.2786 18.7059L28.1289 19.5563C28.4406 19.868 28.4406 20.3733 28.1289 20.685L24.6494 24.1646C24.1964 24.6176 23.4619 24.6176 23.0088 24.1646Z" fill="#27A600"/>
</g>
<defs>
<clipPath id="clip0">
<rect width="32" height="32" fill="white"/>
</clipPath>
</defs>
</svg>
