<svg width="29" height="31" viewBox="0 0 29 31" fill="none" xmlns="http://www.w3.org/2000/svg">
<path d="M27.6637 22.5107L23.7689 18.3083C22.3779 16.8075 19.8978 17.2925 19.248 19.1502C18.7648 20.4351 17.2914 21.1032 16.0011 20.7645C13.1367 19.9317 9.37545 16.0239 8.76783 12.96C8.38348 11.6421 9.30597 10.2292 10.6238 9.84486C12.5255 9.33789 13.1972 6.90178 11.8062 5.40091L7.9114 1.1985C6.7931 0.142403 5.05798 0.07649 4.00737 1.0502L1.15573 3.69311C-1.7014 6.48062 1.04395 14.2594 7.58169 21.3135C14.1194 28.3675 21.662 31.8398 24.6638 29.0577L27.5154 26.4148C28.5716 25.2965 28.6375 23.5613 27.6637 22.5107Z" fill="white"/>
</svg>
