<svg width="32" height="32" viewBox="0 0 32 32" fill="none" xmlns="http://www.w3.org/2000/svg">
<g clip-path="url(#clip0)">
<path d="M15.0449 2.36719H16.3104V5.99942H15.0449V2.36719Z" fill="#3B5CAD"/>
<path d="M15.6665 2.36719H16.9542V5.99942H15.6665V2.36719Z" fill="#3B5CAD"/>
<path d="M20.4854 1.89609H17.75C17.4833 1.89609 17.2671 1.67988 17.2671 1.41319C17.2671 1.14651 17.4833 0.930298 17.75 0.930298H20.4854C20.7522 0.930298 20.9683 1.14651 20.9683 1.41319C20.9683 1.67988 20.7522 1.89609 20.4854 1.89609Z" fill="#3B5CAD"/>
<path d="M17.2346 2.69708L15.3029 2.82585H14.7645C14.4089 2.82585 14.1206 2.53759 14.1206 2.18199V0.643863C14.1206 0.288258 14.4089 0 14.7645 0H15.3029L17.2346 0.128773C17.5902 0.128773 17.7497 0.288258 17.7497 0.643863V2.18199C17.7497 2.53759 17.5902 2.69708 17.2346 2.69708Z" fill="#3B5CAD"/>
<path d="M15.9998 31.9355C15.674 31.9355 15.3522 31.9846 15.0349 31.9549C9.36732 31.423 5.16438 26.253 5.95259 20.4861L6.89656 13.5789C7.47501 9.34683 10.8772 6.11663 15.045 5.6846C15.3592 5.65202 15.6777 5.69973 15.9997 5.69973C20.5931 5.69973 23.8369 9.0278 24.459 13.5789L25.403 20.4861C26.2353 26.5758 22.146 31.9355 15.9998 31.9355Z" fill="#27A600"/>
<path d="M15.9992 24.5529C15.6703 24.5529 15.3478 24.6571 15.0333 24.6098C11.632 24.0982 9.16541 20.9266 9.64708 17.4023L10.2439 13.0354C10.593 10.4814 12.5686 8.50463 15.039 8.09243C15.352 8.04021 15.6728 8.14188 15.9992 8.14188C18.9034 8.14188 21.2325 10.1579 21.6258 13.0354L22.2226 17.4023C22.7489 21.2523 19.8851 24.5529 15.9992 24.5529Z" fill="#FFDD00"/>
<path d="M16 22.1489C15.7333 22.1489 15.5171 21.9327 15.5171 21.666C15.5171 21.3993 15.7333 21.1831 16 21.1831C16.2667 21.1831 16.4829 21.3993 16.4829 21.666C16.4829 21.9327 16.2667 22.1489 16 22.1489Z" fill="#90BAC4"/>
<path d="M15.9995 32.0001C15.673 32.0001 15.3511 31.9847 15.0337 31.9551C20.701 31.4226 24.9028 26.253 24.1154 20.4866L23.1708 13.5792C22.8599 11.3038 21.7325 9.31747 20.1086 7.90098C18.7153 6.68472 16.9563 5.88761 15.0337 5.68673C15.3511 5.65325 15.6737 5.63586 15.9995 5.63586C18.2962 5.63586 20.4164 6.48383 22.0402 7.90098C23.664 9.31747 24.7915 11.3038 25.1024 13.5792L26.047 20.4866C26.8789 26.5762 22.1458 32.0001 15.9995 32.0001Z" fill="#2B920C"/>
<path d="M17.8782 0.643863V2.18205C17.8782 2.53746 17.5898 2.82592 17.2343 2.82592H15.3027C15.6581 2.82592 15.9466 2.53746 15.9466 2.18205V0.643863C15.9466 0.288451 15.6581 0 15.3027 0H17.2343C17.5898 0 17.8782 0.288451 17.8782 0.643863Z" fill="#3B5CAD"/>
<path d="M15.9995 24.6819C15.6705 24.6819 15.3479 24.6575 15.0337 24.6098C18.4352 24.0986 20.9019 20.9269 20.4203 17.4024L19.8234 13.0357C19.627 11.5973 18.9136 10.3412 17.8873 9.44555C17.0934 8.75211 16.1109 8.27372 15.0337 8.09343C15.1908 8.06704 15.3502 8.04695 15.5112 8.03343C15.6723 8.0199 15.8353 8.07734 15.9995 8.07734C16.1619 8.07734 16.323 8.01965 16.4825 8.03285C17.748 8.13747 18.9074 8.64954 19.8189 9.44555C20.8452 10.3412 21.5586 11.5973 21.755 13.0357L22.3519 17.4024C22.8779 21.2527 19.8852 24.6819 15.9995 24.6819Z" fill="#EFC534"/>
<path d="M16.4829 8.03342V11.1516C16.4829 11.4188 16.2665 11.6345 16 11.6345C15.7334 11.6345 15.5171 11.4188 15.5171 11.1516V8.03342C15.6761 8.01926 15.8377 8.01282 16 8.01282C16.1622 8.01282 16.3238 8.01926 16.4829 8.03342Z" fill="#3B5CAD"/>
</g>
<defs>
<clipPath id="clip0">
<rect width="32" height="32" fill="white"/>
</clipPath>
</defs>
</svg>
