<svg width="32" height="30" viewBox="0 0 32 30" fill="none" xmlns="http://www.w3.org/2000/svg">
<path d="M30.5937 10.238H25.4209V7.42651H30.5937C31.3701 7.42651 31.9994 8.05589 31.9994 8.83226C31.9994 9.60857 31.3701 10.238 30.5937 10.238Z" fill="#13B81A"/>
<path d="M25.4209 10.238H29.8462V8.83226C29.8462 8.35376 29.8214 7.88432 29.7743 7.42651H25.421V10.238H25.4209Z" fill="#0BAB12"/>
<path d="M8.68799 17.6647H21.1084V10.2413L14.3676 8.83228L8.68799 17.6647Z" fill="#EFC534"/>
<path d="M14.3676 8.83231V27.6224C14.3676 27.9982 14.7917 28.2175 15.0983 28.0001L16.4606 27.0341C16.6211 26.9204 16.8358 26.9204 16.9962 27.0341L18.8215 28.3284C18.9819 28.4421 19.1967 28.4421 19.3571 28.3284L21.1821 27.0342C21.3425 26.9204 21.5572 26.9204 21.7177 27.0342L23.5427 28.3284C23.7031 28.4421 23.9179 28.4421 24.0783 28.3284L25.9032 27.0342C26.0636 26.9204 26.2784 26.9204 26.4388 27.0342L27.8007 28C28.1072 28.2174 28.5315 27.9982 28.5315 27.6224V8.83231C28.5317 3.95437 25.9888 0 22.8521 0H8.68799L14.3676 8.83231Z" fill="#FFDD00"/>
<path d="M22.8526 0H20.9927C24.1294 0 26.6723 3.95438 26.6723 8.83231V27.3333L27.8014 28.134C28.1079 28.3515 28.5322 28.1322 28.5322 27.7564V8.83231C28.5322 3.95438 25.9893 0 22.8526 0Z" fill="#EFC534"/>
<path d="M8.68792 17.6646C11.8247 17.6646 14.3675 13.7103 14.3675 8.83231C14.3675 3.95436 11.8247 0 8.68792 0C5.55116 0 3.0083 3.95436 3.0083 8.83231C3.0083 13.7103 5.55116 17.6646 8.68792 17.6646Z" fill="#EFC534"/>
<path d="M8.68881 12.9323C10.1449 12.9323 11.3254 11.0966 11.3254 8.83224C11.3254 6.56784 10.1449 4.73218 8.68881 4.73218C7.23268 4.73218 6.05225 6.56784 6.05225 8.83224C6.05225 11.0966 7.23268 12.9323 8.68881 12.9323Z" fill="#D1B420"/>
<path d="M11.1658 7.42664H1.40575C0.629375 7.42664 0 8.05601 0 8.83239C0 9.60876 0.629375 10.2381 1.40575 10.2381H11.1658C11.2687 9.79964 11.3249 9.32626 11.3249 8.83239C11.3249 8.33851 11.2688 7.86514 11.1658 7.42664Z" fill="#13B81A"/>
<path d="M11.1666 7.4302C11.1664 7.42901 11.1661 7.42782 11.1658 7.42664H9.89502C9.99802 7.86514 10.0545 8.33839 10.0545 8.83239C10.0545 9.32639 9.99796 9.79964 9.89502 10.2381H11.1658C11.2733 9.77989 11.325 9.28895 11.325 8.83239C11.325 8.34832 11.2676 7.86157 11.1666 7.4302Z" fill="#0BAB12"/>
<path d="M14.754 19.7753H14.3676C14.1009 19.7753 13.8848 19.5591 13.8848 19.2924C13.8848 19.0257 14.101 18.8096 14.3676 18.8096H14.754C15.0207 18.8096 15.2368 19.0258 15.2368 19.2924C15.2368 19.5592 15.0207 19.7753 14.754 19.7753Z" fill="#365E7D"/>
<path d="M26.071 19.7753H25.3166C25.0498 19.7753 24.8337 19.5591 24.8337 19.2924C24.8337 19.0257 25.0499 18.8096 25.3166 18.8096H26.071C26.3378 18.8096 26.5539 19.0258 26.5539 19.2924C26.5539 19.5592 26.3378 19.7753 26.071 19.7753ZM23.2418 19.7753H22.4874C22.2207 19.7753 22.0046 19.5591 22.0046 19.2924C22.0046 19.0257 22.2208 18.8096 22.4874 18.8096H23.2418C23.5086 18.8096 23.7247 19.0258 23.7247 19.2924C23.7247 19.5592 23.5085 19.7753 23.2418 19.7753ZM20.4126 19.7753H19.6582C19.3914 19.7753 19.1753 19.5591 19.1753 19.2924C19.1753 19.0257 19.3915 18.8096 19.6582 18.8096H20.4126C20.6794 18.8096 20.8955 19.0258 20.8955 19.2924C20.8956 19.5592 20.6794 19.7753 20.4126 19.7753ZM17.5835 19.7753H16.8291C16.5623 19.7753 16.3462 19.5591 16.3462 19.2924C16.3462 19.0257 16.5624 18.8096 16.8291 18.8096H17.5835C17.8503 18.8096 18.0664 19.0258 18.0664 19.2924C18.0664 19.5592 17.8502 19.7753 17.5835 19.7753Z" fill="#365E7D"/>
<path d="M28.5318 19.7753H28.1455C27.8787 19.7753 27.6626 19.5591 27.6626 19.2924C27.6626 19.0257 27.8788 18.8096 28.1455 18.8096H28.5318C28.7985 18.8096 29.0147 19.0258 29.0147 19.2924C29.0147 19.5592 28.7985 19.7753 28.5318 19.7753Z" fill="#365E7D"/>
</svg>
