<svg width="24" height="24" viewBox="0 0 24 24" fill="none" xmlns="http://www.w3.org/2000/svg">
<g clip-path="url(#clip0)">
<path d="M11.9996 23.9998L11.9996 -0.000244141C5.37221 -0.00024472 -0.000367443 5.37233 -0.000368023 11.9998C-0.000368602 18.6272 5.37221 23.9998 11.9996 23.9998Z" fill="#2C920D"/>
<path d="M1.93158 12C1.93158 18.6274 6.43941 24 12 24C18.6274 24 24 18.6274 24 12C24 5.37258 18.6274 -4.69686e-07 12 -1.04907e-06C6.43941 -1.5352e-06 1.93158 5.37258 1.93158 12Z" fill="#27A600"/>
<path d="M4.9737 14.9933L6.42237 14.9933L7.87109 11.9993L6.42237 9.00538L4.9737 9.00538L4.9737 14.9933Z" fill="#DEF1FF"/>
<path d="M14.486 14.9932L14.486 17.1663L19.6531 11.9993L14.486 6.83229L14.486 9.00532L6.42167 9.00532L6.42167 14.9932L14.486 14.9932Z" fill="white"/>
</g>
<defs>
<clipPath id="clip0">
<rect width="24" height="24" fill="white" transform="translate(24 24) rotate(-180)"/>
</clipPath>
</defs>
</svg>
