<svg width="30" height="30" viewBox="0 0 30 30" fill="none" xmlns="http://www.w3.org/2000/svg">
<g clip-path="url(#clip0)">
<path d="M15 30C23.2843 30 30 23.2843 30 15C30 6.71573 23.2843 0 15 0C6.71573 0 0 6.71573 0 15C0 23.2843 6.71573 30 15 30Z" fill="#FF8181"/>
<path d="M30.0001 14.9999C30.0001 23.2874 23.2829 29.9999 15.0001 29.9999C10.2844 29.9999 6.07505 27.8249 3.32349 24.4171C5.89692 26.4984 9.17349 27.7406 12.7407 27.7406C21.0235 27.7406 27.7407 21.0281 27.7407 12.7406C27.7407 9.17336 26.4985 5.8968 24.4172 3.32336C27.8204 6.07493 30.0001 10.2843 30.0001 14.9999Z" fill="#F45D5C"/>
<path d="M12.9506 14.5639C12.9506 16.1642 11.4346 17.458 9.56805 17.458C7.70149 17.458 6.18555 16.1642 6.18555 14.5639C6.18555 14.2452 6.24273 13.9386 6.36367 13.6517C6.80617 14.8892 8.07555 15.312 9.56805 15.312C11.0615 15.312 12.3309 14.8892 12.7724 13.6517C12.8924 13.9395 12.9506 14.2452 12.9506 14.5639Z" fill="#3E4347"/>
<path d="M17.0493 14.5639C17.0493 16.1642 18.5653 17.458 20.4318 17.458C22.2984 17.458 23.8143 16.1642 23.8143 14.5639C23.8143 14.2452 23.7571 13.9386 23.6362 13.6517C23.1937 14.8892 21.9243 15.312 20.4318 15.312C18.9384 15.312 17.669 14.8892 17.2274 13.6517C17.1074 13.9395 17.0493 14.2452 17.0493 14.5639Z" fill="#3E4347"/>
<path d="M21.8765 12.7585C19.4971 12.2691 18.1012 11.2669 17.4834 9.60286C17.3634 9.27942 17.5284 8.91942 17.8518 8.79942C18.1753 8.67942 18.5353 8.84442 18.6553 9.16786C18.9637 10.0004 19.6378 11.0213 22.1278 11.5332C22.4662 11.6025 22.6837 11.9335 22.6143 12.271C22.544 12.616 22.2074 12.8279 21.8765 12.7585Z" fill="#3E4347"/>
<path d="M7.37711 12.2232C7.33586 11.8801 7.57961 11.5688 7.9218 11.5276C9.64211 11.3185 10.8571 10.4813 11.3437 9.17068C11.4637 8.84724 11.8237 8.6813 12.1471 8.80224C12.4705 8.92224 12.6365 9.28224 12.5156 9.60568C11.8677 11.3513 10.2487 12.5044 8.07367 12.7688C7.72586 12.8091 7.4193 12.5626 7.37711 12.2232Z" fill="#3E4347"/>
<path d="M19.8966 23.7751C16.5638 22.4935 13.4447 22.4935 10.111 23.7751C9.60287 23.9598 9.19037 23.2679 9.54006 22.816C11.0879 20.7873 13.0322 19.6342 15.0001 19.6342C16.9679 19.6342 18.9207 20.7873 20.4601 22.816C20.8088 23.2679 20.3963 23.9589 19.8966 23.7751Z" fill="#3E4347"/>
</g>
<defs>
<clipPath id="clip0">
<rect width="30" height="30" fill="white"/>
</clipPath>
</defs>
</svg>
