<svg width="32" height="32" viewBox="0 0 32 32" fill="none" xmlns="http://www.w3.org/2000/svg">
<path d="M14.73 8.80036C14.1917 8.30997 13.9104 8.03981 13.2484 7.93607C13.1774 7.92496 12.8643 7.57031 12.878 7.49982C13.1198 6.25633 12.6192 5.66989 11.5693 4.81273C10.4992 3.93917 7.79014 3.67741 7.76648 3.60648C7.54883 2.95353 6.89455 2.7408 6.30136 2.28947C4.8088 1.15389 3.3161 0.800942 2.07672 2.20857C0.738126 3.7289 0.939179 6.04203 2.49422 7.31151C3.60361 8.2172 5.09523 8.34051 6.30288 7.75054C6.49642 8.41945 6.88748 9.03864 7.46774 9.51238C8.01095 9.95588 8.64598 10.211 9.29438 10.2876C8.99457 11.5677 9.41958 12.9652 10.5066 13.8527C12.0634 15.1236 14.3734 14.8556 15.5941 13.235C16.6893 11.781 16.0758 10.0265 14.73 8.80036Z" fill="#27A600"/>
<path d="M15.5936 13.2351C15.3199 13.5985 14.9913 13.8942 14.6284 14.1189C15.5213 12.6857 15.2766 10.774 14.0087 9.61843C13.4703 9.12841 12.8279 8.83662 12.1661 8.73268C12.0951 8.7217 12.0467 8.65329 12.0602 8.58287C12.3023 7.33944 11.8698 6.00628 10.82 5.14887C9.75028 4.27536 8.3241 4.1301 7.14075 4.64983C7.07235 4.68018 6.9929 4.64466 6.96904 4.57366C6.75146 3.92096 6.34216 3.32247 5.74884 2.87121C4.54157 1.95252 2.94886 1.91251 1.72803 2.67558C1.82937 2.51353 1.94561 2.35728 2.07668 2.20879C3.31557 0.801355 5.3976 0.594117 6.89022 1.7297C7.48291 2.18096 7.89284 2.77945 8.11043 3.43215C8.13365 3.50314 8.21373 3.53867 8.28214 3.50895C9.46555 2.98858 10.891 3.13448 11.9614 4.00799C13.0112 4.8647 13.4437 6.19787 13.2016 7.44129C13.1881 7.51166 13.2365 7.58013 13.3069 7.59111C13.9693 7.69504 14.6117 7.98684 15.1494 8.47685C16.4955 9.70362 16.6892 11.7812 15.5936 13.2351Z" fill="#279406"/>
<path d="M12.5196 12.568L7.56396 17.6549L19.0527 28.142L22.089 25.0247C21.7863 24.5198 21.8001 23.8467 22.2977 23.3256C22.4656 23.1498 22.6904 23.0332 22.9352 22.9862C23.3947 22.8979 23.7067 22.9649 23.9695 23.0943L28.4697 18.4745C28.4697 18.4745 28.115 16.4385 28.0146 16.5255C27.3499 17.1021 26.2233 17.1397 25.3971 16.3772C25.1378 16.1379 24.7863 15.7408 24.7304 15.4018C24.6339 14.8171 24.4426 14.3754 24.7386 14.0107C24.8255 13.9036 18.5817 8.06786 18.5817 8.06786C18.4788 7.9739 17.8229 7.53998 17.7256 7.63982L16.9264 8.04363L15.248 9.76684C15.1608 9.85639 15.1506 9.99528 15.2233 10.0969C15.7146 10.7835 15.7305 11.7631 14.9952 12.4973C14.7022 12.7898 14.2976 12.9573 13.8714 12.972C13.3351 12.9905 12.8748 12.8339 12.5196 12.568Z" fill="#FF8300"/>
<path d="M29.4133 17.5058L28.4695 18.4742C28.4617 18.4167 28.4333 18.3618 28.3862 18.3192L27.359 17.3922C27.2589 17.3018 27.1085 17.3024 27.0071 17.3896C26.3357 17.9635 25.2304 18.0255 24.3886 17.2579C24.1245 17.0171 23.947 16.7001 23.8889 16.3598C23.7882 15.7736 23.9438 15.2765 24.242 14.9124C24.3298 14.8059 24.3214 14.6502 24.2181 14.5567L17.0759 8.11027C17.0333 8.07153 16.9803 8.04894 16.9268 8.04376L17.9365 7.00694C18.034 6.90686 18.1928 6.90238 18.2954 6.99596L25.3093 13.3984C25.4113 13.4914 25.4184 13.6464 25.3319 13.7535C25.0355 14.1183 24.88 14.6154 24.9762 15.2003C25.0323 15.5393 25.206 15.855 25.4649 16.0945C26.2913 16.8569 27.3824 16.7898 28.0467 16.2132C28.1474 16.1261 28.2959 16.1241 28.394 16.2139L29.4024 17.1345C29.5102 17.2333 29.5154 17.4012 29.4133 17.5058Z" fill="#EA7800"/>
<path d="M21.0148 21.9275C22.2705 21.9275 23.2884 20.9096 23.2884 19.6539C23.2884 18.3982 22.2705 17.3802 21.0148 17.3802C19.7591 17.3802 18.7412 18.3982 18.7412 19.6539C18.7412 20.9096 19.7591 21.9275 21.0148 21.9275Z" fill="#EA7800"/>
<path d="M18.5817 14.3449C19.4542 14.3449 20.1615 13.6376 20.1615 12.7651C20.1615 11.8926 19.4542 11.1853 18.5817 11.1853C17.7092 11.1853 17.002 11.8926 17.002 12.7651C17.002 13.6376 17.7092 14.3449 18.5817 14.3449Z" fill="#EA7800"/>
<path d="M6.29079 4.82502L8.6366 1.12043C8.7153 0.996172 8.79405 1.76991 8.9349 1.81219C9.26412 1.91095 11.5365 5.23401 10.22 7.31307C8.85508 9.46856 5.95822 10.1191 3.80273 8.75427L6.29079 4.82502Z" fill="#3B5CAD"/>
<path d="M10.22 7.31294C9.88302 7.84492 9.45302 8.28521 8.96364 8.6261C9.00365 8.56994 9.04176 8.51245 9.07855 8.45439C10.3795 6.39943 9.84939 3.67044 7.92871 2.23852L8.63631 1.12036C8.71507 0.996418 8.88293 0.96089 9.00239 1.04678C10.978 2.46507 11.5364 5.23407 10.22 7.31294Z" fill="#2148A9"/>
<path d="M27.5896 20.436C25.2144 20.436 23.2886 22.3613 23.2886 24.737C23.2886 27.1122 25.2144 29.0381 27.5896 29.0381C29.9647 29.0381 31.8906 27.1122 31.8906 24.737C31.8906 22.3613 29.9647 20.436 27.5896 20.436ZM27.5896 27.3027C26.1725 27.3027 25.0233 26.1542 25.0233 24.7371C25.0233 23.3194 26.1724 22.1708 27.5896 22.1708C29.0067 22.1708 30.1559 23.3193 30.1559 24.7371C30.1558 26.1541 29.0067 27.3027 27.5896 27.3027Z" fill="#27A600"/>
<path d="M1.16208 31.0015C0.520303 31.0015 0 30.4812 0 29.8394C0 29.8394 6.31053e-05 2.6997 0.000189316 2.69225C0.0177957 1.69652 1.5505 2.1108 1.76575 2.28131L31.0686 29.123C31.3978 29.4358 31.9036 30.9829 30.8584 31.0013C30.8509 31.0014 1.16208 31.0015 1.16208 31.0015Z" fill="#F8E98E"/>
<path d="M30.8584 31.0007C30.8662 30.6895 30.7499 30.3706 30.4788 30.1226L0.804891 2.99826C0.565344 2.77941 0.27872 2.68513 0.000488281 2.69226C0.0179053 1.69672 1.20649 1.18026 1.94634 1.85688L31.6196 28.982C32.3969 29.6921 31.9037 30.9826 30.8584 31.0007Z" fill="#F6CB43"/>
</svg>
