<svg width="32" height="32" viewBox="0 0 32 32" fill="none" xmlns="http://www.w3.org/2000/svg">
<circle cx="16" cy="16" r="15.5" fill="white" stroke="#C4CDD4"/>
<path d="M10.7483 9C9.78869 9 9 9.78869 9 10.7483V21.2509C9 22.2104 9.78869 22.9991 10.7483 22.9991H21.2509C22.2104 22.9991 22.9991 22.2104 22.9991 21.2509V14.8348C22.9991 13.9333 22.6419 13.0651 22.0044 12.4277L19.5715 9.99471C18.934 9.35726 18.0702 9 17.1687 9H10.7483ZM10.7483 10.167H17.1687C17.7612 10.167 18.3257 10.4025 18.7447 10.8215L21.1777 13.2544C21.5966 13.6734 21.8322 14.2423 21.8322 14.8348V21.2509C21.8322 21.5799 21.5799 21.8322 21.2509 21.8322H10.7483C10.4192 21.8322 10.167 21.5799 10.167 21.2509V10.7483C10.167 10.4192 10.4192 10.167 10.7483 10.167Z" fill="#27A600"/>
<path d="M13.0823 16.583C13.0057 16.5833 12.9299 16.5986 12.8592 16.6282C12.7885 16.6578 12.7243 16.701 12.6703 16.7554C12.6163 16.8098 12.5736 16.8743 12.5445 16.9452C12.5155 17.0161 12.5007 17.092 12.501 17.1686V22.4178H13.6679V17.75H18.3314V22.4178H19.4984V17.1686C19.4987 17.092 19.4839 17.0161 19.4548 16.9452C19.4258 16.8743 19.383 16.8098 19.329 16.7554C19.2751 16.701 19.2109 16.6578 19.1402 16.6282C19.0695 16.5986 18.9937 16.5833 18.9171 16.583H13.0823Z" fill="#27A600"/>
</svg>
