<svg width="32" height="32" viewBox="0 0 32 32" fill="none" xmlns="http://www.w3.org/2000/svg">
<path d="M27.7958 6.38123H3.8288C1.91946 6.38123 0.371582 7.92904 0.371582 9.83844V21.1658C0.371582 23.0751 1.91946 24.623 3.8288 24.623H27.7959C29.7052 24.623 31.2531 23.0752 31.2531 21.1658V9.83844C31.253 7.92911 29.7052 6.38123 27.7958 6.38123Z" fill="#3B5CAD"/>
<path d="M15.877 3.17976C13.1031 3.17976 11.2823 2.82805 10.177 2.49297C9.12775 2.17485 7.99023 2.56206 7.36573 3.46312C6.13961 5.23222 4.54736 8.65633 4.54736 14.5093H27.2067C27.2067 8.26218 22.1242 3.17976 15.877 3.17976Z" fill="#262626"/>
<path d="M8.4205 14.049C8.4205 9.46358 10.7492 5.43537 14.2612 3.13683C12.3739 3.03333 11.0513 2.758 10.177 2.49297C9.12775 2.17485 7.99023 2.56206 7.36573 3.46312C6.13961 5.23222 4.54736 8.65633 4.54736 14.5093H8.42929C8.42407 14.3565 8.4205 14.2032 8.4205 14.049Z" fill="#1F1F1F"/>
<path d="M25.0238 17.273C26.5501 17.273 27.7874 16.0357 27.7874 14.5094C27.7874 12.9831 26.5501 11.7458 25.0238 11.7458C23.4975 11.7458 22.2603 12.9831 22.2603 14.5094C22.2603 16.0357 23.4975 17.273 25.0238 17.273Z" fill="#FFCABD"/>
<path d="M22.7178 8.63954C22.2687 8.11668 21.5475 7.91209 20.8892 8.11655C16.0483 9.6202 15.2709 7.23897 11.534 7.51451C10.4095 7.59741 9.37662 8.16407 8.69444 9.06198C7.51673 10.6121 6.82926 12.5548 6.86353 14.6596C6.94292 19.5338 10.9375 23.4895 15.8122 23.5236C20.8204 23.5587 24.8913 19.5094 24.8913 14.5094C24.8914 12.2672 24.0725 10.2166 22.7178 8.63954Z" fill="#FFDCCE"/>
<path d="M11.0437 14.8855C10.4516 14.8855 9.88854 14.629 9.49886 14.1819C9.31192 13.9674 9.33431 13.6421 9.54879 13.4552C9.76327 13.2682 10.0885 13.2906 10.2755 13.5051C10.4695 13.7277 10.7495 13.8553 11.0438 13.8553C11.3381 13.8553 11.618 13.7276 11.812 13.5051C11.999 13.2906 12.3242 13.2682 12.5388 13.4552C12.7532 13.642 12.7756 13.9674 12.5887 14.1819C12.199 14.629 11.6358 14.8855 11.0437 14.8855Z" fill="#423E4F"/>
<path d="M20.5808 14.8855C19.9888 14.8855 19.4257 14.629 19.036 14.1819C18.849 13.9674 18.8714 13.6421 19.0859 13.4552C19.3004 13.2682 19.6257 13.2906 19.8127 13.5051C20.0066 13.7277 20.2866 13.8553 20.5809 13.8553C20.8752 13.8553 21.1551 13.7276 21.3491 13.5051C21.5361 13.2906 21.8613 13.2682 22.0759 13.4552C22.2903 13.642 22.3127 13.9674 22.1258 14.1819C21.736 14.629 21.1729 14.8855 20.5808 14.8855Z" fill="#423E4F"/>
<path d="M15.8122 16.3758C16.306 16.3758 16.7064 15.9489 16.7064 15.4222C16.7064 14.8955 16.306 14.4685 15.8122 14.4685C15.3183 14.4685 14.918 14.8955 14.918 15.4222C14.918 15.9489 15.3183 16.3758 15.8122 16.3758Z" fill="#423E4F"/>
<path d="M4.41797 23.9615H27.2065V29.8667H4.41797V23.9615Z" fill="#27A600"/>
<path d="M26.0522 21.3334H4.96071C3.98842 21.3334 3.2002 22.1216 3.2002 23.0939V24.5223C3.2002 25.4946 3.98842 26.2829 4.96071 26.2829H26.0522C27.0245 26.2829 27.8127 25.4946 27.8127 24.5223V23.0939C27.8127 22.1216 27.0245 21.3334 26.0522 21.3334Z" fill="#289906"/>
<path d="M6.26318 22.419C6.26318 23.9751 7.52914 25.2409 9.08512 25.2409H11.5468C13.1028 25.2409 14.3688 23.9751 14.3688 22.419C14.3688 22.0981 14.3302 21.7863 14.2594 21.4868H6.37259C6.30178 21.7863 6.26318 22.0981 6.26318 22.419Z" fill="#268509"/>
<path d="M10.3163 20.0831C9.02624 20.0831 7.98047 21.1289 7.98047 22.419C7.98047 23.0293 8.47516 23.524 9.08544 23.524H11.5472C12.1574 23.524 12.6521 23.0293 12.6521 22.419C12.6521 21.129 11.6063 20.0831 10.3163 20.0831Z" fill="#FFCABD"/>
<path d="M17.2563 22.419C17.2563 23.9751 18.5223 25.2409 20.0783 25.2409H22.54C24.096 25.2409 25.3619 23.9751 25.3619 22.419C25.3619 22.0981 25.3233 21.7863 25.2525 21.4868H17.3658C17.2949 21.7863 17.2563 22.0981 17.2563 22.419Z" fill="#268509"/>
<path d="M21.3085 20.0831C22.5986 20.0831 23.6443 21.1289 23.6443 22.419C23.6443 23.0293 23.1496 23.524 22.5394 23.524H20.0776C19.4674 23.524 18.9727 23.0293 18.9727 22.419C18.9727 21.129 20.0184 20.0831 21.3085 20.0831Z" fill="#FFCABD"/>
<path d="M11.2912 22.262C9.4977 20.0277 8.42068 17.1673 8.42068 14.049C8.42068 11.8753 8.94476 9.82723 9.86932 8.02881C9.41803 8.28903 9.01695 8.63806 8.69477 9.06208C8.07282 9.88066 7.58781 10.8089 7.2734 11.8125C7.11661 11.7693 6.93729 11.7458 6.73036 11.7458C5.20404 11.7458 3.9668 12.9832 3.9668 14.5094C3.9668 16.0357 5.20411 17.273 6.73036 17.273C6.93887 17.273 7.11929 17.2491 7.27697 17.2054C7.9505 19.3401 9.40052 21.1369 11.2912 22.262Z" fill="#FFCABD"/>
</svg>
