<svg width="32" height="32" viewBox="0 0 32 32" fill="none" xmlns="http://www.w3.org/2000/svg">
<path d="M14.9336 3.2C14.9336 3.78907 15.4111 4.26669 16.0003 4.26669C16.5894 4.26669 17.067 3.78913 17.067 3.2V1.06669C17.067 0.477553 16.5894 0 16.0003 0C15.4111 0 14.9336 0.477553 14.9336 1.06669V3.2Z" fill="#FFDD00"/>
<path d="M14.9336 30.9322C14.9336 31.5213 15.4111 31.9988 16.0003 31.9988C16.5894 31.9988 17.067 31.5213 17.067 30.9322V28.7989C17.067 28.2098 16.5894 27.7322 16.0003 27.7322C15.4111 27.7322 14.9336 28.2097 14.9336 28.7989V30.9322Z" fill="#FFDD00"/>
<path d="M28.7996 14.9329C28.2105 14.9329 27.7329 15.4104 27.7329 15.9996C27.7329 16.5887 28.2105 17.0662 28.7996 17.0662H30.9329C31.522 17.0662 31.9996 16.5887 31.9996 15.9996C31.9996 15.4104 31.522 14.9329 30.9329 14.9329H28.7996Z" fill="#FFDD00"/>
<path d="M1.06669 14.9329C0.477553 14.9329 0 15.4104 0 15.9996C0 16.5887 0.477553 17.0662 1.06669 17.0662H3.2C3.78907 17.0662 4.26669 16.5887 4.26669 15.9996C4.26669 15.4104 3.78913 14.9329 3.2 14.9329H1.06669Z" fill="#FFDD00"/>
<path d="M15.9999 25.5997C21.3018 25.5997 25.5999 21.3016 25.5999 15.9997C25.5999 10.6977 21.3018 6.39966 15.9999 6.39966C10.698 6.39966 6.3999 10.6977 6.3999 15.9997C6.3999 21.3016 10.698 25.5997 15.9999 25.5997Z" fill="#27A600"/>
<path d="M24.2968 6.19423C23.8802 6.61081 23.8802 7.28616 24.2968 7.70274C24.7134 8.11932 25.3887 8.11932 25.8053 7.70274L27.3138 6.19423C27.7304 5.77765 27.7304 5.10231 27.3138 4.68573C26.8972 4.26915 26.2219 4.26915 25.8053 4.68573L24.2968 6.19423Z" fill="#FFDD00"/>
<path d="M4.68646 25.8052C4.26988 26.2218 4.26988 26.8971 4.68646 27.3137C5.10304 27.7303 5.77839 27.7303 6.19497 27.3137L7.70347 25.8052C8.12005 25.3886 8.12005 24.7133 7.70347 24.2967C7.28689 23.8801 6.61155 23.8801 6.19497 24.2967L4.68646 25.8052Z" fill="#FFDD00"/>
<path d="M25.8053 24.2967C25.3887 23.8801 24.7134 23.8801 24.2968 24.2967C23.8802 24.7133 23.8802 25.3886 24.2968 25.8052L25.8053 27.3137C26.2219 27.7303 26.8972 27.7303 27.3138 27.3137C27.7304 26.8971 27.7304 26.2218 27.3138 25.8052L25.8053 24.2967Z" fill="#FFDD00"/>
<path d="M6.19497 4.68573C5.77839 4.26915 5.10304 4.26915 4.68646 4.68573C4.26988 5.10231 4.26988 5.77765 4.68646 6.19423L6.19497 7.70274C6.61155 8.11932 7.28689 8.11932 7.70347 7.70274C8.12005 7.28616 8.12005 6.61081 7.70347 6.19423L6.19497 4.68573Z" fill="#FFDD00"/>
</svg>
