<svg width="32" height="32" viewBox="0 0 32 32" fill="none" xmlns="http://www.w3.org/2000/svg">
<g clip-path="url(#clip0)">
<path d="M24.8552 16.811C24.8552 21.7158 20.8789 25.6919 15.9744 25.6919C11.0696 25.6919 7.09326 21.7158 7.09326 16.811C7.09326 11.9062 11.0696 7.93018 15.9744 7.93018C20.8789 7.93018 24.8552 11.9062 24.8552 16.811Z" fill="#27A600"/>
<path d="M24.8552 16.8108C24.8552 21.7158 20.8794 25.6917 15.9746 25.6917C11.0696 25.6917 7.09375 21.7158 7.09375 16.8108C7.09375 15.1934 7.52637 13.6772 8.28223 12.3708C9.81714 15.0254 12.6875 16.8108 15.9746 16.8108C19.2615 16.8108 22.1318 15.0254 23.6667 12.3708C24.4226 13.6772 24.8552 15.1934 24.8552 16.8108Z" fill="#279406"/>
<path d="M15.9741 5.31616C15.7073 5.31616 15.4912 5.09985 15.4912 4.83325V2.92041C15.4912 2.65356 15.7073 2.4375 15.9741 2.4375C16.2407 2.4375 16.4568 2.65381 16.4568 2.92041V4.83325C16.4568 5.09985 16.2407 5.31616 15.9741 5.31616Z" fill="#FF8300"/>
<path d="M9.98527 6.92088C9.81828 6.92088 9.65592 6.83421 9.56657 6.67943L8.61027 5.02269C8.47673 4.79198 8.55607 4.49657 8.78703 4.36327C9.01799 4.22997 9.31315 4.30882 9.44645 4.54003L10.403 6.19652C10.5363 6.42748 10.4572 6.72289 10.2262 6.85619C10.1501 6.89989 10.0671 6.92088 9.98527 6.92088Z" fill="#FF8300"/>
<path d="M5.6004 11.3052C5.51861 11.3052 5.4356 11.2842 5.35943 11.2403L3.70294 10.284C3.47198 10.1504 3.39288 9.85528 3.52618 9.62432C3.65948 9.39337 3.95489 9.31426 4.18585 9.44756L5.84234 10.4041C6.0733 10.5374 6.1524 10.8326 6.0191 11.0635C5.92974 11.2186 5.76739 11.3052 5.6004 11.3052Z" fill="#FF8300"/>
<path d="M29.8645 17.2939H27.9517C27.6848 17.2939 27.4688 17.0776 27.4688 16.811C27.4688 16.5444 27.6848 16.3281 27.9517 16.3281H29.8645C30.1311 16.3281 30.3472 16.5444 30.3472 16.811C30.3472 17.0776 30.1311 17.2939 29.8645 17.2939Z" fill="#FF8300"/>
<path d="M3.99609 17.2939H2.0835C1.81665 17.2939 1.60059 17.0776 1.60059 16.811C1.60059 16.5444 1.81665 16.3281 2.0835 16.3281H3.99609C4.26294 16.3281 4.479 16.5444 4.479 16.811C4.479 17.0776 4.26294 17.2939 3.99609 17.2939Z" fill="#FF8300"/>
<path d="M26.3471 11.3052C26.1804 11.3052 26.018 11.2186 25.9287 11.0635C25.7951 10.8326 25.8742 10.5374 26.1054 10.4041L27.7619 9.44756C27.9929 9.31426 28.2883 9.39337 28.4216 9.62432C28.5549 9.85528 28.4758 10.1507 28.2449 10.284L26.5884 11.2403C26.5122 11.2842 26.4292 11.3052 26.3471 11.3052Z" fill="#FF8300"/>
<path d="M21.9625 6.92087C21.8807 6.92087 21.7977 6.89988 21.7215 6.85618C21.4905 6.72263 21.4114 6.42747 21.5447 6.19651L22.501 4.54001C22.6343 4.30881 22.9297 4.22971 23.1607 4.36325C23.3916 4.49655 23.4707 4.79197 23.3374 5.02268L22.3812 6.67942C22.2918 6.8342 22.1294 6.92087 21.9625 6.92087Z" fill="#FF8300"/>
<path d="M32 20.126V28.3044C32 29.0156 31.4233 29.5923 30.7122 29.5923H1.28784C0.57666 29.592 0 29.0156 0 28.3044V20.126C0 19.7705 0.28833 19.4822 0.643799 19.4822H31.3562C31.7117 19.4822 32 19.7705 32 20.126Z" fill="#4F73CB"/>
<path d="M32 24.666V28.3044C32 29.0156 31.4233 29.5923 30.7122 29.5923H1.28784C0.57666 29.592 0 29.0156 0 28.3044V24.666H32Z" fill="#3B5CAD"/>
<path d="M32 20.126V21.5781H0V20.126C0 19.7705 0.28833 19.4822 0.643799 19.4822H31.3562C31.7117 19.4822 32 19.7705 32 20.126Z" fill="#7091E1"/>
<path d="M24.4463 19.4822C24.2112 20.2285 23.8804 20.9314 23.4683 21.5779C22.6414 22.8752 21.4863 23.9436 20.1201 24.666C18.8826 25.3208 17.4712 25.6917 15.9744 25.6917C14.4773 25.6917 13.0659 25.3208 11.8286 24.666C10.4622 23.9436 9.30713 22.8755 8.48047 21.5779C8.06836 20.9314 7.73755 20.2283 7.50244 19.4822H24.4463Z" fill="#F6CB43"/>
<path d="M20.1199 24.666C18.8823 25.3208 17.4709 25.6917 15.9741 25.6917C14.4771 25.6917 13.0657 25.3208 11.8281 24.666H20.1199Z" fill="#FAB03C"/>
<path d="M24.446 19.4822C24.2109 20.2285 23.8801 20.9314 23.468 21.5779H8.47998C8.06812 20.9314 7.73706 20.2283 7.50195 19.4822H24.446Z" fill="#F8E98E"/>
<path d="M13.415 23.21H5.58301C5.31641 23.21 5.1001 22.9939 5.1001 22.7271C5.1001 22.4604 5.31641 22.2441 5.58301 22.2441H13.415C13.6816 22.2441 13.8979 22.4604 13.8979 22.7271C13.8979 22.9939 13.6816 23.21 13.415 23.21Z" fill="#FFDD00"/>
<path d="M23.9802 23.6929H18.7046C18.4377 23.6929 18.2217 23.4768 18.2217 23.21C18.2217 22.9434 18.4377 22.7271 18.7046 22.7271H23.9802C24.2468 22.7271 24.4631 22.9434 24.4631 23.21C24.4631 23.4768 24.2468 23.6929 23.9802 23.6929Z" fill="#F6CB43"/>
<path d="M26.791 26.4851H25.1406C24.874 26.4851 24.6577 26.269 24.6577 26.0022C24.6577 25.7356 24.874 25.5195 25.1406 25.5195H26.7913C27.0579 25.5195 27.2742 25.7356 27.2742 26.0022C27.2742 26.269 27.0579 26.4851 26.791 26.4851Z" fill="#FFDD00"/>
</g>
<defs>
<clipPath id="clip0">
<rect width="32" height="32" fill="white"/>
</clipPath>
</defs>
</svg>
