<svg width="30" height="30" viewBox="0 0 30 30" fill="none" xmlns="http://www.w3.org/2000/svg">
<g clip-path="url(#clip0)">
<path d="M29.9998 15.0005L-0.000244141 15.0005C-0.000244503 23.2848 6.71548 30.0005 14.9998 30.0005C23.284 30.0005 29.9998 23.2848 29.9998 15.0005Z" fill="#2C920D"/>
<path d="M15 27.5855C23.2843 27.5855 30 21.9507 30 15C30 6.71572 23.2843 -2.93554e-07 15 -6.55671e-07C6.71572 -1.01779e-06 -2.93554e-07 6.71572 -6.55671e-07 15C-9.59498e-07 21.9507 6.71572 27.5855 15 27.5855Z" fill="#27A600"/>
<path d="M18.7417 23.783L18.7417 21.9722L14.9993 20.1613L11.2568 21.9722L11.2568 23.783L18.7417 23.783Z" fill="#DEF1FF"/>
<path d="M18.7416 11.8924L21.4579 11.8924L14.9992 5.43359L8.54042 11.8924L11.2567 11.8924L11.2567 21.9729L18.7416 21.9729L18.7416 11.8924Z" fill="white"/>
</g>
<defs>
<clipPath id="clip0">
<rect width="30" height="30" fill="white" transform="translate(30) rotate(90)"/>
</clipPath>
</defs>
</svg>
