<svg width="44" height="44" viewBox="0 0 44 44" fill="none" xmlns="http://www.w3.org/2000/svg">
<path d="M22 20.2207C26.4107 20.2207 30 16.6314 30 12.2207C30 7.81004 26.4107 4.2207 22 4.2207C17.5893 4.2207 14 7.81004 14 12.2207C14 16.6314 17.5893 20.2207 22 20.2207ZM22 7.77626C24.4516 7.77626 26.4444 9.76915 26.4444 12.2207C26.4444 14.6723 24.4516 16.6651 22 16.6651C19.5502 16.6651 17.5556 14.6723 17.5556 12.2207C17.5556 9.76915 19.5502 7.77626 22 7.77626Z" fill="#C4CDD4"/>
<path d="M39.3391 37.6029C37.4902 29.4607 30.3595 23.7754 22.0004 23.7754C13.6395 23.7754 6.51062 29.4625 4.66351 37.6029C4.44662 38.5612 5.04574 39.5141 6.00396 39.7309C6.95862 39.9443 7.91329 39.3469 8.13018 38.3905C9.60751 31.8803 15.3106 27.3309 22.0004 27.3309C28.6884 27.3309 34.3933 31.8803 35.8706 38.3923C36.0573 39.2172 36.7915 39.7754 37.6022 39.7754C37.7319 39.7754 37.8635 39.7612 37.9986 39.7327C38.9551 39.5141 39.556 38.5612 39.3391 37.6029V37.6029Z" fill="#C4CDD4"/>
</svg>
