<svg width="549" height="323" viewBox="0 0 549 323" fill="none" xmlns="http://www.w3.org/2000/svg">
<path d="M118.679 241.19C66.4799 245.583 35.81 231.041 27 223.221V80.9657L122.809 100.931L344.16 71.482L511 61V163.324C411.061 163.324 183.928 235.7 118.679 241.19Z" fill="#71E47D"/>
<path d="M118.679 201.19C66.4799 205.583 35.81 191.041 27 183.221V40.9657L122.809 60.9313L344.16 31.482L511 21V75.9056C411.061 75.9056 183.928 195.7 118.679 201.19Z" fill="#E2E22B"/>
<path d="M118.712 181.19C66.494 185.582 35.8132 171.043 27 163.225V21H512C412.026 21 183.985 175.701 118.712 181.19Z" fill="#FC696A" stroke="#FC6A68"/>
<path d="M133.71 94.3891C135.13 93.837 135.532 92.6509 135.097 91.5324C134.732 90.5929 133.794 90.069 132.952 90.2546C133.601 89.8353 133.939 88.9829 133.574 88.0434C133.187 87.0479 132.107 86.4245 130.687 86.9766L126.761 88.5025L129.661 95.9628L133.71 94.3891ZM131.501 90.0977L129.51 90.8716L128.88 89.2498L130.871 88.4759C131.408 88.2673 131.878 88.4836 132.06 88.9533C132.243 89.4231 132.038 89.8891 131.501 90.0977ZM132.761 93.1742L130.714 93.9698L130.04 92.2361L132.087 91.4406C132.714 91.1971 133.206 91.4693 133.388 91.9391C133.597 92.476 133.365 92.9395 132.761 93.1742Z" fill="#824243"/>
<path d="M138.553 83.4945L137.244 84.0031L136.371 86.1963L137.367 85.8094L138.553 83.4945ZM139.635 92.2406C140.474 91.9146 141.224 91.3269 141.569 90.6261L140.587 89.9524C140.37 90.4227 139.811 90.8718 139.352 91.0501C138.435 91.4066 137.665 91.0491 137.311 90.4016L141.326 88.841L141.204 88.5278C140.518 86.7606 138.952 85.9787 137.341 86.6047C135.697 87.2437 135.036 88.9554 135.645 90.5213C136.319 92.2549 137.991 92.8797 139.635 92.2406ZM139.577 88.4138L136.915 89.4484C136.773 88.8855 136.897 88.0778 137.78 87.7343C138.72 87.3692 139.343 87.9123 139.577 88.4138Z" fill="#824243"/>
<path d="M145.784 89.8507C147.573 89.1552 148.143 87.4404 147.543 85.8969C146.947 84.3646 145.369 83.4845 143.579 84.18C141.801 84.8712 141.232 86.586 141.827 88.1184C142.427 89.6619 144.005 90.542 145.784 89.8507ZM145.292 88.5869C144.409 88.9303 143.634 88.3946 143.304 87.5445C142.978 86.7056 143.187 85.7873 144.071 85.4439C144.954 85.1005 145.74 85.6319 146.066 86.4707C146.397 87.3208 146.176 88.2434 145.292 88.5869Z" fill="#824243"/>
<path d="M155.649 86.0161C157.036 85.477 157.639 84.0456 156.939 82.2448C156.239 80.444 154.832 79.8063 153.445 80.3454C152.786 80.6019 152.306 81.1231 152.096 81.8096L151.831 81.1273L150.411 81.6794L153.31 89.1397L154.731 88.5876L153.661 85.8362C154.315 86.2258 155.012 86.2639 155.649 86.0161ZM154.711 84.9261C154.252 85.1043 153.618 85.029 153.253 84.7848L152.509 82.8722C152.609 82.4341 153.031 81.9614 153.489 81.7831C154.306 81.4658 155.102 81.8903 155.462 82.8186C155.828 83.7582 155.527 84.6087 154.711 84.9261Z" fill="#824243"/>
<path d="M164.109 82.5735L162.618 78.7371C162.209 77.6858 161.387 77.2587 160.201 77.7196C159.318 78.063 158.812 78.7489 158.626 79.2975L157.552 76.5348L156.132 77.0869L159.031 84.5472L160.452 83.9951L159.039 80.36C159.159 79.94 159.473 79.4573 160.021 79.2443C160.636 79.0052 161.119 79.0879 161.411 79.8373L162.689 83.1256L164.109 82.5735Z" fill="#824243"/>
<path d="M166.94 81.4733L164.84 76.071L163.42 76.6231L165.519 82.0254L166.94 81.4733ZM164.523 75.2545L162.387 74.2308L161.089 74.7351L163.527 75.6415L164.523 75.2545Z" fill="#824243"/>
<path d="M362.911 98.3127L360.012 90.8522L358.423 91.4695L360.245 96.156L354.967 92.8126L353.334 93.4472L356.233 100.908L357.822 100.29L355.931 95.4249L361.379 98.9082L362.911 98.3127Z" fill="#57571D"/>
<path d="M367.415 99.0857C368.746 98.5684 370.139 97.4479 369.339 95.3898L367.383 90.3565L365.951 90.9129L366.221 91.6064C365.571 91.2278 364.881 91.1742 364.232 91.4264C362.868 91.9567 362.232 93.3365 362.919 95.1037C363.619 96.9045 365.018 97.4554 366.371 96.9294C367.031 96.673 367.491 96.1338 367.707 95.4317L367.92 95.9798C368.333 97.0423 367.645 97.6573 366.963 97.9225C366.281 98.1876 365.636 98.2191 365.013 97.9077L364.775 99.1845C365.688 99.5122 366.487 99.4465 367.415 99.0857ZM366.327 95.4916C365.522 95.8046 364.745 95.4627 364.385 94.5343C364.024 93.606 364.366 92.8294 365.171 92.5164C365.641 92.3338 366.255 92.3912 366.629 92.6578L367.307 94.4027C367.207 94.8407 366.797 95.3091 366.327 95.4916Z" fill="#57571D"/>
<path d="M375.958 93.2424L373.859 87.84L372.438 88.392L373.859 92.0495C373.735 92.4583 373.416 92.9298 372.868 93.1428C372.264 93.3776 371.777 93.2836 371.486 92.5342L370.212 89.257L368.792 89.809L370.283 93.6455C370.691 94.6969 371.503 95.1283 372.688 94.6676C373.572 94.3242 374.064 93.6694 374.272 93.1121L374.538 93.7944L375.958 93.2424Z" fill="#57571D"/>
<path d="M378 94.8821C378.196 94.8573 378.567 94.7518 378.735 94.6866C379.655 94.3034 380.266 93.7568 380.273 92.5825L380.369 85.3097L378.837 85.9052L378.888 90.2111L376.018 87.0006L374.497 87.5918L378.819 92.2205L378.796 92.7573C378.775 93.1003 378.568 93.2966 378.199 93.44C378.065 93.4922 377.862 93.5325 377.717 93.5244L378 94.8821Z" fill="#57571D"/>
<path d="M388.534 88.5098C389.641 88.0794 390.125 87.3377 390.287 86.6952L389.024 86.1948C388.906 86.6527 388.602 87.0285 388.11 87.2198C387.248 87.5545 386.397 87.1516 386.031 86.2121C385.666 85.2725 386.027 84.4114 386.888 84.0768C387.38 83.8855 387.85 83.9347 388.255 84.215L388.844 82.9818C388.295 82.6287 387.437 82.4086 386.33 82.8389C384.663 83.4866 383.923 85.1261 384.566 86.7815C385.214 88.4481 386.867 89.1574 388.534 88.5098Z" fill="#57571D"/>
<path d="M394.703 79.1084C394.499 78.5827 394.046 78.4111 393.677 78.5546C393.33 78.6893 393.175 79.0845 393.305 79.42C393.44 79.7667 393.762 79.8992 394.064 79.7818C394.12 79.7601 394.194 79.7185 394.212 79.6986C394.252 79.9664 394.155 80.3131 394.012 80.5746C393.378 80.37 392.661 80.3786 391.9 80.6742C390.122 81.3653 389.552 83.08 390.148 84.6124C390.748 86.1559 392.326 87.0361 394.104 86.345C395.894 85.6495 396.463 83.9348 395.863 82.3912C395.598 81.7089 395.138 81.154 394.544 80.8183C394.841 80.2909 394.921 79.6677 394.703 79.1084ZM393.613 85.0811C392.729 85.4245 391.955 84.8887 391.624 84.0386C391.298 83.1997 391.508 82.2815 392.391 81.9381C393.275 81.5947 394.061 82.1261 394.387 82.965C394.717 83.8151 394.496 84.7377 393.613 85.0811Z" fill="#57571D"/>
<path d="M401.578 81.2906L400.834 79.378C400.93 78.9287 401.352 78.456 401.81 78.2778C402.638 77.9561 403.434 78.3807 403.799 79.3202C404.164 80.2598 403.859 81.0991 403.032 81.4208C402.573 81.599 401.947 81.5461 401.578 81.2906ZM402.251 83.0243L401.982 82.3308C402.616 82.7025 403.321 82.763 403.97 82.5109C405.335 81.9806 405.964 80.5516 405.264 78.7508C404.577 76.9836 403.142 76.3054 401.766 76.84C401.129 77.0878 400.634 77.6021 400.421 78.3154L399.352 75.5638L397.932 76.1159L400.831 83.5763L402.251 83.0243Z" fill="#57571D"/>
<path d="M408.894 71.4307L407.586 71.9393L406.713 74.1324L407.708 73.7456L408.894 71.4307ZM409.976 80.1769C410.815 79.8509 411.565 79.2633 411.91 78.5625L410.928 77.8888C410.711 78.3591 410.152 78.8082 409.693 78.9864C408.776 79.3428 408.007 78.9854 407.652 78.3379L411.667 76.7774L411.546 76.4642C410.859 74.697 409.293 73.9149 407.683 74.5409C406.038 75.1798 405.377 76.8915 405.986 78.4574C406.66 80.1911 408.332 80.8159 409.976 80.1769ZM409.918 76.3501L407.256 77.3846C407.114 76.8217 407.238 76.014 408.122 75.6706C409.061 75.3054 409.684 75.8486 409.918 76.3501Z" fill="#57571D"/>
<path d="M416.125 77.7874C417.914 77.0919 418.484 75.3772 417.884 73.8336C417.288 72.3013 415.711 71.4211 413.921 72.1166C412.142 72.8077 411.573 74.5224 412.168 76.0548C412.768 77.5983 414.346 78.4785 416.125 77.7874ZM415.634 76.5235C414.75 76.8669 413.975 76.3311 413.645 75.481C413.319 74.6422 413.528 73.7239 414.412 73.3805C415.296 73.0371 416.082 73.5685 416.408 74.4074C416.738 75.2575 416.517 76.1801 415.634 76.5235Z" fill="#57571D"/>
<path d="M425.991 73.9533C427.378 73.4143 427.98 71.9829 427.28 70.1821C426.581 68.3813 425.174 67.7434 423.787 68.2824C423.127 68.5389 422.647 69.0601 422.438 69.7466L422.173 69.0643L420.752 69.6163L423.651 77.0768L425.072 76.5248L424.003 73.7732C424.656 74.163 425.353 74.201 425.991 73.9533ZM425.052 72.8632C424.594 73.0414 423.959 72.9661 423.594 72.7218L422.851 70.8092C422.951 70.3712 423.372 69.8984 423.831 69.7202C424.647 69.4029 425.443 69.8275 425.804 70.7558C426.169 71.6954 425.869 72.5459 425.052 72.8632Z" fill="#57571D"/>
<path d="M434.451 70.5112L432.96 66.6747C432.551 65.6233 431.729 65.1962 430.543 65.657C429.659 66.0004 429.153 66.6862 428.967 67.2348L427.894 64.4721L426.473 65.0241L429.373 72.4846L430.793 71.9325L429.38 68.2974C429.5 67.8774 429.815 67.3947 430.363 67.1817C430.978 66.9426 431.461 67.0254 431.752 67.7748L433.03 71.0632L434.451 70.5112Z" fill="#57571D"/>
<path d="M437.281 69.4111L435.182 64.0087L433.761 64.5607L435.861 69.9631L437.281 69.4111ZM434.865 63.1922L432.729 62.1683L431.431 62.6726L433.869 63.5791L434.865 63.1922Z" fill="#57571D"/>
<path d="M336.434 158.817C338.447 158.034 339.02 156.627 338.49 155.263C337.407 152.478 333.432 154.937 332.971 153.751C332.798 153.304 333.06 152.854 333.743 152.589C334.503 152.293 335.409 152.237 336.23 152.562L336.661 151.055C335.658 150.66 334.535 150.684 333.349 151.145C331.593 151.828 330.919 153.274 331.402 154.516C332.493 157.323 336.436 154.748 336.949 156.068C337.114 156.493 336.845 157.06 335.973 157.4C334.944 157.799 333.949 157.658 333.211 157.315L332.819 158.857C333.786 159.292 335.002 159.373 336.434 158.817Z" fill="#357236"/>
<path d="M341.98 147.494L340.671 148.003L339.799 150.196L340.794 149.809L341.98 147.494ZM345.471 155.15L343.714 150.631C344.162 149.994 344.24 149.268 344.018 148.698C343.814 148.172 343.372 147.996 342.992 148.144C342.645 148.279 342.49 148.674 342.62 149.009C342.755 149.356 343.066 149.493 343.379 149.371C343.435 149.349 343.509 149.308 343.527 149.288C343.563 149.48 343.525 149.714 343.445 149.938L343.371 149.748L341.95 150.3L343.372 153.957C343.248 154.366 342.929 154.838 342.381 155.051C341.777 155.285 341.29 155.191 340.998 154.442L339.725 151.165L338.304 151.717L339.795 155.553C340.204 156.605 341.015 157.036 342.201 156.575C343.084 156.232 343.577 155.577 343.785 155.02L344.05 155.702L345.471 155.15Z" fill="#357236"/>
<path d="M349.45 153.758C350.557 153.327 351.041 152.586 351.204 151.943L349.94 151.443C349.822 151.901 349.518 152.277 349.026 152.468C348.164 152.803 347.313 152.4 346.947 151.46C346.582 150.521 346.943 149.66 347.804 149.325C348.296 149.134 348.766 149.183 349.171 149.463L349.76 148.23C349.211 147.877 348.353 147.657 347.246 148.087C345.579 148.735 344.839 150.374 345.482 152.03C346.13 153.696 347.783 154.406 349.45 153.758Z" fill="#357236"/>
<path d="M360.604 149.268L357.252 147.172L358.437 143.892L356.692 144.57L355.58 147.77L353.845 143.308L352.425 143.86L355.324 151.32L356.745 150.768L356.206 149.381L356.585 148.435L358.825 149.959L360.604 149.268Z" fill="#357236"/>
<path d="M366.388 147.02L364.897 143.184C364.488 142.132 363.666 141.705 362.48 142.166C361.596 142.509 361.09 143.195 360.905 143.744L359.831 140.981L358.41 141.533L361.31 148.994L362.73 148.442L361.318 144.806C361.438 144.386 361.752 143.904 362.3 143.691C362.915 143.452 363.398 143.534 363.689 144.284L364.967 147.572L366.388 147.02Z" fill="#357236"/>
<path d="M370.356 145.632C372.145 144.937 372.715 143.222 372.115 141.678C371.519 140.146 369.941 139.266 368.152 139.962C366.373 140.653 365.804 142.368 366.399 143.9C366.999 145.443 368.577 146.323 370.356 145.632ZM369.864 144.368C368.981 144.712 368.206 144.176 367.876 143.326C367.55 142.487 367.759 141.569 368.643 141.225C369.526 140.882 370.312 141.413 370.638 142.252C370.969 143.102 370.748 144.025 369.864 144.368ZM367.406 139.17C367.399 138.954 367.474 138.783 367.676 138.704C367.844 138.639 368.039 138.679 368.139 138.936C368.209 139.115 368.216 139.332 368.124 139.56L368.739 139.321C368.782 139.099 368.777 138.92 368.685 138.685C368.464 138.115 367.959 138.041 367.489 138.224C367.064 138.389 366.815 138.743 366.842 139.209L367.406 139.17Z" fill="#357236"/>
<path d="M376.812 143.123C377.651 142.797 378.401 142.209 378.746 141.508L377.763 140.835C377.547 141.305 376.988 141.754 376.529 141.932C375.612 142.289 374.842 141.931 374.488 141.284L378.503 139.723L378.381 139.41C377.694 137.643 376.129 136.861 374.518 137.487C372.874 138.126 372.213 139.838 372.822 141.404C373.496 143.137 375.168 143.762 376.812 143.123ZM376.753 139.296L374.091 140.331C373.95 139.768 374.074 138.96 374.957 138.617C375.897 138.251 376.52 138.795 376.753 139.296Z" fill="#357236"/>
<path d="M388.41 138.461L385.51 131L384.078 131.557L385.148 134.308C384.51 133.925 383.797 133.88 383.159 134.128C381.784 134.663 381.183 136.132 381.87 137.9C382.57 139.7 383.999 140.329 385.364 139.799C386.012 139.547 386.492 139.026 386.708 138.324L386.978 139.017L388.41 138.461ZM385.309 138.366C384.503 138.679 383.696 138.258 383.335 137.33C382.97 136.391 383.282 135.536 384.087 135.223C384.568 135.036 385.182 135.093 385.556 135.36L386.3 137.272C386.204 137.721 385.789 138.179 385.309 138.366Z" fill="#357236"/>
<path d="M388.197 131.655C388.667 131.473 388.899 130.945 388.717 130.475C388.534 130.005 388.01 129.784 387.541 129.966C387.082 130.145 386.834 130.666 387.017 131.136C387.199 131.605 387.738 131.834 388.197 131.655ZM391.239 137.361L389.139 131.959L387.718 132.511L389.818 137.913L391.239 137.361Z" fill="#357236"/>
<path d="M397.714 134.844L396.231 131.03C395.823 129.979 394.992 129.529 393.806 129.99C392.922 130.334 392.428 131.015 392.242 131.564L391.968 130.859L390.547 131.411L392.647 136.814L394.068 136.261L392.655 132.626C392.764 132.211 393.078 131.728 393.637 131.511C394.241 131.276 394.733 131.381 395.024 132.13L396.293 135.396L397.714 134.844Z" fill="#357236"/>
<path d="M404.202 132.322L402.711 128.486C402.302 127.435 401.48 127.008 400.294 127.468C399.411 127.812 398.905 128.498 398.719 129.046L397.645 126.284L396.225 126.836L399.124 134.296L400.545 133.744L399.132 130.109C399.252 129.689 399.566 129.206 400.114 128.993C400.73 128.754 401.212 128.837 401.504 129.586L402.782 132.874L404.202 132.322Z" fill="#357236"/>
<path d="M413.619 128.662L410.72 121.202L409.288 121.758L410.357 124.51C409.719 124.127 409.007 124.082 408.369 124.33C406.993 124.865 406.393 126.334 407.08 128.101C407.78 129.902 409.209 130.531 410.573 130.001C411.222 129.748 411.702 129.227 411.918 128.525L412.188 129.219L413.619 128.662ZM410.518 128.567C409.713 128.88 408.906 128.46 408.545 127.532C408.18 126.592 408.491 125.737 409.297 125.424C409.777 125.237 410.392 125.295 410.766 125.561L411.509 127.474C411.414 127.923 410.999 128.38 410.518 128.567Z" fill="#357236"/>
<path d="M420.095 126.145L418.338 121.627C418.786 120.989 418.864 120.264 418.642 119.693C418.438 119.167 417.996 118.991 417.616 119.139C417.269 119.274 417.114 119.669 417.244 120.005C417.379 120.351 417.69 120.488 418.003 120.367C418.059 120.345 418.133 120.303 418.151 120.283C418.187 120.475 418.149 120.709 418.069 120.933L417.995 120.743L416.574 121.295L417.996 124.953C417.872 125.361 417.553 125.833 417.005 126.046C416.401 126.281 415.914 126.187 415.622 125.437L414.349 122.16L412.928 122.712L414.419 126.549C414.828 127.6 415.639 128.032 416.825 127.571C417.708 127.227 418.201 126.572 418.409 126.015L418.674 126.697L420.095 126.145Z" fill="#357236"/>
<path d="M424.662 117.521C424.457 116.995 424.004 116.824 423.635 116.967C423.289 117.102 423.133 117.497 423.264 117.833C423.398 118.179 423.72 118.312 424.022 118.194C424.078 118.173 424.152 118.131 424.17 118.111C424.21 118.379 424.113 118.726 423.97 118.987C423.337 118.783 422.619 118.791 421.858 119.087C420.08 119.778 419.511 121.493 420.106 123.025C420.706 124.569 422.284 125.449 424.063 124.758C425.852 124.062 426.422 122.347 425.822 120.804C425.556 120.121 425.096 119.566 424.502 119.231C424.799 118.703 424.879 118.08 424.662 117.521ZM423.571 123.494C422.688 123.837 421.913 123.301 421.583 122.451C421.257 121.612 421.466 120.694 422.35 120.351C423.233 120.007 424.019 120.539 424.345 121.378C424.676 122.228 424.455 123.15 423.571 123.494ZM422.172 118.205C422.955 117.901 423.156 117.192 422.787 116.241L422.037 116.533C422.22 117.002 422.123 117.284 421.9 117.371C421.475 117.537 421.049 116.839 420.311 117.126C419.528 117.431 419.316 118.144 419.686 119.095L420.435 118.803C420.248 118.322 420.344 118.04 420.568 117.953C420.993 117.788 421.412 118.501 422.172 118.205Z" fill="#357236"/>
<path d="M432.994 121.131L431.512 117.317C431.103 116.266 430.272 115.817 429.086 116.278C428.203 116.621 427.708 117.302 427.522 117.851L427.248 117.146L425.828 117.699L427.928 123.101L429.348 122.549L427.935 118.914C428.044 118.498 428.358 118.015 428.918 117.798C429.522 117.563 430.013 117.668 430.304 118.418L431.574 121.684L432.994 121.131Z" fill="#357236"/>
<path d="M437.471 121.915C438.802 121.397 440.195 120.277 439.395 118.219L437.439 113.186L436.007 113.742L436.277 114.436C435.627 114.057 434.937 114.003 434.288 114.256C432.924 114.786 432.289 116.166 432.975 117.933C433.675 119.734 435.074 120.285 436.427 119.759C437.087 119.502 437.547 118.963 437.763 118.261L437.976 118.809C438.389 119.871 437.702 120.486 437.019 120.752C436.337 121.017 435.693 121.048 435.069 120.737L434.832 122.014C435.745 122.341 436.543 122.276 437.471 121.915ZM436.383 118.321C435.578 118.634 434.802 118.292 434.441 117.364C434.08 116.435 434.422 115.659 435.227 115.346C435.697 115.163 436.311 115.22 436.685 115.487L437.363 117.232C437.263 117.67 436.853 118.138 436.383 118.321Z" fill="#357236"/>
<path d="M445.673 116.358C446.266 116.128 446.585 115.823 446.724 115.55L446.005 114.594C445.957 114.703 445.786 114.859 445.573 114.942C445.26 115.064 444.981 114.876 444.851 114.54L443.903 112.102L444.999 111.676L444.517 110.435L443.421 110.861L442.847 109.384L441.415 109.941L441.989 111.417L441.094 111.765L441.577 113.006L442.472 112.659L443.567 115.477C443.941 116.439 444.678 116.745 445.673 116.358Z" fill="#357236"/>
<path d="M449.354 107.614L447.677 106.412L446.402 106.908L445.999 108.919L446.871 108.58L447.279 107.275L448.482 107.953L449.354 107.614ZM450.784 104.304L449.475 104.812L448.603 107.005L449.598 106.618L450.784 104.304ZM450.146 114.62C451.936 113.924 452.505 112.209 451.905 110.666C451.31 109.133 449.731 108.253 447.942 108.949C446.163 109.64 445.594 111.355 446.19 112.887C446.79 114.431 448.368 115.311 450.146 114.62ZM449.655 113.356C448.771 113.699 447.996 113.163 447.666 112.313C447.34 111.474 447.55 110.556 448.433 110.213C449.317 109.869 450.103 110.401 450.429 111.239C450.759 112.09 450.538 113.012 449.655 113.356Z" fill="#357236"/>
<path d="M455.875 112.393C456.468 112.162 456.787 111.858 456.926 111.585L456.207 110.629C456.159 110.738 455.988 110.894 455.775 110.977C455.462 111.098 455.183 110.911 455.053 110.575L454.105 108.137L455.201 107.711L454.719 106.469L453.622 106.895L453.049 105.419L451.617 105.975L452.191 107.452L451.296 107.8L451.779 109.041L452.673 108.693L453.769 111.512C454.143 112.474 454.88 112.78 455.875 112.393Z" fill="#357236"/>
<path d="M406.667 239.011L404.31 232.949L406.48 232.106L405.937 230.708L399.987 233.02L400.53 234.418L402.711 233.571L405.067 239.633L406.667 239.011Z" fill="#9C9C9C"/>
<path d="M414.899 235.811L413.408 231.975C412.999 230.924 412.177 230.497 410.991 230.958C410.108 231.301 409.602 231.987 409.416 232.535L408.342 229.773L406.922 230.325L409.821 237.785L411.242 237.233L409.829 233.598C409.949 233.178 410.263 232.695 410.811 232.482C411.427 232.243 411.909 232.326 412.201 233.075L413.479 236.364L414.899 235.811Z" fill="#9C9C9C"/>
<path d="M414.688 229.006C415.158 228.823 415.39 228.295 415.208 227.825C415.025 227.355 414.501 227.134 414.032 227.317C413.573 227.495 413.325 228.016 413.508 228.486C413.69 228.956 414.23 229.184 414.688 229.006ZM417.73 234.711L415.63 229.309L414.21 229.861L416.309 235.263L417.73 234.711Z" fill="#9C9C9C"/>
<path d="M420.848 226.341L419.171 225.139L417.896 225.635L417.493 227.645L418.365 227.306L418.773 226.002L419.976 226.68L420.848 226.341ZM422.267 223.034L420.958 223.543L420.085 225.736L421.081 225.349L422.267 223.034ZM421.729 233.311C422.568 232.985 423.318 232.398 423.664 231.697L422.681 231.023C422.465 231.493 421.905 231.942 421.447 232.121C420.53 232.477 419.76 232.12 419.405 231.472L423.421 229.912L423.299 229.598C422.612 227.831 421.046 227.049 419.436 227.675C417.792 228.314 417.131 230.026 417.739 231.592C418.413 233.326 420.085 233.95 421.729 233.311ZM421.671 229.484L419.009 230.519C418.868 229.956 418.991 229.148 419.875 228.805C420.814 228.44 421.438 228.983 421.671 229.484Z" fill="#9C9C9C"/>
<path d="M430.387 229.792L428.288 224.389L426.867 224.941L428.289 228.599C428.164 229.008 427.845 229.479 427.297 229.692C426.693 229.927 426.206 229.833 425.915 229.084L424.641 225.807L423.221 226.359L424.712 230.195C425.121 231.246 425.932 231.678 427.118 231.217C428.001 230.874 428.493 230.219 428.702 229.661L428.967 230.344L430.387 229.792Z" fill="#9C9C9C"/>
<path d="M437.228 227.287C438.336 226.857 438.82 226.115 438.982 225.473L437.719 224.972C437.601 225.43 437.296 225.806 436.804 225.997C435.943 226.332 435.091 225.929 434.726 224.99C434.361 224.05 434.721 223.189 435.582 222.854C436.075 222.663 436.544 222.712 436.949 222.992L437.539 221.759C436.989 221.406 436.131 221.186 435.024 221.616C433.358 222.264 432.617 223.904 433.261 225.559C433.908 227.226 435.562 227.935 437.228 227.287Z" fill="#9C9C9C"/>
<path d="M444.905 224.149L443.549 220.659C442.944 219.104 441.623 219.051 440.393 219.53C439.543 219.86 438.797 220.459 438.364 221.297L439.27 222.039C439.563 221.436 440.018 221.015 440.599 220.788C441.315 220.51 441.924 220.686 442.137 221.234L442.419 221.961C441.896 221.675 441.168 221.688 440.452 221.966C439.59 222.301 438.76 223.177 439.251 224.441C439.72 225.649 440.964 225.835 441.825 225.5C442.53 225.226 443.068 224.721 443.267 224.142L443.485 224.701L444.905 224.149ZM442.022 224.317C441.463 224.534 440.891 224.422 440.696 223.918C440.491 223.392 440.837 222.923 441.396 222.706C441.855 222.528 442.363 222.511 442.719 222.732L442.98 223.404C442.867 223.808 442.481 224.138 442.022 224.317ZM441.828 218.187L440.151 216.985L438.876 217.48L438.473 219.491L439.345 219.152L439.752 217.848L440.956 218.526L441.828 218.187Z" fill="#9C9C9C"/>
<path d="M451.381 221.632L449.898 217.818C449.49 216.766 448.658 216.317 447.473 216.778C446.589 217.121 446.094 217.803 445.909 218.351L445.635 217.647L444.214 218.199L446.314 223.601L447.734 223.049L446.322 219.414C446.43 218.998 446.745 218.516 447.304 218.298C447.908 218.064 448.4 218.169 448.691 218.918L449.96 222.184L451.381 221.632Z" fill="#9C9C9C"/>
<line x1="27.5401" y1="20.4599" x2="509.46" y2="20.4599" stroke="#E5E7EB" stroke-width="1.08017" stroke-linecap="square" stroke-dasharray="1.08 4.32"/>
<g style="mix-blend-mode:multiply">
<line x1="27.5401" y1="43.4599" x2="509.46" y2="43.4599" stroke="#E5E7EB" stroke-width="1.08017" stroke-linecap="square" stroke-dasharray="1.08 4.32"/>
</g>
<g style="mix-blend-mode:multiply">
<line x1="27.5401" y1="89.4599" x2="509.46" y2="89.4599" stroke="#E5E7EB" stroke-width="1.08017" stroke-linecap="square" stroke-dasharray="1.08 4.32"/>
</g>
<g style="mix-blend-mode:multiply">
<line x1="27.5401" y1="68.4599" x2="509.46" y2="68.4599" stroke="#E5E7EB" stroke-width="1.08017" stroke-linecap="square" stroke-dasharray="1.08 4.32"/>
</g>
<g style="mix-blend-mode:multiply">
<line x1="27.5401" y1="227.46" x2="509.46" y2="227.46" stroke="#E5E7EB" stroke-width="1.08017" stroke-linecap="square" stroke-dasharray="1.08 4.32"/>
</g>
<g style="mix-blend-mode:multiply">
<line x1="27.5401" y1="204.46" x2="509.46" y2="204.46" stroke="#E5E7EB" stroke-width="1.08017" stroke-linecap="square" stroke-dasharray="1.08 4.32"/>
</g>
<g style="mix-blend-mode:multiply">
<line x1="27.5401" y1="181.46" x2="509.46" y2="181.46" stroke="#E5E7EB" stroke-width="1.08017" stroke-linecap="square" stroke-dasharray="1.08 4.32"/>
</g>
<g style="mix-blend-mode:multiply">
<line x1="27.5401" y1="158.46" x2="509.46" y2="158.46" stroke="#E5E7EB" stroke-width="1.08017" stroke-linecap="square" stroke-dasharray="1.08 4.32"/>
</g>
<g style="mix-blend-mode:multiply">
<line x1="27.5401" y1="135.46" x2="509.46" y2="135.46" stroke="#E5E7EB" stroke-width="1.08017" stroke-linecap="square" stroke-dasharray="1.08 4.32"/>
</g>
<g style="mix-blend-mode:multiply">
<line x1="27.5401" y1="112.46" x2="509.46" y2="112.46" stroke="#E5E7EB" stroke-width="1.08017" stroke-linecap="square" stroke-dasharray="1.08 4.32"/>
</g>
<g style="mix-blend-mode:multiply">
<line x1="27.5401" y1="250.46" x2="509.46" y2="250.46" stroke="#E5E7EB" stroke-width="1.08017" stroke-linecap="square" stroke-dasharray="1.08 4.32"/>
</g>
<line x1="27" y1="273.5" x2="510" y2="273.5" stroke="#EAEAEA"/>
<path d="M3.45753 25.0932C5.22153 25.0932 6.28953 24.1212 6.28953 22.7892C6.28953 21.5052 5.17353 20.8812 4.44153 20.8212C5.19753 20.6892 6.16953 20.1132 6.16953 18.9612C6.16953 17.6052 4.99353 16.8252 3.45753 16.8252C2.22153 16.8252 1.29753 17.3652 0.721525 18.0612L1.27353 18.6852C1.86153 18.0492 2.50953 17.7132 3.38553 17.7132C4.35753 17.7132 5.17353 18.1932 5.17353 19.0812C5.17353 20.0052 4.32153 20.4012 3.31353 20.4012C2.98953 20.4012 2.61753 20.4012 2.48553 20.3892V21.3012C2.60553 21.2892 2.97753 21.2892 3.31353 21.2892C4.48953 21.2892 5.30553 21.7092 5.30553 22.7052C5.30553 23.6292 4.59753 24.2052 3.43353 24.2052C2.48553 24.2052 1.66953 23.7732 1.20153 23.1492L0.613525 23.7732C1.10553 24.4932 2.10153 25.0932 3.45753 25.0932Z" fill="#676C72"/>
<path d="M13.0892 24.9492V24.0612H9.16521C11.3972 22.2972 13.0532 20.8092 13.0532 19.1772C13.0532 17.5812 11.6972 16.8252 10.3652 16.8252C9.23721 16.8252 8.19321 17.2812 7.58121 18.0852L8.19321 18.7212C8.66121 18.1212 9.40521 17.7132 10.3652 17.7132C11.1932 17.7132 12.0332 18.1572 12.0332 19.1772C12.0332 20.5572 10.4732 21.8892 7.59321 24.1572V24.9492H13.0892Z" fill="#676C72"/>
<path d="M30.4629 8.99997C31.9269 8.99997 32.7789 8.12397 32.7789 6.83997C32.7789 5.87997 32.0709 5.00397 31.2189 4.87197C31.9509 4.71597 32.6229 4.04397 32.6229 3.03597C32.6229 1.83597 31.7709 0.995972 30.3789 0.995972H26.8149V8.99997H30.4629ZM30.2109 4.46397H27.8109V1.88397H30.2109C31.1109 1.88397 31.5909 2.45997 31.5909 3.17997C31.5909 3.91197 31.1109 4.46397 30.2109 4.46397ZM30.2589 8.11197H27.8109V5.35197H30.2589C31.2429 5.35197 31.7469 5.99997 31.7469 6.73197C31.7469 7.58397 31.1949 8.11197 30.2589 8.11197Z" fill="#676C72"/>
<path d="M42.1978 8.99997V0.995972H40.7698L38.2738 7.01997L35.7898 0.995972H34.3618V8.99997H35.3578V2.41197L38.0698 8.99997H38.4778L41.2018 2.41197V8.99997H42.1978Z" fill="#676C72"/>
<path d="M45.0609 8.99997V0.995972H44.0649V8.99997H45.0609Z" fill="#676C72"/>
<path d="M508.515 4.82398C509.667 4.82398 510.459 3.98398 510.459 2.86798C510.459 1.73998 509.667 0.875977 508.515 0.875977C507.375 0.875977 506.595 1.73998 506.595 2.86798C506.595 3.98398 507.375 4.82398 508.515 4.82398ZM508.407 8.99998L513.531 0.995976H512.871L507.759 8.99998H508.407ZM512.691 9.14398C513.831 9.14398 514.623 8.30398 514.623 7.18798C514.623 6.05998 513.831 5.19598 512.691 5.19598C511.551 5.19598 510.771 6.05998 510.771 7.18798C510.771 8.30398 511.551 9.14398 512.691 9.14398ZM508.515 4.22398C507.807 4.22398 507.315 3.62398 507.315 2.86798C507.315 2.07598 507.807 1.48798 508.515 1.48798C509.235 1.48798 509.739 2.07598 509.739 2.86798C509.739 3.62398 509.235 4.22398 508.515 4.22398ZM512.691 8.54398C511.971 8.54398 511.479 7.94398 511.479 7.18798C511.479 6.39598 511.971 5.80798 512.691 5.80798C513.411 5.80798 513.915 6.39598 513.915 7.18798C513.915 7.94398 513.411 8.54398 512.691 8.54398Z" fill="#676C72"/>
<path d="M5.99945 94V93.112H2.07546C4.30746 91.348 5.96345 89.86 5.96345 88.228C5.96345 86.632 4.60746 85.876 3.27545 85.876C2.14745 85.876 1.10346 86.332 0.491455 87.136L1.10346 87.772C1.57146 87.172 2.31545 86.764 3.27545 86.764C4.10345 86.764 4.94346 87.208 4.94346 88.228C4.94346 89.608 3.38345 90.94 0.503455 93.208V94H5.99945Z" fill="#676C72"/>
<path d="M10.6061 94.144C12.3581 94.144 13.4141 92.92 13.4141 91.528C13.4141 89.824 12.2381 88.972 10.7981 88.972C9.76614 88.972 8.87814 89.668 8.53014 90.22C8.51814 90.112 8.51814 90.016 8.51814 89.908C8.51814 88.336 9.22614 86.764 10.7741 86.764C11.6141 86.764 12.0821 87.1 12.4901 87.58L12.9941 86.836C12.5021 86.272 11.8061 85.876 10.7741 85.876C8.53014 85.876 7.52214 87.844 7.52214 90.016C7.52214 92.188 8.37414 94.144 10.6061 94.144ZM10.5701 93.256C9.17814 93.256 8.65014 92.032 8.55414 91.036C8.99814 90.328 9.76614 89.836 10.5581 89.836C11.5901 89.836 12.4061 90.388 12.4061 91.564C12.4061 92.332 11.8061 93.256 10.5701 93.256Z" fill="#676C72"/>
<path d="M5.71789 278V269.996H4.84189L2.83789 272.06L3.43789 272.672L4.72189 271.316V278H5.71789Z" fill="#676C72"/>
<path d="M10.3243 278.144C12.5083 278.144 13.3843 275.948 13.3843 274.004C13.3843 272.048 12.5083 269.876 10.3243 269.876C8.1283 269.876 7.2643 272.048 7.2643 274.004C7.2643 275.948 8.1283 278.144 10.3243 278.144ZM10.3243 277.256C8.8003 277.256 8.2843 275.6 8.2843 274.004C8.2843 272.408 8.8003 270.764 10.3243 270.764C11.8483 270.764 12.3643 272.408 12.3643 274.004C12.3643 275.6 11.8483 277.256 10.3243 277.256Z" fill="#676C72"/>
<path d="M6.01086 255V246.996H5.13486L3.13086 249.06L3.73086 249.672L5.01486 248.316V255H6.01086Z" fill="#676C72"/>
<path d="M13.0893 255V254.112H9.16527C11.3973 252.348 13.0533 250.86 13.0533 249.228C13.0533 247.632 11.6973 246.876 10.3653 246.876C9.23727 246.876 8.19327 247.332 7.58127 248.136L8.19327 248.772C8.66127 248.172 9.40527 247.764 10.3653 247.764C11.1933 247.764 12.0333 248.208 12.0333 249.228C12.0333 250.608 10.4733 251.94 7.59327 254.208V255H13.0893Z" fill="#676C72"/>
<path d="M6.37414 232V223.996H5.49814L3.49414 226.06L4.09414 226.672L5.37814 225.316V232H6.37414Z" fill="#676C72"/>
<path d="M12.4925 232V229.972H13.6205V229.096H12.4925V223.996H11.1245L7.69255 229.144V229.972H11.4965V232H12.4925ZM11.4965 229.096H8.68855L11.4965 224.92V229.096Z" fill="#676C72"/>
<path d="M5.9757 209V200.996H5.0997L3.0957 203.06L3.6957 203.672L4.9797 202.316V209H5.9757Z" fill="#676C72"/>
<path d="M10.6061 209.144C12.3581 209.144 13.4141 207.92 13.4141 206.528C13.4141 204.824 12.2381 203.972 10.7981 203.972C9.76611 203.972 8.87811 204.668 8.53011 205.22C8.51811 205.112 8.51811 205.016 8.51811 204.908C8.51811 203.336 9.22611 201.764 10.7741 201.764C11.6141 201.764 12.0821 202.1 12.4901 202.58L12.9941 201.836C12.5021 201.272 11.8061 200.876 10.7741 200.876C8.53011 200.876 7.52211 202.844 7.52211 205.016C7.52211 207.188 8.37411 209.144 10.6061 209.144ZM10.5701 208.256C9.17811 208.256 8.65011 207.032 8.55411 206.036C8.99811 205.328 9.76611 204.836 10.5581 204.836C11.5901 204.836 12.4061 205.388 12.4061 206.564C12.4061 207.332 11.8061 208.256 10.5701 208.256Z" fill="#676C72"/>
<path d="M528.385 210.144C529.993 210.144 531.229 209.136 531.229 207.504C531.229 205.86 530.017 204.948 528.685 204.948C527.881 204.948 527.197 205.284 526.813 205.668V202.884H530.713V201.996H525.817V206.316L526.549 206.568C527.089 206.04 527.689 205.812 528.397 205.812C529.477 205.812 530.233 206.484 530.233 207.54C530.233 208.512 529.477 209.256 528.385 209.256C527.401 209.256 526.705 208.872 526.177 208.2L525.565 208.86C526.165 209.652 527.029 210.144 528.385 210.144Z" fill="#676C72"/>
<path d="M534.216 210.144C534.744 210.144 535.068 209.988 535.296 209.772L535.032 209.1C534.912 209.232 534.672 209.34 534.42 209.34C534.024 209.34 533.832 209.028 533.832 208.596V204.996H535.008V204.204H533.832V202.62H532.932V204.204H531.972V204.996H532.932V208.788C532.932 209.652 533.364 210.144 534.216 210.144Z" fill="#676C72"/>
<path d="M541.103 210V205.908C541.103 204.648 540.467 204.06 539.255 204.06C538.379 204.06 537.587 204.564 537.179 205.044V201.996H536.279V210H537.179V205.764C537.527 205.296 538.199 204.864 538.895 204.864C539.675 204.864 540.203 205.164 540.203 206.184V210H541.103Z" fill="#676C72"/>
<path d="M528.038 149.144C529.646 149.144 530.882 148.136 530.882 146.504C530.882 144.86 529.67 143.948 528.338 143.948C527.534 143.948 526.85 144.284 526.466 144.668V141.884H530.366V140.996H525.47V145.316L526.202 145.568C526.742 145.04 527.342 144.812 528.05 144.812C529.13 144.812 529.886 145.484 529.886 146.54C529.886 147.512 529.13 148.256 528.038 148.256C527.054 148.256 526.358 147.872 525.83 147.2L525.218 147.86C525.818 148.652 526.682 149.144 528.038 149.144Z" fill="#676C72"/>
<path d="M535.176 149.144C537.36 149.144 538.236 146.948 538.236 145.004C538.236 143.048 537.36 140.876 535.176 140.876C532.98 140.876 532.116 143.048 532.116 145.004C532.116 146.948 532.98 149.144 535.176 149.144ZM535.176 148.256C533.652 148.256 533.136 146.6 533.136 145.004C533.136 143.408 533.652 141.764 535.176 141.764C536.7 141.764 537.216 143.408 537.216 145.004C537.216 146.6 536.7 148.256 535.176 148.256Z" fill="#676C72"/>
<path d="M541.216 149.144C541.744 149.144 542.068 148.988 542.296 148.772L542.032 148.1C541.912 148.232 541.672 148.34 541.42 148.34C541.024 148.34 540.832 148.028 540.832 147.596V143.996H542.008V143.204H540.832V141.62H539.932V143.204H538.972V143.996H539.932V147.788C539.932 148.652 540.364 149.144 541.216 149.144Z" fill="#676C72"/>
<path d="M548.103 149V144.908C548.103 143.648 547.467 143.06 546.255 143.06C545.379 143.06 544.587 143.564 544.179 144.044V140.996H543.279V149H544.179V144.764C544.527 144.296 545.199 143.864 545.895 143.864C546.675 143.864 547.203 144.164 547.203 145.184V149H548.103Z" fill="#676C72"/>
<path d="M528.293 88.144C529.865 88.144 531.161 87.328 531.161 85.972C531.161 84.904 530.249 84.172 529.253 83.872C530.177 83.608 531.041 83.008 531.041 81.952C531.041 80.512 529.613 79.876 528.293 79.876C526.961 79.876 525.557 80.512 525.557 81.952C525.557 83.008 526.409 83.608 527.333 83.872C526.337 84.172 525.425 84.904 525.425 85.972C525.425 87.34 526.709 88.144 528.293 88.144ZM528.293 83.464C527.813 83.38 526.553 83.056 526.553 82.084C526.553 81.256 527.321 80.764 528.293 80.764C529.253 80.764 530.033 81.256 530.033 82.084C530.033 83.056 528.785 83.38 528.293 83.464ZM528.293 87.256C527.297 87.256 526.421 86.728 526.421 85.864C526.421 84.82 527.801 84.376 528.293 84.316C528.785 84.376 530.153 84.82 530.153 85.864C530.153 86.728 529.277 87.256 528.293 87.256Z" fill="#676C72"/>
<path d="M535.385 88.144C536.993 88.144 538.229 87.136 538.229 85.504C538.229 83.86 537.017 82.948 535.685 82.948C534.881 82.948 534.197 83.284 533.813 83.668V80.884H537.713V79.996H532.817V84.316L533.549 84.568C534.089 84.04 534.689 83.812 535.397 83.812C536.477 83.812 537.233 84.484 537.233 85.54C537.233 86.512 536.477 87.256 535.385 87.256C534.401 87.256 533.705 86.872 533.177 86.2L532.565 86.86C533.165 87.652 534.029 88.144 535.385 88.144Z" fill="#676C72"/>
<path d="M541.216 88.144C541.744 88.144 542.068 87.988 542.296 87.772L542.032 87.1C541.912 87.232 541.672 87.34 541.42 87.34C541.024 87.34 540.832 87.028 540.832 86.596V82.996H542.008V82.204H540.832V80.62H539.932V82.204H538.972V82.996H539.932V86.788C539.932 87.652 540.364 88.144 541.216 88.144Z" fill="#676C72"/>
<path d="M548.103 88V83.908C548.103 82.648 547.467 82.06 546.255 82.06C545.379 82.06 544.587 82.564 544.179 83.044V79.996H543.279V88H544.179V83.764C544.527 83.296 545.199 82.864 545.895 82.864C546.675 82.864 547.203 83.164 547.203 84.184V88H548.103Z" fill="#676C72"/>
<path d="M527.911 27.132C530.155 27.132 531.163 25.164 531.163 23.004C531.163 20.82 530.311 18.864 528.067 18.864C526.327 18.864 525.271 20.1 525.271 21.48C525.271 23.184 526.459 24.036 527.899 24.036C528.919 24.036 529.807 23.34 530.155 22.788C530.167 22.896 530.167 23.004 530.167 23.112C530.167 24.624 529.531 26.244 527.911 26.244C527.083 26.244 526.603 25.908 526.195 25.428L525.691 26.172C526.195 26.748 526.891 27.132 527.911 27.132ZM528.127 23.172C527.095 23.172 526.279 22.62 526.279 21.444C526.279 20.688 526.891 19.752 528.115 19.752C529.507 19.752 530.035 20.988 530.119 21.984C529.699 22.692 528.919 23.172 528.127 23.172Z" fill="#676C72"/>
<path d="M535.385 27.144C536.993 27.144 538.229 26.136 538.229 24.504C538.229 22.86 537.017 21.948 535.685 21.948C534.881 21.948 534.197 22.284 533.813 22.668V19.884H537.713V18.996H532.817V23.316L533.549 23.568C534.089 23.04 534.689 22.812 535.397 22.812C536.477 22.812 537.233 23.484 537.233 24.54C537.233 25.512 536.477 26.256 535.385 26.256C534.401 26.256 533.705 25.872 533.177 25.2L532.565 25.86C533.165 26.652 534.029 27.144 535.385 27.144Z" fill="#676C72"/>
<path d="M541.215 27.144C541.743 27.144 542.067 26.988 542.295 26.772L542.031 26.1C541.911 26.232 541.671 26.34 541.419 26.34C541.023 26.34 540.831 26.028 540.831 25.596V21.996H542.007V21.204H540.831V19.62H539.931V21.204H538.971V21.996H539.931V25.788C539.931 26.652 540.363 27.144 541.215 27.144Z" fill="#676C72"/>
<path d="M548.103 27V22.908C548.103 21.648 547.467 21.06 546.255 21.06C545.379 21.06 544.587 21.564 544.179 22.044V18.996H543.279V27H544.179V22.764C544.527 22.296 545.199 21.864 545.895 21.864C546.675 21.864 547.203 22.164 547.203 23.184V27H548.103Z" fill="#676C72"/>
<path d="M6.09289 186V177.996H5.21689L3.21289 180.06L3.81289 180.672L5.09689 179.316V186H6.09289Z" fill="#676C72"/>
<path d="M10.5193 186.144C12.0913 186.144 13.3873 185.328 13.3873 183.972C13.3873 182.904 12.4753 182.172 11.4793 181.872C12.4033 181.608 13.2673 181.008 13.2673 179.952C13.2673 178.512 11.8393 177.876 10.5193 177.876C9.1873 177.876 7.7833 178.512 7.7833 179.952C7.7833 181.008 8.6353 181.608 9.5593 181.872C8.5633 182.172 7.6513 182.904 7.6513 183.972C7.6513 185.34 8.9353 186.144 10.5193 186.144ZM10.5193 181.464C10.0393 181.38 8.7793 181.056 8.7793 180.084C8.7793 179.256 9.5473 178.764 10.5193 178.764C11.4793 178.764 12.2593 179.256 12.2593 180.084C12.2593 181.056 11.0113 181.38 10.5193 181.464ZM10.5193 185.256C9.5233 185.256 8.6473 184.728 8.6473 183.864C8.6473 182.82 10.0273 182.376 10.5193 182.316C11.0113 182.376 12.3793 182.82 12.3793 183.864C12.3793 184.728 11.5033 185.256 10.5193 185.256Z" fill="#676C72"/>
<path d="M5.74164 163V162.112H1.81764C4.04964 160.348 5.70564 158.86 5.70564 157.228C5.70564 155.632 4.34964 154.876 3.01764 154.876C1.88964 154.876 0.845643 155.332 0.233643 156.136L0.845643 156.772C1.31364 156.172 2.05764 155.764 3.01764 155.764C3.84564 155.764 4.68564 156.208 4.68564 157.228C4.68564 158.608 3.12564 159.94 0.245643 162.208V163H5.74164Z" fill="#676C72"/>
<path d="M10.3243 163.144C12.5083 163.144 13.3843 160.948 13.3843 159.004C13.3843 157.048 12.5083 154.876 10.3243 154.876C8.12833 154.876 7.26433 157.048 7.26433 159.004C7.26433 160.948 8.12833 163.144 10.3243 163.144ZM10.3243 162.256C8.80033 162.256 8.28433 160.6 8.28433 159.004C8.28433 157.408 8.80033 155.764 10.3243 155.764C11.8483 155.764 12.3643 157.408 12.3643 159.004C12.3643 160.6 11.8483 162.256 10.3243 162.256Z" fill="#676C72"/>
<path d="M6.03461 140V139.112H2.11061C4.34261 137.348 5.99861 135.86 5.99861 134.228C5.99861 132.632 4.64261 131.876 3.31061 131.876C2.18261 131.876 1.13861 132.332 0.526611 133.136L1.13861 133.772C1.60661 133.172 2.35061 132.764 3.31061 132.764C4.13861 132.764 4.97861 133.208 4.97861 134.228C4.97861 135.608 3.41861 136.94 0.538611 139.208V140H6.03461Z" fill="#676C72"/>
<path d="M13.0893 140V139.112H9.1653C11.3973 137.348 13.0533 135.86 13.0533 134.228C13.0533 132.632 11.6973 131.876 10.3653 131.876C9.2373 131.876 8.1933 132.332 7.5813 133.136L8.1933 133.772C8.6613 133.172 9.4053 132.764 10.3653 132.764C11.1933 132.764 12.0333 133.208 12.0333 134.228C12.0333 135.608 10.4733 136.94 7.5933 139.208V140H13.0893Z" fill="#676C72"/>
<path d="M6.39789 117V116.112H2.47389C4.70589 114.348 6.36189 112.86 6.36189 111.228C6.36189 109.632 5.00589 108.876 3.67389 108.876C2.54589 108.876 1.50189 109.332 0.889893 110.136L1.50189 110.772C1.96989 110.172 2.71389 109.764 3.67389 109.764C4.50189 109.764 5.34189 110.208 5.34189 111.228C5.34189 112.608 3.78189 113.94 0.901893 116.208V117H6.39789Z" fill="#676C72"/>
<path d="M12.4926 117V114.972H13.6206V114.096H12.4926V108.996H11.1246L7.69258 114.144V114.972H11.4966V117H12.4926ZM11.4966 114.096H8.68858L11.4966 109.92V114.096Z" fill="#676C72"/>
<path d="M6.11664 71V70.112H2.19264C4.42464 68.348 6.08064 66.86 6.08064 65.228C6.08064 63.632 4.72464 62.876 3.39264 62.876C2.26464 62.876 1.22064 63.332 0.608643 64.136L1.22064 64.772C1.68864 64.172 2.43264 63.764 3.39264 63.764C4.22064 63.764 5.06064 64.208 5.06064 65.228C5.06064 66.608 3.50064 67.94 0.620643 70.208V71H6.11664Z" fill="#676C72"/>
<path d="M10.5193 71.144C12.0913 71.144 13.3873 70.328 13.3873 68.972C13.3873 67.904 12.4753 67.172 11.4793 66.872C12.4033 66.608 13.2673 66.008 13.2673 64.952C13.2673 63.512 11.8393 62.876 10.5193 62.876C9.18733 62.876 7.78333 63.512 7.78333 64.952C7.78333 66.008 8.63533 66.608 9.55933 66.872C8.56333 67.172 7.65133 67.904 7.65133 68.972C7.65133 70.34 8.93533 71.144 10.5193 71.144ZM10.5193 66.464C10.0393 66.38 8.77933 66.056 8.77933 65.084C8.77933 64.256 9.54733 63.764 10.5193 63.764C11.4793 63.764 12.2593 64.256 12.2593 65.084C12.2593 66.056 11.0113 66.38 10.5193 66.464ZM10.5193 70.256C9.52333 70.256 8.64733 69.728 8.64733 68.864C8.64733 67.82 10.0273 67.376 10.5193 67.316C11.0113 67.376 12.3793 67.82 12.3793 68.864C12.3793 69.728 11.5033 70.256 10.5193 70.256Z" fill="#676C72"/>
<path d="M3.16456 48.144C4.92856 48.144 5.99656 47.172 5.99656 45.84C5.99656 44.556 4.88056 43.932 4.14856 43.872C4.90456 43.74 5.87656 43.164 5.87656 42.012C5.87656 40.656 4.70056 39.876 3.16456 39.876C1.92856 39.876 1.00456 40.416 0.428557 41.112L0.980557 41.736C1.56856 41.1 2.21656 40.764 3.09256 40.764C4.06456 40.764 4.88056 41.244 4.88056 42.132C4.88056 43.056 4.02856 43.452 3.02056 43.452C2.69656 43.452 2.32456 43.452 2.19256 43.44V44.352C2.31256 44.34 2.68456 44.34 3.02056 44.34C4.19656 44.34 5.01256 44.76 5.01256 45.756C5.01256 46.68 4.30456 47.256 3.14056 47.256C2.19256 47.256 1.37656 46.824 0.908557 46.2L0.320557 46.824C0.812557 47.544 1.80856 48.144 3.16456 48.144Z" fill="#676C72"/>
<path d="M10.3242 48.144C12.5082 48.144 13.3842 45.948 13.3842 44.004C13.3842 42.048 12.5082 39.876 10.3242 39.876C8.12824 39.876 7.26424 42.048 7.26424 44.004C7.26424 45.948 8.12824 48.144 10.3242 48.144ZM10.3242 47.256C8.80024 47.256 8.28424 45.6 8.28424 44.004C8.28424 42.408 8.80024 40.764 10.3242 40.764C11.8482 40.764 12.3642 42.408 12.3642 44.004C12.3642 45.6 11.8482 47.256 10.3242 47.256Z" fill="#676C72"/>
<path d="M23.753 297V288.996H22.877L20.873 291.06L21.473 291.672L22.757 290.316V297H23.753Z" fill="#676C72"/>
<path d="M29.8715 297V294.972H30.9995V294.096H29.8715V288.996H28.5035L25.0715 294.144V294.972H28.8755V297H29.8715ZM28.8755 294.096H26.0675L28.8755 289.92V294.096Z" fill="#676C72"/>
<path d="M65.5538 297V288.996H64.6778L62.6738 291.06L63.2738 291.672L64.5578 290.316V297H65.5538Z" fill="#676C72"/>
<path d="M70.1842 297.144C71.9362 297.144 72.9922 295.92 72.9922 294.528C72.9922 292.824 71.8162 291.972 70.3762 291.972C69.3442 291.972 68.4562 292.668 68.1082 293.22C68.0962 293.112 68.0962 293.016 68.0962 292.908C68.0962 291.336 68.8042 289.764 70.3522 289.764C71.1922 289.764 71.6602 290.1 72.0682 290.58L72.5722 289.836C72.0802 289.272 71.3842 288.876 70.3522 288.876C68.1082 288.876 67.1002 290.844 67.1002 293.016C67.1002 295.188 67.9522 297.144 70.1842 297.144ZM70.1482 296.256C68.7562 296.256 68.2282 295.032 68.1322 294.036C68.5762 293.328 69.3442 292.836 70.1362 292.836C71.1682 292.836 71.9842 293.388 71.9842 294.564C71.9842 295.332 71.3842 296.256 70.1482 296.256Z" fill="#676C72"/>
<path d="M107.612 297V288.996H106.736L104.732 291.06L105.332 291.672L106.616 290.316V297H107.612Z" fill="#676C72"/>
<path d="M112.039 297.144C113.611 297.144 114.907 296.328 114.907 294.972C114.907 293.904 113.995 293.172 112.999 292.872C113.923 292.608 114.787 292.008 114.787 290.952C114.787 289.512 113.359 288.876 112.039 288.876C110.707 288.876 109.303 289.512 109.303 290.952C109.303 292.008 110.155 292.608 111.079 292.872C110.083 293.172 109.171 293.904 109.171 294.972C109.171 296.34 110.455 297.144 112.039 297.144ZM112.039 292.464C111.559 292.38 110.299 292.056 110.299 291.084C110.299 290.256 111.067 289.764 112.039 289.764C112.999 289.764 113.779 290.256 113.779 291.084C113.779 292.056 112.531 292.38 112.039 292.464ZM112.039 296.256C111.043 296.256 110.167 295.728 110.167 294.864C110.167 293.82 111.547 293.376 112.039 293.316C112.531 293.376 113.899 293.82 113.899 294.864C113.899 295.728 113.023 296.256 112.039 296.256Z" fill="#676C72"/>
<path d="M150.943 297V296.112H147.019C149.251 294.348 150.907 292.86 150.907 291.228C150.907 289.632 149.551 288.876 148.219 288.876C147.091 288.876 146.047 289.332 145.435 290.136L146.047 290.772C146.515 290.172 147.259 289.764 148.219 289.764C149.047 289.764 149.887 290.208 149.887 291.228C149.887 292.608 148.327 293.94 145.447 296.208V297H150.943Z" fill="#676C72"/>
<path d="M155.526 297.144C157.71 297.144 158.586 294.948 158.586 293.004C158.586 291.048 157.71 288.876 155.526 288.876C153.33 288.876 152.466 291.048 152.466 293.004C152.466 294.948 153.33 297.144 155.526 297.144ZM155.526 296.256C154.002 296.256 153.486 294.6 153.486 293.004C153.486 291.408 154.002 289.764 155.526 289.764C157.05 289.764 157.566 291.408 157.566 293.004C157.566 294.6 157.05 296.256 155.526 296.256Z" fill="#676C72"/>
<path d="M193.089 297V296.112H189.165C191.397 294.348 193.053 292.86 193.053 291.228C193.053 289.632 191.697 288.876 190.365 288.876C189.237 288.876 188.193 289.332 187.581 290.136L188.193 290.772C188.661 290.172 189.405 289.764 190.365 289.764C191.193 289.764 192.033 290.208 192.033 291.228C192.033 292.608 190.473 293.94 187.593 296.208V297H193.089Z" fill="#676C72"/>
<path d="M200.144 297V296.112H196.22C198.452 294.348 200.108 292.86 200.108 291.228C200.108 289.632 198.752 288.876 197.42 288.876C196.292 288.876 195.248 289.332 194.636 290.136L195.248 290.772C195.716 290.172 196.46 289.764 197.42 289.764C198.248 289.764 199.088 290.208 199.088 291.228C199.088 292.608 197.528 293.94 194.648 296.208V297H200.144Z" fill="#676C72"/>
<path d="M235.271 297V296.112H231.347C233.579 294.348 235.235 292.86 235.235 291.228C235.235 289.632 233.879 288.876 232.547 288.876C231.419 288.876 230.375 289.332 229.763 290.136L230.375 290.772C230.843 290.172 231.587 289.764 232.547 289.764C233.375 289.764 234.215 290.208 234.215 291.228C234.215 292.608 232.655 293.94 229.775 296.208V297H235.271Z" fill="#676C72"/>
<path d="M241.366 297V294.972H242.494V294.096H241.366V288.996H239.998L236.566 294.144V294.972H240.37V297H241.366ZM240.37 294.096H237.562L240.37 289.92V294.096Z" fill="#676C72"/>
<path d="M247.402 320V312.884H249.946V311.996H243.874V312.884H246.406V320H247.402Z" fill="#676C72"/>
<path d="M255.026 320V314.204H254.126V318.464C253.79 318.932 253.118 319.34 252.41 319.34C251.63 319.34 251.114 319.04 251.114 318.02V314.204H250.214V318.296C250.214 319.556 250.85 320.144 252.062 320.144C252.926 320.144 253.682 319.688 254.126 319.184V320H255.026Z" fill="#676C72"/>
<path d="M260.952 313.328L259.776 311.6H258.912L257.772 313.328H258.384L259.344 312.056L260.34 313.328H260.952ZM259.356 320.144C261.12 320.144 262.224 318.776 262.224 317.096C262.224 315.416 261.12 314.06 259.356 314.06C257.592 314.06 256.488 315.416 256.488 317.096C256.488 318.776 257.592 320.144 259.356 320.144ZM259.356 319.34C258.12 319.34 257.424 318.284 257.424 317.096C257.424 315.92 258.12 314.864 259.356 314.864C260.592 314.864 261.276 315.92 261.276 317.096C261.276 318.284 260.592 319.34 259.356 319.34ZM259.944 311.288C260.028 311.048 260.184 310.904 260.424 310.904C260.688 310.904 260.856 311.06 260.856 311.372C260.856 311.576 260.784 311.792 260.58 311.996H261.06C261.216 311.78 261.288 311.612 261.288 311.348C261.288 310.772 260.88 310.52 260.424 310.52C259.968 310.52 259.668 310.808 259.548 311.18L259.944 311.288Z" fill="#676C72"/>
<path d="M264.135 313.376C264.471 313.376 264.747 313.112 264.747 312.776C264.747 312.44 264.471 312.164 264.135 312.164C263.811 312.164 263.535 312.44 263.535 312.776C263.535 313.112 263.811 313.376 264.135 313.376ZM264.591 320V314.204H263.691V320H264.591Z" fill="#676C72"/>
<path d="M271.34 321.968C270.572 320.456 270.092 319.076 270.092 317.084C270.092 315.08 270.572 313.712 271.34 312.188L270.8 311.78C269.72 313.268 269.108 315.152 269.108 317.084C269.108 319.016 269.72 320.912 270.8 322.388L271.34 321.968Z" fill="#676C72"/>
<path d="M273.921 320.144C274.449 320.144 274.773 319.988 275.001 319.772L274.737 319.1C274.617 319.232 274.377 319.34 274.125 319.34C273.729 319.34 273.537 319.028 273.537 318.596V314.996H274.713V314.204H273.537V312.62H272.637V314.204H271.677V314.996H272.637V318.788C272.637 319.652 273.069 320.144 273.921 320.144Z" fill="#676C72"/>
<path d="M280.808 320V315.908C280.808 314.648 280.172 314.06 278.96 314.06C278.084 314.06 277.292 314.564 276.884 315.044V311.996H275.984V320H276.884V315.764C277.232 315.296 277.904 314.864 278.6 314.864C279.38 314.864 279.908 315.164 279.908 316.184V320H280.808Z" fill="#676C72"/>
<path d="M287.129 320V316.016C287.129 314.612 286.109 314.06 284.885 314.06C283.937 314.06 283.193 314.372 282.569 315.02L282.989 315.644C283.505 315.092 284.069 314.84 284.765 314.84C285.605 314.84 286.229 315.284 286.229 316.064V317.108C285.761 316.568 285.101 316.316 284.309 316.316C283.325 316.316 282.281 316.928 282.281 318.224C282.281 319.484 283.325 320.144 284.309 320.144C285.089 320.144 285.749 319.868 286.229 319.34V320H287.129ZM284.633 319.496C283.793 319.496 283.205 318.968 283.205 318.236C283.205 317.492 283.793 316.964 284.633 316.964C285.269 316.964 285.881 317.204 286.229 317.684V318.776C285.881 319.256 285.269 319.496 284.633 319.496ZM286.913 311.6H285.977L284.201 313.328H284.885L286.913 311.6Z" fill="#676C72"/>
<path d="M293.745 320V315.932C293.745 314.672 293.109 314.06 291.897 314.06C291.033 314.06 290.241 314.564 289.833 315.044V314.204H288.933V320H289.833V315.764C290.169 315.296 290.841 314.864 291.549 314.864C292.329 314.864 292.845 315.188 292.845 316.208V320H293.745Z" fill="#676C72"/>
<path d="M297.871 322.352C299.287 322.352 300.631 321.752 300.631 319.832V314.204H299.731V315.08C299.263 314.444 298.567 314.06 297.787 314.06C296.263 314.06 295.207 315.212 295.207 317.072C295.207 318.944 296.275 320.072 297.787 320.072C298.603 320.072 299.311 319.628 299.731 319.04V319.868C299.731 321.14 298.831 321.608 297.871 321.608C297.043 321.608 296.467 321.392 295.987 320.816L295.531 321.488C296.215 322.16 296.887 322.352 297.871 322.352ZM298.003 319.28C296.839 319.28 296.143 318.344 296.143 317.072C296.143 315.788 296.839 314.864 298.003 314.864C298.723 314.864 299.419 315.296 299.731 315.8V318.332C299.419 318.836 298.723 319.28 298.003 319.28Z" fill="#676C72"/>
<path d="M302.277 322.388C303.369 320.912 303.981 319.016 303.981 317.084C303.981 315.152 303.369 313.268 302.277 311.78L301.737 312.188C302.517 313.712 302.997 315.08 302.997 317.084C302.997 319.076 302.517 320.456 301.737 321.968L302.277 322.388Z" fill="#676C72"/>
<path d="M277.072 297V296.112H273.148C275.38 294.348 277.036 292.86 277.036 291.228C277.036 289.632 275.68 288.876 274.348 288.876C273.22 288.876 272.176 289.332 271.564 290.136L272.176 290.772C272.644 290.172 273.388 289.764 274.348 289.764C275.176 289.764 276.016 290.208 276.016 291.228C276.016 292.608 274.456 293.94 271.576 296.208V297H277.072Z" fill="#676C72"/>
<path d="M281.678 297.144C283.43 297.144 284.486 295.92 284.486 294.528C284.486 292.824 283.31 291.972 281.87 291.972C280.838 291.972 279.95 292.668 279.602 293.22C279.59 293.112 279.59 293.016 279.59 292.908C279.59 291.336 280.298 289.764 281.846 289.764C282.686 289.764 283.154 290.1 283.562 290.58L284.066 289.836C283.574 289.272 282.878 288.876 281.846 288.876C279.602 288.876 278.594 290.844 278.594 293.016C278.594 295.188 279.446 297.144 281.678 297.144ZM281.642 296.256C280.25 296.256 279.722 295.032 279.626 294.036C280.07 293.328 280.838 292.836 281.63 292.836C282.662 292.836 283.478 293.388 283.478 294.564C283.478 295.332 282.878 296.256 281.642 296.256Z" fill="#676C72"/>
<path d="M319.13 297V296.112H315.206C317.438 294.348 319.094 292.86 319.094 291.228C319.094 289.632 317.738 288.876 316.406 288.876C315.278 288.876 314.234 289.332 313.622 290.136L314.234 290.772C314.702 290.172 315.446 289.764 316.406 289.764C317.234 289.764 318.074 290.208 318.074 291.228C318.074 292.608 316.514 293.94 313.634 296.208V297H319.13Z" fill="#676C72"/>
<path d="M323.533 297.144C325.105 297.144 326.401 296.328 326.401 294.972C326.401 293.904 325.489 293.172 324.493 292.872C325.417 292.608 326.281 292.008 326.281 290.952C326.281 289.512 324.853 288.876 323.533 288.876C322.201 288.876 320.797 289.512 320.797 290.952C320.797 292.008 321.649 292.608 322.573 292.872C321.577 293.172 320.665 293.904 320.665 294.972C320.665 296.34 321.949 297.144 323.533 297.144ZM323.533 292.464C323.053 292.38 321.793 292.056 321.793 291.084C321.793 290.256 322.561 289.764 323.533 289.764C324.493 289.764 325.273 290.256 325.273 291.084C325.273 292.056 324.025 292.38 323.533 292.464ZM323.533 296.256C322.537 296.256 321.661 295.728 321.661 294.864C321.661 293.82 323.041 293.376 323.533 293.316C324.025 293.376 325.393 293.82 325.393 294.864C325.393 295.728 324.517 296.256 323.533 296.256Z" fill="#676C72"/>
<path d="M358.178 297.144C359.942 297.144 361.01 296.172 361.01 294.84C361.01 293.556 359.894 292.932 359.162 292.872C359.918 292.74 360.89 292.164 360.89 291.012C360.89 289.656 359.714 288.876 358.178 288.876C356.942 288.876 356.018 289.416 355.442 290.112L355.994 290.736C356.582 290.1 357.23 289.764 358.106 289.764C359.078 289.764 359.894 290.244 359.894 291.132C359.894 292.056 359.042 292.452 358.034 292.452C357.71 292.452 357.338 292.452 357.206 292.44V293.352C357.326 293.34 357.698 293.34 358.034 293.34C359.21 293.34 360.026 293.76 360.026 294.756C360.026 295.68 359.318 296.256 358.154 296.256C357.206 296.256 356.39 295.824 355.922 295.2L355.334 295.824C355.826 296.544 356.822 297.144 358.178 297.144Z" fill="#676C72"/>
<path d="M365.338 297.144C367.522 297.144 368.398 294.948 368.398 293.004C368.398 291.048 367.522 288.876 365.338 288.876C363.142 288.876 362.278 291.048 362.278 293.004C362.278 294.948 363.142 297.144 365.338 297.144ZM365.338 296.256C363.814 296.256 363.298 294.6 363.298 293.004C363.298 291.408 363.814 289.764 365.338 289.764C366.862 289.764 367.378 291.408 367.378 293.004C367.378 294.6 366.862 296.256 365.338 296.256Z" fill="#676C72"/>
<path d="M400.325 297.144C402.089 297.144 403.157 296.172 403.157 294.84C403.157 293.556 402.041 292.932 401.309 292.872C402.065 292.74 403.037 292.164 403.037 291.012C403.037 289.656 401.861 288.876 400.325 288.876C399.089 288.876 398.165 289.416 397.589 290.112L398.141 290.736C398.729 290.1 399.377 289.764 400.253 289.764C401.225 289.764 402.041 290.244 402.041 291.132C402.041 292.056 401.189 292.452 400.181 292.452C399.857 292.452 399.485 292.452 399.353 292.44V293.352C399.473 293.34 399.845 293.34 400.181 293.34C401.357 293.34 402.173 293.76 402.173 294.756C402.173 295.68 401.465 296.256 400.301 296.256C399.353 296.256 398.537 295.824 398.069 295.2L397.481 295.824C397.973 296.544 398.969 297.144 400.325 297.144Z" fill="#676C72"/>
<path d="M409.956 297V296.112H406.032C408.264 294.348 409.92 292.86 409.92 291.228C409.92 289.632 408.564 288.876 407.232 288.876C406.104 288.876 405.06 289.332 404.448 290.136L405.06 290.772C405.528 290.172 406.272 289.764 407.232 289.764C408.06 289.764 408.9 290.208 408.9 291.228C408.9 292.608 407.34 293.94 404.46 296.208V297H409.956Z" fill="#676C72"/>
<path d="M442.506 297.144C444.27 297.144 445.338 296.172 445.338 294.84C445.338 293.556 444.222 292.932 443.49 292.872C444.246 292.74 445.218 292.164 445.218 291.012C445.218 289.656 444.042 288.876 442.506 288.876C441.27 288.876 440.346 289.416 439.77 290.112L440.322 290.736C440.91 290.1 441.558 289.764 442.434 289.764C443.406 289.764 444.222 290.244 444.222 291.132C444.222 292.056 443.37 292.452 442.362 292.452C442.038 292.452 441.666 292.452 441.534 292.44V293.352C441.654 293.34 442.026 293.34 442.362 293.34C443.538 293.34 444.354 293.76 444.354 294.756C444.354 295.68 443.646 296.256 442.482 296.256C441.534 296.256 440.718 295.824 440.25 295.2L439.662 295.824C440.154 296.544 441.15 297.144 442.506 297.144Z" fill="#676C72"/>
<path d="M451.178 297V294.972H452.306V294.096H451.178V288.996H449.81L446.378 294.144V294.972H450.182V297H451.178ZM450.182 294.096H447.374L450.182 289.92V294.096Z" fill="#676C72"/>
<path d="M506.307 297.144C508.071 297.144 509.139 296.172 509.139 294.84C509.139 293.556 508.023 292.932 507.291 292.872C508.047 292.74 509.019 292.164 509.019 291.012C509.019 289.656 507.843 288.876 506.307 288.876C505.071 288.876 504.147 289.416 503.571 290.112L504.123 290.736C504.711 290.1 505.359 289.764 506.235 289.764C507.207 289.764 508.023 290.244 508.023 291.132C508.023 292.056 507.171 292.452 506.163 292.452C505.839 292.452 505.467 292.452 505.335 292.44V293.352C505.455 293.34 505.827 293.34 506.163 293.34C507.339 293.34 508.155 293.76 508.155 294.756C508.155 295.68 507.447 296.256 506.283 296.256C505.335 296.256 504.519 295.824 504.051 295.2L503.463 295.824C503.955 296.544 504.951 297.144 506.307 297.144Z" fill="#676C72"/>
<path d="M513.491 297.144C515.243 297.144 516.299 295.92 516.299 294.528C516.299 292.824 515.123 291.972 513.683 291.972C512.651 291.972 511.763 292.668 511.415 293.22C511.403 293.112 511.403 293.016 511.403 292.908C511.403 291.336 512.111 289.764 513.659 289.764C514.499 289.764 514.967 290.1 515.375 290.58L515.879 289.836C515.387 289.272 514.691 288.876 513.659 288.876C511.415 288.876 510.407 290.844 510.407 293.016C510.407 295.188 511.259 297.144 513.491 297.144ZM513.455 296.256C512.063 296.256 511.535 295.032 511.439 294.036C511.883 293.328 512.651 292.836 513.443 292.836C514.475 292.836 515.291 293.388 515.291 294.564C515.291 295.332 514.691 296.256 513.455 296.256Z" fill="#676C72"/>
<line x1="26.5" y1="19" x2="26.5" y2="274" stroke="#EAEAEA"/>
<line x1="510.5" y1="19" x2="510.5" y2="274" stroke="#EAEAEA"/>
<path d="M27 208.058C39.6213 212.037 86.2653 219 138.122 219C247.599 219 376.83 125.99 511 124" stroke="#0019F8" stroke-width="2" stroke-linejoin="round"/>
</svg>
