<svg width="20" height="20" viewBox="0 0 20 20" fill="none" xmlns="http://www.w3.org/2000/svg">
<g clip-path="url(#clip0_12525_5225)">
<path d="M16.3332 11.0004C16.3315 13.8582 14.4161 16.361 11.6579 17.1092C8.89969 17.8574 5.9821 16.6657 4.53649 14.2004C3.18683 11.8987 3.42446 8.99802 5.13071 6.9467C6.83696 4.89538 9.64584 4.13344 12.1548 5.04132C14.6638 5.9492 16.3347 8.33217 16.3332 11.0004Z" fill="#27A600"/>
<path d="M8.08654 17.0369C6.03866 18.014 3.85151 18.6673 1.60321 18.9735C1.54497 18.98 1.48753 18.9558 1.45151 18.9096C1.41548 18.8634 1.40603 18.8017 1.42654 18.7469L2.06321 17.0535L2.29321 16.4435C2.30777 16.4021 2.30537 16.3566 2.28654 16.3169C2.27839 16.293 2.2633 16.2721 2.24321 16.2569L0.673208 14.9502C0.621176 14.9059 0.60149 14.8343 0.623547 14.7696C0.645604 14.7049 0.704932 14.6602 0.773208 14.6569C2.03818 14.6097 3.297 14.4569 4.53654 14.2002C5.32734 15.5531 6.59249 16.564 8.08654 17.0369Z" fill="#5476C9"/>
<path d="M17.7133 16.3169C17.6944 16.3566 17.692 16.4021 17.7066 16.4435L17.9366 17.0535L18.5733 18.7469C18.5938 18.8017 18.5843 18.8634 18.5483 18.9096C18.5123 18.9558 18.4548 18.98 18.3966 18.9735C16.1483 18.6673 13.9611 18.014 11.9133 17.0369C13.4073 16.564 14.6725 15.5531 15.4633 14.2002C16.7028 14.4569 17.9616 14.6097 19.2266 14.6569C19.2949 14.6602 19.3542 14.7049 19.3763 14.7696C19.3983 14.8343 19.3786 14.9059 19.3266 14.9502L17.7566 16.2569C17.7365 16.2721 17.7214 16.293 17.7133 16.3169Z" fill="#5476C9"/>
<path d="M10.3001 6.61577L11.4424 8.96277L14.0064 9.34043C14.1313 9.35892 14.2351 9.4464 14.2744 9.56639C14.3137 9.68638 14.2818 9.81828 14.1921 9.9071L12.3334 11.7438L12.7711 14.3314C12.7922 14.4567 12.7403 14.5831 12.6373 14.6573C12.5342 14.7316 12.3979 14.7408 12.2858 14.6811L10.0001 13.4628L7.71443 14.6811C7.60231 14.7408 7.466 14.7316 7.36294 14.6573C7.25988 14.5831 7.20798 14.4567 7.2291 14.3314L7.66677 11.7438L5.80843 9.90743C5.71869 9.81861 5.68683 9.68671 5.72614 9.56672C5.76546 9.44673 5.8692 9.35925 5.9941 9.34077L8.5581 8.9631L9.7001 6.61577C9.7558 6.50077 9.87233 6.42773 10.0001 6.42773C10.1279 6.42773 10.2444 6.50077 10.3001 6.61577Z" fill="#FFDD00"/>
<path d="M13.1901 3.63313C13.1463 3.63304 13.1029 3.62443 13.0624 3.6078C12.9807 3.57395 12.9158 3.50903 12.882 3.42732C12.8482 3.34562 12.8482 3.25382 12.8821 3.17213L13.2654 2.2488C13.3359 2.0787 13.531 1.99796 13.7011 2.06847C13.8712 2.13897 13.9519 2.33403 13.8814 2.50413L13.4981 3.42746C13.4465 3.55199 13.3249 3.63316 13.1901 3.63313Z" fill="#FFDD00"/>
<path d="M17.6998 8.14333C17.5407 8.14358 17.4035 8.0313 17.3724 7.87524C17.3412 7.71917 17.4248 7.56285 17.5718 7.50199L18.4951 7.11833C18.6051 7.0726 18.7311 7.08901 18.8257 7.16139C18.9203 7.23377 18.9691 7.35112 18.9537 7.46923C18.9384 7.58734 18.8611 7.68826 18.7511 7.73399L17.8275 8.11766C17.787 8.13453 17.7436 8.14325 17.6998 8.14333Z" fill="#FFDD00"/>
<path d="M6.81008 3.63289C6.67527 3.63292 6.55371 3.55175 6.50208 3.42722L6.11875 2.50389C6.06492 2.39261 6.07709 2.26068 6.15037 2.16113C6.22364 2.06158 6.346 2.01075 6.46824 2.02908C6.59049 2.04741 6.69255 2.13189 6.73341 2.24855L7.11674 3.17189C7.15931 3.27454 7.14791 3.39165 7.08636 3.48418C7.02481 3.5767 6.9212 3.63247 6.81008 3.63289Z" fill="#FFDD00"/>
<path d="M2.29987 8.14335C2.25604 8.14327 2.21266 8.13455 2.17221 8.11769L1.24854 7.73302C1.13856 7.68729 1.06134 7.58636 1.04595 7.46825C1.03056 7.35014 1.07936 7.2328 1.17395 7.16042C1.26854 7.08804 1.39456 7.07162 1.50454 7.11735L2.42787 7.50102C2.57631 7.56106 2.66108 7.71815 2.62979 7.87518C2.5985 8.0322 2.45998 8.1448 2.29987 8.14335Z" fill="#FFDD00"/>
<path d="M9.99986 3.33333C9.81577 3.33333 9.66653 3.18409 9.66653 3V1.33333C9.66653 1.14924 9.81577 1 9.99986 1C10.184 1 10.3332 1.14924 10.3332 1.33333V3C10.3332 3.18409 10.184 3.33333 9.99986 3.33333Z" fill="#FFDD00"/>
<path d="M15.6569 5.67623C15.5221 5.6762 15.4006 5.59499 15.349 5.47045C15.2974 5.34591 15.3259 5.20256 15.4212 5.10723L16.5999 3.92889C16.6828 3.83885 16.8083 3.80146 16.927 3.8315C17.0456 3.86154 17.1383 3.95417 17.1683 4.07281C17.1983 4.19145 17.161 4.31702 17.0709 4.3999L15.8926 5.57823C15.8301 5.64087 15.7454 5.67613 15.6569 5.67623Z" fill="#FFDD00"/>
<path d="M4.34317 5.67623C4.25477 5.67621 4.17 5.64108 4.1075 5.57857L2.92917 4.3999C2.83912 4.31702 2.80173 4.19145 2.83177 4.07281C2.86181 3.95417 2.95445 3.86154 3.07309 3.8315C3.19173 3.80146 3.31729 3.83885 3.40017 3.92889L4.57851 5.10723C4.67381 5.20256 4.70231 5.34591 4.65073 5.47045C4.59915 5.59499 4.47764 5.6762 4.34284 5.67623H4.34317Z" fill="#FFDD00"/>
<path d="M2 11.3336H0.333333C0.149238 11.3336 0 11.1844 0 11.0003C0 10.8162 0.149238 10.667 0.333333 10.667H2C2.18409 10.667 2.33333 10.8162 2.33333 11.0003C2.33333 11.1844 2.18409 11.3336 2 11.3336Z" fill="#FFDD00"/>
<path d="M19.6667 11.3336H18.0001C17.816 11.3336 17.6667 11.1844 17.6667 11.0003C17.6667 10.8162 17.816 10.667 18.0001 10.667H19.6667C19.8508 10.667 20 10.8162 20 11.0003C20 11.1844 19.8508 11.3336 19.6667 11.3336Z" fill="#FFDD00"/>
<path d="M4.14668 16.2429C3.51566 16.6165 2.82935 16.8876 2.11335 17.0462C2.09695 17.0501 2.0802 17.0523 2.06335 17.0529L2.29335 16.4429C2.30791 16.4014 2.30552 16.3559 2.28669 16.3162C2.82081 16.1659 3.33377 15.9486 3.81335 15.6695C3.91593 15.607 4.0443 15.6049 4.14893 15.6639C4.25356 15.7229 4.31809 15.8339 4.31762 15.954C4.31716 16.0742 4.25177 16.1847 4.14668 16.2429Z" fill="#3B5CAD"/>
<path d="M17.9368 17.0529C17.92 17.0523 17.9032 17.0501 17.8868 17.0462C17.1708 16.8876 16.4845 16.6165 15.8535 16.2429C15.6993 16.1489 15.6486 15.949 15.7394 15.7929C15.8301 15.6369 16.0289 15.5821 16.1868 15.6695C16.6664 15.9486 17.1794 16.1659 17.7135 16.3162C17.6947 16.3559 17.6923 16.4014 17.7068 16.4429L17.9368 17.0529Z" fill="#3B5CAD"/>
<path d="M9.99986 17.6667C6.31925 17.6636 3.33632 14.6806 3.33319 11C3.33271 7.58157 5.91798 4.71668 9.31855 4.36732C12.7191 4.01797 15.8329 6.29737 16.5275 9.64452C17.222 12.9917 15.2723 16.3218 12.0135 17.3544C11.3626 17.5624 10.6832 17.6678 9.99986 17.6667ZM9.99986 5.00003C6.68859 5.00169 4.00531 7.68676 4.00586 10.998C4.00641 14.3093 6.69059 16.9935 10.0019 16.994C13.3131 16.9946 15.9982 14.3113 15.9999 11C15.996 7.68792 13.312 5.00389 9.99986 5.00003Z" fill="#27A600"/>
</g>
<defs>
<clipPath id="clip0_12525_5225">
<rect width="20" height="20" fill="white"/>
</clipPath>
</defs>
</svg>
