<svg width="44" height="44" viewBox="0 0 44 44" fill="none" xmlns="http://www.w3.org/2000/svg">
<path d="M38.3404 16.2688C38.3404 7.29781 31.0426 0 22.0716 0C13.1014 0 5.80273 7.29781 5.80273 16.2688C5.80273 25.6102 10.7639 29.8719 15.1407 33.6316C18.5138 36.5295 21.427 39.032 21.427 43.3555C21.427 43.7113 21.7158 44 22.0716 44C22.4273 44 22.7161 43.7113 22.7161 43.3555C22.7161 42.9155 22.7462 42.4944 22.8046 42.0896C23.3142 38.5189 25.9723 36.2347 29.0024 33.6316C33.3792 29.8719 38.3404 25.6102 38.3404 16.2688Z" fill="#FF8300"/>
<path d="M32.3753 16.7062C32.3753 20.0518 30.7725 23.0295 28.2941 24.9124L25.0388 24.9021L15.7979 24.8737C13.3487 22.9891 11.7675 20.0286 11.7675 16.7062C11.7675 11.4812 15.6768 7.15258 20.7239 6.49086C21.1647 6.43242 21.615 6.40234 22.0714 6.40234C27.7527 6.40234 32.3753 11.0249 32.3753 16.7062Z" fill="#E1F9FF"/>
<path d="M32.3747 16.7062C32.3747 20.0518 30.7719 23.0295 28.2935 24.9124L25.0382 24.9021C27.5613 23.0244 29.195 20.0191 29.195 16.6323C29.195 11.5672 25.5401 7.35539 20.7233 6.49086C21.1641 6.43242 21.6144 6.40234 22.0708 6.40234C27.7521 6.40234 32.3747 11.0249 32.3747 16.7062Z" fill="#A6DFF5"/>
<path d="M28.2936 24.9136C27.4729 25.5366 26.5576 26.0411 25.5719 26.3986C24.4788 26.7947 23.2997 27.0113 22.0708 27.0113C19.7118 27.0113 17.5359 26.2146 15.7974 24.8749C15.7897 24.4186 15.8507 22.6689 17.1183 21.3111C18.0894 20.2704 19.5082 19.6851 21.3386 19.5682C21.5681 19.5536 21.8036 19.5459 22.0459 19.5459C24.2227 19.5459 25.8804 20.1397 26.9744 21.3111C28.2815 22.711 28.3056 24.5277 28.2936 24.9136Z" fill="#27A600"/>
<path d="M28.2934 24.9136C27.4727 25.5366 26.5575 26.0411 25.5718 26.3986C25.7557 22.5735 22.9378 20.4869 21.3385 19.5682C21.568 19.5536 21.8034 19.5459 22.0458 19.5459C24.2226 19.5459 25.8803 20.1397 26.9743 21.3111C28.2814 22.711 28.3055 24.5277 28.2934 24.9136Z" fill="#289B05"/>
<path d="M25.1586 19.6599C24.4875 20.4385 23.4407 20.8338 22.0468 20.8338C20.8222 20.8338 19.8649 20.5288 19.1954 19.9255C19.1043 19.8438 19.0193 19.7562 18.9385 19.6634C18.0516 18.6373 18.1006 17.2451 18.2089 16.5069C18.2304 16.3574 18.3043 16.2199 18.4168 16.1193L21.5931 13.2808C21.8354 13.0642 22.2024 13.0625 22.4473 13.2765L24.6267 15.1852L25.6708 16.0995C25.7851 16.2001 25.8607 16.3385 25.8831 16.4888C25.9939 17.2305 26.0472 18.6287 25.1586 19.6599Z" fill="#FFE6C7"/>
<path d="M25.1578 19.6603C24.4866 20.4389 23.4399 20.8342 22.046 20.8342C20.8214 20.8342 19.864 20.5291 19.1946 19.9259C21.7985 19.5495 23.9143 17.6648 24.6258 15.1855L25.67 16.0999C25.7843 16.2005 25.8599 16.3388 25.8822 16.4892C25.9931 17.2309 26.0464 18.6291 25.1578 19.6603Z" fill="#FFD5B0"/>
<path d="M26.4591 16.8966C26.3731 16.9963 26.258 17.0676 26.1299 17.1003C26.087 17.1115 25.5576 17.2429 24.8649 17.2429C24.6372 17.2429 24.3923 17.2283 24.1396 17.1905C23.6077 17.1123 23.0473 16.9293 22.5687 16.5572C22.3633 16.3982 22.1845 16.2143 22.0324 16.008C21.8803 16.2143 21.7016 16.3982 21.4953 16.5572C20.7898 17.1054 19.9089 17.2429 19.1991 17.2429C18.5073 17.2429 17.9779 17.1115 17.9349 17.1003C17.8069 17.0676 17.6917 16.9963 17.6058 16.8966C16.6931 15.8344 16.6029 14.5557 17.3574 13.3886C18.2271 12.0446 20.0163 11.2204 21.2659 11.5891C21.5658 11.6785 21.8236 11.8271 22.0324 12.0291C22.1398 11.9251 22.2602 11.8349 22.3934 11.7601C22.518 11.6896 22.6529 11.6321 22.799 11.5891C24.0477 11.2204 25.8377 12.0446 26.7066 13.3886C27.462 14.5557 27.3709 15.8344 26.4591 16.8966Z" fill="#3A4048"/>
<path d="M26.4594 16.8966C26.3735 16.9963 26.2583 17.0676 26.1303 17.1003C26.0873 17.1115 25.558 17.2429 24.8653 17.2429C24.6376 17.2429 24.3926 17.2283 24.14 17.1905C25.8484 15.0524 24.2861 12.7621 22.3843 11.7696C22.3877 11.7661 22.3903 11.7636 22.3937 11.7601C22.5183 11.6896 22.6533 11.6321 22.7994 11.5891C24.048 11.2204 25.8381 12.0446 26.7069 13.3886C27.4623 14.5557 27.3712 15.8344 26.4594 16.8966Z" fill="#3A4048"/>
</svg>
