<svg width="44" height="44" viewBox="0 0 44 44" fill="none" xmlns="http://www.w3.org/2000/svg">
<path d="M38.5377 16.2688C38.5377 7.29781 31.2398 0 22.2688 0C13.2987 0 6 7.29781 6 16.2688C6 25.6102 10.9612 29.8719 15.338 33.6316C18.711 36.5295 21.6243 39.032 21.6243 43.3555C21.6243 43.7112 21.913 44 22.2688 44C22.6246 44 22.9134 43.7112 22.9134 43.3555C22.9134 42.9155 22.9434 42.4944 23.0019 42.0896C23.5115 38.5189 26.1695 36.2347 29.1997 33.6316C33.5765 29.8719 38.5377 25.6102 38.5377 16.2688V16.2688Z" fill="#3B5CAD"/>
<path d="M32.5727 16.7062C32.5727 20.0518 30.9699 23.0295 28.4915 24.9124C28.4915 24.9124 26.1973 26.5 22.1973 26.5C18.1973 26.5 15.9953 24.8737 15.9953 24.8737C13.5461 22.9891 11.9648 20.0286 11.9648 16.7062C11.9648 11.4812 15.8741 7.15258 20.9213 6.49086C21.3621 6.43242 21.8124 6.40234 22.2688 6.40234C27.9501 6.40234 32.5727 11.0249 32.5727 16.7062Z" fill="#E1F9FF"/>
<path d="M32.5723 16.7062C32.5723 20.0518 30.9696 23.0295 28.4911 24.9124L25.2358 24.9021C27.7589 23.0244 29.3926 20.0191 29.3926 16.6323C29.3926 11.5672 25.7377 7.35539 20.9209 6.49086C21.3618 6.43242 21.8121 6.40234 22.2684 6.40234C27.9497 6.40234 32.5723 11.0249 32.5723 16.7062V16.7062Z" fill="#A6DFF5"/>
<path d="M26.1982 10H18.1982C17.0937 10 16.1982 10.8954 16.1982 12V20C16.1982 21.1045 17.0937 22 18.1982 22H26.1982C27.3028 22 28.1982 21.1045 28.1982 20V12C28.1982 10.8954 27.3028 10 26.1982 10Z" fill="#F4AE19"/>
<path d="M29.7359 16.4615H28.8743V14.3076H27.582V13.2307H29.3051C29.4194 13.2307 29.5289 13.2874 29.6097 13.3884C29.6905 13.4894 29.7359 13.6264 29.7359 13.7692V16.4615Z" fill="#27A600"/>
<path d="M15.5207 16.4615H14.6592V13.7692C14.6592 13.6264 14.7046 13.4894 14.7853 13.3884C14.8661 13.2874 14.9757 13.2307 15.0899 13.2307H16.813V14.3076H15.5207V16.4615Z" fill="#27A600"/>
<path d="M26.1973 21.9999H24.1973V23.3332C24.1973 23.51 24.2675 23.6796 24.3925 23.8046C24.5176 23.9296 24.6871 23.9999 24.8639 23.9999H26.1973C26.3741 23.9999 26.5436 23.9296 26.6687 23.8046C26.7937 23.6796 26.8639 23.51 26.8639 23.3332V21.8772C26.6504 21.9562 26.4249 21.9977 26.1973 21.9999V21.9999Z" fill="#27A600"/>
<path d="M18.1969 21.9999C17.9693 21.9977 17.7438 21.9562 17.5303 21.8772V23.3332C17.5303 23.51 17.6005 23.6796 17.7255 23.8046C17.8506 23.9296 18.0201 23.9999 18.1969 23.9999H19.5303C19.7071 23.9999 19.8766 23.9296 20.0017 23.8046C20.1267 23.6796 20.1969 23.51 20.1969 23.3332V21.9999H18.1969Z" fill="#27A600"/>
<path d="M26.1982 10H18.1982C17.6678 10 17.1591 10.2107 16.784 10.5858C16.409 10.9609 16.1982 11.4696 16.1982 12V20C16.2004 20.2276 16.2419 20.4532 16.3209 20.6666H24.8649C25.3953 20.6666 25.904 20.4559 26.2791 20.0809C26.6542 19.7058 26.8649 19.1971 26.8649 18.6666V10.1227C26.6514 10.0437 26.4259 10.0022 26.1982 10V10Z" fill="#FECA20"/>
<path d="M16.1982 12.6665H28.1982V16.6665H16.1982V12.6665Z" fill="#BCE4F8"/>
<path d="M21.5312 12.6665H22.8646V16.6665H21.5312V12.6665Z" fill="#EECC61"/>
<path d="M18.1973 18.6666H19.5306V20H18.1973V18.6666Z" fill="white"/>
<path d="M24.8643 18.6666H26.1976V20H24.8643V18.6666Z" fill="white"/>
<path d="M16.1982 12.6665V15.3332H19.5316C19.8852 15.3332 20.2243 15.1927 20.4744 14.9426C20.7244 14.6926 20.8649 14.3535 20.8649 13.9998V12.6665H16.1982Z" fill="#E4F5FD"/>
<path d="M22.8652 12.6665V15.3332H26.1986C26.5522 15.3332 26.8913 15.1927 27.1414 14.9426C27.3914 14.6926 27.5319 14.3535 27.5319 13.9998V12.6665H22.8652Z" fill="#E4F5FD"/>
</svg>
