<svg width="44" height="44" viewBox="0 0 44 44" fill="none" xmlns="http://www.w3.org/2000/svg">
<path d="M38.2695 16.2688C38.2695 7.29781 30.9717 0 22.0006 0C13.0305 0 5.73181 7.29781 5.73181 16.2688C5.73181 25.6102 10.693 29.8719 15.0698 33.6316C18.4428 36.5295 21.3561 39.032 21.3561 43.3555C21.3561 43.7113 21.6449 44 22.0006 44C22.3564 44 22.6452 43.7113 22.6452 43.3555C22.6452 42.9155 22.6753 42.4944 22.7337 42.0896C23.2433 38.5189 25.9013 36.2347 28.9315 33.6316C33.3083 29.8719 38.2695 25.6102 38.2695 16.2688Z" fill="#3B5CAD"/>
<path d="M38.2688 16.2688C38.2688 7.29781 30.971 0 22 0C28.6198 0.108281 34.7591 7.82719 34.7591 16.3891C34.7591 31.8398 23.8382 33.1048 22.733 42.0896C23.2427 38.5189 25.9007 36.2347 28.9309 33.6316C33.3077 29.8719 38.2688 25.6102 38.2688 16.2688Z" fill="#31509C"/>
<path d="M32.3045 16.1906C32.3045 20.075 30.144 23.4635 26.9617 25.2192L24.4558 25.1995L16.8959 25.1384C13.7927 23.3612 11.6967 20.0157 11.6967 16.1906C11.6967 10.8006 15.8577 6.36367 21.136 5.92367C21.4205 5.89875 21.7092 5.88672 22.0006 5.88672C27.6819 5.88672 32.3045 10.5093 32.3045 16.1906Z" fill="#E1F9FF"/>
<path d="M32.3045 16.1906C32.3045 20.075 30.1441 23.4635 26.9618 25.2192L24.4559 25.1995C27.6957 23.4627 29.8983 20.0449 29.8983 16.1124C29.8983 10.9459 26.0956 6.66703 21.1361 5.92367C21.4206 5.89875 21.7093 5.88672 22.0006 5.88672C27.682 5.88672 32.3045 10.5093 32.3045 16.1906Z" fill="#A6DFF5"/>
<path d="M26.9628 25.2194C26.3458 25.5597 25.6901 25.839 25.0052 26.0479C24.0547 26.3383 23.0458 26.4947 22.0016 26.4947C20.1454 26.4947 18.4026 26.0014 16.897 25.1386C16.8497 20.2857 16.933 15.1175 16.933 15.1175L21.9303 11.6963L24.9854 13.8172L26.9276 15.1647C26.9276 15.1647 27.0126 20.339 26.9628 25.2194Z" fill="#27A600"/>
<path d="M26.9624 25.2196C26.3454 25.5599 25.6897 25.8392 25.0048 26.048C25.0417 20.4844 25.0082 15.9804 24.985 13.8174L26.9272 15.1649C26.9272 15.1649 27.0123 20.3392 26.9624 25.2196Z" fill="#279F03"/>
<path d="M29.0288 16.5354C28.8926 16.4026 25.6532 13.2596 22.2696 11.1485C22.0609 11.0182 21.7961 11.0182 21.5873 11.1485C18.2036 13.2595 14.9644 16.4026 14.8282 16.5354C14.5733 16.7838 14.5681 17.1918 14.8164 17.4467C15.0649 17.7017 15.4729 17.7069 15.7278 17.4586C15.7591 17.4282 18.7837 14.494 21.9284 12.459C25.0732 14.494 28.0979 17.4281 28.1292 17.4586C28.2545 17.5806 28.4167 17.6415 28.5789 17.6415C28.7466 17.6414 28.9143 17.5764 29.0406 17.4467C29.289 17.1917 29.2838 16.7838 29.0288 16.5354Z" fill="#FF8300"/>
<path d="M20.4102 20.582C20.0542 20.582 19.7656 20.8705 19.7656 21.2266V22.9456C19.7656 23.3017 20.0542 23.5902 20.4102 23.5902C20.7661 23.5902 21.0547 23.3017 21.0547 22.9456V21.2266C21.0547 20.8705 20.7661 20.582 20.4102 20.582Z" fill="white"/>
<path d="M23.5898 20.582C23.2339 20.582 22.9453 20.8705 22.9453 21.2266V22.9456C22.9453 23.3017 23.2339 23.5902 23.5898 23.5902C23.9458 23.5902 24.2344 23.3017 24.2344 22.9456V21.2266C24.2344 20.8705 23.9458 20.582 23.5898 20.582Z" fill="white"/>
<path d="M20.4102 16.1133C20.0542 16.1133 19.7656 16.4018 19.7656 16.7578V18.4769C19.7656 18.8329 20.0542 19.1214 20.4102 19.1214C20.7661 19.1214 21.0547 18.8329 21.0547 18.4769V16.7578C21.0547 16.4018 20.7661 16.1133 20.4102 16.1133Z" fill="white"/>
<path d="M23.5898 16.1133C23.2339 16.1133 22.9453 16.4018 22.9453 16.7578V18.4769C22.9453 18.8329 23.2339 19.1214 23.5898 19.1214C23.9458 19.1214 24.2344 18.8329 24.2344 18.4769V16.7578C24.2344 16.4018 23.9458 16.1133 23.5898 16.1133Z" fill="white"/>
</svg>
