<svg width="32" height="43" viewBox="0 0 32 43" fill="none" xmlns="http://www.w3.org/2000/svg">
<path d="M31.5224 15.7612C31.5224 23.0706 20.4089 37.181 16.8462 41.5167C16.2839 42.2009 15.2384 42.2009 14.6761 41.5167C11.1133 37.181 0 23.0706 0 15.7612C0 7.05654 7.05654 0 15.7612 0C24.4659 0 31.5224 7.05654 31.5224 15.7612V15.7612Z" fill="#296BCD"/>
<path d="M15.7612 0C14.8797 0 14.0157 0.0734808 13.1738 0.21268C20.6474 1.44719 26.3477 7.93796 26.3477 15.7612C26.3477 22.2297 17.6456 34.0225 13.1738 39.6555C13.7361 40.3637 14.2317 40.9749 14.6346 41.4659C15.218 42.1766 16.3038 42.1775 16.8872 41.4668C20.4934 37.0737 31.5224 23.0429 31.5224 15.7614C31.5224 7.05654 24.4658 0 15.7612 0Z" fill="#195DC2"/>
<path d="M15.7613 20.0722C18.6413 20.0722 20.9761 17.7374 20.9761 14.8573C20.9761 11.9772 18.6413 9.64246 15.7613 9.64246C12.8812 9.64246 10.5464 11.9772 10.5464 14.8573C10.5464 17.7374 12.8812 20.0722 15.7613 20.0722Z" fill="#F6F6F7"/>
</svg>
