<svg width="24" height="24" viewBox="0 0 24 24" fill="none" xmlns="http://www.w3.org/2000/svg">
<g clip-path="url(#clip0_12525_6219)">
<path d="M15.6462 20.1326L4.27531 17.5197C3.89685 17.4327 3.66055 17.0554 3.7475 16.677L7.45428 0.545823C7.54124 0.167354 7.91853 -0.068943 8.297 0.0180101L19.6678 2.63092C20.0463 2.71787 20.2826 3.09517 20.1957 3.47364L16.4889 19.6048C16.402 19.9832 16.0247 20.2195 15.6462 20.1326Z" fill="#9DC6FB"/>
<path d="M19.668 2.63072L19.0566 2.49023L15.4947 17.9907C15.4053 18.3798 15.0173 18.6228 14.6282 18.5334L3.88799 16.0654L3.7475 16.6768C3.66055 17.0552 3.8968 17.4324 4.27522 17.5194L15.6463 20.1323C16.0247 20.2193 16.4019 19.983 16.4889 19.6046L20.1957 3.47325C20.2826 3.09492 20.0464 2.71767 19.668 2.63072Z" fill="#80B4FB"/>
<path d="M15.8603 21.4695H4.19312C3.8048 21.4695 3.48999 21.1547 3.48999 20.7664V4.21484C3.48999 3.82653 3.8048 3.51172 4.19312 3.51172H15.8603C16.2487 3.51172 16.5635 3.82653 16.5635 4.21484V20.7664C16.5634 21.1547 16.2486 21.4695 15.8603 21.4695Z" fill="#ECBE6B"/>
<path d="M15.8604 3.51172H15.2331V19.4162C15.2331 19.8155 14.9094 20.1391 14.5101 20.1391H3.48999V20.7665C3.48999 21.1548 3.80476 21.4695 4.19297 21.4695H15.8604C16.2487 21.4695 16.5634 21.1547 16.5634 20.7665V4.2147C16.5634 3.82644 16.2487 3.51172 15.8604 3.51172Z" fill="#EAB14D"/>
<path d="M8.45263 7.61744H5.26429C5.06464 7.61744 4.90283 7.45563 4.90283 7.25598C4.90283 7.05634 5.06469 6.89453 5.26429 6.89453H8.45263C8.65227 6.89453 8.81408 7.05634 8.81408 7.25598C8.81408 7.45563 8.65227 7.61744 8.45263 7.61744Z" fill="#E7A52E"/>
<path d="M8.45263 9.60767H5.26429C5.06464 9.60767 4.90283 9.44586 4.90283 9.24622C4.90283 9.04658 5.06469 8.88477 5.26429 8.88477H8.45263C8.65227 8.88477 8.81408 9.04658 8.81408 9.24622C8.81408 9.44586 8.65227 9.60767 8.45263 9.60767Z" fill="#E7A52E"/>
<path d="M8.45263 11.5979H5.26429C5.06464 11.5979 4.90283 11.4361 4.90283 11.2365C4.90283 11.0368 5.06469 10.875 5.26429 10.875H8.45263C8.65227 10.875 8.81408 11.0368 8.81408 11.2365C8.81408 11.4361 8.65227 11.5979 8.45263 11.5979Z" fill="#E7A52E"/>
<path d="M8.45263 13.5881H5.26429C5.06464 13.5881 4.90283 13.4263 4.90283 13.2267C4.90283 13.027 5.06469 12.8652 5.26429 12.8652H8.45263C8.65227 12.8652 8.81408 13.027 8.81408 13.2267C8.81408 13.4263 8.65227 13.5881 8.45263 13.5881Z" fill="#E7A52E"/>
<path d="M8.45263 15.5784H5.26429C5.06464 15.5784 4.90283 15.4166 4.90283 15.2169C4.90283 15.0173 5.06469 14.8555 5.26429 14.8555H8.45263C8.65227 14.8555 8.81408 15.0173 8.81408 15.2169C8.81408 15.4166 8.65227 15.5784 8.45263 15.5784Z" fill="#E7A52E"/>
<path d="M8.45263 17.5686H5.26429C5.06464 17.5686 4.90283 17.4068 4.90283 17.2072C4.90283 17.0075 5.06469 16.8457 5.26429 16.8457H8.45263C8.65227 16.8457 8.81408 17.0075 8.81408 17.2072C8.81408 17.4068 8.65227 17.5686 8.45263 17.5686Z" fill="#E7A52E"/>
<path d="M15.7607 6.04199H8.15962C7.76029 6.04199 7.43652 6.36571 7.43652 6.76509V23.2767C7.43652 23.676 7.76024 23.9998 8.15962 23.9998H19.7869C20.1862 23.9998 20.51 23.6761 20.51 23.2767V10.7912C20.51 10.5355 20.4084 10.2903 20.2276 10.1095L16.4425 6.32437C16.2617 6.14357 16.0164 6.04199 15.7607 6.04199Z" fill="#27A600"/>
<path d="M20.2276 10.1097L18.9294 8.81152C19.1102 8.99232 19.2118 9.23752 19.2118 9.49323V21.9787C19.2118 22.378 18.888 22.7018 18.4887 22.7018H7.43652V23.2769C7.43652 23.6762 7.76024 24 8.15962 24H19.7869C20.1862 24 20.51 23.6763 20.51 23.2769V10.7914C20.51 10.5357 20.4084 10.2905 20.2276 10.1097Z" fill="#2A930A"/>
<path d="M20.2278 10.1097L16.4426 6.32462C16.3095 6.19149 16.1414 6.10177 15.96 6.06348V10.1103C15.96 10.3766 16.1758 10.5924 16.442 10.5924H20.4889C20.4506 10.4109 20.3609 10.2428 20.2278 10.1097Z" fill="#2A930A"/>
<path d="M20.2278 10.1092L19.3871 9.26855H15.96V10.1098C15.96 10.376 16.1758 10.5919 16.442 10.5919H20.4889C20.4506 10.4105 20.3609 10.2423 20.2278 10.1092Z" fill="#257E09"/>
<path d="M18.0004 15.8296C18.2001 15.8296 18.3619 15.6678 18.3619 15.4681C18.3619 15.2685 18.2 15.1067 18.0004 15.1067H10.8446V13.8393H18.0004C18.2001 13.8393 18.3619 13.6775 18.3619 13.4778C18.3619 13.2782 18.2 13.1164 18.0004 13.1164H10.8446V12.6349C10.8446 12.4352 10.6827 12.2734 10.4831 12.2734C10.2835 12.2734 10.1216 12.4352 10.1216 12.6349V13.1164H9.06897C8.86933 13.1164 8.70752 13.2782 8.70752 13.4778C8.70752 13.6775 8.86938 13.8393 9.06897 13.8393H10.1216V15.1067H9.06897C8.86933 15.1067 8.70752 15.2685 8.70752 15.4681C8.70752 15.6678 8.86938 15.8296 9.06897 15.8296H10.1216V17.097H9.06897C8.86933 17.097 8.70752 17.2588 8.70752 17.4584C8.70752 17.6581 8.86938 17.8199 9.06897 17.8199H10.1216V19.0872H9.06897C8.86933 19.0872 8.70752 19.2491 8.70752 19.4487C8.70752 19.6483 8.86938 19.8102 9.06897 19.8102H10.1216V20.291C10.1216 20.4907 10.2835 20.6525 10.4831 20.6525C10.6827 20.6525 10.8446 20.4907 10.8446 20.291V19.8102H18.0004C18.2001 19.8102 18.3619 19.6484 18.3619 19.4487C18.3619 19.2491 18.2 19.0872 18.0004 19.0872H10.8446V17.8199H18.0004C18.2001 17.8199 18.3619 17.6581 18.3619 17.4584C18.3619 17.2588 18.2 17.097 18.0004 17.097H10.8446V15.8296H18.0004Z" fill="#FFDD00"/>
</g>
<defs>
<clipPath id="clip0_12525_6219">
<rect width="24" height="24" fill="white"/>
</clipPath>
</defs>
</svg>
