<svg width="16" height="16" viewBox="0 0 16 16" fill="none" xmlns="http://www.w3.org/2000/svg">
<path d="M8 16C12.4183 16 16 12.4183 16 8C16 3.58172 12.4183 0 8 0C3.58172 0 0 3.58172 0 8C0 12.4183 3.58172 16 8 16Z" fill="#27A600"/>
<path d="M12 9.654C11.137 9.654 10.314 9.466 9.555 9.095C9.436 9.038 9.298 9.029 9.172 9.072C9.046 9.116 8.943 9.208 8.885 9.327L8.525 10.072C7.445 9.452 6.549 8.555 5.928 7.475L6.674 7.115C6.794 7.057 6.885 6.954 6.929 6.828C6.972 6.702 6.964 6.564 6.906 6.445C6.534 5.687 6.346 4.864 6.346 4C6.346 3.724 6.122 3.5 5.846 3.5H4C3.724 3.5 3.5 3.724 3.5 4C3.5 8.687 7.313 12.5 12 12.5C12.276 12.5 12.5 12.276 12.5 12V10.154C12.5 9.878 12.276 9.654 12 9.654Z" fill="#FAFAFA"/>
</svg>
