<svg width="32" height="32" viewBox="0 0 32 32" fill="none" xmlns="http://www.w3.org/2000/svg">
<circle cx="16" cy="16" r="16" fill="#EEEEEE"/>
<path d="M20.1005 16C20.1005 17.105 21.0029 18 22.1172 18C23.2314 18 24.1338 17.105 24.1338 16C24.1338 14.895 23.2314 14 22.1171 14C21.0029 14 20.1005 14.895 20.1005 16Z" fill="black"/>
<path d="M18.083 16C18.083 14.895 17.1806 14 16.0663 14C14.9521 14 14.0497 14.895 14.0497 16C14.0497 17.105 14.9521 18 16.0663 18C17.1806 18 18.083 17.105 18.083 16Z" fill="black"/>
<path d="M12.0332 16C12.0332 14.895 11.1308 14 10.0165 14C8.90235 14 7.99987 14.895 7.99987 16C7.99987 17.105 8.90231 18 10.0165 18C11.1308 18 12.0332 17.105 12.0332 16Z" fill="black"/>
</svg>
