<svg width="16" height="16" viewBox="0 0 16 16" fill="none" xmlns="http://www.w3.org/2000/svg">
<path d="M8.01595 6.29102L4.63867 9.6683L5.52083 10.5505L7.39217 8.67911V14.8769H8.63973V8.67911L10.5111 10.5505L11.3932 9.6683L8.01595 6.29102Z" fill="#3B5CAD"/>
<path d="M13.004 6.03705C12.9302 3.31492 10.6928 1.12305 7.95322 1.12305C6.69466 1.12305 5.48878 1.58867 4.55769 2.43408C3.75541 3.16252 3.21328 4.12023 3.001 5.16939C2.24256 5.33248 1.55028 5.7248 1.01466 6.3022C0.360344 7.0077 0 7.92642 0 8.88911C0 10.9872 1.70694 12.6942 3.80506 12.6942C3.81003 12.6942 3.81494 12.6941 3.81853 12.694H4.46003V11.4465H3.81337L3.8015 11.4466C2.39294 11.4447 1.24756 10.2981 1.24756 8.88911C1.24756 7.5652 2.27978 6.44548 3.59753 6.34002L4.11528 6.29858L4.16831 5.78192C4.36784 3.83714 5.99503 2.37058 7.95322 2.37058C10.0513 2.37058 11.7583 4.07752 11.7583 6.17564V7.26727H12.6628C13.815 7.26727 14.7524 8.20467 14.7524 9.35692C14.7524 10.5092 13.815 11.4466 12.6628 11.4466L11.5711 11.4464V12.694H12.6424C12.6492 12.6941 12.656 12.6942 12.6628 12.6942C14.5029 12.6942 16 11.1971 16 9.35695C16 7.63192 14.6845 6.20842 13.004 6.03705Z" fill="#3B5CAD"/>
</svg>
