<svg width="149" height="151" viewBox="0 0 149 151" fill="none" xmlns="http://www.w3.org/2000/svg">
<g clip-path="url(#clip0_23473_18513)">
<path d="M112.713 79.3885L69.1314 35.8066L34.948 69.9897C22.9132 82.0246 22.9132 101.537 34.948 113.572C46.9829 125.607 66.4953 125.607 78.5301 113.572L112.713 79.3885Z" fill="#3B5CAD"/>
<path d="M107.958 74.6357L83.9354 85.8378C74.9589 90.0237 65.7645 85.2585 62.4317 77.626C61.679 75.9025 59.8578 74.9024 57.9923 75.1398C55.1483 75.5017 53.4581 78.5032 54.6218 81.1232C55.1237 82.2534 55.7171 83.3595 56.4014 84.4338C59.6227 89.4906 64.5742 93.181 70.1358 94.8869C65.2309 102.391 65.0836 112.114 69.6864 119.754C72.2351 118.575 74.6553 117.028 76.8682 115.115C73.5793 109.435 74.3627 102.044 79.2234 97.1835L95.6919 80.7151L103.539 88.5618L112.712 79.3887L107.958 74.6357Z" fill="#3757A6"/>
<path d="M116.692 101.711L95.6958 80.7148L79.2274 97.1833C73.4294 102.981 73.4294 112.382 79.2274 118.18C85.0254 123.978 94.4259 123.978 100.224 118.18L116.692 101.711Z" fill="#4D6EC0"/>
<path d="M46.8091 31.8301L67.8056 52.8266L51.3372 69.295C45.5392 75.093 36.1387 75.093 30.3407 69.295C24.5427 63.497 24.5427 54.0965 30.3407 48.2985L46.8091 31.8301Z" fill="#4D6EC0"/>
<path d="M83.9843 18.8994L62.6821 64.5823C56.3715 78.1155 70.4038 92.1478 83.937 85.8372L129.62 64.5349L123.547 24.9724L83.9843 18.8994Z" fill="#FF8300"/>
<path d="M141.167 0.205059L42.438 26.6594C36.9575 28.1278 35.6878 35.3286 40.3355 38.5829L63.5864 54.8632C67.3217 57.4788 72.1687 57.9025 76.3014 55.9757C85.1026 51.8716 93.5425 47.936 99.2932 45.2544C99.3 45.2486 102.958 42.1641 104.657 43.8626C106.357 45.5629 103.265 49.2264 103.265 49.2264L92.5427 72.2197C90.6161 76.3513 91.0391 81.1957 93.6539 84.9298C98.836 92.3306 105.059 101.218 109.937 108.184C113.191 112.832 120.391 111.562 121.86 106.081L148.314 7.35213C149.477 3.01285 145.507 -0.957668 141.167 0.205059Z" fill="#FFDD00"/>
<path opacity="0.2" d="M114.194 30.3539L99.293 45.2547C99.5455 45.137 99.7946 45.0207 100.036 44.9079C102.313 43.846 104.672 46.2086 103.61 48.4857L103.264 49.2264L118.165 34.3254C119.262 33.2286 119.262 31.4504 118.165 30.3534C117.069 29.2571 115.291 29.2571 114.194 30.3539Z" fill="url(#paint0_linear_23473_18513)"/>
<path opacity="0.1" d="M95.9979 27.3279C94.853 28.4728 92.7703 28.246 91.3457 26.8214C89.9212 25.3969 89.6943 23.314 90.8392 22.1693C91.9841 21.0244 94.0668 21.2513 95.4913 22.6758C96.9159 24.1003 97.1428 26.1833 95.9979 27.3279Z" fill="#EA9CC5"/>
<path opacity="0.1" d="M126.353 57.6814C125.208 58.8263 123.126 58.5995 121.701 57.1749C120.277 55.7504 120.05 53.6675 121.195 52.5228C122.34 51.3779 124.422 51.6048 125.847 53.0293C127.271 54.4538 127.498 56.5365 126.353 57.6814Z" fill="#EA9CC5"/>
<path d="M106.721 30.2417C110.125 28.1524 111.19 23.6996 109.101 20.296C107.011 16.8924 102.559 15.8269 99.1549 17.9162C95.7513 20.0055 94.6859 24.4584 96.7752 27.862C98.8645 31.2656 103.317 32.331 106.721 30.2417Z" fill="white"/>
<path d="M124.464 52.7986C128.459 52.7986 131.697 49.5601 131.697 45.5653C131.697 41.5705 128.459 38.332 124.464 38.332C120.469 38.332 117.23 41.5705 117.23 45.5653C117.23 49.5601 120.469 52.7986 124.464 52.7986Z" fill="white"/>
<path d="M105.778 27.3555C107.592 25.8127 107.812 23.0913 106.27 21.2771C104.727 19.4628 102.005 19.2428 100.191 20.7856C98.377 22.3284 98.1569 25.0498 99.6997 26.864C101.243 28.6783 103.964 28.8983 105.778 27.3555Z" fill="#353544"/>
<path d="M126.332 49.4496C128.463 48.3901 129.331 45.8038 128.272 43.6729C127.212 41.542 124.626 40.6735 122.495 41.733C120.364 42.7925 119.496 45.3788 120.555 47.5097C121.615 49.6406 124.201 50.5091 126.332 49.4496Z" fill="#353544"/>
<path d="M112.057 41.6122C112.042 41.6122 112.026 41.612 112.011 41.6112C109.161 41.504 107.015 39.3576 106.907 36.5083C106.882 35.8342 107.407 35.2674 108.081 35.2417C108.756 35.208 109.322 35.7419 109.348 36.4157C109.407 37.9787 110.54 39.1116 112.103 39.1707C112.777 39.1961 113.302 39.763 113.277 40.437C113.252 41.0952 112.711 41.6122 112.057 41.6122Z" fill="#353544"/>
</g>
<path d="M34.6713 151C34.2121 151 33.7519 150.825 33.4011 150.475C32.6996 149.773 32.6996 148.636 33.4011 147.934L47.2995 134.037C48.0001 133.335 49.1374 133.335 49.839 134.037C50.5405 134.738 50.5405 135.876 49.839 136.576L35.9415 150.475C35.5908 150.825 35.1306 151 34.6713 151Z" fill="white"/>
<path d="M1.79564 108.523C1.33544 108.523 0.876188 108.348 0.525432 107.998C-0.175144 107.296 -0.175144 106.159 0.525432 105.457L10.181 95.8025C10.8825 95.101 12.019 95.101 12.7205 95.8025C13.422 96.504 13.422 97.6405 12.7205 98.342L3.06584 107.997C2.71508 108.347 2.25489 108.523 1.79564 108.523Z" fill="white"/>
<path d="M13.3627 137.62C12.9026 137.62 12.4433 137.445 12.0925 137.094C11.391 136.393 11.391 135.255 12.0925 134.555L20.3984 126.249C21.0999 125.547 22.2373 125.547 22.9379 126.249C23.6394 126.95 23.6394 128.087 22.9379 128.788L14.632 137.094C14.2822 137.445 13.822 137.62 13.3627 137.62Z" fill="white"/>
<defs>
<linearGradient id="paint0_linear_23473_18513" x1="99.293" y1="39.379" x2="118.988" y2="39.379" gradientUnits="userSpaceOnUse">
<stop stop-color="#B1CCCC"/>
<stop offset="1" stop-color="#E6CFCF"/>
</linearGradient>
<clipPath id="clip0_23473_18513">
<rect width="122.598" height="122.598" fill="white" transform="translate(25.9219)"/>
</clipPath>
</defs>
</svg>
