<svg width="14" height="14" viewBox="0 0 14 14" fill="none" xmlns="http://www.w3.org/2000/svg">
<g clip-path="url(#clip0_23473_18317)">
<path d="M11.7623 12.0398L6.60933 13.9153C5.88387 14.1793 5.08172 13.8053 4.81757 13.0798L1.42257 3.75194C1.15853 3.02648 1.53258 2.22422 2.25805 1.96018L7.41106 0.0846773C8.13663 -0.179361 8.93879 0.194693 9.20282 0.920157L12.5979 10.248C12.862 10.9735 12.4878 11.7757 11.7623 12.0398Z" fill="#4F71C5"/>
<path d="M6.60933 13.9152L9.96012 12.6956C4.97052 10.623 3.95817 4.65793 3.42026 1.53711L2.25805 1.96008C1.53258 2.22412 1.15853 3.02638 1.42257 3.75185L4.81757 13.0797C5.08172 13.8052 5.88387 14.1792 6.60933 13.9152Z" fill="#375EBE"/>
<path d="M7.61936 0.944673L6.46612 1.36434C6.35514 1.40482 6.27909 1.50789 6.27353 1.62602L6.25783 1.95661C6.2511 2.09664 6.16106 2.21893 6.02936 2.267L4.72082 2.74317C4.58912 2.79112 4.4414 2.75534 4.34633 2.65227L4.12171 2.40917C4.0416 2.32233 3.91706 2.2921 3.80598 2.33258L2.65284 2.75224C2.33219 2.86899 2.16685 3.2235 2.28348 3.54414L5.61066 12.6855C5.72741 13.0061 6.08191 13.1715 6.40256 13.0547L11.3692 11.2472C11.6898 11.1304 11.8551 10.7759 11.7384 10.4553L8.41126 1.31392C8.29451 0.993273 7.94001 0.827928 7.61936 0.944673Z" fill="#18C51F"/>
<path d="M6.40256 13.0552L8.8808 12.1533C5.2035 9.95478 4.11669 5.39821 3.57537 2.41699L2.65284 2.75281C2.33219 2.86945 2.16685 3.22395 2.28348 3.54471L5.61066 12.686C5.72741 13.0066 6.08202 13.1719 6.40256 13.0552Z" fill="#27A600"/>
<path d="M6.20236 9.75488L5.71743 9.93133C5.55583 9.99019 5.37724 9.90687 5.31849 9.74538L5.14193 9.26034C5.08308 9.09874 5.16639 8.92015 5.32789 8.8614L5.81292 8.68484C5.97453 8.6261 6.15312 8.70941 6.21186 8.87091L6.38842 9.35594C6.44717 9.51744 6.36396 9.69603 6.20236 9.75488Z" fill="#F8EED1"/>
<path d="M6.27018 9.71968C6.04331 9.40533 5.83514 9.07967 5.64394 8.74609L5.328 8.86113C5.16639 8.91988 5.08308 9.09846 5.14193 9.26007L5.31849 9.7451C5.37724 9.9066 5.55582 9.98991 5.71743 9.93106L6.20246 9.75461C6.22692 9.74564 6.24946 9.73367 6.27018 9.71968Z" fill="#FFCA47"/>
<path d="M8.0442 9.08393L7.55917 9.26049C7.39767 9.31924 7.21898 9.23592 7.16023 9.07443L6.98367 8.58939C6.92493 8.4279 7.00824 8.24931 7.16974 8.19045L7.65477 8.014C7.81627 7.95515 7.99486 8.03846 8.05371 8.19996L8.23016 8.68499C8.28901 8.84649 8.2057 9.02508 8.0442 9.08393Z" fill="#F8EED1"/>
<path d="M9.886 8.41401L9.40097 8.59057C9.23947 8.64932 9.06088 8.56611 9.00203 8.4045L8.82547 7.91947C8.76672 7.75797 8.85004 7.57938 9.01153 7.52053L9.49657 7.34408C9.65806 7.28523 9.83676 7.36854 9.89551 7.53004L10.0721 8.01507C10.1308 8.17667 10.0476 8.35526 9.886 8.41401Z" fill="#F8EED1"/>
<path d="M6.86648 11.5781L6.38145 11.7547C6.21985 11.8134 6.04126 11.7301 5.98251 11.5686L5.80595 11.0836C5.7472 10.9221 5.83041 10.7434 5.99191 10.6846L6.47694 10.5081C6.63855 10.4493 6.81713 10.5327 6.87588 10.6942L7.05244 11.1792C7.11129 11.3407 7.02798 11.5193 6.86648 11.5781Z" fill="#FFCA47"/>
<path d="M8.70828 10.9072L8.22325 11.0838C8.06164 11.1425 7.88305 11.0592 7.82431 10.8977L7.64775 10.4127C7.589 10.2512 7.67221 10.0726 7.83381 10.0137L8.31884 9.83719C8.48034 9.77844 8.65893 9.86175 8.71778 10.0233L8.89424 10.5083C8.95309 10.6698 8.86978 10.8485 8.70828 10.9072Z" fill="#F8EED1"/>
<path d="M10.55 10.2373L10.065 10.4138C9.90348 10.4726 9.72489 10.3892 9.66604 10.2277L9.48959 9.74271C9.43073 9.58122 9.51405 9.40263 9.67555 9.34377L10.1606 9.16732C10.3221 9.10847 10.5008 9.19178 10.5595 9.35328L10.7361 9.83831C10.7948 9.99992 10.7115 10.1785 10.55 10.2373Z" fill="#F8EED1"/>
<path d="M4.8194 6.06417C4.73566 6.06417 4.65705 6.01247 4.62671 5.92916L4.53197 5.66875C4.4932 5.56237 4.5481 5.44466 4.65448 5.40599C4.76087 5.36722 4.87857 5.42212 4.91735 5.52851L5.01219 5.78891C5.05086 5.8953 4.99607 6.013 4.88958 6.05178C4.8664 6.06021 4.84268 6.06417 4.8194 6.06417Z" fill="#495059"/>
<path d="M7.95612 4.92256C7.87238 4.92256 7.79377 4.87087 7.76343 4.78755L7.66869 4.52715C7.62992 4.42076 7.68482 4.30306 7.7912 4.26439C7.89769 4.22562 8.01529 4.28052 8.05406 4.38691L8.14881 4.64731C8.18758 4.7537 8.13268 4.8714 8.02629 4.91007C8.00312 4.91861 7.9794 4.92256 7.95612 4.92256Z" fill="#495059"/>
<path d="M6.26136 5.72863C6.12934 5.72863 5.99775 5.69541 5.8793 5.62994C5.78018 5.57514 5.74429 5.45039 5.79908 5.35126C5.85388 5.25214 5.97863 5.21626 6.07775 5.27105C6.17378 5.32413 6.28775 5.33311 6.3905 5.29562C6.49325 5.25823 6.57486 5.17812 6.61427 5.07569C6.65496 4.97005 6.77374 4.9174 6.87937 4.95809C6.98501 4.99879 7.03767 5.11745 6.99697 5.2232C6.91484 5.43618 6.74501 5.60313 6.53074 5.6811C6.44348 5.71282 6.35226 5.72863 6.26136 5.72863Z" fill="#495059"/>
<path d="M11.9159 6.51943C11.907 6.51943 11.8982 6.51879 11.8893 6.51772C11.7769 6.50319 11.6977 6.40033 11.7122 6.28807C11.7543 5.96219 11.7182 5.63919 11.605 5.32816C11.4918 5.01702 11.3118 4.74646 11.0701 4.52387C10.9868 4.44718 10.9814 4.3174 11.0581 4.23409C11.1348 4.15088 11.2646 4.14544 11.3479 4.22213C11.6342 4.48584 11.8564 4.81974 11.9904 5.18781C12.1244 5.55588 12.1688 5.9545 12.119 6.34062C12.1056 6.44402 12.0174 6.51943 11.9159 6.51943Z" fill="#4F71C5"/>
<path d="M12.8049 6.79441C12.7961 6.79441 12.7872 6.79387 12.7783 6.7927C12.666 6.77817 12.5867 6.67531 12.6012 6.56305C12.6686 6.0416 12.6109 5.52495 12.4297 5.02732C12.2487 4.52968 11.9607 4.09677 11.574 3.74067C11.4907 3.66397 11.4853 3.53431 11.562 3.45089C11.6387 3.36768 11.7684 3.36223 11.8518 3.43892C12.2812 3.83423 12.6143 4.33507 12.8152 4.88697C13.0161 5.43907 13.0828 6.03668 13.0079 6.6156C12.9946 6.719 12.9063 6.79441 12.8049 6.79441Z" fill="#4F71C5"/>
<path d="M2.81457 9.83189C2.7649 9.83189 2.71512 9.81394 2.67571 9.77773C2.38935 9.51412 2.16718 9.18012 2.03324 8.81205C1.89919 8.44398 1.85476 8.04536 1.90464 7.65934C1.91917 7.54698 2.02192 7.46783 2.13428 7.48214C2.24665 7.49667 2.32601 7.59953 2.31148 7.71179C2.26929 8.03767 2.3054 8.36067 2.41862 8.67181C2.53184 8.98284 2.71181 9.2534 2.95353 9.47599C3.03684 9.55268 3.04218 9.68235 2.96549 9.76577C2.92501 9.80967 2.86989 9.83189 2.81457 9.83189Z" fill="#4F71C5"/>
<path d="M2.30925 10.6147C2.25958 10.6147 2.2098 10.5968 2.17039 10.5606C1.74101 10.1653 1.40786 9.66453 1.20695 9.11242C1.00604 8.56042 0.939388 7.9627 1.01416 7.38389C1.02868 7.27152 1.13133 7.19227 1.2438 7.20679C1.35617 7.22132 1.43542 7.32407 1.42089 7.43644C1.3536 7.95779 1.41117 8.47454 1.59233 8.97218C1.77348 9.46981 2.06144 9.90272 2.4481 10.2587C2.53152 10.3355 2.53686 10.4652 2.46006 10.5485C2.41969 10.5925 2.36457 10.6147 2.30925 10.6147Z" fill="#4F71C5"/>
<path d="M5.36119 1.92186C5.36119 2.03177 5.272 2.12096 5.16199 2.12096C5.05197 2.12096 4.96289 2.03177 4.96289 1.92186C4.96289 1.81184 5.05197 1.72266 5.16199 1.72266C5.272 1.72266 5.36119 1.81184 5.36119 1.92186Z" fill="#F8EED1"/>
</g>
<defs>
<clipPath id="clip0_23473_18317">
<rect width="14" height="14" fill="white"/>
</clipPath>
</defs>
</svg>
