<svg width="16" height="16" viewBox="0 0 16 16" fill="none" xmlns="http://www.w3.org/2000/svg">
<g clip-path="url(#clip0_14588_12880)">
<path d="M6.8549 8.87176C6.8549 8.02005 6.16199 7.32715 5.31028 7.32715C4.45857 7.32715 3.76562 8.02005 3.76562 8.87176H4.70312C4.70312 8.53699 4.97551 8.26464 5.31028 8.26464C5.64505 8.26464 5.9174 8.53699 5.9174 8.87176H6.8549Z" fill="#3E4247"/>
<path d="M10.6897 7.32715C9.83802 7.32715 9.14511 8.02005 9.14511 8.87176H10.0826C10.0826 8.53699 10.355 8.26464 10.6897 8.26464C11.0245 8.26464 11.2969 8.53699 11.2969 8.87176H12.2344C12.2344 8.02005 11.5415 7.32715 10.6897 7.32715Z" fill="#3E4247"/>
<path d="M8.00002 11.6152C7.40731 11.6152 6.85158 11.2974 6.5496 10.7857L5.74219 11.2621C6.21195 12.0582 7.0771 12.5527 7.99999 12.5527C8.92287 12.5527 9.78802 12.0582 10.2578 11.2621L9.45037 10.7856C9.14846 11.2973 8.59269 11.6152 8.00002 11.6152Z" fill="#3E4247"/>
<path d="M15.39 7.21145C15.0915 6.91324 14.7166 6.71605 14.3096 6.63883C13.4307 3.92297 10.8812 2.05307 8.00001 2.05307H7.68573C6.93101 2.05307 6.31699 1.43902 6.31699 0.684326H5.37949C5.37949 1.19646 5.54749 1.66995 5.83098 2.05307H5.53396C4.77923 2.05307 4.16522 1.43902 4.16522 0.684326H3.22772C3.22772 1.70293 3.89173 2.56881 4.8094 2.87332C3.35803 3.67124 2.22044 5.00109 1.69047 6.63883C1.28351 6.71605 0.908484 6.9133 0.609667 7.2118C0.216524 7.60536 1.52588e-05 8.1283 1.52588e-05 8.68433C1.52588e-05 9.23352 0.211875 9.75166 0.596607 10.1433C0.897291 10.4495 1.27703 10.6515 1.69047 10.7299C2.56928 13.4457 5.11875 15.3156 8.00001 15.3156C10.8813 15.3156 13.4307 13.4457 14.3096 10.7299C14.723 10.6515 15.1027 10.4495 15.4034 10.1433C15.7882 9.75166 16 9.23352 16 8.68433C16 8.1283 15.7835 7.60536 15.39 7.21145ZM13.9402 9.82875L13.5884 9.83542L13.4966 10.1751C12.8274 12.6497 10.5671 14.3781 7.99998 14.3781C5.43287 14.3781 3.17264 12.6497 2.50344 10.1751L2.41158 9.83542L2.0598 9.82875C1.44095 9.81705 0.937481 9.30369 0.937481 8.68433C0.937481 8.37852 1.0566 8.09086 1.2725 7.8747C1.48307 7.66436 1.76266 7.54543 2.05971 7.53987L2.41155 7.53326L2.50341 7.19356C3.17264 4.71893 5.4329 2.9906 8.00001 2.9906C8.8473 2.9906 9.5366 3.6799 9.5366 4.52719C9.5366 5.37447 8.8473 6.0638 8.00001 6.0638C7.15273 6.0638 6.46343 5.3745 6.46343 4.52722H5.52593C5.52593 5.89144 6.63579 7.0013 8.00001 7.0013C9.36423 7.0013 10.4741 5.89144 10.4741 4.52722C10.4741 4.13898 10.384 3.77151 10.2239 3.44417C11.7963 4.11298 13.0312 5.47271 13.4966 7.19359L13.5884 7.53329L13.9403 7.5399C14.2374 7.54547 14.5169 7.66439 14.7271 7.87436C14.9434 8.0909 15.0625 8.37855 15.0625 8.68436C15.0625 9.30372 14.559 9.81708 13.9402 9.82875Z" fill="#3E4247"/>
</g>
<defs>
<clipPath id="clip0_14588_12880">
<rect width="16" height="16" fill="white"/>
</clipPath>
</defs>
</svg>
