<svg width="30" height="30" viewBox="0 0 30 30" fill="none" xmlns="http://www.w3.org/2000/svg">
<g clip-path="url(#clip0_14594_15284)">
<path d="M14.0206 15.0035H10.3548V13.269C10.3548 11.6914 9.07585 10.4126 7.4984 10.4126C5.92072 10.4126 4.64195 11.6914 4.64195 13.269V15.0035H0.976181C0.436935 15.0035 0 15.4404 0 15.9795V26.1926C0 28.2954 1.70471 30.0001 3.80745 30.0001H14.0204C14.5596 30.0001 14.9966 29.5629 14.9966 29.0239V15.9795C14.9966 15.4404 14.5596 15.0035 14.0206 15.0035Z" fill="#27A600"/>
<path d="M14.0206 28.5582H3.80745C1.70471 28.5582 0 26.8535 0 24.7507V26.1925C0 28.2952 1.70471 29.9999 3.80745 29.9999H14.0204C14.5596 29.9999 14.9966 29.563 14.9966 29.0237V27.582C14.9966 28.1212 14.5596 28.5582 14.0206 28.5582Z" fill="#279A04"/>
<path d="M29.0172 15.0034H15.9728C15.4335 15.0034 14.9966 15.4404 14.9966 15.9794V19.6451H13.2621C11.6847 19.6451 10.4057 20.9241 10.4057 22.5016C10.4057 24.0793 11.6847 25.358 13.2621 25.358H14.9966V29.0238C14.9966 29.5628 15.4338 29.9998 15.9728 29.9998H26.1857C28.2885 29.9998 29.9932 28.2953 29.9932 26.1923V15.9794C29.9932 15.4404 29.5562 15.0034 29.0172 15.0034Z" fill="#FFDD00"/>
<path d="M29.0172 15.0034H28.323V24.7689C28.323 26.8719 26.6183 28.5763 24.5155 28.5763H14.9966V29.0238C14.9966 29.563 15.4337 30 15.9728 30H26.1857C28.2884 30 29.9931 28.2953 29.9931 26.1925V15.9794C29.9931 15.4404 29.5562 15.0034 29.0172 15.0034Z" fill="#F2D200"/>
<path d="M26.1783 0H15.9651C15.4259 0 14.9889 0.436935 14.9889 0.976181V4.64172H13.2545C11.677 4.64172 10.398 5.92072 10.398 7.49817C10.398 9.07585 11.677 10.3548 13.2545 10.3548H14.9889V14.0204C14.9889 14.5594 15.4261 14.9966 15.9651 14.9966H19.6306V16.731C19.6306 18.3085 20.9096 19.5875 22.4873 19.5875C24.0648 19.5875 25.3438 18.3085 25.3438 16.731V14.9966H29.0093C29.5486 14.9966 29.9855 14.5596 29.9855 14.0206V3.80745C29.9857 1.70471 28.281 0 26.1783 0V0Z" fill="#FF8300"/>
<path d="M27.3585 0.1875C27.9582 0.860413 28.323 1.7471 28.323 2.71939V12.9323C28.323 13.4713 27.8861 13.9085 27.347 13.9085H25.2542C24.3855 13.9085 23.6813 14.6125 23.6813 15.4812V15.643C23.6813 17.2204 22.4023 18.4994 20.8248 18.4994C20.6062 18.4994 20.3938 18.474 20.1895 18.4276C20.7097 19.1311 21.5453 19.5875 22.4874 19.5875C24.0651 19.5875 25.3441 18.3088 25.3441 16.7311V14.9966H29.0096C29.5489 14.9966 29.9858 14.5597 29.9858 14.0207V3.8075C29.9858 2.11674 28.8833 0.684174 27.3585 0.1875Z" fill="#F17C00"/>
</g>
<defs>
<clipPath id="clip0_14594_15284">
<rect width="30" height="30" fill="white"/>
</clipPath>
</defs>
</svg>
