<svg width="30" height="36" viewBox="0 0 30 36" fill="none" xmlns="http://www.w3.org/2000/svg">
<path d="M5.1988 33.3102C5.03642 33.2831 4.87405 33.2425 4.71167 33.1613C3.81861 32.7419 3.43974 31.7 3.85921 30.8069L6.05127 26.098C6.47074 25.205 7.51264 24.8261 8.4057 25.2456C9.29876 25.665 9.67764 26.7069 9.25817 27.6L7.06611 32.3089C6.72783 33.026 5.95655 33.4184 5.1988 33.3102Z" fill="#EDA398"/>
<path d="M24.1967 33.554C23.5607 33.554 22.9518 33.2157 22.6406 32.6203L20.1643 28.0468C19.7043 27.1808 20.0155 26.1118 20.8815 25.6382C21.7475 25.1782 22.8165 25.4894 23.2901 26.3554L25.7663 30.9289C26.2263 31.7949 25.9151 32.8639 25.0491 33.3375C24.765 33.4863 24.4808 33.554 24.1967 33.554Z" fill="#EDA398"/>
<path d="M21.4467 30.5086C23.3005 30.6169 25.3031 28.6007 25.3031 28.6007C25.3031 28.6007 24.0718 23.1747 20.3236 22.7823C17.7662 22.5387 15.5201 22.6334 15.0059 22.6605C14.4782 22.6334 12.1372 22.5387 9.57984 22.7823C5.83169 23.1747 4.60034 28.6007 4.60034 28.6007C4.60034 28.6007 6.6165 30.6169 8.45675 30.5086L7.90197 30.4815C7.90197 30.4815 10.9194 31.8482 14.9517 31.8753C14.9653 31.8753 14.9923 31.8753 15.0059 31.8753C15.0194 31.8753 15.0465 31.8753 15.06 31.8753C19.0923 31.8482 22.0015 30.4815 22.0015 30.4815L21.4467 30.5086Z" fill="#F26952"/>
<path opacity="0.3" d="M3.34229 23.1885C3.34229 23.1885 15.0874 27.2208 27.6579 22.0654" stroke="#FEE9CD" stroke-width="6.5501" stroke-miterlimit="10"/>
<path opacity="0.3" d="M3.34229 25.5835C3.34229 25.5835 15.0874 29.6159 27.6579 24.4604" stroke="#FEE9CD" stroke-width="6.5501" stroke-miterlimit="10"/>
<path opacity="0.3" d="M3.34229 27.9651C3.34229 27.9651 15.0874 31.9974 27.6579 26.842" stroke="#FEE9CD" stroke-width="6.5501" stroke-miterlimit="10"/>
<path opacity="0.3" d="M3.34229 30.3604C3.34229 30.3604 15.0874 34.3927 27.6579 29.2373" stroke="#FEE9CD" stroke-width="6.5501" stroke-miterlimit="10"/>
<path d="M12.1794 22.8505C11.4623 22.9723 11.4623 23.5541 11.4623 23.5541C11.4623 24.7855 12.4636 25.7868 13.6949 25.7868H15.1969C16.6177 25.7868 17.7814 24.7854 17.7814 23.3647C17.7814 23.3647 17.8355 22.7287 17.0777 22.7287C16.117 22.7287 14.3038 22.4851 12.1794 22.8505Z" fill="#F1583A"/>
<path d="M4.45397 28.6555C4.52163 28.5608 4.65694 28.5338 4.76519 28.5879C5.23878 28.8856 6.72722 29.6975 8.33744 29.738C8.45922 29.738 8.56747 29.8328 8.56747 29.9545L8.581 30.3875C8.581 30.5229 8.47275 30.6311 8.35097 30.6311C6.48366 30.604 4.85991 29.6704 4.30513 29.3727C3.95331 29.1697 4.45397 28.6555 4.45397 28.6555Z" fill="#F1583A"/>
<path d="M25.4267 28.6555C25.3591 28.5608 25.2237 28.5338 25.1155 28.5879C24.6419 28.8856 23.1535 29.6975 21.5432 29.738C21.4215 29.738 21.3132 29.8328 21.3132 29.9545L21.2997 30.3875C21.2997 30.5229 21.4079 30.6311 21.5297 30.6311C23.397 30.604 25.0208 29.6704 25.5756 29.3727C25.9274 29.1697 25.4267 28.6555 25.4267 28.6555Z" fill="#F1583A"/>
<path d="M9.02595 22.0793C8.51176 22.0793 7.99757 21.9846 7.52398 21.7817C6.40089 21.3081 5.52136 20.2662 5.25073 19.0619L5.33192 19.0483C5.58901 20.212 6.44148 21.2404 7.55104 21.7005C8.66061 22.1741 9.97314 22.0658 11.0015 21.4434L11.0421 21.5246C10.4467 21.8899 9.7431 22.0793 9.02595 22.0793Z" fill="#0B0B0B"/>
<path d="M4.99443 17.3164C4.372 17.3164 3.7225 17.0999 3.18125 16.694C2.46409 16.1527 1.92284 15.2867 1.59809 14.2042C0.989186 12.1204 1.35453 9.79305 2.57234 7.9934C3.506 6.61321 4.84559 5.7878 6.15812 5.76074V5.85546C4.87265 5.88252 3.56012 6.6944 2.65353 8.04752C1.44925 9.82012 1.08391 12.1204 1.69281 14.1907C1.90931 14.9349 2.35584 15.9633 3.23537 16.6399C4.06078 17.2623 5.17034 17.4247 5.98221 17.0323L6.02281 17.1135C5.71159 17.2488 5.35978 17.3164 4.99443 17.3164Z" fill="#0B0B0B"/>
<path d="M23.8709 10.794C23.8303 10.794 23.7897 10.794 23.7491 10.7804L23.7626 10.6992C24.0603 10.7534 24.3445 10.5639 24.5069 10.3474C24.6828 10.0903 24.7504 9.77911 24.7775 9.50849C25.0481 7.31643 23.9791 5.04318 22.1254 3.85243L22.1795 3.77124C24.0739 4.97552 25.1564 7.28936 24.8722 9.52202C24.8316 9.80617 24.7775 10.1309 24.5881 10.4015C24.4257 10.6045 24.1686 10.794 23.8709 10.794Z" fill="#0B0B0B"/>
<path d="M18.8788 20.4287C19.1088 20.7805 19.5418 20.9158 19.9207 20.8617C20.3131 20.8075 20.6649 20.591 20.9761 20.334C22.5863 19.0485 23.5065 16.7346 23.29 14.5291" stroke="#873B07" stroke-width="0.6194" stroke-miterlimit="10"/>
<path d="M6.95654 5.11066C6.95654 5.11066 3.79023 5.97666 2.62654 8.84528C1.58464 11.4162 1.20576 14.7855 3.37076 15.8545C3.37076 15.8545 4.68329 19.5485 5.60341 19.7785C6.53707 20.0086 7.09185 22.3901 10.9347 22.0112C14.7776 21.6323 17.2268 22.4442 19.0129 20.7663C19.0129 20.7663 20.6908 20.9963 22.2739 18.1412C23.3699 16.1657 23.5864 14.1901 23.6947 12.9588C23.8029 11.7274 23.7759 10.4961 23.7759 10.4961C23.7759 10.4961 24.8178 9.71128 24.6013 8.14166C24.3713 6.57203 23.4511 4.8265 22.2874 3.9605C22.2874 3.9605 22.6934 3.17569 20.7584 1.7955C18.837 0.401786 16.9697 1.03775 16.9697 1.03775C16.9697 1.03775 13.5327 -2.2774 6.95654 5.11066Z" fill="#0B0B0B"/>
<path d="M14.6701 24.9072H14.5483C13.3576 24.9072 12.3969 24.5283 12.3969 23.3376V19.7518C12.3969 18.5611 13.3576 17.6003 14.5483 17.6003H14.6701C15.8608 17.6003 16.8216 18.5611 16.8216 19.7518V23.3376C16.8351 24.5283 15.8608 24.9072 14.6701 24.9072Z" fill="#FCBCB1"/>
<path opacity="0.2" d="M16.8345 22.1468V19.7518C16.8345 18.5611 15.8738 17.6003 14.683 17.6003H14.5613C13.3705 17.6003 12.4098 18.5611 12.4098 19.7518V22.5122C13.3434 22.6475 14.9131 22.7152 16.8345 22.1468Z" fill="#993028"/>
<path d="M7.89122 17.4789C7.95888 18.9944 6.79519 20.2663 5.29322 20.334C3.79125 20.4017 2.51932 19.2244 2.45166 17.7089C2.384 16.1934 3.54769 14.9215 5.04966 14.8538C6.55163 14.7997 7.82356 15.9769 7.89122 17.4789Z" fill="#EDA398"/>
<path opacity="0.2" d="M5.46526 20.2513C6.63737 20.1995 7.55225 19.3586 7.5087 18.3732C7.46516 17.3877 6.47969 16.6308 5.30758 16.6826C4.13548 16.7344 3.2206 17.5752 3.26414 18.5607C3.30769 19.5462 4.29316 20.3031 5.46526 20.2513Z" fill="#993028"/>
<path opacity="0.2" d="M5.46526 20.2513C6.63737 20.1995 7.55225 19.3586 7.5087 18.3732C7.46516 17.3877 6.47969 16.6308 5.30758 16.6826C4.13548 16.7344 3.2206 17.5752 3.26414 18.5607C3.30769 19.5462 4.29316 20.3031 5.46526 20.2513Z" fill="#993028"/>
<path opacity="0.5" d="M2.9256 18.1147C3.06091 17.9388 3.19622 17.7764 3.3586 17.6411C3.50744 17.4923 3.68335 17.357 3.85925 17.2487C4.21107 17.0052 4.63054 16.8428 5.05 16.7481C5.2665 16.694 5.483 16.6804 5.6995 16.6804L6.02425 16.7075C6.1325 16.7075 6.24075 16.7481 6.349 16.7616C6.5655 16.7887 6.76847 16.8834 6.95791 16.951C7.06616 16.9781 7.14735 17.0458 7.24207 17.0864L7.52622 17.2352C7.56682 17.2623 7.58035 17.3164 7.56682 17.357C7.53975 17.3976 7.49916 17.4111 7.44503 17.3976H7.4315L7.16088 17.2623C7.06616 17.2217 6.98497 17.1675 6.87672 17.1405C6.68728 17.0864 6.49785 17.0052 6.29488 16.9781C5.90247 16.8969 5.49654 16.9105 5.10413 16.9916C4.71172 17.0728 4.34638 17.2487 3.99457 17.4517C3.65629 17.6682 3.33154 17.9253 3.06091 18.223C3.03385 18.2636 2.96619 18.2636 2.93913 18.223C2.89854 18.1959 2.89854 18.1553 2.9256 18.1147Z" fill="#993028"/>
<path opacity="0.5" d="M4.87376 18.575C5.0632 18.2908 5.30676 18.0608 5.57739 17.8713C5.86154 17.6819 6.17276 17.5601 6.51104 17.4789C6.67342 17.4383 6.84932 17.4248 7.0117 17.4248C7.1876 17.4383 7.34998 17.4383 7.51235 17.4925C7.67473 17.5195 7.8371 17.5872 7.98595 17.6413C8.13479 17.709 8.28363 17.7901 8.41895 17.8713C8.44601 17.8849 8.45954 17.9255 8.44601 17.9661C8.43248 17.9931 8.39188 18.0066 8.36482 17.9931H8.35129C8.20245 17.939 8.06713 17.8578 7.91829 17.8037C7.76945 17.7631 7.6206 17.709 7.47176 17.6954C7.16054 17.6413 6.84932 17.6548 6.55163 17.7225C6.25395 17.7901 5.96979 17.9119 5.69917 18.0878C5.44207 18.2502 5.18498 18.4532 4.95495 18.6561C4.92789 18.6832 4.88729 18.6832 4.86023 18.6561C4.86023 18.6291 4.86023 18.602 4.87376 18.575Z" fill="#993028"/>
<path d="M24.5883 15.641C25.935 14.9757 26.4821 13.3337 25.8102 11.9736C25.1383 10.6134 23.5019 10.0501 22.1551 10.7153C20.8083 11.3806 20.2612 13.0226 20.9331 14.3827C21.605 15.7429 23.2415 16.3062 24.5883 15.641Z" fill="#EDA398"/>
<path opacity="0.2" d="M21.6914 14.9892C22.1244 15.8822 23.3422 16.1664 24.3976 15.6522C25.4531 15.138 25.9537 13.9878 25.5072 13.1083C25.0742 12.2153 23.8564 11.9311 22.801 12.4453C21.7455 12.9595 21.2449 14.0961 21.6914 14.9892Z" fill="#993028"/>
<path opacity="0.5" d="M25.5886 12.5392C25.3857 12.4445 25.1962 12.3769 24.9797 12.3227C24.7768 12.2686 24.5603 12.2416 24.3438 12.2145C23.9108 12.1739 23.4778 12.228 23.0583 12.3498C22.8418 12.4039 22.6524 12.4987 22.4629 12.5934L22.1923 12.7693C22.0976 12.8234 22.0299 12.9046 21.9352 12.9722C21.7593 13.1076 21.624 13.2699 21.4887 13.4323C21.4075 13.5135 21.3669 13.6082 21.2992 13.6894L21.1233 13.96C21.0963 14.0006 21.1098 14.0547 21.1504 14.0818C21.191 14.1089 21.2451 14.0953 21.2722 14.0547V14.0412L21.4481 13.7977C21.5157 13.7165 21.5563 13.6217 21.6375 13.5541C21.7864 13.4052 21.9081 13.2564 22.0705 13.1346C22.3817 12.8775 22.7471 12.6881 23.126 12.5798C23.5048 12.4581 23.9108 12.431 24.3167 12.4581C24.7226 12.4851 25.1286 12.5528 25.5075 12.6881C25.548 12.7016 25.6022 12.6746 25.6157 12.634C25.6563 12.5934 25.6292 12.5528 25.5886 12.5392Z" fill="#993028"/>
<path opacity="0.5" d="M24.1011 13.8792C23.8035 13.7168 23.4787 13.6356 23.1404 13.6086C22.8021 13.5815 22.4639 13.6221 22.1391 13.7168C21.9767 13.7574 21.8144 13.8386 21.6655 13.9198C21.5167 14.0145 21.3814 14.0957 21.2596 14.2175C21.1243 14.3257 21.0295 14.461 20.9213 14.5828C20.813 14.7181 20.7319 14.867 20.6507 15.0023C20.6371 15.0294 20.6371 15.0699 20.6777 15.097C20.7048 15.1105 20.7454 15.1105 20.7725 15.0835L20.786 15.0699C20.8942 14.9482 20.9754 14.8129 21.0837 14.7046C21.1919 14.5964 21.3002 14.4746 21.422 14.3799C21.6655 14.1769 21.9361 14.0416 22.2338 13.9604C22.5315 13.8792 22.8427 13.8521 23.154 13.8657C23.4652 13.8792 23.7764 13.9333 24.0741 14.0145C24.1147 14.028 24.1417 14.001 24.1553 13.9604C24.1417 13.9333 24.1282 13.8927 24.1011 13.8792Z" fill="#993028"/>
<path d="M22.7353 11.4035C23.2495 16.3289 21.098 20.943 15.0631 21.5519C9.40704 22.1067 5.76714 18.142 5.25295 13.2167C4.73876 8.2913 8.24336 3.90718 13.074 3.40652C17.9047 2.90587 22.2347 6.49165 22.7353 11.4035Z" fill="#FCBCB1"/>
<path d="M16.0497 11.024C15.7791 11.024 15.4949 10.9563 15.2243 10.8345C14.7642 10.618 14.3447 10.2256 14.0065 9.68437C13.8847 9.49493 13.79 9.29196 13.6952 9.07546C13.7088 9.15665 13.7088 9.23783 13.7088 9.31902C13.7088 9.79262 13.4923 10.2256 13.154 10.4151C12.8157 10.6045 12.3962 10.618 11.9768 10.4556C10.123 9.71143 8.82399 8.60187 8.21509 7.26227L8.29628 7.22168C8.89165 8.54774 10.1771 9.64377 12.0038 10.3745C12.3962 10.5368 12.7886 10.5233 13.0999 10.3474C13.4111 10.1715 13.6141 9.77908 13.6005 9.33255C13.6005 9.03487 13.5193 8.75071 13.4246 8.48009C13.384 8.37184 13.3434 8.26359 13.3028 8.15534L13.384 8.12827C13.4246 8.23652 13.4652 8.33124 13.5058 8.43949C13.6682 8.84543 13.8306 9.2649 14.0606 9.64377C14.3853 10.1715 14.7913 10.5639 15.2378 10.7669C15.7655 11.0104 16.3609 10.9969 16.8074 10.7398C17.2946 10.4421 17.5246 9.83321 17.3622 9.34608L17.4434 9.31902C17.7276 9.96852 18.2823 10.4962 18.9318 10.7669C19.2025 10.8751 19.7302 11.0375 20.1767 10.7939C20.3797 10.6857 20.5285 10.4692 20.5826 10.2391C20.6232 10.0497 20.5826 9.8738 20.4879 9.73849L20.5556 9.68437C20.6774 9.83321 20.718 10.0362 20.6638 10.2527C20.6097 10.5098 20.4338 10.7533 20.2173 10.8751C19.7437 11.1322 19.1889 10.9698 18.8912 10.8616C18.3094 10.618 17.8087 10.185 17.4975 9.64377C17.5246 10.0903 17.2675 10.5774 16.848 10.8345C16.6451 10.9563 16.3474 11.024 16.0497 11.024Z" fill="#0B0B0B"/>
<path opacity="0.4" d="M14.3174 18.1963C14.3579 19.1841 13.0995 20.0501 11.5029 20.1177C9.90617 20.1854 8.5801 19.4412 8.52598 18.4534C8.48539 17.4656 9.74379 16.5996 11.3405 16.5319C12.9507 16.4508 14.2768 17.195 14.3174 18.1963Z" fill="url(#paint0_radial_14594_15546)"/>
<path opacity="0.4" d="M22.0996 15.2872C22.4379 16.2208 21.4907 17.4251 19.9888 17.9664C18.4868 18.5076 16.9984 18.1964 16.6601 17.2492C16.3218 16.3156 17.269 15.1113 18.771 14.57C20.2729 14.0288 21.7614 14.3535 22.0996 15.2872Z" fill="url(#paint1_radial_14594_15546)"/>
<path d="M10.7305 17.1806C11.8141 17.1806 12.6925 16.2961 12.6925 15.2051C12.6925 14.114 11.8141 13.2295 10.7305 13.2295C9.64686 13.2295 8.76843 14.114 8.76843 15.2051C8.76843 16.2961 9.64686 17.1806 10.7305 17.1806Z" fill="black" stroke="black" stroke-width="1.0171" stroke-miterlimit="10"/>
<path d="M10.7849 17.3159C11.8611 17.3159 12.7334 16.4375 12.7334 15.3539C12.7334 14.2703 11.8611 13.3918 10.7849 13.3918C9.7088 13.3918 8.83643 14.2703 8.83643 15.3539C8.83643 16.4375 9.7088 17.3159 10.7849 17.3159Z" fill="white"/>
<path d="M10.7866 16.6257C11.4816 16.6257 12.045 16.0562 12.045 15.3537C12.045 14.6513 11.4816 14.0818 10.7866 14.0818C10.0916 14.0818 9.5282 14.6513 9.5282 15.3537C9.5282 16.0562 10.0916 16.6257 10.7866 16.6257Z" fill="black"/>
<path d="M10.1366 15.2463C10.1366 15.4222 9.93359 15.5575 9.67649 15.5575C9.4194 15.5575 9.21643 15.4222 9.21643 15.2463C9.21643 15.0704 9.4194 14.9351 9.67649 14.9351C9.93359 14.9486 10.1366 15.0839 10.1366 15.2463Z" fill="white"/>
<path d="M16.6979 13.8656C17.1038 14.8804 18.254 15.3675 19.2553 14.9616C20.2566 14.5556 20.7437 13.4055 20.3378 12.3906C19.9318 11.3758 18.7817 10.8887 17.7804 11.2946C16.7655 11.7006 16.2784 12.8507 16.6979 13.8656Z" fill="black" stroke="black" stroke-width="1.0171" stroke-miterlimit="10"/>
<path d="M16.7119 14.0285C17.1179 15.0298 18.2545 15.5305 19.2558 15.1245C20.2571 14.7186 20.7307 13.582 20.3248 12.5671C19.9188 11.5658 18.7822 11.0652 17.7809 11.4711C16.7796 11.877 16.306 13.0137 16.7119 14.0285Z" fill="white"/>
<path d="M17.3488 13.7707C17.6059 14.4202 18.3501 14.745 18.9996 14.4879C19.6491 14.2308 19.9603 13.4866 19.6897 12.8371C19.4326 12.1876 18.6884 11.8628 18.0389 12.1199C17.3894 12.377 17.0782 13.1212 17.3488 13.7707Z" fill="black"/>
<path d="M19.0807 12.9452C19.1484 13.1076 19.392 13.1482 19.622 13.0534C19.852 12.9587 20.0009 12.7558 19.9332 12.5934C19.8656 12.431 19.622 12.3904 19.392 12.4851C19.1619 12.5934 19.0131 12.7964 19.0807 12.9452Z" fill="white"/>
<path d="M13.8708 16.8565C14.0061 17.0054 14.1414 17.1407 14.3038 17.2489C14.4662 17.3572 14.6285 17.4519 14.818 17.5195C14.9939 17.5872 15.1968 17.6143 15.3863 17.6143C15.481 17.6278 15.5757 17.6007 15.684 17.6007C15.7787 17.5872 15.8734 17.5601 15.9817 17.5466H15.9952C16.0223 17.5466 16.0358 17.5601 16.0493 17.5872C16.0493 17.6143 16.0358 17.6278 16.0223 17.6413C15.9275 17.6684 15.8328 17.709 15.7246 17.736C15.6163 17.7631 15.5216 17.7766 15.4133 17.7766C15.1968 17.8037 14.9803 17.7631 14.7909 17.6954C14.5879 17.6278 14.3985 17.5331 14.2361 17.3978C14.0738 17.2624 13.9249 17.1001 13.8302 16.9242C13.8167 16.8971 13.8302 16.87 13.8437 16.87C13.8302 16.8294 13.8573 16.8294 13.8708 16.8565Z" fill="#993028"/>
<path d="M14.2364 17.6686C14.3853 17.8039 14.5612 17.9122 14.7506 17.9798C14.9401 18.0475 15.143 18.061 15.346 18.0339C15.3595 18.0339 15.3731 18.0475 15.3731 18.061C15.3731 18.0745 15.3731 18.0881 15.3595 18.0881C15.1566 18.1422 14.9265 18.1287 14.7236 18.061C14.5206 17.9933 14.3311 17.8716 14.1958 17.7092C14.1823 17.6957 14.1958 17.6821 14.1958 17.6686C14.2094 17.6551 14.2229 17.6551 14.2364 17.6686Z" fill="#993028"/>
<path d="M7.83633 11.0922C8.13402 9.57671 8.21521 8.87308 8.40464 7.33052C8.9053 8.44008 11.0026 10.0503 11.828 10.118C12.3016 10.1586 12.8294 10.2127 13.1812 9.90146C13.5465 9.59024 13.6277 8.9678 13.303 8.62952C13.6277 9.14371 13.966 9.6579 14.4125 10.0774C14.859 10.4968 15.4274 10.8081 16.0227 10.8351C16.6587 10.8622 17.2947 10.5374 17.66 10.0232C18.0254 9.49552 18.093 8.7919 17.8495 8.21005C18.2825 8.88661 18.729 9.57671 19.3244 10.1315C19.9062 10.6863 20.6639 11.1057 21.4758 11.1463C22.2877 11.1869 23.1402 10.7675 23.4649 10.0368C23.8167 9.27902 23.5596 8.38596 23.2619 7.60115C22.5854 5.74737 21.6788 3.86652 20.0686 2.71637C18.9725 1.93156 17.6194 1.55268 16.2798 1.48502C14.9402 1.4309 13.5871 1.67446 12.3016 2.0804C9.62246 2.87874 7.07858 4.4619 5.57661 6.8434C4.65649 8.30477 4.19643 10.0638 4.31821 11.7823C4.38587 12.6348 4.58883 13.5008 4.98124 14.2585C5.49543 15.2598 6.22611 14.4074 6.69971 13.7714C7.29508 13.0001 7.6469 12.0529 7.83633 11.0922Z" fill="#0B0B0B"/>
<g opacity="0.4">
<path opacity="0.4" d="M10.4201 6.00427C10.8396 6.74849 11.462 7.38446 12.1927 7.83099C12.3686 7.93924 12.5715 8.02043 12.7745 8.02043C12.8692 8.02043 12.964 7.99336 13.0587 7.95277C13.1399 7.89865 13.2075 7.83099 13.2616 7.7498C13.3564 7.5739 13.3834 7.3574 13.3293 7.16796C13.2887 6.96499 13.2075 6.77555 13.1128 6.57258C13.0993 6.54552 13.1128 6.50493 13.1399 6.4914C13.1669 6.47787 13.2075 6.4914 13.221 6.51846C13.4781 6.93793 13.8164 7.30327 14.2088 7.60096C14.4118 7.7498 14.6148 7.88511 14.8313 7.99336C15.0478 8.08808 15.2913 8.16927 15.5349 8.16927C15.7785 8.1828 16.022 8.11515 16.1979 7.9663C16.3874 7.81746 16.4685 7.5739 16.4956 7.34387C16.5227 7.1003 16.4685 6.85674 16.3874 6.62671C16.3062 6.39668 16.1709 6.18018 16.0491 5.96368C16.0355 5.95015 16.0491 5.93662 16.0626 5.92309C16.0761 5.90955 16.0897 5.92309 16.1032 5.93662C16.225 6.15312 16.3603 6.36962 16.455 6.59965C16.5497 6.82968 16.6039 7.08677 16.5903 7.3574C16.5768 7.61449 16.4685 7.88512 16.2656 8.04749C16.0626 8.2234 15.792 8.29105 15.5349 8.29105C15.2778 8.29105 15.0207 8.20986 14.7907 8.11515C14.5606 8.0069 14.3441 7.87158 14.1412 7.72274C13.7352 7.41152 13.3834 7.03265 13.1128 6.61318L13.221 6.55905C13.3158 6.76202 13.4105 6.96499 13.4511 7.18149C13.4917 7.39799 13.4781 7.65508 13.3564 7.85805C13.3022 7.9663 13.2075 8.04749 13.1128 8.11515C13.0045 8.16927 12.8828 8.19633 12.7745 8.19633C12.5445 8.1828 12.328 8.10161 12.1385 7.97983C11.3943 7.51977 10.7719 6.85674 10.366 6.08546C10.3524 6.07193 10.366 6.0584 10.3795 6.04487C10.393 5.97721 10.4066 5.99074 10.4201 6.00427Z" fill="#A05320"/>
</g>
<g opacity="0.4">
<path opacity="0.4" d="M20.2721 6.99212C20.3939 7.30334 20.5022 7.61456 20.7051 7.85812C20.8946 8.10168 21.2058 8.26406 21.5035 8.22346C21.6523 8.20993 21.7876 8.12874 21.8824 8.00696C21.9771 7.88518 22.0447 7.73634 22.0718 7.58749C22.1259 7.27627 22.0583 6.95153 21.9771 6.62678C21.9771 6.61324 21.9771 6.59971 22.0041 6.58618C22.0177 6.58618 22.0312 6.58618 22.0447 6.61324C22.1395 6.92446 22.2477 7.26274 22.1936 7.60102C22.1665 7.77693 22.0989 7.93931 21.9906 8.07462C21.8824 8.20993 21.72 8.31818 21.5305 8.34524C21.1652 8.39937 20.8269 8.1964 20.6104 7.92577C20.4075 7.64162 20.2992 7.31687 20.218 7.00565C20.218 6.99212 20.218 6.97859 20.2451 6.96506C20.2451 6.97859 20.2586 6.97859 20.2721 6.99212Z" fill="#A05320"/>
</g>
<g opacity="0.4">
<path opacity="0.4" d="M4.02003 12.4044C3.97943 12.6209 4.06062 12.851 4.20946 13.0133C4.35831 13.1757 4.56128 13.284 4.77778 13.284C4.99428 13.284 5.19725 13.1622 5.31903 12.9863C5.45434 12.8239 5.522 12.5939 5.46787 12.3909H5.58965C5.53553 12.5668 5.71143 12.7833 5.90087 12.7968C6.10384 12.8239 6.30681 12.7157 6.44212 12.5533C6.57743 12.3909 6.65862 12.1744 6.72628 11.9579C6.79393 11.7414 6.86159 11.5249 6.92924 11.3084C7.17281 10.4289 7.30812 9.52228 7.33518 8.61569C7.33518 8.60215 7.34871 8.58862 7.36224 8.58862C7.37578 8.58862 7.38931 8.60215 7.38931 8.61569C7.38931 9.07575 7.36224 9.53581 7.30812 9.99587C7.25399 10.4559 7.15928 10.9025 7.03749 11.349C6.98337 11.5655 6.91571 11.7955 6.83453 12.012C6.76687 12.2285 6.68568 12.4586 6.52331 12.648C6.37446 12.8374 6.1309 12.9727 5.86028 12.9457C5.72496 12.9322 5.61671 12.851 5.53553 12.7427C5.45434 12.6345 5.41374 12.4992 5.45434 12.3638C5.46787 12.3232 5.49493 12.3097 5.53553 12.3232C5.56259 12.3368 5.57612 12.3503 5.57612 12.3774C5.63024 12.6209 5.54906 12.8916 5.40021 13.081C5.25137 13.2704 5.00781 13.4057 4.76425 13.4057C4.50715 13.4057 4.27712 13.2704 4.12828 13.081C3.97943 12.8916 3.89825 12.6345 3.95237 12.4044C3.95237 12.3909 3.9659 12.3774 3.99296 12.3774C4.0065 12.3774 4.02003 12.3909 4.02003 12.4044Z" fill="#A05320"/>
</g>
<g opacity="0.4">
<path opacity="0.4" d="M16.5752 3.75805C16.7376 3.92042 16.9 4.0828 17.0894 4.21811C17.2789 4.35342 17.4818 4.43461 17.6983 4.43461C17.9148 4.43461 18.1313 4.35342 18.2396 4.17752C18.3478 4.00161 18.3478 3.75805 18.199 3.62274L18.2937 3.52802C18.4561 3.73099 18.7267 3.8663 18.9838 3.83924C19.1056 3.8257 19.2274 3.77158 19.3221 3.67686C19.4033 3.58214 19.4574 3.46036 19.4709 3.32505C19.4845 3.18974 19.4709 3.05442 19.4303 2.93264C19.3897 2.81086 19.3221 2.68908 19.2274 2.58083C19.0515 2.36433 18.8214 2.18842 18.5914 2.02605C18.5779 2.01252 18.5779 1.99899 18.5779 1.98545C18.5914 1.97192 18.6049 1.97192 18.6185 1.97192C18.8485 2.1343 19.0921 2.29667 19.2815 2.51317C19.3762 2.62142 19.4574 2.75674 19.5115 2.89205C19.5656 3.02736 19.5792 3.18974 19.5656 3.33858C19.5521 3.48742 19.498 3.63627 19.3897 3.75805C19.2815 3.87983 19.1326 3.94749 18.9838 3.96102C18.6726 3.98808 18.3749 3.83924 18.1719 3.6092C18.1449 3.58214 18.1584 3.54155 18.1855 3.51449C18.2125 3.48742 18.2531 3.50095 18.2666 3.51449C18.3614 3.6092 18.4155 3.74452 18.4155 3.8663C18.4155 4.00161 18.3884 4.12339 18.3208 4.23164C18.2531 4.33989 18.1449 4.43461 18.0366 4.4752C17.9148 4.52933 17.7931 4.54286 17.6713 4.54286C17.4277 4.52933 17.1977 4.43461 17.0082 4.28577C16.8188 4.13692 16.6564 3.96102 16.5076 3.79864C16.4941 3.78511 16.4941 3.77158 16.5076 3.75805C16.5482 3.74452 16.5752 3.74452 16.5752 3.75805Z" fill="#A05320"/>
</g>
<g opacity="0.4">
<path opacity="0.4" d="M4.04751 8.73776C4.08811 8.85954 4.20989 8.95426 4.3452 8.98132C4.48051 9.00839 4.61583 8.99485 4.72408 8.9272C4.96764 8.79189 5.11648 8.53479 5.26533 8.29123C5.56301 7.8041 5.77951 7.24932 5.91483 6.69454C5.91483 6.68101 5.94189 6.66748 5.95542 6.66748C5.96895 6.66748 5.98248 6.68101 5.98248 6.70807C5.88776 7.28992 5.6848 7.85823 5.37358 8.37242C5.29239 8.4942 5.22473 8.62951 5.11648 8.73776C5.02176 8.85954 4.91351 8.96779 4.76467 9.03545C4.62936 9.11664 4.45345 9.13017 4.30461 9.08957C4.15576 9.04898 4.00692 8.9272 3.97986 8.76482C3.97986 8.75129 3.99339 8.73776 4.00692 8.72423C4.03398 8.7107 4.04751 8.72423 4.04751 8.73776Z" fill="#A05320"/>
</g>
<g opacity="0.4">
<path opacity="0.4" d="M11.6658 3.59605C11.9229 3.7043 12.18 3.79902 12.4506 3.86668C12.5859 3.90727 12.7212 3.93433 12.8566 3.94786C12.9919 3.9614 13.1272 3.98846 13.2625 3.98846C13.3978 3.98846 13.5196 3.94786 13.6143 3.86668C13.709 3.78549 13.7496 3.66371 13.7496 3.5284C13.7496 3.2713 13.5872 3.02774 13.4113 2.81124C13.3978 2.79771 13.3978 2.78418 13.4113 2.77065C13.4249 2.75712 13.4384 2.75712 13.4519 2.77065C13.5466 2.8789 13.6414 2.98715 13.709 3.10893C13.7902 3.23071 13.8443 3.37955 13.8443 3.5284C13.8443 3.67724 13.8037 3.83961 13.682 3.9614C13.5602 4.06965 13.3978 4.11024 13.249 4.11024C13.1001 4.11024 12.9513 4.09671 12.816 4.06965C12.6806 4.04258 12.5318 4.01552 12.3965 3.97493C12.1259 3.89374 11.8552 3.78549 11.6117 3.65018C11.5981 3.63665 11.5981 3.62311 11.5981 3.60958C11.6387 3.59605 11.6523 3.59605 11.6658 3.59605Z" fill="#A05320"/>
</g>
<g opacity="0.4">
<path opacity="0.4" d="M7.60698 19.7109C7.76936 20.1845 8.08057 20.604 8.50004 20.8746C8.91951 21.1452 9.4337 21.2535 9.93436 21.1723C9.94789 21.1723 9.96142 21.1858 9.97495 21.1993C9.97495 21.2129 9.96142 21.2264 9.94789 21.2399C9.44723 21.3617 8.87892 21.267 8.43239 20.9828C7.98586 20.6987 7.64758 20.2386 7.55286 19.7244C7.55286 19.7109 7.56639 19.6974 7.57992 19.6838C7.59345 19.6838 7.60698 19.6974 7.60698 19.7109Z" fill="#A05320"/>
</g>
<path d="M6.91688 6.20756C6.34857 5.74749 5.87498 5.17918 5.5367 4.54321C5.48257 4.43496 5.41492 4.31318 5.41492 4.17787C5.41492 4.05609 5.4961 3.92077 5.61789 3.89371C5.79379 3.85312 5.9291 4.04256 6.01029 4.20493C6.32151 4.75971 6.6192 5.32802 6.93042 5.88281C6.68685 5.08446 6.5786 4.25906 6.60567 3.43365C6.60567 3.31187 6.6192 3.17656 6.67332 3.06831C6.72745 2.96006 6.8357 2.85181 6.95748 2.85181C7.07926 2.85181 7.20104 2.93299 7.2687 3.04124C7.33635 3.14949 7.34989 3.28481 7.36342 3.40659C7.45814 4.28612 7.41754 5.19271 7.25517 6.07224" fill="#0B0B0B"/>
<path d="M7.34923 13.2977C7.34923 13.2977 8.53998 10.0096 9.74426 10.3479C10.935 10.6862 9.10829 12.9594 8.8106 13.2571C8.51291 13.5683 7.17332 14.5697 7.34923 13.2977Z" fill="#0B0B0B"/>
<path d="M20.1617 9.71212C20.1617 9.71212 17.4284 7.53359 16.5894 8.45371C15.7505 9.36031 18.4974 10.3481 18.9033 10.4428C19.3092 10.5375 20.9871 10.6999 20.1617 9.71212Z" fill="#0B0B0B"/>
<path opacity="0.05" d="M22.0359 15.6011C23.5154 14.1216 23.5154 11.7227 22.0359 10.2431C20.5563 8.76351 18.1574 8.76351 16.6778 10.2431C15.1982 11.7227 15.1982 14.1216 16.6778 15.6011C18.1574 17.0807 20.5563 17.0807 22.0359 15.6011Z" fill="white"/>
<path d="M19.4589 17.3039C17.1044 17.3039 15.183 15.3825 15.183 13.0281C15.183 10.6736 17.1044 8.7522 19.4589 8.7522C21.8133 8.7522 23.7347 10.6736 23.7347 13.0281C23.7347 15.3825 21.8268 17.3039 19.4589 17.3039ZM19.4589 9.45582C17.4968 9.45582 15.8866 11.0525 15.8866 13.0281C15.8866 15.0036 17.4833 16.6003 19.4589 16.6003C21.4209 16.6003 23.0311 15.0036 23.0311 13.0281C23.0311 11.0525 21.4344 9.45582 19.4589 9.45582Z" fill="#26263A"/>
<g opacity="0.46">
<path opacity="0.46" d="M17.6872 10.8087C17.5654 11.1334 17.4436 11.4311 17.3354 11.7288C17.2271 12.0265 17.1459 12.3242 17.0918 12.6083C17.0512 12.7572 17.0512 12.906 17.0241 13.0548C17.0241 13.2037 16.9971 13.3525 17.0106 13.5014C16.9971 13.8126 17.0512 14.1238 17.0783 14.4756V14.4892C17.0783 14.5433 17.0377 14.5839 16.9971 14.5839C16.97 14.5839 16.943 14.5703 16.9294 14.5568C16.6723 14.2997 16.4694 13.9614 16.3882 13.5961L16.3476 13.4608C16.3341 13.4202 16.3341 13.3661 16.3205 13.3255C16.307 13.2307 16.2935 13.136 16.2935 13.0413C16.2935 12.9466 16.2935 12.8519 16.307 12.7572C16.307 12.6624 16.3341 12.5677 16.3476 12.473C16.4152 12.0941 16.5641 11.7423 16.7671 11.4446C16.97 11.1334 17.2271 10.8763 17.5654 10.6869C17.606 10.6598 17.6601 10.6733 17.6872 10.7275C17.6872 10.741 17.7007 10.7681 17.6872 10.8087Z" fill="white"/>
</g>
<path d="M14.7229 14.9487C15.2777 14.8946 15.9272 13.8527 16.3466 14.8134C16.7661 15.7741 15.4265 16.4642 15.4265 16.4642" fill="#FCBCB1"/>
<path d="M13.8695 12.0259C13.9101 12.3236 13.9642 12.6213 14.0183 12.9055C14.0725 13.2032 14.1401 13.4873 14.2078 13.7715C14.289 14.0556 14.3566 14.3398 14.4919 14.5969C14.519 14.6645 14.5596 14.7187 14.6002 14.7728C14.6408 14.8269 14.6814 14.854 14.722 14.8404C14.8437 14.8269 14.9791 14.7593 15.1008 14.6916C15.2226 14.6104 15.3444 14.5292 15.4797 14.448C15.615 14.3804 15.7639 14.2857 15.9533 14.2992C16.048 14.3127 16.1292 14.3533 16.1969 14.4074C16.2645 14.4616 16.3187 14.5292 16.3592 14.5969C16.3998 14.6645 16.4404 14.7322 16.454 14.8134L16.4946 14.9352C16.5081 14.9758 16.5081 15.0164 16.5081 15.0569C16.5216 15.1381 16.5081 15.2193 16.5081 15.3005C16.481 15.3817 16.481 15.4629 16.4404 15.5305C16.3863 15.6794 16.2916 15.8012 16.1833 15.9229C15.9804 16.153 15.7233 16.3289 15.4527 16.4642C15.4391 16.4777 15.4121 16.4642 15.3985 16.4507C15.385 16.4371 15.3985 16.4101 15.4121 16.4101C15.6556 16.2612 15.8992 16.0718 16.0751 15.8418C16.1698 15.7335 16.251 15.6117 16.2916 15.4764C16.3187 15.4088 16.3322 15.3411 16.3457 15.2734C16.3457 15.2058 16.3592 15.1381 16.3457 15.0705C16.3457 15.0434 16.3322 15.0028 16.3322 14.9758L16.2916 14.881C16.2781 14.8134 16.2375 14.7457 16.1969 14.6916C16.1292 14.5698 16.0345 14.4751 15.9127 14.4751C15.7909 14.4616 15.6692 14.5292 15.5474 14.5969C15.4256 14.6645 15.3038 14.7593 15.1685 14.8404C15.0332 14.9216 14.8979 15.0028 14.722 15.0164C14.6002 15.0164 14.519 14.9487 14.4649 14.881C14.4107 14.8134 14.3702 14.7457 14.3296 14.6781C14.1942 14.3939 14.1131 14.0962 14.0454 13.8121C13.9101 13.2302 13.8289 12.6349 13.7748 12.0259C13.7748 12.0124 13.7883 11.9854 13.8018 11.9854C13.8424 11.9989 13.856 12.0124 13.8695 12.0259Z" fill="#993028"/>
<path opacity="0.05" d="M11.096 18.7481C13.0234 17.9335 13.9254 15.7107 13.1108 13.7833C12.2962 11.8559 10.0734 10.9539 8.14607 11.7684C6.21869 12.583 5.31661 14.8059 6.13121 16.7332C6.94581 18.6606 9.16861 19.5627 11.096 18.7481Z" fill="white"/>
<path d="M9.7309 19.6578C7.37646 19.6578 5.45503 17.7364 5.45503 15.3819C5.4415 13.014 7.36293 11.0925 9.7309 11.0925C12.0853 11.0925 14.0068 13.014 14.0068 15.3684C14.0068 17.7364 12.0853 19.6578 9.7309 19.6578ZM9.7309 11.7962C7.76887 11.7962 6.15865 13.3928 6.15865 15.3684C6.15865 17.3304 7.75534 18.9406 9.7309 18.9406C11.6929 18.9406 13.3031 17.344 13.3031 15.3684C13.2896 13.4064 11.6929 11.7962 9.7309 11.7962Z" fill="#26263A"/>
<g opacity="0.46">
<path opacity="0.46" d="M7.94438 13.1629C7.8226 13.4877 7.70081 13.7853 7.59256 14.083C7.48431 14.3807 7.40313 14.6784 7.349 14.9626C7.30841 15.1114 7.30841 15.2602 7.28135 15.4091C7.28135 15.5579 7.25428 15.7068 7.26781 15.8556C7.25428 16.1668 7.30841 16.4781 7.33547 16.8299V16.8434C7.33547 16.8975 7.29488 16.9381 7.25428 16.9381C7.22722 16.9381 7.20016 16.9246 7.18663 16.9111C6.92953 16.654 6.72656 16.3157 6.64538 15.9503L6.60478 15.815C6.59125 15.7744 6.59125 15.7203 6.57772 15.6797C6.56419 15.585 6.55066 15.4903 6.55066 15.3956C6.55066 15.3008 6.55066 15.2061 6.56419 15.1114C6.56419 15.0167 6.59125 14.922 6.60478 14.8272C6.67244 14.4484 6.82128 14.0966 7.02425 13.7989C7.22722 13.4877 7.48431 13.2306 7.8226 13.0411C7.86319 13.0141 7.91731 13.0276 7.94438 13.0817C7.95791 13.0952 7.95791 13.1223 7.94438 13.1629Z" fill="white"/>
</g>
<path d="M13.6273 14.7043L13.262 14.1496C13.3026 14.109 14.4256 13.0806 15.7111 13.4053L15.5893 14.0954C14.561 13.8383 13.6408 14.6908 13.6273 14.7043Z" fill="#26263A"/>
<path d="M7.26881 4.84056L7.18762 4.8135C7.783 3.3386 8.85197 2.05313 10.1916 1.20066C11.5312 0.348191 13.1414 -0.0712769 14.7381 0.00991052C15.5499 0.0505042 16.0912 0.239942 16.4701 0.605285C16.7271 0.862379 16.876 1.24125 16.8625 1.6066C16.8489 1.89075 16.7407 2.14785 16.5377 2.31022L16.4836 2.24257C16.6595 2.09372 16.7677 1.86369 16.7677 1.6066C16.7813 1.26832 16.6324 0.916504 16.4024 0.672941C16.0371 0.321129 15.5093 0.145223 14.7245 0.091098C13.1549 0.00991051 11.5582 0.429379 10.2457 1.26832C8.91962 2.12078 7.86418 3.37919 7.26881 4.84056Z" fill="#0B0B0B"/>
<path d="M14.534 32.4034L3.16772 29.6971L3.65485 16.4365C3.65485 16.4365 10.4475 17.6273 14.7234 19.657C14.7099 19.684 14.534 32.4034 14.534 32.4034Z" fill="#D0D0DF"/>
<path d="M14.5201 32.606L2.36902 29.8456L2.89674 16.585C2.89674 16.585 10.1495 17.8163 14.723 19.8595C14.7095 19.8866 14.5201 32.606 14.5201 32.606Z" fill="#E7E5F0"/>
<path d="M14.506 32.7954L2.35492 30.035L2.2196 16.7473C2.2196 16.7473 10.6496 18.2628 14.7089 20.0489C14.6954 20.076 14.506 32.7954 14.506 32.7954Z" fill="white"/>
<path d="M14.9383 32.4036L26.3858 29.8462L25.8851 16.572C25.8851 16.572 19.0383 17.6816 14.7354 19.6436C14.7624 19.6842 14.9383 32.4036 14.9383 32.4036Z" fill="#D0D0DF"/>
<path d="M14.9513 32.6065L27.1835 29.995L26.6558 16.7344C26.6558 16.7344 19.3489 17.871 14.7483 19.8601C14.7618 19.8872 14.9513 32.6065 14.9513 32.6065Z" fill="#E7E5F0"/>
<path d="M14.966 32.7953L27.1983 30.1838L27.3336 16.9097C27.3336 16.9097 18.8495 18.3169 14.7631 20.0489C14.7766 20.076 14.966 32.7953 14.966 32.7953Z" fill="white"/>
<path d="M13.3833 33.8649L1.61111 31.7676C1.23224 31.6999 0.921021 31.3211 0.921021 30.9151V18.1552C0.921021 17.7492 1.23224 17.4786 1.61111 17.5462L13.3833 19.6436C13.7622 19.7112 14.0734 20.0901 14.0734 20.4961V33.256C14.0734 33.662 13.7622 33.9326 13.3833 33.8649Z" fill="#2B9E98"/>
<path d="M13.3838 33.8643L1.7199 31.794C1.34102 31.7263 1.04333 31.3475 1.04333 30.9551V18.3033C1.04333 17.8974 1.34102 17.6268 1.7199 17.6944L13.3838 19.7647C13.7627 19.8324 14.0604 20.2113 14.0604 20.6037V33.2554C14.0739 33.6613 13.7627 33.9319 13.3838 33.8643Z" fill="#27A600"/>
<path d="M16.0895 33.8649L27.8617 31.7676C28.2406 31.6999 28.5518 31.3211 28.5518 30.9151V18.1552C28.5518 17.7492 28.2406 17.4786 27.8617 17.5462L16.0895 19.6436C15.7106 19.7112 15.3994 20.0901 15.3994 20.4961V33.256C15.4129 33.662 15.7106 33.9326 16.0895 33.8649Z" fill="#2B9E98"/>
<path d="M16.0893 33.8643L27.7532 31.794C28.1321 31.7263 28.4298 31.3475 28.4298 30.9551V18.3033C28.4298 17.8974 28.1321 17.6268 27.7532 17.6944L16.0893 19.7647C15.7104 19.8324 15.4127 20.2113 15.4127 20.6037V33.2554C15.4127 33.6613 15.7104 33.9319 16.0893 33.8643Z" fill="#27A600"/>
<path d="M15.6694 34H13.8833C13.6803 34 13.5179 33.8376 13.5179 33.6347V20.1305C13.5179 19.9275 13.6803 19.7651 13.8833 19.7651H15.6694C15.8724 19.7651 16.0348 19.9275 16.0348 20.1305V33.6347C16.0348 33.8376 15.8724 34 15.6694 34Z" fill="#289906"/>
<path d="M0.149395 24.4611C0.149395 24.4611 -0.243011 26.5178 0.244114 27.3297C0.731238 28.1416 2.57149 27.8574 2.7068 27.4515C2.84211 27.032 1.13718 26.9644 1.13718 26.9644C1.13718 26.9644 2.86917 27.0591 2.88271 26.5855C2.90977 26.1119 1.04246 26.0848 1.04246 26.0848C1.04246 26.0848 2.76092 26.0713 2.73386 25.5165C2.7068 24.9482 0.880082 25.1512 0.880082 25.1512C0.880082 25.1512 2.9233 25.0159 2.76092 24.6235C2.58502 24.231 0.988332 24.4205 0.988332 24.4205C0.988332 24.4205 1.50252 23.5815 1.11011 23.5004C0.74477 23.4192 0.149395 24.4611 0.149395 24.4611Z" fill="#FCBCB1"/>
<path d="M29.4714 24.4611C29.4714 24.4611 29.8638 26.5178 29.3767 27.3297C28.8896 28.1416 27.0493 27.8574 26.914 27.4515C26.7787 27.032 28.4836 26.9644 28.4836 26.9644C28.4836 26.9644 26.7516 27.0591 26.7381 26.5855C26.711 26.1119 28.5783 26.0848 28.5783 26.0848C28.5783 26.0848 26.8599 26.0713 26.8869 25.5165C26.914 24.9482 28.7407 25.1512 28.7407 25.1512C28.7407 25.1512 26.6975 25.0159 26.8599 24.6235C27.0358 24.231 28.6325 24.4205 28.6325 24.4205C28.6325 24.4205 28.1183 23.5815 28.5107 23.5004C28.876 23.4192 29.4714 24.4611 29.4714 24.4611Z" fill="#FCBCB1"/>
<path d="M26.4149 20.1986L26.5772 20.7805C26.5908 20.8481 26.6449 20.9023 26.7261 20.9293L27.2944 21.1188C27.4703 21.1729 27.4974 21.4164 27.3485 21.5247L26.8479 21.863C26.7802 21.9036 26.7531 21.9712 26.7531 22.0524L26.7396 22.6613C26.7396 22.8508 26.5231 22.9455 26.3743 22.8372L25.9007 22.4583C25.8465 22.4178 25.7654 22.4042 25.6977 22.4178L25.1159 22.5937C24.94 22.6478 24.7776 22.4719 24.8317 22.296L25.0347 21.7277C25.0617 21.66 25.0482 21.5788 25.0076 21.5247L24.6558 21.024C24.5475 20.8752 24.6558 20.6587 24.8452 20.6722L25.4541 20.6993C25.5218 20.6993 25.603 20.6722 25.6436 20.6046L26.0089 20.1174C26.1172 19.9686 26.3607 20.0092 26.4149 20.1986Z" fill="#FF8300"/>
<path d="M4.92499 28.4527L5.08736 29.0346C5.1009 29.1022 5.15502 29.1564 5.23621 29.1834L5.80452 29.3729C5.98043 29.427 6.00749 29.6706 5.85865 29.7788L5.35799 30.1171C5.29033 30.1577 5.26327 30.2253 5.26327 30.3065L5.24974 30.9154C5.24974 31.1049 5.03324 31.1996 4.8844 31.0913L4.4108 30.7125C4.35668 30.6719 4.27549 30.6583 4.20783 30.6719L3.62599 30.8478C3.45008 30.9019 3.28771 30.726 3.34183 30.5501L3.5448 29.9818C3.57187 29.9141 3.55833 29.8329 3.51774 29.7788L3.16593 29.2782C3.05768 29.1293 3.16593 28.9128 3.35537 28.9263L3.96427 28.9534C4.03193 28.9534 4.11312 28.9263 4.15371 28.8587L4.51905 28.3716C4.64083 28.2362 4.87087 28.2768 4.92499 28.4527Z" fill="#FFDD00"/>
<path d="M22.4637 19.6842L22.6261 20.266C22.6396 20.3337 22.6937 20.3878 22.7749 20.4149L23.3432 20.6043C23.5191 20.6584 23.5462 20.902 23.3973 21.0103L22.8967 21.3485C22.829 21.3891 22.802 21.4568 22.802 21.538L22.7884 22.1469C22.7884 22.3363 22.5719 22.431 22.4231 22.3228L21.9495 21.9439C21.8954 21.9033 21.8142 21.8898 21.7465 21.9033L21.1647 22.0792C20.9888 22.1333 20.8264 21.9574 20.8805 21.7815L21.0835 21.2132C21.1106 21.1456 21.097 21.0644 21.0564 21.0103L20.7046 20.5096C20.5964 20.3608 20.7046 20.1443 20.8941 20.1578L21.503 20.1848C21.5706 20.1848 21.6518 20.1578 21.6924 20.0901L22.0577 19.603C22.1795 19.4677 22.4096 19.5083 22.4637 19.6842Z" fill="#3B5CAD"/>
<path d="M23.4623 23.7304L23.8953 24.1498C23.9494 24.204 24.0171 24.231 24.0983 24.2175L24.6937 24.1092C24.8831 24.0687 25.0184 24.2716 24.9372 24.434L24.6666 24.9752C24.6395 25.0429 24.6395 25.1241 24.6666 25.1782L24.9508 25.7059C25.0455 25.8683 24.9102 26.0713 24.7207 26.0307L24.1254 25.936C24.0577 25.9224 23.9765 25.9495 23.9224 26.0036L23.5029 26.4502C23.3811 26.5855 23.1511 26.5178 23.1105 26.3284L23.0158 25.733C23.0023 25.6653 22.9617 25.5977 22.894 25.5706L22.3528 25.3135C22.1904 25.2323 22.1769 24.9888 22.3392 24.9076L22.8805 24.637C22.9481 24.5964 22.9887 24.5422 23.0023 24.4611L23.0834 23.8657C23.1105 23.6762 23.327 23.6086 23.4623 23.7304Z" fill="#FFDD00"/>
<defs>
<radialGradient id="paint0_radial_14594_15546" cx="0" cy="0" r="1" gradientUnits="userSpaceOnUse" gradientTransform="translate(11.4316 18.3193) rotate(-0.659202) scale(2.67399 1.97752)">
<stop offset="0.1454" stop-color="#993028"/>
<stop offset="1" stop-color="#FCBCB1"/>
</radialGradient>
<radialGradient id="paint1_radial_14594_15546" cx="0" cy="0" r="1" gradientUnits="userSpaceOnUse" gradientTransform="translate(19.3822 16.2669) rotate(-17.9709) scale(2.67405 1.97746)">
<stop offset="0.1454" stop-color="#993028"/>
<stop offset="1" stop-color="#FCBCB1"/>
</radialGradient>
</defs>
</svg>
