<svg width="30" height="30" viewBox="0 0 30 30" fill="none" xmlns="http://www.w3.org/2000/svg">
<g clip-path="url(#clip0_14594_15262)">
<path d="M22.8312 25.6191C22.2081 25.6192 21.6969 25.4477 21.3484 25.2821C19.253 24.2862 17.899 21.177 17.899 17.361C17.899 16.6572 18.4696 16.0867 19.1734 16.0867C19.8772 16.0867 20.4477 16.6572 20.4477 17.361C20.4477 20.395 21.4754 22.5206 22.4425 22.9803C22.6056 23.0578 23.039 23.2641 23.8566 22.5983C24.4023 22.1539 25.205 22.2362 25.6494 22.7819C26.0938 23.3276 26.0117 24.1303 25.4659 24.5747C24.4858 25.3727 23.5781 25.6191 22.8312 25.6191Z" fill="#FFDD00"/>
<path d="M17.2533 29.6338C14.595 29.6338 12.2713 28.1641 10.7103 25.4954C9.351 23.1716 8.86676 20.5213 8.86676 18.8158C8.86676 18.112 9.4373 17.5415 10.1411 17.5415C10.8449 17.5415 11.4154 18.112 11.4154 18.8158C11.4154 20.1246 11.8069 22.3222 12.9103 24.2085C14.0268 26.1173 15.488 27.0851 17.2533 27.0851C19.2686 27.0851 20.6344 25.725 22.2159 24.1503C23.9 22.4732 25.8088 20.5723 28.7257 20.5723C29.4295 20.5723 30 21.1429 30 21.8467C30 22.5505 29.4295 23.121 28.7257 23.121C26.8614 23.121 25.542 24.4349 24.0143 25.9562C22.2831 27.68 20.3211 29.6338 17.2533 29.6338Z" fill="#FFDD00"/>
<path d="M20.413 15.1763C23.0237 17.921 20.8146 18.6238 19.1737 18.6238C17.5329 18.6238 15.3238 17.9209 17.9345 15.1763H20.413Z" fill="#FF8300"/>
<path d="M10.6454 6.39186C10.6454 10.8549 14.4981 13.7938 17.8416 15.6077C18.6724 16.0584 19.6758 16.0584 20.5065 15.6077C23.85 13.7937 27.7027 10.8549 27.7027 6.39186C27.7027 3.64285 25.4742 1.41431 22.7252 1.41431C21.3345 1.41431 20.0772 1.98484 19.1741 2.90439C18.2709 1.98484 17.0137 1.41431 15.623 1.41431C12.8739 1.41425 10.6454 3.64279 10.6454 6.39186Z" fill="#3B5CAD"/>
<path d="M11.6147 16.7312C14.7191 19.9948 12.0923 20.8306 10.1411 20.8306C8.19006 20.8306 5.56321 19.9948 8.66761 16.7312H11.6147Z" fill="#FF8300"/>
<path d="M0 6.28371C0 11.5905 4.5811 15.0851 8.55675 17.242C9.5446 17.7779 10.7377 17.7779 11.7256 17.242C15.7012 15.0851 20.2823 11.5905 20.2823 6.28371C20.2823 3.01491 17.6325 0.36505 14.3637 0.36505C12.71 0.36505 11.2151 1.04346 10.1412 2.13684C9.06723 1.04346 7.57231 0.36499 5.91867 0.36499C2.64986 0.36499 0 3.01491 0 6.28371H0Z" fill="#27A600"/>
<path opacity="0.2" d="M4.88905 10.764C5.38201 10.764 5.78164 10.4428 5.78164 10.0467C5.78164 9.6505 5.38201 9.32935 4.88905 9.32935C4.39609 9.32935 3.99646 9.6505 3.99646 10.0467C3.99646 10.4428 4.39609 10.764 4.88905 10.764Z" fill="#EFC5DB"/>
<path opacity="0.2" d="M15.3933 10.764C15.8863 10.764 16.2859 10.4428 16.2859 10.0467C16.2859 9.6505 15.8863 9.32935 15.3933 9.32935C14.9004 9.32935 14.5007 9.6505 14.5007 10.0467C14.5007 10.4428 14.9004 10.764 15.3933 10.764Z" fill="#EFC5DB"/>
<path d="M6.41935 10.0466C7.3969 10.0466 8.18935 9.25414 8.18935 8.27659C8.18935 7.29905 7.3969 6.50659 6.41935 6.50659C5.44181 6.50659 4.64935 7.29905 4.64935 8.27659C4.64935 9.25414 5.44181 10.0466 6.41935 10.0466Z" fill="white"/>
<path d="M13.863 10.0466C14.8405 10.0466 15.633 9.25414 15.633 8.27659C15.633 7.29905 14.8405 6.50659 13.863 6.50659C12.8854 6.50659 12.093 7.29905 12.093 8.27659C12.093 9.25414 12.8854 10.0466 13.863 10.0466Z" fill="white"/>
<path d="M6.41898 9.33026C7.00158 9.33026 7.47388 8.85797 7.47388 8.27536C7.47388 7.69275 7.00158 7.22046 6.41898 7.22046C5.83637 7.22046 5.36407 7.69275 5.36407 8.27536C5.36407 8.85797 5.83637 9.33026 6.41898 9.33026Z" fill="#3B3B44"/>
<path d="M13.8626 9.33026C14.4452 9.33026 14.9175 8.85797 14.9175 8.27536C14.9175 7.69275 14.4452 7.22046 13.8626 7.22046C13.28 7.22046 12.8077 7.69275 12.8077 8.27536C12.8077 8.85797 13.28 9.33026 13.8626 9.33026Z" fill="#3B3B44"/>
<path d="M10.1406 10.1023C9.82705 10.1023 9.51343 9.98364 9.25765 9.74639C9.13663 9.63422 9.12946 9.44513 9.24169 9.32418C9.3538 9.20316 9.54301 9.19599 9.6639 9.30822C9.9446 9.56842 10.3366 9.56842 10.6173 9.30822C10.7382 9.19605 10.9273 9.20316 11.0395 9.32418C11.1517 9.44513 11.1446 9.63422 11.0235 9.74639C10.7678 9.98364 10.4542 10.1023 10.1406 10.1023Z" fill="#3B3B44"/>
<path d="M18.6252 11.5091C17.8846 12.609 16.9462 13.5864 15.9162 14.4507C16.449 14.8061 16.9897 15.1319 17.5213 15.4292C18.561 14.5026 19.4229 13.5326 20.1071 12.5212C20.3994 12.0892 20.2678 11.5005 19.8166 11.2387C19.4099 11.0025 18.8878 11.1191 18.6252 11.5091Z" fill="#3B5CAD"/>
<path opacity="0.2" d="M4.24969 3.10836C4.02069 3.10836 3.80226 2.97598 3.70324 2.75332C3.56926 2.45164 3.70503 2.09851 4.00665 1.96447C4.18647 1.88463 4.37304 1.81543 4.56117 1.75883C4.87736 1.66387 5.21053 1.84304 5.30549 2.15917C5.40045 2.47525 5.22123 2.80847 4.90515 2.90349C4.76495 2.94563 4.62601 2.99714 4.49208 3.05672C4.4132 3.09174 4.33079 3.10836 4.24969 3.10836Z" fill="#FFCCD3"/>
<path opacity="0.2" d="M1.7928 6.88122C1.4628 6.88122 1.19519 6.61362 1.19519 6.28362C1.19519 5.36264 1.4616 4.46939 1.96569 3.70033C2.14653 3.42429 2.51692 3.34702 2.79308 3.5281C3.06911 3.70899 3.14627 4.07945 2.96531 4.35549C2.58917 4.92931 2.39041 5.59607 2.39041 6.28362C2.39041 6.61367 2.1228 6.88122 1.7928 6.88122Z" fill="#FFCCD3"/>
</g>
<defs>
<clipPath id="clip0_14594_15262">
<rect width="30" height="30" fill="white"/>
</clipPath>
</defs>
</svg>
