<svg width="30" height="30" viewBox="0 0 30 30" fill="none" xmlns="http://www.w3.org/2000/svg">
<g clip-path="url(#clip0_14588_14763)">
<path fill-rule="evenodd" clip-rule="evenodd" d="M9.63288 27.7726L10.1743 25.3875L9.63288 22.3713L8.37892 21.8464H7.29271V25.1567C7.29271 25.6683 7.2811 25.7679 6.76788 25.9008C5.92747 26.1167 4.94755 26.8874 5.08706 27.7727H9.63288V27.7726Z" fill="#FFEEE6"/>
<path d="M16.9001 0.905449H11.9484C11.6983 0.905449 11.4957 0.702773 11.4957 0.452754C11.4957 0.202734 11.6983 0 11.9484 0H16.9001C17.1501 0 17.3528 0.202676 17.3528 0.452695C17.3528 0.702715 17.1501 0.905449 16.9001 0.905449Z" fill="#4E5660"/>
<path fill-rule="evenodd" clip-rule="evenodd" d="M14.6621 13.2368L13.5157 12.4241L12.4822 13.2368L12.0887 14.8948L12.4822 16.6453C12.6122 17.2304 12.9716 17.7369 13.5721 17.7369C14.1709 17.7369 14.662 17.2459 14.662 16.6453V13.2368H14.6621Z" fill="#FFEEE6"/>
<path fill-rule="evenodd" clip-rule="evenodd" d="M6.45949 13.2367L5.36959 12.6653L4.27798 13.2367V16.6452C4.27798 17.2458 4.76906 17.7369 5.36959 17.7369C5.96841 17.7369 6.45949 17.2458 6.45949 16.6452L7.00359 15.0145L6.45949 13.2367Z" fill="#FFEEE6"/>
<path fill-rule="evenodd" clip-rule="evenodd" d="M12.4823 16.6457V21.934C12.4823 22.1 12.3453 22.2353 12.1811 22.2353H6.76055C6.59455 22.2353 6.45932 22.1 6.45932 21.934V16.6457L9.4708 15.7451L12.4823 16.6457Z" fill="#3B5CAD"/>
<path fill-rule="evenodd" clip-rule="evenodd" d="M7.93611 8.68384C5.6656 8.68384 4.27798 10.3213 4.27798 12.7048V13.237H6.45955V16.6455H12.4822V13.237H14.662V12.7048C14.662 10.3213 13.2744 8.68384 11.0056 8.68384C10.3281 10.1348 8.62388 10.2186 7.93611 8.68384Z" fill="#FF8300"/>
<path fill-rule="evenodd" clip-rule="evenodd" d="M7.96346 8.70425C7.95321 8.69739 7.94465 8.69054 7.9361 8.68374V9.30313C7.9361 10.2323 8.62563 10.9919 9.4709 10.9919C10.3144 10.9919 11.0057 10.2322 11.0057 9.30313V8.68374C9.85756 7.88124 8.90793 8.03007 7.96346 8.70425Z" fill="#FFCEBF"/>
<path fill-rule="evenodd" clip-rule="evenodd" d="M12.4206 25.8711C11.8937 25.7343 11.8817 25.6316 11.8817 25.1046V22.2351H11.0365H9.47092V27.7995H14.154C14.2976 26.8875 13.2864 26.0936 12.4206 25.8711Z" fill="#FFEEE6"/>
<path fill-rule="evenodd" clip-rule="evenodd" d="M11.8817 25.1048V22.2354H11.0365V25.8354C11.0365 26.3607 11.0485 26.4651 11.5772 26.6002C12.1983 26.7611 12.8964 27.2179 13.1855 27.7997H14.154C14.2977 26.8877 13.2865 26.0938 12.4207 25.8713C11.8937 25.7345 11.8817 25.6318 11.8817 25.1048Z" fill="#FFDFCF"/>
<path fill-rule="evenodd" clip-rule="evenodd" d="M8.32446 22.2354H9.47085V27.7997H8.32446V22.2354Z" fill="#FFDFCF"/>
<path fill-rule="evenodd" clip-rule="evenodd" d="M10.4769 8.98992C11.654 8.44236 12.5832 7.14199 12.5832 6.09141V5.14002C11.3222 5.05277 11.5104 3.45463 10.6412 3.67875C9.96877 3.85154 9.72069 3.93885 9.47085 3.93885C9.221 3.93885 8.97292 3.8516 8.30049 3.67875C7.43131 3.45463 7.61782 5.05271 6.35852 5.14002V6.09135C6.35852 7.14193 7.28588 8.44236 8.46309 8.98986C8.53838 9.02408 8.61368 9.0566 8.69067 9.08566C8.97297 9.19002 9.22106 9.24135 9.4709 9.24135C9.71899 9.24135 9.96883 9.19002 10.2494 9.08566C10.3264 9.05666 10.4034 9.02414 10.4769 8.98992Z" fill="#FFEEE6"/>
<path fill-rule="evenodd" clip-rule="evenodd" d="M12.5832 5.14022C12.5832 2.82858 11.0262 1.65823 9.47085 1.63257C7.91383 1.65823 6.35852 2.82858 6.35852 5.14022C7.61782 5.05298 7.43131 4.08964 8.30049 4.31376C8.97292 4.48655 9.221 4.57386 9.47085 4.57386C9.72069 4.57386 9.96877 4.48661 10.6412 4.31376C11.5104 4.08964 11.3222 5.05298 12.5832 5.14022Z" fill="#4E5660"/>
<path fill-rule="evenodd" clip-rule="evenodd" d="M25.404 2.42464V27.7997L22.5362 28.8862L20.0583 27.7997V2.42464L22.4505 1.33813L25.404 2.42464Z" fill="#27A600"/>
<path fill-rule="evenodd" clip-rule="evenodd" d="M26.1362 0.30457C26.1362 0.136875 25.9993 0 25.8316 0H16.9001V1.21143C16.9001 1.87875 17.4442 2.42455 18.1115 2.42455H20.0586H22.4506H25.4038H25.8315C25.9992 2.42455 26.1361 2.28598 26.1361 2.11998V0.30457H26.1362Z" fill="#F9F7F8"/>
<path fill-rule="evenodd" clip-rule="evenodd" d="M25.4038 27.7996H20.0586H15.3858H10.932H6.47823H3.09046C2.48648 27.7996 1.992 28.294 1.992 28.8998V29.704C1.992 29.8665 2.12372 30 2.28632 30H27.6794C27.8608 30 28.008 29.8511 28.008 29.6715V28.1281C28.008 27.9467 27.8608 27.7996 27.6794 27.7996H25.4038Z" fill="#4E5660"/>
<path fill-rule="evenodd" clip-rule="evenodd" d="M12.5832 5.14012C12.5832 3.21004 11.4967 2.07391 10.2322 1.73682C10.9868 2.27582 11.5343 3.19293 11.5822 4.4882C11.5839 4.54809 11.5856 4.60967 11.5856 4.67131V4.72949C11.7893 4.9177 12.0613 5.1042 12.5832 5.14012Z" fill="#424953"/>
<path fill-rule="evenodd" clip-rule="evenodd" d="M12.5832 6.0912V5.13987C12.0613 5.10396 11.7893 4.91745 11.5857 4.72925V5.62415C11.5857 6.67304 10.6583 7.97517 9.48111 8.52267C9.40581 8.55688 9.33052 8.5877 9.25353 8.61677C8.97122 8.72112 8.72314 8.77421 8.47329 8.77421C8.3073 8.77421 8.13966 8.75024 7.96341 8.70407C8.12255 8.81358 8.29019 8.90938 8.46304 8.98983C8.53833 9.02405 8.61362 9.05657 8.69062 9.08563C8.97292 9.18999 9.22101 9.24132 9.47085 9.24132C9.71894 9.24132 9.96878 9.18999 10.2494 9.08563C10.3264 9.05657 10.4034 9.02405 10.477 8.98983C11.6541 8.44222 12.5832 7.14179 12.5832 6.0912Z" fill="#FFDFCF"/>
<path fill-rule="evenodd" clip-rule="evenodd" d="M26.1361 2.11998V0.30457C26.1361 0.136875 25.9993 0 25.8316 0H23.8194C23.9871 0 24.124 0.136875 24.124 0.30457V2.11998C24.124 2.28598 23.9871 2.42455 23.8194 2.42455H25.4038H25.8315C25.9992 2.42455 26.1361 2.28598 26.1361 2.11998Z" fill="#F0F0F0"/>
<path fill-rule="evenodd" clip-rule="evenodd" d="M25.4038 27.7996V2.42456H23.8194H23.3917V27.7996H25.4038Z" fill="#279D03"/>
<path fill-rule="evenodd" clip-rule="evenodd" d="M14.6621 13.2368H13.5722V16.6453C13.5722 17.0474 13.3514 17.3999 13.0264 17.5898C13.1872 17.6822 13.3737 17.7369 13.5722 17.7369C14.171 17.7369 14.6621 17.2459 14.6621 16.6453V13.2368Z" fill="#FFDFCF"/>
<path fill-rule="evenodd" clip-rule="evenodd" d="M6.4595 13.2368H5.36959V16.6453C5.36959 17.0474 5.14887 17.3999 4.82379 17.5898C4.98463 17.6822 5.17114 17.7369 5.36959 17.7369C5.96842 17.7369 6.4595 17.2459 6.4595 16.6453V13.2368Z" fill="#FFDFCF"/>
<path fill-rule="evenodd" clip-rule="evenodd" d="M28.0079 29.6715V28.1281C28.0079 27.9467 27.8608 27.7996 27.6794 27.7996H25.6689C25.8486 27.7996 25.9957 27.9467 25.9957 28.1281V29.6715C25.9957 29.8511 25.8486 30 25.6689 30H27.6794C27.8608 30 28.0079 29.8511 28.0079 29.6715Z" fill="#434951"/>
<path fill-rule="evenodd" clip-rule="evenodd" d="M12.4822 21.9339V17.1292V16.645H11.3376V17.1292V21.9339C11.3376 22.0999 11.2024 22.235 11.0364 22.235H11.8817H12.1811C12.3454 22.235 12.4822 22.0999 12.4822 21.9339Z" fill="#31509C"/>
<path d="M10.388 18.5536H9.47448C9.47325 18.5536 9.47208 18.5535 9.47085 18.5535C9.46962 18.5535 9.46845 18.5536 9.46722 18.5536H8.5538C8.30378 18.5536 8.1011 18.7563 8.1011 19.0063C8.1011 19.2564 8.30378 19.459 8.5538 19.459H9.01816V22.2349H9.92361V19.459H10.388C10.638 19.459 10.8407 19.2564 10.8407 19.0063C10.8407 18.7563 10.638 18.5536 10.388 18.5536Z" fill="#31509C"/>
<path d="M20.0583 5.41516H22.206C22.4559 5.41516 22.6587 5.21236 22.6587 4.96246C22.6587 4.71197 22.4559 4.50977 22.206 4.50977H20.0583V5.41516Z" fill="#5ED03B"/>
<path d="M21.6833 7.49938C21.6833 7.74987 21.4805 7.95208 21.2306 7.95208H20.0584V7.04663H21.2306C21.4805 7.04663 21.6833 7.24948 21.6833 7.49938Z" fill="#5ED03B"/>
<path d="M20.0583 10.4899H22.206C22.4559 10.4899 22.6587 10.2871 22.6587 10.0372C22.6587 9.78727 22.4559 9.58447 22.206 9.58447H20.0583V10.4899Z" fill="#5ED03B"/>
<path d="M21.6833 12.5748C21.6833 12.8247 21.4805 13.0275 21.2306 13.0275H20.0584V12.1221H21.2306C21.4805 12.1221 21.6833 12.3249 21.6833 12.5748Z" fill="#5ED03B"/>
<path d="M22.6587 15.1124C22.6587 15.3623 22.4559 15.5651 22.206 15.5651H20.0583V14.6597H22.206C22.4559 14.6597 22.6587 14.8619 22.6587 15.1124Z" fill="#5ED03B"/>
<path d="M20.0583 18.1019H21.2306C21.4805 18.1019 21.6833 17.8997 21.6833 17.6492C21.6833 17.3993 21.4805 17.1965 21.2306 17.1965H20.0583V18.1019Z" fill="#5ED03B"/>
<path d="M22.6587 20.1869C22.6587 20.4374 22.4559 20.6396 22.206 20.6396H20.0583V19.7341H22.206C22.4559 19.7342 22.6587 19.937 22.6587 20.1869Z" fill="#5ED03B"/>
<path d="M21.6833 22.7245C21.6833 22.9744 21.4805 23.1772 21.2306 23.1772H20.0584V22.2717H21.2306C21.4805 22.2718 21.6833 22.4746 21.6833 22.7245Z" fill="#5ED03B"/>
<path d="M22.6587 25.2621C22.6587 25.512 22.4559 25.7148 22.206 25.7148H20.0583V24.8093H22.206C22.4559 24.8094 22.6587 25.0122 22.6587 25.2621Z" fill="#5ED03B"/>
<path fill-rule="evenodd" clip-rule="evenodd" d="M14.6621 12.7046C14.6621 10.3211 13.2745 8.68359 11.0057 8.68359C13.3583 9.80092 13.4764 11.5325 13.5722 13.2367H14.6621V12.7046Z" fill="#E97800"/>
<path fill-rule="evenodd" clip-rule="evenodd" d="M12.4822 13.3325C11.8902 13.3325 11.3375 13.649 11.3375 14.1436V16.6451H12.4822V13.3325Z" fill="#E97800"/>
</g>
<defs>
<clipPath id="clip0_14588_14763">
<rect width="30" height="30" fill="white"/>
</clipPath>
</defs>
</svg>
