<svg width="14" height="14" viewBox="0 0 14 14" fill="none" xmlns="http://www.w3.org/2000/svg">
<g clip-path="url(#clip0_14588_14697)">
<path d="M6.50119 0C6.36891 0 6.24205 0.0525467 6.14852 0.14608C6.05499 0.239614 6.00244 0.366473 6.00244 0.49875V6.50125C6.00244 6.89924 6.16054 7.28093 6.44196 7.56235C6.72338 7.84377 7.10507 8.00187 7.50306 8.00187H13.5012C13.567 8.00188 13.6322 7.98883 13.693 7.9635C13.7538 7.93816 13.809 7.90103 13.8554 7.85425C13.9018 7.80747 13.9384 7.75197 13.9632 7.69096C13.988 7.62994 14.0005 7.56461 13.9999 7.49875C13.9976 5.51067 13.2068 3.60468 11.801 2.19889C10.3952 0.793104 8.48926 0.00231576 6.50119 0V0ZM7.50306 7C7.4372 7.00058 7.37187 6.9881 7.31085 6.9633C7.24984 6.93849 7.19434 6.90185 7.14756 6.85547C7.10078 6.8091 7.06366 6.75393 7.03832 6.69313C7.01298 6.63233 6.99994 6.56712 6.99994 6.50125V1.01937C8.5457 1.1407 9.9974 1.80977 11.0938 2.90615C12.1902 4.00253 12.8592 5.45424 12.9805 7H7.50306Z" fill="white"/>
<path d="M12.3198 9.03035C12.2578 9.00822 12.192 8.9986 12.1262 9.00204C12.0605 9.00548 11.996 9.0219 11.9366 9.05038C11.8773 9.07885 11.8241 9.1188 11.7802 9.16793C11.7364 9.21705 11.7027 9.27438 11.6811 9.3366C11.2907 10.4621 10.5427 11.4289 9.55125 12.0893C8.55982 12.7497 7.37946 13.0675 6.19046 12.9941C4.83149 12.9098 3.55119 12.3278 2.59407 11.3594C1.63695 10.391 1.07008 9.10396 1.00171 7.7441C0.945369 6.56586 1.2715 5.40099 1.93145 4.42329C2.59139 3.4456 3.54977 2.70749 4.66358 2.3191C4.72563 2.29727 4.78277 2.26343 4.83174 2.21951C4.88072 2.17559 4.92056 2.12246 4.949 2.06315C4.97743 2.00384 4.99391 1.9395 4.99749 1.87382C5.00106 1.80814 4.99166 1.7424 4.96983 1.68035C4.948 1.6183 4.91416 1.56116 4.87024 1.51218C4.82633 1.46321 4.7732 1.42337 4.71388 1.39493C4.65457 1.3665 4.59024 1.35002 4.52455 1.34644C4.45887 1.34287 4.39313 1.35227 4.33108 1.3741C3.01656 1.83159 1.88489 2.70129 1.10448 3.85378C0.324066 5.00626 -0.063368 6.37993 -0.000168278 7.77035C0.078004 9.37959 0.745425 10.9038 1.87495 12.0527C3.00447 13.2016 4.51716 13.8948 6.12483 14.0003H6.49233C7.83762 14.008 9.15159 13.5945 10.25 12.8178C11.3484 12.0411 12.1762 10.94 12.6173 9.6691C12.6624 9.54494 12.6565 9.40795 12.6007 9.2882C12.5449 9.16844 12.4439 9.07571 12.3198 9.03035Z" fill="white"/>
</g>
<defs>
<clipPath id="clip0_14588_14697">
<rect width="14" height="14" fill="white"/>
</clipPath>
</defs>
</svg>
