<svg width="16" height="16" viewBox="0 0 16 16" fill="none" xmlns="http://www.w3.org/2000/svg">
<g clip-path="url(#clip0_14588_12923)">
<path d="M13.6762 12.0436L10.6205 11.4602V9.85531C10.9263 9.40956 11.1327 8.88313 11.2048 8.3125H11.3612C12.374 8.3125 13.1981 7.48847 13.1981 6.47559C13.1981 5.88766 12.9201 5.36375 12.489 5.02728V4.489C12.489 2.01375 10.4753 0 8 0C5.52475 0 3.511 2.01375 3.511 4.489V5.02728C3.07994 5.36372 2.80194 5.88766 2.80194 6.47559C2.80194 7.48847 3.62597 8.3125 4.63884 8.3125H4.79519C4.86728 8.88313 5.07366 9.40959 5.37947 9.85534V11.4602L2.32378 12.0435C0.977281 12.3006 0 13.4821 0 14.8529V16H16V14.8529C16 13.4821 15.0227 12.3006 13.6762 12.0436ZM6.31697 10.7712C6.80753 11.088 7.38391 11.2708 8 11.2708C8.61609 11.2708 9.19247 11.088 9.68303 10.7712V11.7139C9.30744 12.2804 8.68694 12.6151 8 12.6151C7.31306 12.6151 6.69256 12.2804 6.31697 11.714V10.7712ZM4.4485 4.489C4.4485 2.53069 6.04169 0.9375 8 0.9375C9.95831 0.9375 11.5515 2.53069 11.5515 4.489V4.64853C11.4889 4.64206 11.4254 4.63869 11.3612 4.63869H11.1772C10.9661 3.77109 10.1824 3.125 9.25078 3.125H9.14516L9.04975 3.17028C8.38259 3.487 7.61737 3.487 6.95022 3.17028L6.85484 3.125H6.74922C5.81756 3.125 5.03391 3.77109 4.82278 4.63869H4.63884C4.57456 4.63869 4.51109 4.64206 4.4485 4.64853V4.489ZM4.63881 7.375C4.14288 7.375 3.73941 6.97153 3.73941 6.47559C3.73941 5.97966 4.14288 5.57619 4.63881 5.57619H5.70428V5.10744C5.70428 4.56234 6.12381 4.11341 6.65694 4.06653C7.51688 4.43875 8.48312 4.43875 9.34303 4.06653C9.87619 4.11341 10.2957 4.56234 10.2957 5.10744V5.57619H11.3612C11.8571 5.57619 12.2606 5.97966 12.2606 6.47559C12.2606 6.97153 11.8571 7.375 11.3612 7.375H10.2957V7.85944C10.2957 9.22353 9.26581 10.3333 7.99997 10.3333C6.73412 10.3333 5.70425 9.22356 5.70425 7.85944V7.375H4.63881ZM15.0625 15.0625H12.7723V14.1979H11.8348V15.0625H4.16519V14.1979H3.22769V15.0625H0.9375V14.8529C0.9375 13.9314 1.59444 13.1372 2.49959 12.9644L5.63034 12.3667C6.18631 13.1148 7.04969 13.5526 8.00003 13.5526C8.95038 13.5526 9.81375 13.1148 10.3697 12.3667L13.5005 12.9644C14.4056 13.1372 15.0625 13.9314 15.0625 14.8529V15.0625Z" fill="#3E4247"/>
</g>
<defs>
<clipPath id="clip0_14588_12923">
<rect width="16" height="16" fill="white"/>
</clipPath>
</defs>
</svg>
