<svg width="16" height="16" viewBox="0 0 16 16" fill="none" xmlns="http://www.w3.org/2000/svg">
<g clip-path="url(#clip0_14588_12887)">
<path d="M15.4933 13.906C15.1619 13.426 14.6983 13.0631 14.1528 12.8565L12.974 12.41C13.0942 12.3263 13.2079 12.2323 13.3122 12.1275C13.7712 11.6669 14.0227 11.0619 14.0205 10.424L14.0197 10.2043L13.8504 10.0643C13.2768 9.59034 12.9479 8.89181 12.9479 8.14778V7.39922C13.1067 7.12762 13.1981 6.81213 13.1981 6.4755C13.1981 6.13888 13.1067 5.82338 12.9479 5.55181V4.94784C12.9479 2.21962 10.7283 0 8 0C5.27172 0 3.05209 2.21962 3.05209 4.94791V5.55188C2.89337 5.82347 2.80194 6.13897 2.80194 6.47556C2.80194 6.81219 2.89337 7.12769 3.05209 7.39931V8.14784C3.05209 8.89187 2.72319 9.59041 2.14966 10.0644L1.98031 10.2043L1.97953 10.424C1.97725 11.0619 2.22878 11.6669 2.68781 12.1276C2.79216 12.2323 2.90578 12.3263 3.02603 12.4101L1.84719 12.8565C1.30169 13.0631 0.838156 13.426 0.506688 13.906C0.175219 14.386 0 14.9479 0 15.5312V16H16V15.5312C16 14.9479 15.8248 14.3859 15.4933 13.906ZM4.63881 7.375C4.14288 7.375 3.73941 6.97153 3.73941 6.47559C3.73941 5.97966 4.14288 5.57619 4.63881 5.57619H5.70428V5.10744C5.70428 4.652 6.02909 4.27097 6.45922 4.18388C7.32538 5.07163 8.51609 5.57619 9.76309 5.57619H11.3612C11.8571 5.57619 12.2606 5.97966 12.2606 6.47559C12.2606 6.97153 11.8571 7.375 11.3612 7.375H10.2957V7.85944C10.2957 9.22353 9.26581 10.3333 7.99997 10.3333C6.73412 10.3333 5.70425 9.22356 5.70425 7.85944V7.375H4.63881ZM6.61594 10.942C7.03575 11.1527 7.50503 11.2708 8 11.2708C8.49497 11.2708 8.96425 11.1527 9.38406 10.942L9.77128 12.1996L10.6248 12.5228C9.02356 13.5099 6.97731 13.5098 5.37622 12.5225L6.22872 12.1996L6.61594 10.942ZM13.0701 10.6246C13.0277 10.9382 12.8816 11.2316 12.6481 11.4658C12.3854 11.7295 12.0331 11.8899 11.6685 11.9156L10.5323 11.4853L10.1884 10.3684C10.7309 9.84116 11.1027 9.12116 11.2048 8.31247H11.3612C11.5899 8.31247 11.8088 8.27009 12.011 8.19337C12.0232 9.11903 12.4047 9.99044 13.0701 10.6246ZM8 0.9375C10.1469 0.9375 11.9051 2.63328 12.0057 4.75572C11.805 4.68025 11.5879 4.63869 11.3612 4.63869H9.76313C8.70469 4.63869 7.69716 4.18253 6.99881 3.38716L6.85878 3.22769H6.64656C5.77181 3.22769 5.03472 3.82822 4.82597 4.63869H4.63884C4.41212 4.63869 4.19497 4.68025 3.99431 4.75572C4.09494 2.63328 5.85309 0.9375 8 0.9375ZM3.35188 11.4659C3.11841 11.2316 2.97234 10.9382 2.92991 10.6246C3.59528 9.99044 3.97684 9.11903 3.989 8.19341C4.19116 8.27012 4.41009 8.3125 4.63881 8.3125H4.79516C4.89731 9.12119 5.26906 9.84119 5.81156 10.3684L5.46769 11.4853L4.3315 11.9157C3.96691 11.8899 3.61456 11.7295 3.35188 11.4659ZM12.7723 15.0625V14.1979H11.8348V15.0625H4.16519V14.1979H3.22769V15.0625H0.996312C1.14869 14.4635 1.58625 13.9578 2.17919 13.7332L4.31769 12.9233C5.36341 13.7523 6.66 14.206 8.00016 14.2061H8.00081C9.34022 14.2061 10.6362 13.753 11.6833 12.9237L13.8208 13.7332C14.4138 13.9578 14.8513 14.4635 15.0037 15.0625H12.7723V15.0625Z" fill="#3E4247"/>
</g>
<defs>
<clipPath id="clip0_14588_12887">
<rect width="16" height="16" fill="white"/>
</clipPath>
</defs>
</svg>
