<svg width="30" height="30" viewBox="0 0 30 30" fill="none" xmlns="http://www.w3.org/2000/svg">
<g clip-path="url(#clip0_14594_15534)">
<path d="M9.70898 20.2909L13.9607 18.5662L14.9999 15L11.1294 16.1894L9.70898 20.2909Z" fill="#E75B70"/>
<path d="M13.3849 16.6148L14.9997 15L19.3101 16.5109L20.2906 20.2909L13.3849 27.1966L11.1293 23.0169L13.3849 16.6148Z" fill="#27A600"/>
<path d="M16.6148 16.615L15 15.0001L16.6148 9.96517L20.2909 9.70923L27.1966 16.615L23.0169 18.8706L16.6148 16.615Z" fill="#3B5CAD"/>
<path d="M16.6147 13.3852L14.9999 15L9.70898 13.0878V9.70915L16.6147 2.80347L18.8704 6.98319L16.6147 13.3852Z" fill="#FF8300"/>
<path d="M9.70854 20.2908L2.80286 13.385L6.98258 11.1294L13.3846 13.385L14.9994 14.9999L9.70854 20.2908Z" fill="#F45D5C"/>
<path d="M4.29715 4.29747L13.3849 13.3852H2.80319L1.64116 12.2232C-0.547378 10.0347 -0.547378 6.486 1.64116 4.29747C2.37475 3.56393 3.56362 3.56393 4.29715 4.29747Z" fill="#FF7776"/>
<path d="M4.29704 25.7025L13.3848 16.6147V27.1965L12.2228 28.3585C10.0342 30.547 6.48557 30.547 4.29704 28.3585C3.5635 27.6249 3.5635 26.4361 4.29704 25.7025Z" fill="#31B30A"/>
<path d="M25.7022 4.2974L16.6144 13.3852V2.80343L17.7764 1.6414C19.9649 -0.547134 23.5136 -0.547134 25.7022 1.6414C26.4357 2.375 26.4357 3.56386 25.7022 4.2974Z" fill="#FF921F"/>
<path d="M25.7022 25.7025L16.6144 16.6147H27.1961L28.3581 17.7768C30.5467 19.9653 30.5467 23.514 28.3581 25.7025C27.6246 26.4361 26.4357 26.4361 25.7022 25.7025Z" fill="#5172C2"/>
<path d="M14.9997 17.2838C16.261 17.2838 17.2834 16.2613 17.2834 15.0001C17.2834 13.7388 16.261 12.7163 14.9997 12.7163C13.7384 12.7163 12.7159 13.7388 12.7159 15.0001C12.7159 16.2613 13.7384 17.2838 14.9997 17.2838Z" fill="#EEF0F4"/>
</g>
<defs>
<clipPath id="clip0_14594_15534">
<rect width="30" height="30" fill="white"/>
</clipPath>
</defs>
</svg>
