<svg width="30" height="30" viewBox="0 0 30 30" fill="none" xmlns="http://www.w3.org/2000/svg">
<g clip-path="url(#clip0_14594_14968)">
<path d="M14.1045 2.21924H15.2909V5.62445H14.1045V2.21924Z" fill="#3B5CAD"/>
<path d="M14.6874 2.21924H15.8946V5.62445H14.6874V2.21924Z" fill="#3B5CAD"/>
<path d="M19.2051 1.7775H16.6406C16.3906 1.7775 16.1879 1.57481 16.1879 1.32479C16.1879 1.07477 16.3906 0.87207 16.6406 0.87207H19.2051C19.4552 0.87207 19.6578 1.07477 19.6578 1.32479C19.6578 1.57481 19.4552 1.7775 19.2051 1.7775Z" fill="#3B5CAD"/>
<path d="M16.1575 2.52851L14.3465 2.64924H13.8418C13.5084 2.64924 13.2382 2.37899 13.2382 2.04561V0.603622C13.2382 0.270241 13.5084 0 13.8418 0H14.3465L16.1575 0.120724C16.4909 0.120724 16.6404 0.270241 16.6404 0.603622V2.04561C16.6404 2.37899 16.4909 2.52851 16.1575 2.52851Z" fill="#3B5CAD"/>
<path d="M14.9996 29.9395C14.6942 29.9395 14.3925 29.9855 14.0951 29.9576C8.78174 29.459 4.84148 24.6122 5.58043 19.2057L6.4654 12.7302C7.0077 8.76261 10.1973 5.73431 14.1045 5.32928C14.3991 5.29873 14.6977 5.34346 14.9996 5.34346C19.3059 5.34346 22.347 8.46352 22.9302 12.7302L23.8152 19.2057C24.5955 24.9147 20.7618 29.9395 14.9996 29.9395Z" fill="#27A600"/>
<path d="M14.9994 23.0184C14.691 23.0184 14.3887 23.1161 14.0938 23.0718C10.905 22.5921 8.59263 19.6187 9.0442 16.3147L9.60376 12.2207C9.93098 9.82641 11.7831 7.97317 14.0992 7.58674C14.3925 7.53778 14.6933 7.63309 14.9994 7.63309C17.722 7.63309 19.9055 9.52315 20.2742 12.2207L20.8338 16.3147C21.3271 19.9242 18.6424 23.0184 14.9994 23.0184Z" fill="#FFDD00"/>
<path d="M14.9998 20.7645C14.7498 20.7645 14.5471 20.5619 14.5471 20.3118C14.5471 20.0618 14.7498 19.8591 14.9998 19.8591C15.2498 19.8591 15.4525 20.0618 15.4525 20.3118C15.4525 20.5619 15.2499 20.7645 14.9998 20.7645Z" fill="#90BAC4"/>
<path d="M14.9996 30.0002C14.6935 30.0002 14.3917 29.9857 14.0941 29.9579C19.4072 29.4587 23.3464 24.6123 22.6082 19.2062L21.7227 12.7306C21.4312 10.5974 20.3742 8.7352 18.8519 7.40723C17.5456 6.26699 15.8965 5.51971 14.0941 5.33138C14.3917 5.29999 14.6941 5.28369 14.9996 5.28369C17.1527 5.28369 19.1404 6.07866 20.6627 7.40723C22.1851 8.7352 23.242 10.5974 23.5336 12.7306L24.4191 19.2062C25.199 24.9153 20.7617 30.0002 14.9996 30.0002Z" fill="#2B920C"/>
<path d="M16.7606 0.603622V2.04567C16.7606 2.37887 16.4901 2.6493 16.1569 2.6493H14.3461C14.6793 2.6493 14.9497 2.37887 14.9497 2.04567V0.603622C14.9497 0.270423 14.6793 0 14.3461 0H16.1569C16.4901 0 16.7606 0.270423 16.7606 0.603622Z" fill="#3B5CAD"/>
<path d="M14.9996 23.1394C14.6911 23.1394 14.3887 23.1165 14.0941 23.0718C17.2831 22.5925 19.5955 19.6191 19.144 16.3149L18.5845 12.2211C18.4004 10.8726 17.7315 9.69494 16.7694 8.8553C16.0251 8.2052 15.104 7.75671 14.0941 7.58769C14.2414 7.56294 14.3908 7.54411 14.5418 7.53144C14.6928 7.51876 14.8456 7.5726 14.9996 7.5726C15.1518 7.5726 15.3029 7.51852 15.4523 7.53089C16.6388 7.62898 17.7257 8.10904 18.5802 8.8553C19.5424 9.69494 20.2112 10.8726 20.3953 12.2211L20.9549 16.3149C21.4481 19.9245 18.6424 23.1394 14.9996 23.1394Z" fill="#EFC534"/>
<path d="M15.4525 7.53128V10.4546C15.4525 10.7051 15.2497 10.9073 14.9998 10.9073C14.7499 10.9073 14.5471 10.7051 14.5471 10.4546V7.53128C14.6962 7.518 14.8477 7.51196 14.9998 7.51196C15.1519 7.51196 15.3034 7.518 15.4525 7.53128Z" fill="#3B5CAD"/>
</g>
<defs>
<clipPath id="clip0_14594_14968">
<rect width="30" height="30" fill="white"/>
</clipPath>
</defs>
</svg>
