<svg width="16" height="16" viewBox="0 0 16 16" fill="none" xmlns="http://www.w3.org/2000/svg">
<path d="M8.01562 2.375C6.31834 2.375 4.9375 3.75584 4.9375 5.45312C4.9375 7.15041 6.31834 8.53125 8.01562 8.53125C9.71291 8.53125 11.0938 7.15041 11.0938 5.45312C11.0938 3.75584 9.71291 2.375 8.01562 2.375ZM8.01562 7.28125C7.00759 7.28125 6.1875 6.46116 6.1875 5.45312C6.1875 4.44509 7.00759 3.625 8.01562 3.625C9.02366 3.625 9.84375 4.44509 9.84375 5.45312C9.84375 6.46116 9.02366 7.28125 8.01562 7.28125Z" fill="white"/>
<path d="M8 0C3.57866 0 0 3.57803 0 8C0 12.4214 3.57803 16 8 16C12.4213 16 16 12.422 16 8C16 3.57863 12.422 0 8 0ZM5.14656 14.1163L5.89569 10.4688H6.60509L7.55803 11.4217C7.80212 11.6658 8.19788 11.6658 8.44194 11.4217L9.39491 10.4688H10.1043L10.8534 14.1163C9.98622 14.5225 9.01925 14.75 8 14.75C6.98075 14.75 6.01378 14.5225 5.14656 14.1163ZM11.9907 13.4404L11.2262 9.71803C11.1665 9.42737 10.9107 9.21875 10.614 9.21875H9.136C8.97022 9.21875 8.81125 9.28459 8.69403 9.40181L8 10.0959L7.30594 9.40181C7.18872 9.28459 7.02975 9.21875 6.86397 9.21875H5.386C5.08928 9.21875 4.83347 9.42737 4.77378 9.71803L4.00928 13.4404C2.33728 12.2106 1.25 10.23 1.25 8C1.25 4.27803 4.27803 1.25 8 1.25C11.722 1.25 14.75 4.27803 14.75 8C14.75 10.23 13.6627 12.2106 11.9907 13.4404Z" fill="white"/>
</svg>
