<svg width="33" height="30" viewBox="0 0 33 30" fill="none" xmlns="http://www.w3.org/2000/svg">
<g clip-path="url(#clip0_14594_14982)">
<path d="M31.2892 10.4708H25.9989V7.59546H31.2892C32.0833 7.59546 32.727 8.23914 32.727 9.03315C32.727 9.82711 32.0833 10.4708 31.2892 10.4708Z" fill="#13B81A"/>
<path d="M25.9989 10.4708H30.5248V9.03315C30.5248 8.54378 30.4994 8.06367 30.4513 7.59546H25.999V10.4708H25.9989Z" fill="#0BAB12"/>
<path d="M8.88562 18.0661H21.5884V10.474L14.6943 9.03296L8.88562 18.0661Z" fill="#EFC534"/>
<path d="M14.6943 9.03305V28.2502C14.6943 28.6346 15.1281 28.8588 15.4416 28.6365L16.8349 27.6485C16.999 27.5322 17.2186 27.5322 17.3826 27.6485L19.2494 28.9722C19.4135 29.0885 19.6331 29.0885 19.7972 28.9722L21.6636 27.6486C21.8277 27.5323 22.0474 27.5323 22.2114 27.6486L24.0779 28.9722C24.242 29.0885 24.4616 29.0885 24.6257 28.9722L26.4921 27.6486C26.6561 27.5323 26.8758 27.5323 27.0399 27.6486L28.4327 28.6364C28.7462 28.8587 29.1801 28.6345 29.1801 28.2502V9.03305C29.1803 4.04425 26.5796 0 23.3716 0H8.88562L14.6943 9.03305Z" fill="#FFDD00"/>
<path d="M23.372 0H21.4698C24.6779 0 27.2786 4.04425 27.2786 9.03305V27.9545L28.4333 28.7734C28.7468 28.9958 29.1807 28.7716 29.1807 28.3872V9.03305C29.1807 4.04425 26.58 0 23.372 0Z" fill="#EFC534"/>
<path d="M8.88537 18.0661C12.0934 18.0661 14.6941 14.0219 14.6941 9.03305C14.6941 4.04423 12.0934 0 8.88537 0C5.67731 0 3.07666 4.04423 3.07666 9.03305C3.07666 14.0219 5.67731 18.0661 8.88537 18.0661Z" fill="#EFC534"/>
<path d="M8.88618 13.2261C10.3754 13.2261 11.5827 11.3487 11.5827 9.03285C11.5827 6.71698 10.3754 4.8396 8.88618 4.8396C7.39695 4.8396 6.1897 6.71698 6.1897 9.03285C6.1897 11.3487 7.39695 13.2261 8.88618 13.2261Z" fill="#D1B420"/>
<path d="M11.4196 7.59546H1.4377C0.643679 7.59546 0 8.23914 0 9.03316C0 9.82718 0.643679 10.4709 1.4377 10.4709H11.4196C11.5248 10.0224 11.5823 9.53826 11.5823 9.03316C11.5823 8.52806 11.5249 8.04393 11.4196 7.59546Z" fill="#13B81A"/>
<path d="M11.4204 7.5991C11.4201 7.59789 11.4199 7.59667 11.4196 7.59546H10.1199C10.2252 8.04393 10.283 8.52793 10.283 9.03316C10.283 9.53839 10.2251 10.0224 10.1199 10.4709H11.4196C11.5295 10.0022 11.5823 9.5001 11.5823 9.03316C11.5823 8.53809 11.5236 8.04028 11.4204 7.5991Z" fill="#0BAB12"/>
<path d="M15.0895 20.2248H14.6944C14.4216 20.2248 14.2006 20.0037 14.2006 19.7309C14.2006 19.4581 14.4217 19.2371 14.6944 19.2371H15.0895C15.3623 19.2371 15.5834 19.4582 15.5834 19.7309C15.5834 20.0037 15.3623 20.2248 15.0895 20.2248Z" fill="#365E7D"/>
<path d="M26.6636 20.2248H25.892C25.6192 20.2248 25.3982 20.0037 25.3982 19.7309C25.3982 19.4581 25.6193 19.2371 25.892 19.2371H26.6636C26.9364 19.2371 27.1575 19.4582 27.1575 19.7309C27.1575 20.0037 26.9364 20.2248 26.6636 20.2248ZM23.7701 20.2248H22.9986C22.7258 20.2248 22.5047 20.0037 22.5047 19.7309C22.5047 19.4581 22.7258 19.2371 22.9986 19.2371H23.7701C24.0429 19.2371 24.264 19.4582 24.264 19.7309C24.264 20.0037 24.0429 20.2248 23.7701 20.2248ZM20.8766 20.2248H20.105C19.8322 20.2248 19.6112 20.0037 19.6112 19.7309C19.6112 19.4581 19.8323 19.2371 20.105 19.2371H20.8766C21.1494 19.2371 21.3705 19.4582 21.3705 19.7309C21.3705 20.0037 21.1494 20.2248 20.8766 20.2248ZM17.9832 20.2248H17.2116C16.9388 20.2248 16.7178 20.0037 16.7178 19.7309C16.7178 19.4581 16.9389 19.2371 17.2116 19.2371H17.9832C18.256 19.2371 18.4771 19.4582 18.4771 19.7309C18.4771 20.0037 18.256 20.2248 17.9832 20.2248Z" fill="#365E7D"/>
<path d="M29.1804 20.2248H28.7854C28.5125 20.2248 28.2915 20.0037 28.2915 19.7309C28.2915 19.4581 28.5126 19.2371 28.7854 19.2371H29.1804C29.4533 19.2371 29.6743 19.4582 29.6743 19.7309C29.6743 20.0037 29.4532 20.2248 29.1804 20.2248Z" fill="#365E7D"/>
</g>
<defs>
<clipPath id="clip0_14594_14982">
<rect width="32.7273" height="30" fill="white"/>
</clipPath>
</defs>
</svg>
