<svg width="30" height="30" viewBox="0 0 30 30" fill="none" xmlns="http://www.w3.org/2000/svg">
<g clip-path="url(#clip0_14594_15234)">
<path d="M28.7324 14.9997H25.1567C24.4566 14.9997 23.889 14.4322 23.889 13.7321V9.96781C23.889 9.26773 24.4566 8.7002 25.1567 8.7002H28.7324C29.4324 8.7002 30 9.26773 30 9.96781V13.7321C30 14.4322 29.4324 14.9997 28.7324 14.9997Z" fill="#FF8300"/>
<path d="M28.6153 8.7002H25.1567C24.4566 8.7002 23.889 9.26773 23.889 9.96781V13.7321C23.889 14.4322 24.4566 14.9997 25.1567 14.9997H28.7323C28.7752 14.9997 28.8176 14.9976 28.8593 14.9935C27.8094 14.9911 27.6459 9.39248 28.6153 8.7002Z" fill="#F58003"/>
<path d="M28.7324 21.2995H25.1567C24.4566 21.2995 23.889 20.732 23.889 20.0319V16.2676C23.889 15.5675 24.4566 15 25.1567 15H28.7324C29.4324 15 30 15.5675 30 16.2676V20.0319C30 20.732 29.4324 21.2995 28.7324 21.2995Z" fill="#FFDD00"/>
<path d="M28.6153 15H25.1567C24.4566 15 23.889 15.5675 23.889 16.2676V20.0319C23.889 20.732 24.4566 21.2995 25.1567 21.2995H28.7323C28.7752 21.2995 28.8176 21.2974 28.8593 21.2933C27.8094 21.2909 27.6459 15.6923 28.6153 15Z" fill="#EACB00"/>
<path d="M28.7324 8.7009H25.1567C24.4566 8.7009 23.889 8.13336 23.889 7.43328V3.66898C23.889 2.96891 24.4566 2.40137 25.1567 2.40137H28.7324C29.4324 2.40137 30 2.96891 30 3.66898V7.43328C30 8.13336 29.4324 8.7009 28.7324 8.7009Z" fill="#FFDD00"/>
<path d="M28.6153 2.40137H25.1567C24.4566 2.40137 23.889 2.96891 23.889 3.66898V7.43328C23.889 8.13336 24.4566 8.7009 25.1567 8.7009H28.7323C28.7752 8.7009 28.8176 8.69879 28.8593 8.69463C27.8094 8.69223 27.6459 3.09365 28.6153 2.40137Z" fill="#EACB00"/>
<path d="M28.7324 27.5993H25.1567C24.4566 27.5993 23.889 27.0318 23.889 26.3317V22.5674C23.889 21.8673 24.4566 21.2998 25.1567 21.2998H28.7324C29.4324 21.2998 30 21.8673 30 22.5674V26.3317C30 27.0318 29.4324 27.5993 28.7324 27.5993Z" fill="#FF8300"/>
<path d="M28.6153 21.2998H25.1567C24.4566 21.2998 23.889 21.8673 23.889 22.5674V26.3317C23.889 27.0318 24.4566 27.5993 25.1567 27.5993H28.7323C28.7752 27.5993 28.8176 27.5972 28.8593 27.5931C27.8094 27.5907 27.6459 21.9921 28.6153 21.2998Z" fill="#F58003"/>
<path d="M23.8468 30H5.38202C3.78183 30 2.48462 28.7028 2.48462 27.1026V2.8974C2.48462 1.29721 3.78183 0 5.38202 0H23.8468C25.447 0 26.7443 1.29721 26.7443 2.8974V27.1027C26.7442 28.7028 25.447 30 23.8468 30Z" fill="#27A600"/>
<path d="M14.1395 0H5.38202C3.78183 0 2.48462 1.29721 2.48462 2.8974V27.1027C2.48462 28.7029 3.78183 30.0001 5.38202 30.0001H14.7815C11.2607 25.6798 9.55712 6.14549 14.1395 0Z" fill="#289A04"/>
<path d="M3.77824 7.58199H1.32469C0.593086 7.58199 0 6.98891 0 6.2573C0 5.5257 0.593086 4.93262 1.32469 4.93262H3.77824C4.50984 4.93262 5.10293 5.5257 5.10293 6.2573C5.10287 6.98891 4.50984 7.58199 3.77824 7.58199Z" fill="#3B5CAD"/>
<path d="M3.77824 13.4109H1.32469C0.593086 13.4109 0 12.8178 0 12.0862C0 11.3546 0.593086 10.7615 1.32469 10.7615H3.77824C4.50984 10.7615 5.10293 11.3546 5.10293 12.0862C5.10287 12.8178 4.50984 13.4109 3.77824 13.4109Z" fill="#3B5CAD"/>
<path d="M3.77824 19.239H1.32469C0.593086 19.239 0 18.6459 0 17.9143C0 17.1827 0.593086 16.5896 1.32469 16.5896H3.77824C4.50984 16.5896 5.10293 17.1827 5.10293 17.9143C5.10287 18.6459 4.50984 19.239 3.77824 19.239Z" fill="#3B5CAD"/>
<path d="M3.77824 25.0678H1.32469C0.593086 25.0678 0 24.4747 0 23.7431C0 23.0115 0.593086 22.4185 1.32469 22.4185H3.77824C4.50984 22.4185 5.10293 23.0115 5.10293 23.7431C5.10287 24.4747 4.50984 25.0678 3.77824 25.0678Z" fill="#3B5CAD"/>
<path d="M2.09057 6.2573C2.09057 5.5257 2.68365 4.93262 3.41525 4.93262H1.32469C0.593086 4.93268 0 5.5257 0 6.2573C0 6.98891 0.593086 7.58199 1.32469 7.58199H3.41525C2.68365 7.58199 2.09057 6.98891 2.09057 6.2573Z" fill="#4677D4"/>
<path d="M2.09057 12.0854C2.09057 11.3538 2.68365 10.7607 3.41525 10.7607H1.32469C0.593086 10.7607 0 11.3538 0 12.0854C0 12.817 0.593086 13.4101 1.32469 13.4101H3.41525C2.68365 13.4101 2.09057 12.817 2.09057 12.0854Z" fill="#4677D4"/>
<path d="M2.09057 17.9143C2.09057 17.1827 2.68365 16.5896 3.41525 16.5896H1.32469C0.593086 16.5896 0 17.1827 0 17.9143C0 18.6459 0.593086 19.239 1.32469 19.239H3.41525C2.68365 19.239 2.09057 18.6459 2.09057 17.9143Z" fill="#4677D4"/>
<path d="M2.09057 23.7431C2.09057 23.0115 2.68365 22.4185 3.41525 22.4185H1.32469C0.593086 22.4185 0 23.0115 0 23.7431C0 24.4747 0.593086 25.0678 1.32469 25.0678H3.41525C2.68365 25.0678 2.09057 24.4747 2.09057 23.7431Z" fill="#4677D4"/>
<path d="M22.3698 21.1466H9.15934C8.45926 21.1466 7.89172 20.5791 7.89172 19.879V10.1216C7.89172 9.42154 8.45926 8.854 9.15934 8.854H22.3698C23.0699 8.854 23.6374 9.42154 23.6374 10.1216V19.8791C23.6373 20.5791 23.0699 21.1466 22.3698 21.1466Z" fill="#FFDD00"/>
<path d="M11.5446 8.854H9.15934C8.45926 8.854 7.89172 9.42154 7.89172 10.1216V19.8791C7.89172 20.5791 8.45926 21.1467 9.15934 21.1467H11.9509C11.3732 17.2797 11.1805 12.8152 11.5446 8.854Z" fill="#FFD711"/>
<path d="M12.0836 14.667C11.8409 14.667 11.6442 14.4703 11.6442 14.2275V13.5244C11.6442 13.2817 11.8409 13.085 12.0836 13.085C12.3264 13.085 12.5231 13.2817 12.5231 13.5244V14.2275C12.5231 14.4702 12.3263 14.667 12.0836 14.667Z" fill="#465364"/>
<path d="M19.4015 14.667C19.1587 14.667 18.962 14.4703 18.962 14.2275V13.5244C18.962 13.2817 19.1587 13.085 19.4015 13.085C19.6442 13.085 19.8409 13.2817 19.8409 13.5244V14.2275C19.8409 14.4702 19.6442 14.667 19.4015 14.667Z" fill="#465364"/>
<path d="M15.7423 15.0855C15.2455 15.0855 14.7731 14.8703 14.4463 14.4952C14.2868 14.3123 14.3059 14.0347 14.489 13.8752C14.6718 13.7158 14.9495 13.7348 15.1089 13.9179C15.2688 14.1014 15.4997 14.2066 15.7423 14.2066C15.985 14.2066 16.2158 14.1013 16.3758 13.9178C16.5353 13.7349 16.8129 13.7159 16.9958 13.8752C17.1788 14.0347 17.1978 14.3123 17.0384 14.4953C16.7114 14.8704 16.239 15.0855 15.7423 15.0855Z" fill="#465364"/>
</g>
<defs>
<clipPath id="clip0_14594_15234">
<rect width="30" height="30" fill="white"/>
</clipPath>
</defs>
</svg>
