<svg width="32" height="30" viewBox="0 0 32 30" fill="none" xmlns="http://www.w3.org/2000/svg">
<path d="M16.3708 20.4584H4.08754C1.83008 20.4584 0 18.6283 0 16.3708V4.08754C0 1.83001 1.83008 0 4.08754 0H16.3708C18.6283 0 20.4584 1.83008 20.4584 4.08754V16.3708C20.4585 18.6283 18.6284 20.4584 16.3708 20.4584Z" fill="#FF8300"/>
<path d="M4.72498 6.92222C5.24161 6.92222 5.66043 6.58565 5.66043 6.17046C5.66043 5.75528 5.24161 5.4187 4.72498 5.4187C4.20834 5.4187 3.78952 5.75528 3.78952 6.17046C3.78952 6.58565 4.20834 6.92222 4.72498 6.92222Z" fill="#EFC5DB"/>
<path d="M15.7336 6.92222C16.2503 6.92222 16.6691 6.58565 16.6691 6.17046C16.6691 5.75528 16.2503 5.4187 15.7336 5.4187C15.217 5.4187 14.7982 5.75528 14.7982 6.17046C14.7982 6.58565 15.217 6.92222 15.7336 6.92222Z" fill="#EFC5DB"/>
<path d="M8.1796 4.19199C8.11753 3.24338 7.32769 2.48592 6.37739 2.46156C5.33064 2.43476 4.47366 3.27526 4.47366 4.31594C4.47366 4.36874 4.47586 4.42103 4.48024 4.4727C4.50667 4.78648 4.84707 4.97344 5.12841 4.83208C5.18709 4.80264 5.24903 4.77609 5.31235 4.75103L5.31166 4.75016C5.61085 4.40757 5.95751 4.28293 6.3286 4.28293C6.69975 4.28293 7.04635 4.40757 7.34554 4.75016L7.34473 4.75097C7.40805 4.77602 7.46993 4.80252 7.52855 4.83195C7.81314 4.97481 8.15248 4.78179 8.17772 4.46431C8.18486 4.37519 8.18561 4.28425 8.1796 4.19199Z" fill="white"/>
<path d="M10.2291 6.80926C9.82533 6.80926 9.42155 6.67429 9.08466 6.40435C8.7722 6.15401 8.72178 5.69774 8.97211 5.38528C9.22245 5.07275 9.67871 5.02246 9.99118 5.27273C10.1313 5.38497 10.3269 5.38497 10.467 5.27273C10.7795 5.0224 11.2357 5.07275 11.4861 5.38528C11.7365 5.69774 11.6861 6.15401 11.3736 6.40435C11.0367 6.67429 10.6329 6.80926 10.2291 6.80926Z" fill="#3B3B44"/>
<path d="M6.32864 4.56465C6.6998 4.56465 7.04721 4.63242 7.34558 4.75047C7.40264 4.61713 7.43421 4.47051 7.43421 4.31625C7.43421 3.70567 6.93923 3.21069 6.32864 3.21069C5.71806 3.21069 5.22308 3.70567 5.22308 4.31625C5.22308 4.47051 5.25465 4.61707 5.31171 4.75047C5.61002 4.63242 5.95749 4.56465 6.32864 4.56465Z" fill="#3B3B44"/>
<path d="M15.9809 4.19199C15.9188 3.24338 15.129 2.48592 14.1787 2.46156C13.1319 2.43476 12.275 3.27526 12.275 4.31594C12.275 4.36874 12.2772 4.42103 12.2815 4.4727C12.3079 4.78648 12.6483 4.97344 12.9297 4.83208C12.9884 4.80264 13.0503 4.77609 13.1137 4.75103L13.113 4.75016C13.4122 4.40757 13.7588 4.28293 14.1299 4.28293C14.5011 4.28293 14.8477 4.40757 15.1468 4.75016L15.146 4.75097C15.2093 4.77602 15.2712 4.80252 15.3298 4.83195C15.6144 4.97481 15.9538 4.78179 15.979 4.46431C15.9862 4.37519 15.9869 4.28425 15.9809 4.19199Z" fill="white"/>
<path d="M14.1299 4.56465C14.5011 4.56465 14.8485 4.63242 15.1469 4.75047C15.2039 4.61713 15.2355 4.47051 15.2355 4.31625C15.2355 3.70567 14.7405 3.21069 14.1299 3.21069C13.5193 3.21069 13.0244 3.70567 13.0244 4.31625C13.0244 4.47051 13.0559 4.61707 13.113 4.75047C13.4113 4.63242 13.7588 4.56465 14.1299 4.56465Z" fill="#3B3B44"/>
<path d="M28.5387 29.889H19.8185C18.2158 29.889 16.9166 28.5898 16.9166 26.9871V18.2669C16.9166 16.6642 18.2158 15.365 19.8185 15.365H28.5387C30.1414 15.365 31.4406 16.6642 31.4406 18.2669V26.9871C31.4406 28.5898 30.1414 29.889 28.5387 29.889Z" fill="#3B5CAD"/>
<path d="M20.3696 25.791C22.198 24.8744 23.8912 23.6966 25.3932 22.2932C25.936 21.786 25.9222 20.9207 25.3622 20.4324C24.8799 20.0118 24.1559 20.0201 23.6886 20.4572C22.3725 21.6884 20.879 22.7332 19.2469 23.5513C18.5024 23.9246 17.6487 23.932 16.9166 23.6122V26.9866C16.9166 28.5893 18.2158 29.8885 19.8185 29.8885H23.1817C23.861 29.8885 24.4394 29.3604 24.4636 28.6816C24.489 27.9689 23.9188 27.3833 23.2118 27.3833H19.8185C19.5994 27.3833 19.4219 27.2057 19.4219 26.9866V26.155C19.7485 26.0643 20.0666 25.9428 20.3696 25.791Z" fill="#3152A4"/>
<path d="M15.529 26.8479C18.1238 24.2531 18.1325 20.0515 15.5551 17.4459C12.8928 14.7543 8.51611 14.8753 5.90678 17.6183C3.30528 20.3532 2.79778 23.6665 1.2181 25.4281C0.13897 26.6315 0.600059 28.5347 2.10959 29.1127C6.64651 30.8499 12.373 30.0038 15.529 26.8479Z" fill="#FFDD00"/>
<path d="M7.85523 21.6234C7.73849 21.6234 7.62005 21.5949 7.51039 21.535C7.16134 21.3442 7.03308 20.9066 7.22385 20.5575C7.91166 19.2991 9.51946 17.7555 11.9692 17.1969C12.3571 17.1085 12.7431 17.3511 12.8315 17.7389C12.9199 18.1268 12.6772 18.5129 12.2894 18.6013C10.3062 19.0536 9.0253 20.2653 8.48787 21.2485C8.35703 21.4878 8.11001 21.6234 7.85523 21.6234Z" fill="#EFC534"/>
<path d="M28.8354 4.11312C27.1278 2.40556 24.5227 1.97447 22.3561 3.04095L17.9519 5.20885C15.7695 6.2831 13.8298 7.761 12.2262 9.5488C10.6225 11.3366 13.3039 14.4282 15.9121 17.0364C18.5203 19.6447 23.3998 20.7224 23.3998 20.7224C25.1876 19.1187 26.6655 17.179 27.7397 14.9967L29.9076 10.5925C30.974 8.42583 30.5429 5.82069 28.8354 4.11312Z" fill="#27A600"/>
<path d="M12.2261 9.54956C11.1097 10.7941 10.156 12.1886 9.39719 13.7023C8.86714 14.7597 9.07382 16.0377 9.9102 16.8741L16.0752 23.0391C16.9116 23.8754 18.1896 24.0821 19.247 23.5521C20.7607 22.7932 22.1552 21.8395 23.3997 20.7232L12.2261 9.54956Z" fill="#4E5660"/>
<path d="M8.92467 27.4351C8.58722 27.4351 8.28596 27.1968 8.2187 26.8532C8.14216 26.4629 8.39669 26.0844 8.78701 26.0079C9.63415 25.8419 11.3266 25.2449 12.296 24.0599C12.5477 23.752 13.0015 23.7065 13.3095 23.9586C13.6174 24.2104 13.6628 24.6642 13.4109 24.9721C12.2618 26.3765 10.3511 27.1693 9.06396 27.4215C9.01724 27.4307 8.97064 27.4351 8.92467 27.4351Z" fill="#EFC534"/>
<path opacity="0.35" d="M7.15759 12.5799C6.93494 13.024 6.77836 13.492 6.68899 13.9706C5.72403 14.4523 4.84519 15.1006 4.09156 15.8928C2.94785 17.095 2.15351 18.3691 1.53177 19.5605C2.18488 20.0846 3.00184 20.4126 3.89408 20.4543C4.41179 19.4975 5.04361 18.5267 5.9066 17.6195C6.83692 16.6415 7.99202 15.9971 9.21389 15.6944C9.02687 15.0459 9.08017 14.3348 9.39715 13.7026C9.87997 12.7394 10.4417 11.8245 11.074 10.9657C11.5213 10.3583 11.3441 9.49816 10.6877 9.12657C10.1376 8.81517 9.43974 8.96116 9.06464 9.46992C8.34106 10.4514 7.70292 11.4921 7.15759 12.5799Z" fill="#FF7776"/>
</svg>
