<svg width="30" height="30" viewBox="0 0 30 30" fill="none" xmlns="http://www.w3.org/2000/svg">
<path d="M20.5103 29.9998H9.48954C7.0347 29.9998 5.04468 28.0098 5.04468 25.555V10.0894H24.9552V25.555C24.9552 28.0098 22.9652 29.9998 20.5103 29.9998Z" fill="#FFDD00"/>
<path d="M20.3371 5.11096H18.2582C17.4785 5.11096 16.9083 4.36852 17.1174 3.61746C17.2526 3.13184 17.3279 2.6734 17.3279 2.32775C17.3279 1.04215 16.2857 0 15.0002 0C13.7146 0 12.6725 1.04215 12.6725 2.3277C12.6725 2.67334 12.7478 3.13178 12.8829 3.6174C13.0919 4.36846 12.5218 5.1109 11.7422 5.1109H9.66327C4.81581 5.1109 5.04667 9.07541 5.04667 9.07541H24.9537C24.9537 9.07547 25.1845 5.11096 20.3371 5.11096Z" fill="#FFDD00"/>
<path d="M25.24 11.9065H4.76036C3.75694 11.9065 2.94348 11.093 2.94348 10.0896C2.94348 9.08616 3.75694 8.27271 4.76036 8.27271H25.24C26.2435 8.27271 27.0569 9.08616 27.0569 10.0896C27.0569 11.093 26.2435 11.9065 25.24 11.9065Z" fill="#27A600"/>
<path d="M8.63356 27.2642C10.1853 28.6594 12.3455 28.7869 13.4585 27.5489C14.5714 26.311 14.2158 24.1765 12.6641 22.7813C11.1124 21.3862 8.95219 21.2587 7.8392 22.4966C6.72621 23.7345 7.08182 25.869 8.63356 27.2642Z" fill="#27A600"/>
<path d="M17.0155 27.2642C15.4638 28.6594 13.3036 28.7869 12.1906 27.5489C11.0777 26.311 11.4333 24.1765 12.985 22.7813C14.5367 21.3862 16.6969 21.2587 17.8099 22.4966C18.923 23.7345 18.5673 25.869 17.0155 27.2642Z" fill="#3B5CAD"/>
<path d="M20.9865 27.2642C19.4347 28.6594 17.2746 28.7869 16.1616 27.5489C15.0486 26.311 15.4042 24.1765 16.9559 22.7813C18.5077 21.3862 20.6678 21.2587 21.7808 22.4966C22.8938 23.7345 22.5382 25.869 20.9865 27.2642Z" fill="#FF8300"/>
<path d="M9.85025 19.694C10.3336 19.694 10.7254 19.3791 10.7254 18.9907C10.7254 18.6022 10.3336 18.2874 9.85025 18.2874C9.36692 18.2874 8.9751 18.6022 8.9751 18.9907C8.9751 19.3791 9.36692 19.694 9.85025 19.694Z" fill="#EBCF43"/>
<path d="M20.1493 19.694C20.6327 19.694 21.0245 19.3791 21.0245 18.9907C21.0245 18.6022 20.6327 18.2874 20.1493 18.2874C19.666 18.2874 19.2742 18.6022 19.2742 18.9907C19.2742 19.3791 19.666 19.694 20.1493 19.694Z" fill="#EBCF43"/>
<path d="M15.0001 19.5876C14.6224 19.5876 14.2446 19.4614 13.9294 19.2088C13.6371 18.9746 13.5899 18.5478 13.8241 18.2555C14.0583 17.9631 14.4851 17.916 14.7775 18.1502C14.9085 18.2552 15.0916 18.2552 15.2227 18.1502C15.5149 17.916 15.9418 17.9631 16.176 18.2555C16.4102 18.5478 16.3631 18.9746 16.0707 19.2088C15.7556 19.4614 15.3779 19.5876 15.0001 19.5876Z" fill="#383842"/>
<path d="M11.3505 17.4876C11.7464 17.4876 12.1136 17.57 12.4165 17.7106C12.7257 17.8542 13.0827 17.7252 13.0827 17.1492C13.0827 16.2794 12.3236 15.5738 11.4552 15.5229C10.4493 15.4638 9.61511 16.2621 9.61511 17.2552C9.61511 17.7827 9.96445 17.8703 10.2277 17.7381C10.541 17.5808 10.9295 17.4876 11.3505 17.4876Z" fill="white"/>
<path d="M11.3509 17.4876C11.6982 17.4876 12.0232 17.551 12.3023 17.6615C12.3557 17.5367 12.3852 17.3996 12.3852 17.2552C12.3852 16.684 11.9222 16.2209 11.3509 16.2209C10.7797 16.2209 10.3167 16.684 10.3167 17.2552C10.3167 17.3996 10.3462 17.5367 10.3996 17.6615C10.6787 17.551 11.0038 17.4876 11.3509 17.4876Z" fill="#383842"/>
<path d="M18.6508 17.4876C19.0467 17.4876 19.4139 17.57 19.7168 17.7106C20.026 17.8542 20.383 17.7252 20.383 17.1492C20.383 16.2794 19.6239 15.5738 18.7555 15.5229C17.7495 15.4638 16.9154 16.2621 16.9154 17.2552C16.9154 17.7827 17.2647 17.8703 17.5279 17.7381C17.8412 17.5808 18.2298 17.4876 18.6508 17.4876Z" fill="white"/>
<path d="M18.6508 17.4876C18.998 17.4876 19.323 17.551 19.6021 17.6615C19.6555 17.5367 19.685 17.3996 19.685 17.2552C19.685 16.684 19.222 16.2209 18.6508 16.2209C18.0795 16.2209 17.6165 16.684 17.6165 17.2552C17.6165 17.3996 17.646 17.5367 17.6994 17.6615C17.9784 17.551 18.3035 17.4876 18.6508 17.4876Z" fill="#383842"/>
<path d="M15.0003 18.7498C14.5953 18.7498 14.267 19.034 14.267 19.3846C14.267 19.3967 14.2683 19.4086 14.2691 19.4205C14.5009 19.531 14.7504 19.5875 15.0003 19.5875C15.2502 19.5875 15.4997 19.531 15.7315 19.4205C15.7322 19.4085 15.7336 19.3967 15.7336 19.3846C15.7336 19.034 15.4053 18.7498 15.0003 18.7498Z" fill="#FF737D"/>
</svg>
