<svg width="30" height="30" viewBox="0 0 30 30" fill="none" xmlns="http://www.w3.org/2000/svg">
<path d="M26.527 29.2639H3.4729C1.55484 29.2639 0 27.709 0 25.791V4.20899C0 2.29098 1.55484 0.736084 3.4729 0.736084H26.5271C28.4451 0.736084 30 2.29092 30 4.20899V25.791C29.9999 27.709 28.4451 29.2639 26.527 29.2639Z" fill="#27A600"/>
<path d="M0 16.7859V25.791C0 27.709 1.55484 29.2639 3.4729 29.2639H26.5271C28.4451 29.2639 30 27.7091 30 25.791V16.7859H0Z" fill="#B3E7FF"/>
<path d="M19.2255 8.31958H10.7744C10.2922 8.31958 9.90131 7.9287 9.90131 7.44648V4.12188C9.90131 3.63972 10.2922 3.24878 10.7744 3.24878H19.2254C19.7076 3.24878 20.0985 3.63966 20.0985 4.12188V7.44648C20.0985 7.9287 19.7077 8.31958 19.2255 8.31958Z" fill="white"/>
<path d="M18.2601 8.31965C18.2601 6.51919 16.8005 5.05957 15 5.05957C13.1994 5.05957 11.7399 6.51913 11.7399 8.31965H18.2601Z" fill="#7FDBD5"/>
<path d="M14.9996 8.75915C14.9232 8.75915 14.8457 8.73923 14.7753 8.69728C14.5667 8.57317 14.4983 8.30347 14.6224 8.09493L16.4838 4.96679C16.6079 4.75814 16.8775 4.6897 17.0862 4.81386C17.2948 4.93797 17.3633 5.20767 17.2392 5.41621L15.3777 8.54435C15.2955 8.68251 15.1494 8.75915 14.9996 8.75915Z" fill="#495059"/>
<path d="M19.2255 8.75917H10.7744C10.0507 8.75917 9.46191 8.17036 9.46191 7.44667V4.12213C9.46191 3.39832 10.0507 2.80957 10.7744 2.80957H19.2254C19.9492 2.80957 20.5379 3.39838 20.5379 4.12213V7.44667C20.538 8.1703 19.9492 8.75917 19.2255 8.75917ZM10.7744 3.68842C10.5353 3.68842 10.3408 3.88295 10.3408 4.12207V7.44661C10.3408 7.68573 10.5353 7.8802 10.7744 7.8802H19.2254C19.4645 7.8802 19.659 7.68573 19.659 7.44661V4.12213C19.659 3.88301 19.4645 3.68847 19.2254 3.68847L10.7744 3.68842Z" fill="#FFDD00"/>
<path d="M7.66428 25.6377C5.65844 23.5768 3.60216 19.9733 4.32233 14.5782C4.56954 12.7265 5.91725 11.0159 7.88471 11.0159C9.85216 11.0159 11.1914 12.4591 11.4471 14.5782C11.6496 16.2572 11.2217 17.3825 10.8755 18.8372C10.3973 20.8464 11.6253 22.1999 11.6253 23.9969C11.6253 25.2784 10.5865 26.3172 9.30502 26.3172C8.66424 26.3173 8.08416 26.0576 7.66428 25.6377Z" fill="#38648C"/>
<path opacity="0.1" d="M9.30496 25.4384C8.9217 25.4384 8.56135 25.2899 8.28954 25.02C7.18546 23.8843 6.3464 22.5501 5.79585 21.0546C5.08909 19.1348 4.88642 16.995 5.19357 14.6945C5.37925 13.3033 6.36333 11.8948 7.88471 11.8948C9.35828 11.8948 10.3638 12.9373 10.5745 14.6835C10.7213 15.9001 10.4968 16.7692 10.2125 17.8695C10.1492 18.1144 10.0839 18.3675 10.0205 18.6337C9.68524 20.0424 10.0437 21.1711 10.3599 22.167C10.5587 22.7929 10.7464 23.384 10.7464 23.997C10.7464 24.7918 10.0998 25.4384 9.30496 25.4384Z" fill="#3B5CAD"/>
<path d="M22.3357 25.6377C24.3415 23.5768 26.3978 19.9733 25.6776 14.5782C25.4304 12.7265 24.0826 11.0159 22.1152 11.0159C20.1477 11.0159 18.8086 12.4591 18.5529 14.5782C18.3503 16.2572 18.7782 17.3825 19.1245 18.8372C19.6026 20.8464 18.3747 22.1999 18.3747 23.9969C18.3747 25.2784 19.4135 26.3172 20.695 26.3172C21.3357 26.3173 21.9158 26.0576 22.3357 25.6377Z" fill="#38648C"/>
<path opacity="0.1" d="M20.695 25.4384C19.9002 25.4384 19.2536 24.7918 19.2536 23.997C19.2536 23.3839 19.4413 22.7928 19.6401 22.167C19.9564 21.1711 20.3148 20.0424 19.9795 18.6338C19.9161 18.3675 19.8507 18.1144 19.7875 17.8695C19.5032 16.7692 19.2787 15.9001 19.4255 14.6835C19.6362 12.9373 20.6417 11.8948 22.1153 11.8948C23.6367 11.8948 24.6208 13.3033 24.8065 14.6945C25.1135 16.995 24.9109 19.1348 24.2042 21.0546C23.6536 22.55 22.8146 23.8843 21.7105 25.02C21.4386 25.2898 21.0782 25.4384 20.695 25.4384Z" fill="#3B5CAD"/>
<path d="M6.69788 5.16102C7.1962 5.16102 7.60017 4.75705 7.60017 4.25873C7.60017 3.76041 7.1962 3.35645 6.69788 3.35645C6.19956 3.35645 5.79559 3.76041 5.79559 4.25873C5.79559 4.75705 6.19956 5.16102 6.69788 5.16102Z" fill="#FFDD00"/>
<path d="M3.33142 5.16102C3.82974 5.16102 4.2337 4.75705 4.2337 4.25873C4.2337 3.76041 3.82974 3.35645 3.33142 3.35645C2.8331 3.35645 2.42914 3.76041 2.42914 4.25873C2.42914 4.75705 2.8331 5.16102 3.33142 5.16102Z" fill="#FFDD00"/>
<path d="M6.69788 8.24597C7.1962 8.24597 7.60017 7.842 7.60017 7.34369C7.60017 6.84537 7.1962 6.44141 6.69788 6.44141C6.19956 6.44141 5.79559 6.84537 5.79559 7.34369C5.79559 7.842 6.19956 8.24597 6.69788 8.24597Z" fill="#FFDD00"/>
<path d="M3.33142 8.24597C3.82974 8.24597 4.2337 7.842 4.2337 7.34369C4.2337 6.84537 3.82974 6.44141 3.33142 6.44141C2.8331 6.44141 2.42914 6.84537 2.42914 7.34369C2.42914 7.842 2.8331 8.24597 3.33142 8.24597Z" fill="#FFDD00"/>
<path d="M23.3021 5.16102C23.8004 5.16102 24.2044 4.75705 24.2044 4.25873C24.2044 3.76041 23.8004 3.35645 23.3021 3.35645C22.8038 3.35645 22.3998 3.76041 22.3998 4.25873C22.3998 4.75705 22.8038 5.16102 23.3021 5.16102Z" fill="#FFDD00"/>
<path d="M26.6683 5.16102C27.1667 5.16102 27.5706 4.75705 27.5706 4.25873C27.5706 3.76041 27.1667 3.35645 26.6683 3.35645C26.17 3.35645 25.7661 3.76041 25.7661 4.25873C25.7661 4.75705 26.17 5.16102 26.6683 5.16102Z" fill="#FFDD00"/>
<path d="M23.3021 8.24597C23.8004 8.24597 24.2044 7.842 24.2044 7.34369C24.2044 6.84537 23.8004 6.44141 23.3021 6.44141C22.8038 6.44141 22.3998 6.84537 22.3998 7.34369C22.3998 7.842 22.8038 8.24597 23.3021 8.24597Z" fill="#FFDD00"/>
<path d="M26.6683 8.24597C27.1667 8.24597 27.5706 7.842 27.5706 7.34369C27.5706 6.84537 27.1667 6.44141 26.6683 6.44141C26.17 6.44141 25.7661 6.84537 25.7661 7.34369C25.7661 7.842 26.17 8.24597 26.6683 8.24597Z" fill="#FFDD00"/>
<path opacity="0.1" d="M17.9081 29.2639C7.26778 23.3047 4.35579 6.58965 7.4878 0.736084H3.4729C1.55484 0.736084 0 2.29098 0 4.20899V25.791C0 27.709 1.55484 29.2639 3.4729 29.2639H17.9081Z" fill="black"/>
</svg>
