<svg width="18" height="19" viewBox="0 0 18 19" fill="none" xmlns="http://www.w3.org/2000/svg">
<path d="M16.3404 1.44689C14.4401 -0.453484 11.347 -0.453484 9.44667 1.44689C7.5463 3.34726 7.54474 6.44029 9.44589 8.34144C11.347 10.2426 14.4393 10.2418 16.3397 8.34144C18.24 6.44107 18.2408 3.34726 16.3404 1.44689ZM13.6883 6.74967L12.8928 5.95417L12.0973 6.74967C11.8046 7.04235 11.3288 7.04235 11.0361 6.74967C10.7434 6.45699 10.7434 5.98272 11.0369 5.68927L11.8324 4.89377L11.0369 4.09828C10.7442 3.8056 10.7442 3.32978 11.0369 3.0371C11.3296 2.74442 11.8046 2.7452 12.0973 3.03788L12.8928 3.83337L13.6883 3.03788C13.981 2.7452 14.4568 2.7452 14.7495 3.03788C15.0421 3.33056 15.0421 3.80638 14.7495 4.09905L13.954 4.89455L14.7495 5.69005C15.0421 5.98272 15.0414 6.45777 14.7487 6.75045C14.456 7.04312 13.9817 7.04312 13.6883 6.74967Z" fill="#3B5CAD"/>
<path d="M10.0524 18.0023C9.07478 18.0023 8.07128 17.7424 7.26916 17.4915C5.69303 16.9999 4.23729 16.1167 3.05941 14.9389C1.47541 13.3549 0.39429 11.2399 0.0950404 9.135C-0.0399595 8.18325 -0.117585 6.966 0.48204 5.98725C1.04566 5.07037 2.06604 4.5 3.14379 4.5C3.33279 4.5 3.51391 4.52025 3.68829 4.5495C3.69504 4.55062 3.70066 4.55175 3.70741 4.55287C4.33854 4.6665 4.84028 5.20312 4.92803 5.8635L5.32628 8.838C5.41516 9.504 5.06191 10.1633 4.46679 10.44C4.43079 10.4569 4.39479 10.4726 4.35766 10.4884C4.68166 11.1735 5.11928 11.7934 5.66378 12.3379C6.20716 12.8812 6.82816 13.3189 7.51216 13.6429C7.52791 13.6058 7.54366 13.5697 7.56053 13.5349C7.83728 12.9386 8.49203 12.5843 9.16253 12.6743L12.137 13.0725C12.7997 13.1603 13.3385 13.6654 13.4499 14.2999C13.451 14.3089 13.4533 14.3179 13.4533 14.3269C13.4803 14.4968 13.4994 14.6734 13.4994 14.8556C13.4994 15.8737 13.0033 16.8289 12.1708 17.4128C11.5498 17.847 10.8084 18.0023 10.0524 18.0023Z" fill="#27A600"/>
</svg>
