<svg width="18" height="18" viewBox="0 0 18 18" fill="none" xmlns="http://www.w3.org/2000/svg">
<path d="M10.1248 6.20394V2.81314C10.1248 2.58026 9.98195 2.37213 9.76482 2.28888C9.54769 2.20338 9.30244 2.26188 9.14606 2.43513L3.52097 8.62273C3.32634 8.8376 3.32634 9.16498 3.52097 9.37986L9.14606 15.5675C9.25519 15.6856 9.40706 15.7508 9.56232 15.7508C9.63094 15.7508 9.69957 15.7385 9.76482 15.7137C9.98195 15.6293 10.1248 15.4212 10.1248 15.1883V11.8392C12.457 12.0518 14.6496 13.5391 16.1234 14.8024L17.0718 15.6158C17.2372 15.7587 17.4746 15.7913 17.6726 15.6991C17.8728 15.608 17.9999 15.4077 17.9999 15.1883V14.0633C17.9999 9.75112 14.6519 6.45594 10.1248 6.20394Z" fill="#27A600"/>
<path d="M1.32274 9.00116L6.60357 3.19157C6.81282 2.96095 6.79482 2.60544 6.56532 2.39619C6.33694 2.19031 5.98031 2.20606 5.77106 2.43556L0.145971 8.62316C-0.048657 8.83804 -0.048657 9.16542 0.145971 9.3803L5.77106 15.5679C5.88244 15.6894 6.03431 15.7513 6.18732 15.7513C6.32232 15.7513 6.45844 15.7029 6.56532 15.605C6.79482 15.3958 6.8117 15.0403 6.60357 14.8108L1.32274 9.00116Z" fill="#3B5CAD"/>
</svg>
