<svg width="19" height="18" viewBox="0 0 19 18" fill="none" xmlns="http://www.w3.org/2000/svg">
<path d="M17.8144 8.06049C16.3511 4.53085 12.8912 2.25 8.99998 2.25C5.10888 2.25 1.64901 4.53085 0.185711 8.06049C-0.0619036 8.65748 -0.0619036 9.34237 0.185711 9.94005C1.64901 13.4697 5.10888 15.7505 8.99998 15.7505C12.8912 15.7505 16.3511 13.4697 17.8144 9.94005C18.0619 9.34306 18.0619 8.65748 17.8144 8.06049ZM8.99998 12.0005C7.34551 12.0005 5.99991 10.6549 5.99991 9.00027C5.99991 7.3458 7.34551 6.0002 8.99998 6.0002C10.6546 6.0002 12.0002 7.3458 12.0002 9.00027C12.0002 10.6549 10.6546 12.0005 8.99998 12.0005Z" fill="#27A600"/>
<line x1="18" y1="0.707107" x2="1.20621" y2="17.5009" stroke="#3B5CAD" stroke-linecap="round"/>
</svg>
