<svg width="18" height="19" viewBox="0 0 18 19" fill="none" xmlns="http://www.w3.org/2000/svg">
<path d="M17.4369 9.75037C17.1264 9.75037 16.8744 9.49837 16.8744 9.18787C16.8744 7.029 16.0374 5.004 14.5164 3.483C12.9976 1.96312 10.9704 1.125 8.81152 1.125C8.50102 1.125 8.24902 0.873 8.24902 0.5625C8.24902 0.252 8.50102 0 8.81152 0C11.2708 0 13.5793 0.954 15.3118 2.68762C17.0454 4.42125 17.9994 6.72975 17.9994 9.18787C17.9994 9.49837 17.7474 9.75037 17.4369 9.75037Z" fill="#3B5CAD"/>
<path d="M14.972 9.75034C14.6615 9.75034 14.4095 9.49834 14.4095 9.18784C14.4095 7.68822 13.8279 6.28197 12.7726 5.22672C11.7174 4.17147 10.3111 3.58984 8.81152 3.58984C8.50102 3.58984 8.24902 3.33784 8.24902 3.02734C8.24902 2.71684 8.50102 2.46484 8.81152 2.46484C10.6115 2.46484 12.3001 3.16347 13.568 4.43134C14.8359 5.69922 15.5345 7.38897 15.5345 9.18784C15.5345 9.49834 15.2825 9.75034 14.972 9.75034Z" fill="#3B5CAD"/>
<path d="M12.5084 9.75031C12.5073 9.75031 12.5061 9.75031 12.505 9.75031C12.1945 9.74806 11.9436 9.49494 11.9459 9.18444C11.9515 8.35306 11.6253 7.56669 11.0301 6.97044C10.4339 6.37419 9.67001 6.06594 8.81614 6.05469C8.50451 6.08956 8.25251 5.80719 8.25026 5.49556C8.24801 5.18506 8.49889 4.93081 8.80939 4.92969C9.97489 4.93869 11.0155 5.36506 11.8266 6.17506C12.6378 6.98506 13.0799 8.05719 13.072 9.19119C13.0686 9.50056 12.8178 9.75031 12.5084 9.75031Z" fill="#3B5CAD"/>
<path d="M10.0524 18.0023C9.07478 18.0023 8.07128 17.7424 7.26916 17.4915C5.69303 16.9999 4.23729 16.1167 3.05941 14.9389C1.47541 13.3549 0.39429 11.2399 0.0950404 9.135C-0.0399595 8.18325 -0.117585 6.966 0.48204 5.98725C1.04566 5.07037 2.06604 4.5 3.14379 4.5C3.33279 4.5 3.51391 4.52025 3.68829 4.5495C3.69504 4.55062 3.70066 4.55175 3.70741 4.55287C4.33854 4.6665 4.84028 5.20312 4.92803 5.8635L5.32628 8.838C5.41516 9.504 5.06191 10.1633 4.46679 10.44C4.43079 10.4569 4.39479 10.4726 4.35766 10.4884C4.68166 11.1735 5.11928 11.7934 5.66378 12.3379C6.20716 12.8812 6.82816 13.3189 7.51216 13.6429C7.52791 13.6058 7.54366 13.5697 7.56053 13.5349C7.83728 12.9386 8.49203 12.5843 9.16253 12.6743L12.137 13.0725C12.7997 13.1603 13.3385 13.6654 13.4499 14.2999C13.451 14.3089 13.4533 14.3179 13.4533 14.3269C13.4803 14.4968 13.4994 14.6734 13.4994 14.8556C13.4994 15.8737 13.0033 16.8289 12.1708 17.4128C11.5498 17.847 10.8084 18.0023 10.0524 18.0023Z" fill="#27A600"/>
</svg>
