<svg width="18" height="18" viewBox="0 0 18 18" fill="none" xmlns="http://www.w3.org/2000/svg">
<path d="M9 18C4.03714 18 0 13.9629 0 9C0 4.03714 4.03714 0 9 0C13.9629 0 18 4.03714 18 9C18 13.9629 13.9629 18 9 18ZM9 1.71429C4.98257 1.71429 1.71429 4.98257 1.71429 9C1.71429 13.0174 4.98257 16.2857 9 16.2857C13.0166 16.2857 16.2857 13.0174 16.2857 9C16.2857 4.98257 13.0174 1.71429 9 1.71429Z" fill="#3B5CAD"/>
<path d="M10.0715 14.1434C9.6652 14.1434 9.28635 13.984 9.00263 13.6951L5.40521 10.2391C4.95436 9.78226 4.71436 9.19426 4.71436 8.57198V5.78627C4.71436 5.1957 5.19521 4.71484 5.78578 4.71484H8.57149C9.19549 4.71484 9.78263 4.9557 10.2258 5.3937L13.7083 9.01684C13.9835 9.28769 14.1429 9.66741 14.1429 10.072C14.1429 10.4723 13.9869 10.8494 13.7032 11.1323L11.1318 13.7037C10.8498 13.9874 10.4726 14.1434 10.0715 14.1434Z" fill="#27A600"/>
</svg>
