<svg width="17" height="18" viewBox="0 0 17 18" fill="none" xmlns="http://www.w3.org/2000/svg">
<path d="M8.30781 8.30752C10.6019 8.30752 12.4616 6.44781 12.4616 4.15376C12.4616 1.8597 10.6019 0 8.30781 0C6.01375 0 4.15405 1.8597 4.15405 4.15376C4.15405 6.44781 6.01375 8.30752 8.30781 8.30752Z" fill="#3B5CAD"/>
<path d="M16.3727 12.6294C11.6997 8.70687 4.9139 8.70687 0.240918 12.6294C0.0886135 12.7582 0 12.9465 0 13.1472C0 13.816 0 15.4332 0 16.617C0 17.3813 0.620295 18.0002 1.38459 18.0002H15.2304C15.9947 18.0002 16.615 17.3813 16.615 16.617V13.4186C16.615 12.9465 16.5264 12.7582 16.3727 12.6294Z" fill="#27A600"/>
</svg>
