<svg width="60" height="60" viewBox="0 0 60 60" fill="none" xmlns="http://www.w3.org/2000/svg">
<path d="M45.6624 51.2382C44.4161 51.2383 43.3937 50.8954 42.6968 50.5642C38.506 48.5723 35.7981 42.3539 35.7981 34.7219C35.7981 33.3143 36.9392 32.1732 38.3468 32.1732C39.7544 32.1732 40.8955 33.3143 40.8955 34.7219C40.8955 40.7899 42.9509 45.0412 44.885 45.9605C45.2113 46.1154 46.0781 46.528 47.7131 45.1966C48.8046 44.3077 50.41 44.4723 51.2988 45.5636C52.1876 46.6551 52.0233 48.2605 50.9317 49.1493C48.9717 50.7454 47.1562 51.2382 45.6624 51.2382Z" fill="#FFDD00"/>
<path d="M34.5065 59.2674C29.1899 59.2674 24.5426 56.3279 21.4205 50.9905C18.702 46.3429 17.7335 41.0424 17.7335 37.6314C17.7335 36.2238 18.8746 35.0828 20.2822 35.0828C21.6898 35.0828 22.8308 36.2238 22.8308 37.6314C22.8308 40.249 23.6138 44.6442 25.8206 48.4167C28.0535 52.2344 30.9759 54.17 34.5066 54.17C38.5371 54.17 41.2688 51.4498 44.4318 48.3003C47.7999 44.9461 51.6176 41.1444 57.4513 41.1444C58.8589 41.1444 60 42.2855 60 43.6931C60 45.1007 58.8589 46.2418 57.4513 46.2418C53.7227 46.2418 51.0839 48.8696 48.0285 51.9122C44.5661 55.3598 40.6422 59.2674 34.5065 59.2674Z" fill="#FFDD00"/>
<path d="M40.8259 30.3523C46.0474 35.8417 41.6292 37.2474 38.3475 37.2474C35.0658 37.2474 30.6475 35.8416 35.8691 30.3523H40.8259Z" fill="#FF8300"/>
<path d="M21.2908 12.7836C21.2908 21.7096 28.9962 27.5875 35.6832 31.2152C37.3448 32.1166 39.3516 32.1166 41.013 31.2152C47.7 27.5873 55.4054 21.7096 55.4054 12.7836C55.4054 7.28558 50.9483 2.82849 45.4503 2.82849C42.6689 2.82849 40.1544 3.96957 38.348 5.80865C36.5417 3.96957 34.0273 2.82849 31.2459 2.82849C25.7478 2.82837 21.2908 7.28546 21.2908 12.7836Z" fill="#3B5CAD"/>
<path d="M23.2293 33.4623C29.4381 39.9895 24.1846 41.6611 20.2823 41.6611C16.3801 41.6611 11.1264 39.9895 17.3352 33.4623H23.2293Z" fill="#FF8300"/>
<path d="M0 12.5672C0 23.1808 9.16219 30.1699 17.1135 34.4837C19.0892 35.5555 21.4753 35.5555 23.4512 34.4837C31.4025 30.1699 40.5647 23.1808 40.5647 12.5672C40.5647 6.02958 35.2649 0.729856 28.7273 0.729856C25.42 0.729856 22.4302 2.08667 20.2824 4.27344C18.1345 2.08667 15.1446 0.729736 11.8373 0.729736C5.29972 0.729736 0 6.02958 0 12.5672H0Z" fill="#27A600"/>
<path opacity="0.2" d="M9.77808 21.5276C10.764 21.5276 11.5633 20.8853 11.5633 20.0929C11.5633 19.3006 10.764 18.6583 9.77808 18.6583C8.79216 18.6583 7.9929 19.3006 7.9929 20.0929C7.9929 20.8853 8.79216 21.5276 9.77808 21.5276Z" fill="#EFC5DB"/>
<path opacity="0.2" d="M30.7866 21.5276C31.7725 21.5276 32.5718 20.8853 32.5718 20.0929C32.5718 19.3006 31.7725 18.6583 30.7866 18.6583C29.8007 18.6583 29.0014 19.3006 29.0014 20.0929C29.0014 20.8853 29.8007 21.5276 30.7866 21.5276Z" fill="#EFC5DB"/>
<path d="M12.8387 20.0929C14.7938 20.0929 16.3787 18.508 16.3787 16.5529C16.3787 14.5979 14.7938 13.0129 12.8387 13.0129C10.8836 13.0129 9.29871 14.5979 9.29871 16.5529C9.29871 18.508 10.8836 20.0929 12.8387 20.0929Z" fill="white"/>
<path d="M27.726 20.0929C29.6811 20.0929 31.266 18.508 31.266 16.5529C31.266 14.5979 29.6811 13.0129 27.726 13.0129C25.7709 13.0129 24.186 14.5979 24.186 16.5529C24.186 18.508 25.7709 20.0929 27.726 20.0929Z" fill="white"/>
<path d="M12.838 18.6602C14.0032 18.6602 14.9478 17.7156 14.9478 16.5504C14.9478 15.3851 14.0032 14.4406 12.838 14.4406C11.6728 14.4406 10.7282 15.3851 10.7282 16.5504C10.7282 17.7156 11.6728 18.6602 12.838 18.6602Z" fill="#3B3B44"/>
<path d="M27.7253 18.6602C28.8905 18.6602 29.8351 17.7156 29.8351 16.5504C29.8351 15.3851 28.8905 14.4406 27.7253 14.4406C26.5601 14.4406 25.6155 15.3851 25.6155 16.5504C25.6155 17.7156 26.5601 18.6602 27.7253 18.6602Z" fill="#3B3B44"/>
<path d="M20.2813 20.2044C19.6542 20.2044 19.0269 19.9672 18.5154 19.4927C18.2733 19.2683 18.259 18.8901 18.4835 18.6482C18.7077 18.4062 19.0861 18.3919 19.3279 18.6163C19.8893 19.1367 20.6732 19.1367 21.2346 18.6163C21.4765 18.392 21.8547 18.4062 22.079 18.6482C22.3035 18.8901 22.2893 19.2683 22.0471 19.4927C21.5357 19.9672 20.9084 20.2044 20.2813 20.2044Z" fill="#3B3B44"/>
<path d="M37.2503 23.018C35.7692 25.2178 33.8925 27.1725 31.8324 28.9011C32.898 29.6119 33.9795 30.2636 35.0425 30.8582C37.1221 29.0049 38.8457 27.0649 40.2142 25.0423C40.7988 24.1781 40.5355 23.0008 39.6332 22.4771C38.8199 22.0048 37.7756 22.2379 37.2503 23.018Z" fill="#3B5CAD"/>
<path opacity="0.2" d="M8.49934 6.21671C8.04133 6.21671 7.60448 5.95197 7.40643 5.50663C7.13847 4.90328 7.41002 4.19703 8.01325 3.92894C8.37289 3.76926 8.74604 3.63085 9.12229 3.51767C9.75468 3.32775 10.421 3.68607 10.6109 4.31834C10.8009 4.9505 10.4424 5.61695 9.81026 5.80699C9.52986 5.89125 9.25197 5.99428 8.98412 6.11344C8.82635 6.18348 8.66153 6.21671 8.49934 6.21671Z" fill="#FFCCD3"/>
<path opacity="0.2" d="M3.58562 13.7622C2.92562 13.7622 2.3904 13.227 2.3904 12.567C2.3904 10.725 2.92323 8.93854 3.9314 7.40041C4.29307 6.84834 5.03387 6.6938 5.58618 7.05595C6.13825 7.41774 6.29255 8.15866 5.93064 8.71073C5.17837 9.85838 4.78084 11.1919 4.78084 12.567C4.78084 13.2271 4.24562 13.7622 3.58562 13.7622Z" fill="#FFCCD3"/>
</svg>
