<svg width="46" height="60" viewBox="0 0 46 60" fill="none" xmlns="http://www.w3.org/2000/svg">
<path d="M43.7179 36.9514H2.28033V44.5174C2.28033 47.5066 4.70364 49.93 7.69288 49.93H38.3053C41.2946 49.93 43.7179 47.5066 43.7179 44.5174V36.9514Z" fill="#D3A608"/>
<path d="M2.28117 30.5377V11.1175C2.28117 8.12826 4.70448 5.70496 7.69372 5.70496H38.3062C41.2954 5.70496 43.7187 8.12826 43.7187 11.1175V30.5377C43.7187 33.2727 44.3148 36.5442 45.6301 38.9242C46.5209 40.5359 45.6785 42.5625 43.9172 43.1001C38.5862 44.7274 30.6987 45.9167 22.6414 45.9167C14.584 45.9167 7.41368 44.7274 2.08265 43.1001C0.321373 42.5625 -0.521017 40.5359 0.36978 38.9242C1.68512 36.5442 2.28117 33.2727 2.28117 30.5377Z" fill="#FFDD00"/>
<path d="M6.91029 28.7642C5.70503 28.6385 4.68371 29.6523 4.80849 30.8577C4.91666 31.9029 5.12606 32.8818 5.43204 33.7859C4.66028 34.4446 4.06172 35.1616 3.5902 35.7272C3.25817 36.1255 2.7563 36.7274 2.54462 36.8467C1.61008 37.2968 0.864743 38.0128 0.386296 38.8938C0.380439 38.9045 0.375061 38.9158 0.369204 38.9266C0.361196 38.9412 0.354384 38.9559 0.346615 38.9704C0.323427 39.0152 0.300718 39.0601 0.278846 39.1056C-0.457888 40.6851 0.385339 42.5847 2.08207 43.1026C3.44259 43.5178 4.92347 43.9043 6.50762 44.2501C5.43108 43.5425 4.52845 42.6404 3.86188 41.8608C3.43518 41.362 3.58399 40.5851 4.17777 40.3052C6.7818 39.0772 7.53013 34.871 11.4765 35.918C11.4935 35.8764 11.51 35.8347 11.5274 35.7933C9.55507 34.5808 8.82216 32.4603 8.61551 30.4876C8.52061 29.581 7.81686 28.8588 6.91029 28.7642Z" fill="#EFC534"/>
<path d="M2.28111 18.8329H43.7186V11.1175C43.7186 8.12826 41.2953 5.70496 38.3061 5.70496H7.69366C4.70442 5.70496 2.28111 8.12826 2.28111 11.1175V18.8329Z" fill="#FF8300"/>
<path d="M12.0809 12.192H11.2964C9.62385 12.192 8.26799 10.8361 8.26799 9.16351V3.02845C8.26799 1.35586 9.62397 0 11.2964 0H12.0809C13.7535 0 15.1093 1.35586 15.1093 3.02845V9.16351C15.1093 10.8361 13.7535 12.192 12.0809 12.192Z" fill="#3B5CAD"/>
<path d="M33.919 12.192H34.7033C36.3759 12.192 37.7317 10.8361 37.7317 9.16351V3.02845C37.7319 1.35586 36.3759 0 34.7033 0H33.919C32.2464 0 30.8905 1.35586 30.8905 3.02845V9.16351C30.8905 10.8361 32.2464 12.192 33.919 12.192Z" fill="#3B5CAD"/>
<path d="M27.4047 29.9878C29.3614 25.264 24.6662 24.5933 23.3339 21.827C23.0444 21.2259 22.2722 21.0514 21.7652 21.485C19.8082 23.1585 17.0744 26.3169 18.5949 29.9878H27.4047Z" fill="#27A600"/>
<path d="M18.5962 29.9904C16.6395 25.2667 12.8452 28.1124 9.94708 27.0984C9.31744 26.8781 8.648 27.3007 8.59612 27.9658C8.39568 30.5329 8.69592 34.6995 12.3668 36.2199L18.5962 29.9904Z" fill="#27A600"/>
<path d="M12.3657 36.2192C7.64195 34.2625 6.97131 38.9577 4.20485 40.29C3.60378 40.5795 3.42928 41.3517 3.8629 41.8587C5.53645 43.8157 8.69493 46.5495 12.3657 45.0291V36.2192Z" fill="#27A600"/>
<path d="M33.6345 45.0272C38.3583 46.9839 39.0289 42.2887 41.7954 40.9564C42.3964 40.6669 42.5709 39.8947 42.1373 39.3877C40.4638 37.4307 37.3054 34.6969 33.6345 36.2174V45.0272Z" fill="#27A600"/>
<path d="M33.6344 36.217C38.3582 34.2603 35.5125 30.4661 36.5265 27.568C36.7469 26.9382 36.3242 26.2689 35.659 26.2169C33.0919 26.0166 28.9254 26.3167 27.405 29.9876L33.6344 36.217Z" fill="#27A600"/>
<path d="M18.5944 51.2548C16.6377 55.9785 21.3329 56.6491 22.6652 59.4156C22.9547 60.0167 23.7269 60.1912 24.2339 59.7575C26.1909 58.084 28.9247 54.9256 27.4043 51.2548H18.5944Z" fill="#27A600"/>
<path d="M27.405 51.2566C29.3617 55.9803 33.1559 53.1346 36.0541 54.1487C36.6838 54.3689 37.3531 53.9463 37.4051 53.2812C37.6056 50.7141 37.3053 46.5475 33.6344 45.0271L27.405 51.2566Z" fill="#27A600"/>
<path d="M12.3656 45.0271C7.6419 46.9838 10.4876 50.778 9.47358 53.6762C9.25318 54.3058 9.67593 54.9753 10.3411 55.0273C12.9082 55.2277 17.0747 54.9275 18.5951 51.2566L12.3656 45.0271Z" fill="#27A600"/>
<path d="M23.0002 53.0651C29.8736 53.0651 35.4456 47.4931 35.4456 40.6197C35.4456 33.7462 29.8736 28.1742 23.0002 28.1742C16.1268 28.1742 10.5547 33.7462 10.5547 40.6197C10.5547 47.4931 16.1268 53.0651 23.0002 53.0651Z" fill="#FFDD00"/>
<path d="M12.495 43.5112C13.4809 43.5112 14.2802 42.8689 14.2802 42.0766C14.2802 41.2843 13.4809 40.642 12.495 40.642C11.5091 40.642 10.7098 41.2843 10.7098 42.0766C10.7098 42.8689 11.5091 43.5112 12.495 43.5112Z" fill="#EFC534"/>
<path d="M33.5035 43.5112C34.4894 43.5112 35.2887 42.8689 35.2887 42.0766C35.2887 41.2843 34.4894 40.642 33.5035 40.642C32.5176 40.642 31.7183 41.2843 31.7183 42.0766C31.7183 42.8689 32.5176 43.5112 33.5035 43.5112Z" fill="#EFC534"/>
<path d="M15.5555 39.0105C16.414 39.0105 17.2065 39.2004 17.8454 39.5212C18.3885 39.7938 19.0361 39.4255 19.0843 38.8196C19.0978 38.6495 19.0992 38.476 19.0877 38.2999C18.9693 36.4896 17.462 35.0441 15.6485 34.9977C13.6509 34.9465 12.0155 36.5505 12.0155 38.5365C12.0155 38.6372 12.0197 38.737 12.0281 38.8356C12.0785 39.4344 12.7281 39.7912 13.265 39.5215C13.9042 39.2005 14.6967 39.0105 15.5555 39.0105Z" fill="white"/>
<path d="M22.9992 43.2937C22.2286 43.2937 21.4581 43.0361 20.8152 42.521C20.2189 42.0432 20.1227 41.1725 20.6004 40.5762C21.0781 39.9798 21.9488 39.8838 22.5451 40.3614C22.8125 40.5756 23.1859 40.5756 23.4533 40.3614C24.0494 39.8837 24.9202 39.9798 25.398 40.5762C25.8757 41.1725 25.7796 42.0432 25.1832 42.521C24.5403 43.0361 23.7698 43.2937 22.9992 43.2937Z" fill="#3B3B44"/>
<path d="M15.5549 39.0079C16.2632 39.0079 16.9262 39.1372 17.4956 39.3625C17.6045 39.108 17.6647 38.8283 17.6647 38.5339C17.6647 37.3687 16.7201 36.4241 15.5549 36.4241C14.3897 36.4241 13.4451 37.3687 13.4451 38.5339C13.4451 38.8283 13.5053 39.1079 13.6142 39.3625C14.1836 39.1372 14.8467 39.0079 15.5549 39.0079Z" fill="#3B3B44"/>
<path d="M30.4427 39.0105C31.3012 39.0105 32.0937 39.2004 32.7325 39.5212C33.2756 39.7938 33.9232 39.4255 33.9713 38.8196C33.9849 38.6495 33.9863 38.476 33.9748 38.2999C33.8564 36.4896 32.3491 35.0441 30.5356 34.9977C28.538 34.9465 26.9026 36.5505 26.9026 38.5365C26.9026 38.6372 26.9068 38.737 26.9151 38.8356C26.9656 39.4344 27.6152 39.7912 28.1521 39.5215C28.7913 39.2005 29.5839 39.0105 30.4427 39.0105Z" fill="white"/>
<path d="M30.443 39.0079C31.1513 39.0079 31.8143 39.1372 32.3837 39.3625C32.4926 39.108 32.5528 38.8283 32.5528 38.5339C32.5528 37.3687 31.6082 36.4241 30.443 36.4241C29.2778 36.4241 28.3332 37.3687 28.3332 38.5339C28.3332 38.8283 28.3935 39.1079 28.5024 39.3625C29.0716 39.1372 29.7347 39.0079 30.443 39.0079Z" fill="#3B3B44"/>
</svg>
