<svg width="30" height="30" viewBox="0 0 30 30" fill="none" xmlns="http://www.w3.org/2000/svg">
<path d="M1.57617 10.7773C1.57617 6.08125 5.45616 2.26074 10.2253 2.26074C14.9945 2.26074 18.8745 6.08125 18.8745 10.7773H1.57617Z" fill="#4A4852"/>
<path d="M9.2493 22.5576H5.30291C4.58335 22.5576 4 23.132 4 23.8406V28.4478C4 29.3048 4.70553 29.9996 5.57589 29.9996H10.5522L13.8283 26.6907L10.5522 23.8406C10.5522 23.132 9.96886 22.5576 9.2493 22.5576Z" fill="#FF8300"/>
<path d="M17.1049 30.0009H10.5527V20.5818C10.5527 19.8732 11.1361 19.2988 11.8556 19.2988H15.802C16.5215 19.2988 17.1049 19.8732 17.1049 20.5818L20.381 24.6498L17.1049 30.0009Z" fill="#F4D952"/>
<path d="M23.6577 30.0002H17.1055V17.321C17.1055 16.6125 17.6888 16.0381 18.4084 16.0381H22.3547C23.0743 16.0381 23.6576 16.6125 23.6576 17.321L26.9337 22.5582L23.6577 30.0002Z" fill="#27A600"/>
<path d="M11.1337 2.30741C10.8352 2.27663 10.5323 2.26051 10.2256 2.26051C9.31188 2.26051 8.43103 2.40122 7.60363 2.66095C7.61001 2.55351 7.61038 2.44456 7.60265 2.33391C7.51591 1.09516 6.49664 0.0915774 5.23866 0.00616491C4.00232 -0.0778592 2.93762 0.706125 2.61009 1.80103C2.39853 2.50836 1.91247 3.1121 1.22907 3.41373C1.08201 3.47862 0.9412 3.52787 0.807806 3.56451C0.223352 3.72514 0.0346645 4.45492 0.465925 4.87528C1.09703 5.49037 2.00283 6.05693 3.12876 5.91478C2.15087 7.29441 1.57641 8.97079 1.57641 10.7771H5.0732C5.06989 10.6793 5.06763 10.5814 5.06763 10.4829C5.06757 6.62796 7.62331 3.37003 11.1337 2.30741Z" fill="#3E3D43"/>
<path d="M17.3757 12.9851C18.4084 12.9851 19.2455 12.1608 19.2455 11.1439C19.2455 10.1271 18.4084 9.30273 17.3757 9.30273C16.343 9.30273 15.5059 10.1271 15.5059 11.1439C15.5059 12.1608 16.343 12.9851 17.3757 12.9851Z" fill="#FECBBF"/>
<path d="M15.9053 7.43684C15.4618 6.71286 14.6684 6.26545 13.81 6.2491C12.9432 6.23256 11.956 6.40809 11.0288 7.01883C10.5413 7.3399 9.91017 7.3399 9.4227 7.01883C8.49538 6.40809 7.50805 6.2325 6.6413 6.24922C5.77075 6.26594 4.97456 6.7294 4.52865 7.46582C3.93291 8.44972 3.5925 9.60101 3.59772 10.831C3.6128 14.3913 6.56112 17.3038 10.1768 17.3295C13.8598 17.3557 16.8537 14.4238 16.8537 10.8032C16.8538 9.57167 16.5074 8.41984 15.9053 7.43684Z" fill="#FEDDD0"/>
<path d="M6.46465 11.2879C6.21067 11.2879 6.00488 11.0852 6.00488 10.8352V10.1236C6.00488 9.87359 6.21067 9.6709 6.46465 9.6709C6.71862 9.6709 6.92442 9.87359 6.92442 10.1236V10.8352C6.92442 11.0852 6.71856 11.2879 6.46465 11.2879Z" fill="#423E4F"/>
<path d="M13.9861 11.2879C13.7322 11.2879 13.5264 11.0852 13.5264 10.8352V10.1236C13.5264 9.87359 13.7322 9.6709 13.9861 9.6709C14.2401 9.6709 14.4459 9.87359 14.4459 10.1236V10.8352C14.4459 11.0852 14.2401 11.2879 13.9861 11.2879Z" fill="#423E4F"/>
<path d="M10.2257 11.7116C9.71283 11.7116 9.22512 11.4928 8.88759 11.1115C8.72072 10.923 8.74071 10.637 8.93215 10.4727C9.12354 10.3085 9.41399 10.3281 9.58085 10.5166C9.74367 10.7006 9.9787 10.8061 10.2257 10.8061C10.4728 10.8061 10.7078 10.7006 10.8707 10.5166C11.0376 10.3281 11.3278 10.3085 11.5194 10.4727C11.7108 10.637 11.7308 10.923 11.564 11.1115C11.2263 11.4928 10.7386 11.7116 10.2257 11.7116Z" fill="#423E4F"/>
<path d="M28.4641 12.7773H24.8503C24.1914 12.7773 23.6572 13.3517 23.6572 14.0603V29.9994H28.2141C29.0112 29.9994 29.6572 29.3047 29.6572 28.4477V14.0603C29.6572 13.3517 29.123 12.7773 28.4641 12.7773Z" fill="#3B5CAD"/>
<path d="M8.05148 16.9676C6.2248 15.401 5.06735 13.0773 5.06735 10.4833C5.06735 8.96564 5.46392 7.54079 6.15841 6.30566C5.48268 6.4509 4.89007 6.86872 4.5282 7.46631C4.16627 8.06401 3.89937 8.72377 3.74617 9.42518C3.53774 9.34617 3.3116 9.30246 3.07491 9.30246C2.04222 9.30246 1.20508 10.1268 1.20508 11.1436C1.20508 12.1605 2.04222 12.9848 3.07491 12.9848C3.37658 12.9848 3.66127 12.9141 3.91359 12.7891C4.54996 14.7369 6.09429 16.2936 8.05148 16.9676Z" fill="#FECBBF"/>
</svg>
