<svg width="60" height="60" viewBox="0 0 60 60" fill="none" xmlns="http://www.w3.org/2000/svg">
<path d="M3.4754 46.6003L2.14966 45.2746L9.76321 37.661C10.4608 36.9629 11.4267 36.5624 12.4146 36.5624H17.8126V38.4374H12.4146C11.9211 38.4374 11.4377 38.6374 11.0888 38.9868L3.4754 46.6003Z" fill="#DBD9DC"/>
<path d="M47.5855 23.4375H42.1875V21.5625H47.5855C48.079 21.5625 48.5624 21.3624 48.9112 21.0131L56.5248 13.3995L57.8505 14.7253L50.237 22.3388C49.5391 23.0369 48.5733 23.4375 47.5855 23.4375Z" fill="#DBD9DC"/>
<path d="M23.4376 17.8125H21.5626V12.4149C21.5626 11.9145 21.3676 11.4436 21.0132 11.0888L13.3997 3.47528L14.7254 2.14954L22.339 9.76309C23.0476 10.4722 23.4376 11.4138 23.4376 12.4149V17.8125Z" fill="#DBD9DC"/>
<path d="M45.2747 57.8503L37.6611 50.2368C36.9525 49.5277 36.5625 48.5861 36.5625 47.5849V42.1875H38.4375V47.585C38.4375 48.0854 38.6325 48.5564 38.9869 48.9111L46.6004 56.5247L45.2747 57.8503Z" fill="#DBD9DC"/>
<path d="M38.4375 4.6875H36.5625V17.8125H38.4375V4.6875Z" fill="#C9C6CA"/>
<path d="M23.4375 42.1875H21.5625V55.3125H23.4375V42.1875Z" fill="#C9C6CA"/>
<path d="M17.8125 21.5625H4.6875V23.4375H17.8125V21.5625Z" fill="#C9C6CA"/>
<path d="M55.3125 36.5625H42.1875V38.4375H55.3125V36.5625Z" fill="#C9C6CA"/>
<path d="M32.8125 48.75V11.25C32.8125 10.7323 33.2323 10.3125 33.75 10.3125C34.2677 10.3125 34.6875 10.7323 34.6875 11.25V48.75C34.6875 49.2677 34.2677 49.6875 33.75 49.6875C33.2323 49.6875 32.8125 49.2677 32.8125 48.75Z" fill="#DBD9DC"/>
<path d="M25.3125 48.75V11.25C25.3125 10.7323 25.7323 10.3125 26.25 10.3125C26.7677 10.3125 27.1875 10.7323 27.1875 11.25V48.75C27.1875 49.2677 26.7677 49.6875 26.25 49.6875C25.7323 49.6875 25.3125 49.2677 25.3125 48.75Z" fill="#DBD9DC"/>
<path d="M29.0625 59.0625V0.9375C29.0625 0.419297 29.4823 0 30 0C30.5177 0 30.9375 0.419297 30.9375 0.9375V59.0625C30.9375 59.5807 30.5177 60 30 60C29.4823 60 29.0625 59.5807 29.0625 59.0625Z" fill="#C9C6CA"/>
<path d="M48.75 27.1875H11.25C10.7323 27.1875 10.3125 26.7677 10.3125 26.25C10.3125 25.7323 10.7323 25.3125 11.25 25.3125H48.75C49.2677 25.3125 49.6875 25.7323 49.6875 26.25C49.6875 26.7677 49.2677 27.1875 48.75 27.1875Z" fill="#DBD9DC"/>
<path d="M48.75 34.6875H11.25C10.7323 34.6875 10.3125 34.2677 10.3125 33.75C10.3125 33.2323 10.7323 32.8125 11.25 32.8125H48.75C49.2677 32.8125 49.6875 33.2323 49.6875 33.75C49.6875 34.2677 49.2677 34.6875 48.75 34.6875Z" fill="#DBD9DC"/>
<path d="M59.0625 30.9375H0.9375C0.419297 30.9375 0 30.5177 0 30C0 29.4823 0.419297 29.0625 0.9375 29.0625H59.0625C59.5807 29.0625 60 29.4823 60 30C60 30.5177 59.5807 30.9375 59.0625 30.9375Z" fill="#C9C6CA"/>
<path d="M40.3125 44.0625H19.6875C17.6164 44.0625 15.9375 42.3836 15.9375 40.3125V19.6875C15.9375 17.6164 17.6164 15.9375 19.6875 15.9375H40.3125C42.3836 15.9375 44.0625 17.6164 44.0625 19.6875V40.3125C44.0625 42.3836 42.3836 44.0625 40.3125 44.0625Z" fill="#27A600"/>
<path d="M40.3125 42.1875H19.6875C18.6519 42.1875 17.8125 41.3481 17.8125 40.3125V19.6875C17.8125 18.6519 18.6519 17.8125 19.6875 17.8125H40.3125C41.3481 17.8125 42.1875 18.6519 42.1875 19.6875V40.3125C42.1875 41.3481 41.3481 42.1875 40.3125 42.1875Z" fill="#27A600"/>
<path d="M39.375 27.6562C39.375 25.7705 38.0014 24.1888 36.1252 23.6501C36.176 23.4278 36.2109 23.2015 36.2109 22.9688C36.2109 21.1596 34.6078 19.6875 32.6367 19.6875C31.594 19.6875 30.6537 20.0995 30 20.7559C29.3463 20.0994 28.406 19.6875 27.3633 19.6875C25.3922 19.6875 23.7891 21.1597 23.7891 22.9688C23.7891 23.1945 23.8138 23.4164 23.8614 23.6325C21.9873 24.1723 20.625 25.7721 20.625 27.6562C20.625 28.5749 20.955 29.4368 21.5482 30.1564C20.9699 30.919 20.625 31.8325 20.625 32.8125C20.625 34.3143 21.4235 35.7154 22.7377 36.5918C22.7554 38.6456 24.5855 40.3125 26.8359 40.3125C28.1162 40.3125 29.2472 39.7622 30 38.919C30.7528 39.7621 31.8838 40.3125 33.1641 40.3125C35.323 40.3125 37.0789 38.7743 37.2354 36.836C38.5511 36.0684 39.375 34.7289 39.375 33.2812C39.375 32.2335 38.9365 31.2328 38.1803 30.4688C38.9365 29.7047 39.375 28.704 39.375 27.6562ZM36.1826 31.2977C37.0075 31.7331 37.5 32.4746 37.5 33.2812C37.5 33.8584 37.2388 34.4082 36.7993 34.8319C36.3246 33.998 35.5164 33.335 34.4999 33.0157C34.0028 32.8587 33.4781 33.1352 33.3244 33.6291C33.1697 34.123 33.4443 34.6494 33.9377 34.8046C34.8066 35.0774 35.3906 35.7837 35.3906 36.5624C35.3906 37.5964 34.3918 38.4374 33.1641 38.4374C31.9363 38.4374 30.9375 37.5964 30.9375 36.5624V30.9374C30.9375 29.9033 31.9363 29.0624 33.1641 29.0624C33.6823 29.0624 34.1016 28.6426 34.1016 28.1249C34.1016 27.6071 33.6823 27.1874 33.1641 27.1874C32.3425 27.1874 31.5799 27.4145 30.9375 27.7964V26.7773C30.9375 26.2596 30.5182 25.8398 30 25.8398C29.4818 25.8398 29.0625 26.2596 29.0625 26.7773V31.5496C28.7863 31.3857 28.493 31.2417 28.1716 31.1408C27.6745 30.9847 27.1499 31.2607 26.9961 31.7542C26.8414 32.2481 27.116 32.7745 27.6095 32.9297C28.4783 33.2025 29.0624 33.9088 29.0624 34.6875V36.5625C29.0624 37.5966 28.0636 38.4375 26.8358 38.4375C25.608 38.4375 24.6093 37.5966 24.6093 36.5625C24.6093 36.1212 24.797 35.6918 25.1375 35.3536C25.5047 34.9888 25.5064 34.395 25.1412 34.0275C24.7759 33.6604 24.1826 33.6581 23.8154 34.0234C23.6209 34.217 23.4572 34.4298 23.3128 34.6522C22.8013 34.1455 22.5 33.4944 22.5 32.8125C22.5 31.5413 23.5007 30.4239 24.9335 30.0948C25.438 29.979 25.7538 29.4759 25.6376 28.9714C25.5213 28.4665 25.0168 28.1535 24.5142 28.2674C23.9398 28.3992 23.4089 28.616 22.9357 28.9002C22.6545 28.5295 22.5 28.1018 22.5 27.6562C22.5 26.3763 23.7122 25.3327 25.2109 25.313C25.404 25.3212 25.5991 25.2717 25.7702 25.1588C26.1667 24.8978 26.305 24.3805 26.0925 23.9557C26.055 23.8811 26.0082 23.8129 25.9552 23.7525C25.8187 23.5849 25.6641 23.3184 25.6641 22.9688C25.6641 22.1933 26.4267 21.5625 27.3633 21.5625C28.2998 21.5625 29.0625 22.1933 29.0625 22.9688C29.0625 23.4865 29.4818 23.9062 30 23.9062C30.5182 23.9062 30.9375 23.4865 30.9375 22.9688C30.9375 22.1933 31.7002 21.5625 32.6367 21.5625C33.5733 21.5625 34.3359 22.1933 34.3359 22.9688C34.3359 23.1731 34.2816 23.3456 34.2105 23.49C33.7247 23.5412 33.2489 23.6377 32.8016 23.8262C32.3246 24.0272 32.1012 24.5769 32.3017 25.0543C32.5031 25.5318 33.0543 25.7556 33.5303 25.5538C33.9102 25.3936 34.3194 25.3125 34.7461 25.3125C36.265 25.3125 37.5 26.364 37.5 27.6562C37.5 28.4629 37.0075 29.2044 36.1826 29.6398C35.875 29.8018 35.6827 30.1213 35.6827 30.4688C35.6827 30.8162 35.875 31.1357 36.1826 31.2977Z" fill="#FFDD00"/>
<path d="M4.6875 24.375C5.72303 24.375 6.5625 23.5355 6.5625 22.5C6.5625 21.4645 5.72303 20.625 4.6875 20.625C3.65197 20.625 2.8125 21.4645 2.8125 22.5C2.8125 23.5355 3.65197 24.375 4.6875 24.375Z" fill="#3B5CAD"/>
<path d="M55.3125 39.375C56.348 39.375 57.1875 38.5355 57.1875 37.5C57.1875 36.4645 56.348 35.625 55.3125 35.625C54.277 35.625 53.4375 36.4645 53.4375 37.5C53.4375 38.5355 54.277 39.375 55.3125 39.375Z" fill="#3B5CAD"/>
<path d="M2.8125 47.8125C3.84803 47.8125 4.6875 46.973 4.6875 45.9375C4.6875 44.902 3.84803 44.0625 2.8125 44.0625C1.77697 44.0625 0.9375 44.902 0.9375 45.9375C0.9375 46.973 1.77697 47.8125 2.8125 47.8125Z" fill="#3B5CAD"/>
<path d="M57.1875 15.9375C58.223 15.9375 59.0625 15.098 59.0625 14.0625C59.0625 13.027 58.223 12.1875 57.1875 12.1875C56.152 12.1875 55.3125 13.027 55.3125 14.0625C55.3125 15.098 56.152 15.9375 57.1875 15.9375Z" fill="#3B5CAD"/>
<path d="M37.5 6.5625C38.5355 6.5625 39.375 5.72303 39.375 4.6875C39.375 3.65197 38.5355 2.8125 37.5 2.8125C36.4645 2.8125 35.625 3.65197 35.625 4.6875C35.625 5.72303 36.4645 6.5625 37.5 6.5625Z" fill="#3B5CAD"/>
<path d="M22.5 57.1875C23.5355 57.1875 24.375 56.348 24.375 55.3125C24.375 54.277 23.5355 53.4375 22.5 53.4375C21.4645 53.4375 20.625 54.277 20.625 55.3125C20.625 56.348 21.4645 57.1875 22.5 57.1875Z" fill="#3B5CAD"/>
<path d="M14.0625 4.6875C15.098 4.6875 15.9375 3.84803 15.9375 2.8125C15.9375 1.77697 15.098 0.9375 14.0625 0.9375C13.027 0.9375 12.1875 1.77697 12.1875 2.8125C12.1875 3.84803 13.027 4.6875 14.0625 4.6875Z" fill="#3B5CAD"/>
<path d="M45.9375 59.0625C46.973 59.0625 47.8125 58.223 47.8125 57.1875C47.8125 56.152 46.973 55.3125 45.9375 55.3125C44.902 55.3125 44.0625 56.152 44.0625 57.1875C44.0625 58.223 44.902 59.0625 45.9375 59.0625Z" fill="#3B5CAD"/>
</svg>
