<svg width="60" height="60" viewBox="0 0 60 60" fill="none" xmlns="http://www.w3.org/2000/svg">
<path d="M49.9687 47.6182L55.9551 45.4393C57.9713 44.7054 59.3133 42.7889 59.3133 40.6433V33.5067C59.3133 31.361 57.9713 29.4446 55.9551 28.7107L49.9687 26.5319V47.6182Z" fill="#FF8300"/>
<path opacity="0.3" d="M53.852 40.3179V33.3178L57.1817 32.1059C57.76 31.8954 58.3054 31.6254 58.814 31.3064C58.2493 30.1258 57.2395 29.1782 55.9552 28.7107L50.2664 26.6401V40.3177C50.2664 41.3079 51.0691 42.1106 52.0592 42.1106C53.0494 42.1107 53.852 41.308 53.852 40.3179Z" fill="#E05D6F"/>
<path d="M49.9687 29.178L53.8518 29.5025L55.9551 28.737C57.9713 28.0031 59.3133 26.0866 59.3133 23.9411V16.8044C59.3133 14.6588 57.9713 12.7422 55.9551 12.0085L49.9687 9.82959V29.178Z" fill="#FFDD00"/>
<path d="M53.8517 11.2429L49.9687 9.82971V30.9159L53.8517 29.5026V11.2429Z" fill="#EFC534"/>
<path d="M41.8646 0H9.08856C7.07761 3.08653 4.88773 21.569 4.88773 30C4.88773 38.431 7.07761 56.9135 9.08856 60H41.8645C46.5047 60 50.2663 56.2384 50.2663 51.5982V8.40179C50.2663 3.76159 46.5047 0 41.8646 0V0Z" fill="#27A600"/>
<path d="M39.1674 48.3774C42.2365 48.3774 44.3112 45.2172 43.0606 42.4145C40.7769 37.2966 35.6436 33.7296 29.6774 33.7296C23.7111 33.7296 18.5778 37.2967 16.2941 42.4145C15.0435 45.2173 17.1182 48.3774 20.1873 48.3774H39.1674Z" fill="url(#paint0_linear)"/>
<path opacity="0.4" d="M35.8414 35.087C33.989 35.953 31.8951 36.4415 29.6774 36.4415C28.59 36.4415 27.5325 36.3237 26.5185 36.1018C25.6875 35.92 24.8438 36.3474 24.4988 37.1249C24.0405 38.1572 24.6384 39.3576 25.7413 39.6007C27.006 39.8794 28.3236 40.0272 29.6774 40.0272C33.2173 40.0272 36.5113 39.0201 39.2534 37.2954C38.2298 36.4101 37.0831 35.664 35.8414 35.087Z" fill="#F5C98D"/>
<path d="M29.6773 36.4415C37.2329 36.4415 43.3579 30.7803 43.3579 23.7969C43.3579 16.8135 37.2329 11.1523 29.6773 11.1523C22.1217 11.1523 15.9967 16.8135 15.9967 23.7969C15.9967 30.7803 22.1217 36.4415 29.6773 36.4415Z" fill="url(#paint1_linear)"/>
<path d="M0.686737 8.40179V51.5982C0.686737 56.2384 4.44833 60 9.08853 60V0C4.44833 0 0.686737 3.76159 0.686737 8.40179Z" fill="#3B5CAD"/>
<path opacity="0.2" d="M19.1731 27.8717C20.1591 27.8717 20.9583 27.2294 20.9583 26.4371C20.9583 25.6447 20.1591 25.0024 19.1731 25.0024C18.1872 25.0024 17.388 25.6447 17.388 26.4371C17.388 27.2294 18.1872 27.8717 19.1731 27.8717Z" fill="#EAADCD"/>
<path opacity="0.2" d="M40.1816 27.8717C41.1675 27.8717 41.9668 27.2294 41.9668 26.4371C41.9668 25.6447 41.1675 25.0024 40.1816 25.0024C39.1957 25.0024 38.3964 25.6447 38.3964 26.4371C38.3964 27.2294 39.1957 27.8717 40.1816 27.8717Z" fill="#EAADCD"/>
<path d="M22.2338 26.4369C24.1889 26.4369 25.7738 24.852 25.7738 22.8969C25.7738 20.9418 24.1889 19.3569 22.2338 19.3569C20.2787 19.3569 18.6938 20.9418 18.6938 22.8969C18.6938 24.852 20.2787 26.4369 22.2338 26.4369Z" fill="white"/>
<path d="M25.7167 23.3937C25.9847 22.26 25.2829 21.1237 24.1491 20.8557C23.0154 20.5877 21.879 21.2895 21.611 22.4232C21.343 23.557 22.0449 24.6933 23.1786 24.9613C24.3124 25.2293 25.4487 24.5275 25.7167 23.3937Z" fill="#3B3B44"/>
<path d="M37.121 26.4369C39.0761 26.4369 40.661 24.852 40.661 22.8969C40.661 20.9418 39.0761 19.3569 37.121 19.3569C35.1659 19.3569 33.581 20.9418 33.581 22.8969C33.581 24.852 35.1659 26.4369 37.121 26.4369Z" fill="white"/>
<path d="M40.0288 24.3898C40.8526 23.566 40.8526 22.2304 40.0288 21.4066C39.205 20.5828 37.8693 20.5828 37.0455 21.4066C36.2217 22.2304 36.2217 23.566 37.0455 24.3898C37.8693 25.2136 39.205 25.2136 40.0288 24.3898Z" fill="#3B3B44"/>
<path d="M29.6775 27.6539C30.5522 27.6539 31.2614 26.7253 31.2614 25.5799C31.2614 24.4345 30.5522 23.506 29.6775 23.506C28.8027 23.506 28.0936 24.4345 28.0936 25.5799C28.0936 26.7253 28.8027 27.6539 29.6775 27.6539Z" fill="#3B3B44"/>
<defs>
<linearGradient id="paint0_linear" x1="29.6772" y1="36.6561" x2="29.6772" y2="48.6696" gradientUnits="userSpaceOnUse">
<stop stop-color="#F0E09C"/>
<stop offset="1" stop-color="#FCF7CF"/>
</linearGradient>
<linearGradient id="paint1_linear" x1="11.751" y1="23.7969" x2="42.2609" y2="23.7969" gradientUnits="userSpaceOnUse">
<stop stop-color="#F9EDAF"/>
<stop offset="1" stop-color="#FFFCDD"/>
</linearGradient>
</defs>
</svg>
