<svg width="60" height="55" viewBox="0 0 60 55" fill="none" xmlns="http://www.w3.org/2000/svg">
<path d="M50.9538 19.915C50.3504 19.6771 49.9123 19.1339 49.8566 18.4875C49.5915 15.4114 47.0034 13 43.8654 13C40.4316 13 37.8174 15.8273 37.849 19.0669C37.8569 19.8948 37.271 20.6081 36.4584 20.7636C32.1551 21.5866 28.9163 25.4093 29.0016 29.9748C29.0933 34.8808 33.0934 38.8939 37.9961 38.9979C41.2363 39.0665 44.1046 37.4573 45.795 34.9793C50.9137 36.4778 56 32.6259 56 27.3305C56 23.9601 53.9086 21.0801 50.9538 19.915Z" fill="#3B5CAD"/>
<path d="M34.0044 6.02541C34.1851 10.7537 38.24 14.649 42.0644 16.5464C43.2836 17.1512 44.7165 17.1512 45.9356 16.5464C49.76 14.649 53.8149 10.7537 53.9956 6.02541C54.1207 2.75401 51.541 -0.0229025 48.2715 0.000142414C46.8101 0.0104002 45.4799 0.572331 44.4778 1.48837C44.2063 1.73652 43.7936 1.73652 43.5222 1.48837C42.5201 0.572331 41.1897 0.0104002 39.7283 0.000142414C36.459 -0.022762 33.8792 2.75401 34.0044 6.02541Z" fill="#FFDD00"/>
<path d="M51.8051 55.05H31.5997C27.0738 55.05 23.4048 51.381 23.4048 46.8551V32.9436H56.727C58.5347 32.9436 60 34.4089 60 36.2166V46.855C60 51.381 56.3311 55.05 51.8051 55.05Z" fill="#27A600"/>
<path d="M2.73036 40.6877H23.4048V32.9436H2.73036C1.22247 32.9436 0 34.1661 0 35.674V37.9572C0 39.4652 1.22247 40.6877 2.73036 40.6877Z" fill="#27A600"/>
<path d="M18.5034 45.2256L23.4048 46.7385V32.9436H15.715V41.4465C15.715 43.1815 16.8456 44.7139 18.5034 45.2256Z" fill="#FF8300"/>
<path d="M34.2587 40.8028C35.1172 40.8028 35.9096 40.9928 36.5486 41.3136C37.0917 41.5862 37.7393 41.2178 37.7874 40.612C37.801 40.4419 37.8025 40.2683 37.7909 40.0923C37.6725 38.282 36.1652 36.8365 34.3517 36.79C32.3541 36.7389 30.7187 38.3428 30.7187 40.3288C30.7187 40.4296 30.723 40.5294 30.7312 40.628C30.7817 41.2268 31.4313 41.5836 31.9682 41.3138C32.6074 40.9929 33.3999 40.8028 34.2587 40.8028Z" fill="white"/>
<path d="M41.7024 45.0863C40.9318 45.0863 40.1613 44.8287 39.5184 44.3136C38.9221 43.8358 38.8259 42.9651 39.3036 42.3688C39.7813 41.7724 40.652 41.6764 41.2483 42.154C41.5157 42.3682 41.8891 42.3682 42.1565 42.154C42.7526 41.6763 43.6234 41.7724 44.1012 42.3688C44.5789 42.9651 44.4828 43.8358 43.8864 44.3136C43.2435 44.8287 42.473 45.0863 41.7024 45.0863Z" fill="#3B3B44"/>
<path d="M34.2587 40.8028C34.967 40.8028 35.63 40.9321 36.1994 41.1574C36.3082 40.903 36.3685 40.6232 36.3685 40.3288C36.3685 39.1636 35.4239 38.219 34.2587 38.219C33.0935 38.219 32.1489 39.1636 32.1489 40.3288C32.1489 40.6232 32.2091 40.9029 32.318 41.1574C32.8874 40.9321 33.5505 40.8028 34.2587 40.8028Z" fill="#3B3B44"/>
<path d="M49.1461 40.8028C50.0046 40.8028 50.7971 40.9928 51.436 41.3136C51.9791 41.5862 52.6267 41.2178 52.6749 40.612C52.6884 40.4419 52.6899 40.2683 52.6783 40.0923C52.5599 38.282 51.0526 36.8365 49.2391 36.79C47.2415 36.7389 45.6061 38.3428 45.6061 40.3288C45.6061 40.4296 45.6103 40.5294 45.6187 40.628C45.6691 41.2268 46.3186 41.5836 46.8556 41.3138C47.4947 40.9929 48.2873 40.8028 49.1461 40.8028Z" fill="white"/>
<path d="M49.1461 40.8028C49.8544 40.8028 50.5174 40.9321 51.0868 41.1574C51.1957 40.903 51.2559 40.6232 51.2559 40.3288C51.2559 39.1636 50.3113 38.219 49.1461 38.219C47.9809 38.219 47.0363 39.1636 47.0363 40.3288C47.0363 40.6232 47.0966 40.9029 47.2054 41.1574C47.7747 40.9321 48.4378 40.8028 49.1461 40.8028Z" fill="#3B3B44"/>
<path d="M22.0044 16.0254C22.1851 20.7537 26.24 24.649 30.0644 26.5464C31.2836 27.1512 32.7165 27.1512 33.9356 26.5464C37.76 24.649 41.8149 20.7537 41.9956 16.0254C42.1207 12.754 39.541 9.9771 36.2715 10.0001C34.8101 10.0104 33.4799 10.5723 32.4778 11.4884C32.2063 11.7365 31.7936 11.7365 31.5222 11.4884C30.5201 10.5723 29.1897 10.0104 27.7283 10.0001C24.459 9.97724 21.8792 12.754 22.0044 16.0254Z" fill="#FF8300"/>
</svg>
