<svg width="30" height="30" viewBox="0 0 30 30" fill="none" xmlns="http://www.w3.org/2000/svg">
<g clip-path="url(#clip0)">
<path d="M20.6235 9.38927C18.8729 8.73664 16.9777 8.38032 15.0001 8.38032C13.0224 8.38032 11.1273 8.73664 9.37668 9.38927L5.6792 5.85084L7.48481 1.85626C9.72841 0.671107 12.286 0 15.0001 0C17.7141 0 20.2718 0.671107 22.5153 1.8562L24.8035 5.66511L20.6235 9.38927Z" fill="#F4D952"/>
<path d="M11.0953 5.13279C10.8453 5.13279 10.6426 4.93009 10.6426 4.68007V3.92977C10.6426 3.67975 10.8453 3.47705 11.0953 3.47705C11.3453 3.47705 11.548 3.67975 11.548 3.92977V4.68013C11.548 4.93009 11.3453 5.13279 11.0953 5.13279Z" fill="#423E4F"/>
<path d="M18.9049 5.13279C18.6548 5.13279 18.4521 4.93009 18.4521 4.68007V3.92977C18.4521 3.67975 18.6548 3.47705 18.9049 3.47705C19.1549 3.47705 19.3576 3.67975 19.3576 3.92977V4.68013C19.3576 4.93009 19.1549 5.13279 18.9049 5.13279Z" fill="#423E4F"/>
<path d="M15 5.57954C14.4746 5.57954 13.975 5.35197 13.6293 4.95527C13.4649 4.76676 13.4846 4.48083 13.6732 4.31652C13.8616 4.15228 14.1475 4.17189 14.3119 4.3604C14.4856 4.55978 14.7364 4.67411 15 4.67411C15.2636 4.67411 15.5144 4.55978 15.6882 4.36034C15.8525 4.17189 16.1385 4.15221 16.327 4.31652C16.5155 4.48083 16.535 4.76676 16.3708 4.95527C16.025 5.35197 15.5254 5.57954 15 5.57954V5.57954Z" fill="#423E4F"/>
<path d="M15 26.6197C13.1781 27.9131 11.31 29.0118 9.51318 29.8914C8.80447 30.2391 7.98028 29.7086 8.00141 28.9194L8.06672 26.5564L5.28011 25.9473C4.27447 25.7276 4.14252 24.3491 5.08743 23.9406C6.522 23.3203 7.93278 22.5708 9.29207 21.7129H14.9999V26.6197H15Z" fill="#27A600"/>
<path d="M22.515 1.85625C21.9364 1.55064 21.3368 1.27943 20.719 1.04492L20.7045 1.82239C20.6634 4.01716 20.0858 6.3015 18.9878 8.6118C18.9501 8.69106 18.9117 8.77037 18.8728 8.84969C19.47 8.99709 20.0543 9.17728 20.6232 9.38933L24.8033 5.66522L22.515 1.85625Z" fill="#EFC534"/>
<path d="M15 17.1649C17.3419 14.8349 19.2951 12.1829 20.6234 9.38904C21.7841 6.94684 22.4677 4.39515 22.5153 1.85596C23.0359 2.13115 23.5394 2.43332 24.0244 2.76193C27.4781 5.10115 28.6501 9.6661 26.7437 13.3766C26.7345 13.3944 26.7252 13.4128 26.716 13.4306C25.2168 16.3347 23.195 19.1352 20.7079 21.7126H15V17.1649Z" fill="#27A600"/>
<path d="M5.6792 5.8509L9.37669 9.38933C9.94554 9.17728 10.5299 8.99709 11.1271 8.84969C11.0882 8.77043 11.0499 8.69124 11.0122 8.61198C9.91409 6.3015 9.33649 4.01709 9.29538 1.82239L9.28083 1.04492C8.66315 1.27949 8.06345 1.55064 7.48482 1.85625L5.6792 5.8509Z" fill="#EFC534"/>
<path d="M15 21.7129H9.29211C8.76623 22.0448 8.23251 22.36 7.69287 22.6582C7.79114 22.7622 7.88881 22.8665 7.9884 22.9697C8.65637 23.6626 9.36038 24.3437 10.0803 24.9934C11.1304 25.9419 12.245 26.8494 13.4008 27.6981C13.9358 27.3553 14.4699 26.996 15 26.6197V21.7129Z" fill="#279D03"/>
<path d="M24.9125 23.9404C23.478 23.3202 22.0672 22.5706 20.7079 21.7127C18.6577 20.4194 16.7236 18.8793 15 17.1649C12.6582 14.8349 10.705 12.1829 9.37664 9.38904C8.21594 6.94685 7.53234 4.39515 7.48477 1.85596C6.96415 2.13115 6.46067 2.43332 5.97566 2.76193C2.52191 5.10121 1.34998 9.66617 3.25634 13.3766C3.26558 13.3944 3.27481 13.4129 3.28405 13.4307C4.78326 16.3348 6.80509 19.1352 9.29213 21.7127C9.9289 22.3733 10.5967 23.0199 11.2942 23.6494C12.4674 24.7092 13.7099 25.7036 15 26.6195C16.8219 27.9128 18.69 29.0115 20.4868 29.8911C21.1955 30.2389 22.0197 29.7084 21.9986 28.9191L21.9332 26.5561L24.7199 25.9471C25.7255 25.7273 25.8574 24.3489 24.9125 23.9404V23.9404Z" fill="#3B5CAD"/>
<path d="M22.9261 24.8665C13.7237 24.8665 5.05649 16.8029 5.05649 7.60057C5.05649 5.98498 5.28726 4.42347 5.71619 2.94629C2.4646 5.33458 1.39879 9.76136 3.25649 13.3771C3.26573 13.3949 3.27497 13.4134 3.2842 13.4311C4.78342 16.3352 6.80525 19.1357 9.29229 21.7131C9.92905 22.3737 10.5968 23.0203 11.2943 23.6499C12.4676 24.7096 13.7101 25.704 15.0001 26.6199C16.822 27.9132 18.6901 29.0119 20.4869 29.8915C21.1956 30.2393 22.0198 29.7088 21.9987 28.9195L21.9334 26.5566L24.72 25.9475C25.3701 25.8055 25.6545 25.1794 25.5195 24.6439C24.6846 24.7896 23.8194 24.8665 22.9261 24.8665V24.8665Z" fill="#32529F"/>
</g>
<defs>
<clipPath id="clip0">
<rect width="30" height="30" fill="white"/>
</clipPath>
</defs>
</svg>
