<svg width="58" height="58" viewBox="0 0 58 58" fill="none" xmlns="http://www.w3.org/2000/svg">
<path d="M18.3822 36.4698C28.3717 36.4698 36.4697 28.3717 36.4697 18.3823C36.4697 8.39285 28.3717 0.2948 18.3822 0.2948C8.39278 0.2948 0.294739 8.39285 0.294739 18.3823C0.294739 28.3717 8.39278 36.4698 18.3822 36.4698Z" fill="#FFDD00"/>
<path d="M18.3823 30.9165C25.3048 30.9165 30.9167 25.3047 30.9167 18.3822C30.9167 11.4596 25.3048 5.84778 18.3823 5.84778C11.4597 5.84778 5.8479 11.4596 5.8479 18.3822C5.8479 25.3047 11.4597 30.9165 18.3823 30.9165Z" fill="#3B5CAD"/>
<path d="M39.6177 57.7051C49.6071 57.7051 57.7052 49.6071 57.7052 39.6176C57.7052 29.6282 49.6071 21.5302 39.6177 21.5302C29.6283 21.5302 21.5302 29.6282 21.5302 39.6176C21.5302 49.6071 29.6283 57.7051 39.6177 57.7051Z" fill="#FF8300"/>
<path d="M39.6177 52.1521C46.5403 52.1521 52.1522 46.5402 52.1522 39.6176C52.1522 32.695 46.5403 27.0831 39.6177 27.0831C32.6951 27.0831 27.0832 32.695 27.0832 39.6176C27.0832 46.5402 32.6951 52.1521 39.6177 52.1521Z" fill="#27A600"/>
<path d="M19.9905 17.4642C19.7303 17.3722 19.464 17.2757 19.1985 17.1753V12.9365C19.8663 13.0964 20.2642 13.4343 20.2988 13.4644C20.6628 13.7942 21.2255 13.7695 21.5593 13.4076C21.8949 13.0437 21.872 12.4765 21.5081 12.1409C21.4572 12.094 20.6007 11.3223 19.1985 11.1118V10.2461C19.1985 9.75109 18.7971 9.34973 18.302 9.34973C17.807 9.34973 17.4056 9.75109 17.4056 10.2461V11.1807C17.2726 11.21 17.1377 11.2437 16.9996 11.2853C14.282 12.1039 13.5952 15.7822 15.5511 17.3163C16.0207 17.6847 16.6052 18.022 17.4056 18.3783V23.7532C16.7131 23.7022 16.2335 23.5332 15.4475 23.019C15.0332 22.7479 14.4776 22.864 14.2066 23.2783C13.9356 23.6926 14.0517 24.2483 14.466 24.5192C15.5912 25.2553 16.358 25.4876 17.4056 25.5477V26.5187C17.4056 27.0138 17.807 27.4151 18.302 27.4151C18.7971 27.4151 19.1985 27.0138 19.1985 26.5187V25.4766C23.158 24.6937 24.2181 18.9586 19.9905 17.4642ZM17.4056 16.3836C17.1242 16.2308 16.8695 16.0716 16.6577 15.9055C15.8795 15.2951 16.1622 13.5102 17.4056 13.0399V16.3836ZM19.1985 23.6157V19.0849C19.2631 19.1081 19.3265 19.131 19.393 19.1546C21.711 19.9739 21.1487 22.918 19.1985 23.6157Z" fill="#FFDD00"/>
<path d="M41.9302 39.1145C41.67 39.0224 41.4037 38.926 41.1382 38.8256V34.5867C41.806 34.7467 42.2039 35.0845 42.2385 35.1147C42.6025 35.4444 43.1652 35.4198 43.499 35.0579C43.8346 34.6939 43.8117 34.1268 43.4478 33.7912C43.3969 33.7442 42.5404 32.9726 41.1382 32.7621V31.8964C41.1382 31.4014 40.7368 31 40.2417 31C39.7467 31 39.3453 31.4014 39.3453 31.8964V32.831C39.2123 32.8602 39.0774 32.8939 38.9393 32.9355C36.2217 33.7541 35.5349 37.4324 37.4908 38.9666C37.9604 39.335 38.5449 39.6723 39.3453 40.0286V45.4035C38.6528 45.3524 38.1732 45.1834 37.3872 44.6692C36.9729 44.3982 36.4173 44.5142 36.1463 44.9286C35.8753 45.3429 35.9914 45.8985 36.4057 46.1695C37.5309 46.9056 38.2977 47.1378 39.3453 47.198V48.169C39.3453 48.664 39.7467 49.0654 40.2417 49.0654C40.7368 49.0654 41.1382 48.664 41.1382 48.169V47.1269C45.0977 46.344 46.1578 40.6088 41.9302 39.1145ZM39.3453 38.0339C39.0639 37.8811 38.8092 37.7219 38.5974 37.5558C37.8192 36.9454 38.1019 35.1604 39.3453 34.6901V38.0339ZM41.1382 45.266V40.7352C41.2028 40.7584 41.2662 40.7813 41.3327 40.8049C43.6507 41.6242 43.0884 44.5682 41.1382 45.266Z" fill="#FFDD00"/>
</svg>
