<svg width="60" height="60" viewBox="0 0 60 60" fill="none" xmlns="http://www.w3.org/2000/svg">
<g clip-path="url(#clip0)">
<path d="M12.2125 8.88939H4.45575C3.83044 8.88939 3.32349 8.38244 3.32349 7.75713V4.44494C3.32349 1.99033 5.31333 0.000488281 7.76794 0.000488281C10.2225 0.000488281 12.2124 1.99033 12.2124 4.44494V8.88939H12.2125Z" fill="#15A01B"/>
<path d="M12.2128 4.44527V8.88938H9.75411V4.44527C9.75411 3.21715 9.25653 2.10609 8.45228 1.30184C7.9281 0.777773 7.27231 0.382852 6.53931 0.172734C6.92942 0.0603516 7.34122 0 7.76755 0C8.99567 0 10.1067 0.497578 10.911 1.30184C11.7152 2.10609 12.2128 3.21715 12.2128 4.44527Z" fill="#0F9214"/>
<path d="M56.4032 59.0401C54.8644 58.2114 53.2565 56.7165 53.2565 54.088V6.03307C53.2565 2.70131 50.5556 0.000488281 47.2238 0.000488281H7.49431C9.94892 0.000488281 11.9388 1.99033 11.9388 4.44494V53.9676C11.9388 57.2993 14.6397 60.0001 17.9715 60.0001H47.3746H56.167C56.6991 60.0001 56.8717 59.2924 56.4032 59.0401Z" fill="#13B81A"/>
<path d="M56.1672 59.9993H53.0111C53.5429 59.9993 53.7158 59.2923 53.2468 59.0397C51.7082 58.2106 50.8396 56.7167 50.8396 54.0879V6.03284C50.8396 2.70061 48.1383 0.000610352 44.8061 0.000610352H47.2233C50.5556 0.000610352 53.2569 2.70073 53.2569 6.03284V54.0879C53.2569 56.7167 54.8643 58.2106 56.4029 59.0397C56.8717 59.2922 56.699 59.9993 56.1672 59.9993Z" fill="#15A01B"/>
<path d="M40.6774 8.07613H24.5181C24.0179 8.07613 23.6124 7.67066 23.6124 7.17039C23.6124 6.67012 24.0179 6.26465 24.5181 6.26465H40.6774C41.1776 6.26465 41.5831 6.67012 41.5831 7.17039C41.5831 7.67066 41.1775 8.07613 40.6774 8.07613Z" fill="#F4D952"/>
<path d="M46.7539 16.2762H18.4419C17.9417 16.2762 17.5362 15.8707 17.5362 15.3705C17.5362 14.8702 17.9416 14.4647 18.4419 14.4647H46.7539C47.2541 14.4647 47.6597 14.8702 47.6597 15.3705C47.6597 15.8707 47.2541 16.2762 46.7539 16.2762Z" fill="#F4D952"/>
<path d="M46.7539 20.7822H18.4419C17.9417 20.7822 17.5362 20.3767 17.5362 19.8764C17.5362 19.3762 17.9416 18.9707 18.4419 18.9707H46.7539C47.2541 18.9707 47.6597 19.3762 47.6597 19.8764C47.6597 20.3768 47.2541 20.7822 46.7539 20.7822Z" fill="#F4D952"/>
<path d="M46.7539 25.2885H18.4419C17.9417 25.2885 17.5362 24.8831 17.5362 24.3828C17.5362 23.8825 17.9416 23.4771 18.4419 23.4771H46.7539C47.2541 23.4771 47.6597 23.8825 47.6597 24.3828C47.6597 24.8831 47.2541 25.2885 46.7539 25.2885Z" fill="#F4D952"/>
<path d="M34.7346 29.7943H18.4419C17.9417 29.7943 17.5362 29.3888 17.5362 28.8885C17.5362 28.3883 17.9416 27.9828 18.4419 27.9828H34.7346C35.2348 27.9828 35.6403 28.3883 35.6403 28.8885C35.6403 29.3888 35.2349 29.7943 34.7346 29.7943Z" fill="#F4D952"/>
<path d="M29.3041 43.9043L35.9755 43.914L35.9555 52.5485C35.9551 52.7624 35.7255 52.8976 35.5384 52.7943L32.7573 51.2584C32.6729 51.2119 32.5706 51.2116 32.4861 51.258L29.7006 52.7858C29.5131 52.8887 29.2839 52.7528 29.2842 52.5389L29.3041 43.9043Z" fill="#F45D5C"/>
<path d="M35.9759 43.9144L35.9554 52.549C35.9554 52.7627 35.726 52.898 35.5388 52.7941L33.5015 51.6687L33.5197 43.9144L29.3038 43.9083V43.9047L35.9759 43.9144Z" fill="#E94E4D"/>
<path d="M32.5978 46.5546C35.8905 46.5546 38.5598 43.8853 38.5598 40.5927C38.5598 37.3 35.8905 34.6307 32.5978 34.6307C29.3052 34.6307 26.6359 37.3 26.6359 40.5927C26.6359 43.8853 29.3052 46.5546 32.5978 46.5546Z" fill="#F4D952"/>
<path d="M38.5602 40.5929C38.5602 43.885 35.8901 46.5538 32.598 46.5538C31.0003 46.5538 29.5487 45.9258 28.4788 44.9018C29.0875 45.1119 29.742 45.2255 30.4219 45.2255C33.7151 45.2255 36.384 42.5566 36.384 39.2646C36.384 37.5703 35.6775 36.0427 34.5436 34.9569C36.8804 35.7623 38.5602 37.9808 38.5602 40.5929Z" fill="#E0C540"/>
</g>
<defs>
<clipPath id="clip0">
<rect width="60" height="60" fill="white"/>
</clipPath>
</defs>
</svg>
