<svg width="60" height="60" viewBox="0 0 60 60" fill="none" xmlns="http://www.w3.org/2000/svg">
<path d="M51.8129 9.57007H26.9276C22.5493 9.57007 19 13.1194 19 17.4975V48.527L39.3702 54.2626L59.7405 48.527V17.4975C59.7405 13.1192 56.1912 9.57007 51.8129 9.57007Z" fill="#27A600"/>
<path d="M47.8686 24.1041H30.8718C29.7958 24.1041 28.9234 23.2319 28.9234 22.1557C28.9234 21.0795 29.7958 20.2073 30.8718 20.2073H47.8686C48.9447 20.2073 49.817 21.0795 49.817 22.1557C49.817 23.2317 48.9447 24.1041 47.8686 24.1041Z" fill="#FFDD00"/>
<path d="M47.8686 36.7324H30.8718C29.7958 36.7324 28.9234 35.8602 28.9234 34.784C28.9234 33.7078 29.7958 32.8356 30.8718 32.8356H47.8686C48.9447 32.8356 49.817 33.7078 49.817 34.784C49.817 35.8602 48.9447 36.7324 47.8686 36.7324Z" fill="#FFDD00"/>
<path d="M59.7405 48.5271H19V52.0706C19 56.449 22.5493 59.9981 26.9276 59.9981H51.8129C56.1912 59.9981 59.7405 56.4488 59.7405 52.0705V48.5271Z" fill="#3B5CAD"/>
<path d="M18.0875 36.175C28.0769 36.175 36.175 28.0769 36.175 18.0875C36.175 8.09804 28.0769 0 18.0875 0C8.09804 0 0 8.09804 0 18.0875C0 28.0769 8.09804 36.175 18.0875 36.175Z" fill="#3B5CAD"/>
<path d="M18.0875 30.622C25.0101 30.622 30.622 25.0101 30.622 18.0875C30.622 11.1649 25.0101 5.55298 18.0875 5.55298C11.1649 5.55298 5.55301 11.1649 5.55301 18.0875C5.55301 25.0101 11.1649 30.622 18.0875 30.622Z" fill="#FF8300"/>
<path d="M20.4 17.5843C20.1398 17.4923 19.8735 17.3958 19.6079 17.2954V13.0566C20.2758 13.2165 20.6737 13.5544 20.7083 13.5845C21.0723 13.9143 21.635 13.8896 21.9687 13.5277C22.3044 13.1638 22.2815 12.5967 21.9176 12.261C21.8667 12.2141 21.0102 11.4424 19.6079 11.232V10.3663C19.6079 9.8712 19.2066 9.46985 18.7115 9.46985C18.2165 9.46985 17.8151 9.8712 17.8151 10.3663V11.3008C17.6821 11.3301 17.5471 11.3638 17.4091 11.4054C14.6915 12.224 14.0046 15.9023 15.9606 17.4365C16.4302 17.8048 17.0147 18.1421 17.8151 18.4984V23.8733C17.1226 23.8223 16.643 23.6533 15.857 23.1391C15.4427 22.868 14.8871 22.9841 14.6161 23.3985C14.345 23.8127 14.4612 24.3684 14.8755 24.6393C16.0007 25.3755 16.7675 25.6077 17.8151 25.6678V26.6388C17.8151 27.1339 18.2165 27.5352 18.7115 27.5352C19.2066 27.5352 19.6079 27.1339 19.6079 26.6388V25.5967C23.5675 24.8138 24.6276 19.0787 20.4 17.5843ZM17.8151 16.5037C17.5336 16.351 17.2789 16.1918 17.0671 16.0256C16.2889 15.4152 16.5717 13.6303 17.8151 13.16V16.5037ZM19.6079 23.7359V19.205C19.6726 19.2282 19.736 19.2512 19.8025 19.2747C22.1205 20.094 21.5582 23.0381 19.6079 23.7359Z" fill="#FFDD00"/>
</svg>
