<svg width="60" height="60" viewBox="0 0 60 60" fill="none" xmlns="http://www.w3.org/2000/svg">
<g clip-path="url(#clip0_9860_11654)">
<path d="M32.7163 2.71704L30 7.81764L32.7163 12.9182L46.1184 9.69575C48.0918 9.22131 48.0918 6.4141 46.1184 5.93966L32.7163 2.71704Z" fill="#3B5CAD"/>
<path d="M29.9992 0C28.4991 0 27.283 1.21606 27.283 2.7163V16.5392L29.9992 18.9537L32.7155 16.5392V2.7163C32.7155 1.21606 31.4994 0 29.9992 0Z" fill="#27A600"/>
<path d="M0.00108652 23.7834H0V52.7573C0 56.7577 3.24302 60.0008 7.24346 60.0008H52.7565C56.757 60.0008 60 56.7577 60 52.7573V23.7843L0.00108652 23.7834Z" fill="#FFB357"/>
<path d="M40.6137 33.3699C37.799 30.5552 33.9814 28.9739 30.0007 28.9739C26.0201 28.9739 22.2025 30.5552 19.3877 33.3699L0 52.7568C0 56.7573 3.24302 60.0003 7.24346 60.0003H52.7565C56.757 60.0003 60 56.7573 60 52.7568L40.6137 33.3699Z" fill="#FFCE71"/>
<path d="M10.0805 52.757V42.677H0V52.757C0 56.7575 3.24302 60.0005 7.24346 60.0005H17.3239C13.3235 60.0005 10.0805 56.7575 10.0805 52.757Z" fill="#FFB357"/>
<path d="M52.7557 16.5393H7.24346C3.24302 16.5393 0 19.7823 0 23.7828L19.3874 43.1703C22.202 45.9849 26.0197 47.5663 30.0004 47.5663C33.981 47.5663 37.7985 45.9849 40.6134 43.1703L60 23.7828C60 19.7818 56.7566 16.5393 52.7557 16.5393V16.5393Z" fill="#FCE3A0"/>
<path d="M10.0805 33.8628V23.7828C10.0805 19.7823 13.3235 16.5393 17.3239 16.5393H7.24346C3.24302 16.5393 0 19.7823 0 23.7828L10.08 33.8628H10.0805Z" fill="#FFCE71"/>
<path d="M21.0777 39.4198C22.7445 39.4198 24.0958 38.3437 24.0958 37.0163C24.0958 35.6889 22.7445 34.6128 21.0777 34.6128C19.4108 34.6128 18.0596 35.6889 18.0596 37.0163C18.0596 38.3437 19.4108 39.4198 21.0777 39.4198Z" fill="#27A600"/>
<path d="M38.9239 39.4198C40.5907 39.4198 41.942 38.3437 41.942 37.0163C41.942 35.6889 40.5907 34.6128 38.9239 34.6128C37.257 34.6128 35.9058 35.6889 35.9058 37.0163C35.9058 38.3437 37.257 39.4198 38.9239 39.4198Z" fill="#27A600"/>
<path d="M22.4616 33.1523C21.9614 33.1523 21.5562 33.5576 21.5562 34.0578V35.5065C21.5562 36.0066 21.9614 36.4119 22.4616 36.4119C22.9618 36.4119 23.367 36.0066 23.367 35.5065V34.0578C23.367 33.5577 22.9616 33.1523 22.4616 33.1523Z" fill="#313D40"/>
<path d="M37.5387 33.1523C37.0386 33.1523 36.6333 33.5576 36.6333 34.0578V35.5065C36.6333 36.0066 37.0386 36.4119 37.5387 36.4119C38.0389 36.4119 38.4441 36.0066 38.4441 35.5065V34.0578C38.4441 33.5577 38.0389 33.1523 37.5387 33.1523Z" fill="#313D40"/>
<path d="M32.5821 34.7805C32.2052 34.4519 31.6331 34.4911 31.3048 34.8684C30.9753 35.2465 30.4997 35.4633 29.9997 35.4633C29.4998 35.4633 29.0243 35.2465 28.6947 34.8684C28.3662 34.4913 27.7942 34.4521 27.4173 34.7805C27.0403 35.109 27.001 35.681 27.3295 36.0579C28.0029 36.8308 28.9763 37.2741 29.9996 37.2741C31.023 37.2741 31.9964 36.8308 32.6698 36.0579C32.9985 35.681 32.9592 35.1089 32.5821 34.7805Z" fill="#313D40"/>
</g>
<defs>
<clipPath id="clip0_9860_11654">
<rect width="60" height="60" fill="white"/>
</clipPath>
</defs>
</svg>
