<svg width="30" height="30" viewBox="0 0 30 30" fill="none" xmlns="http://www.w3.org/2000/svg">
<g clip-path="url(#clip0_22469_12816)">
<path d="M2.71629 13.2666C1.21611 13.2666 0 14.4828 0 15.9829V25.7746C0 27.7748 1.62152 29.3963 3.62174 29.3963H17.7062V13.2666H2.71629Z" fill="#27A600"/>
<path d="M27.2837 13.2666H17.7161C16.2147 13.2666 14.9974 14.4838 14.9974 15.9853V26.6774C14.9974 28.1789 16.2147 29.3962 17.7163 29.3962H26.3783C28.3785 29.3962 30 27.7747 30 25.7745V15.9829C30 14.4828 28.7839 13.2666 27.2837 13.2666Z" fill="#0CBD13"/>
<path d="M1.80774 22.5596V25.7744C1.80774 26.7746 2.6185 27.5853 3.61858 27.5853H26.3751C27.3752 27.5853 28.1859 26.7745 28.1859 25.7744V22.5596H1.80774Z" fill="#B9BBF1"/>
<path d="M14.9941 9.79184C13.5128 8.83699 11.8335 8.37012 10.0699 8.37012C8.88645 8.37012 7.69542 8.58217 6.56579 9.05848C5.57034 9.47824 4.6268 9.69246 3.61155 9.76348C2.5929 9.83473 1.80774 10.6918 1.80774 11.7129V23.213C1.80774 23.8379 2.31434 24.3444 2.93913 24.3444C4.18483 24.3444 5.41799 24.0951 6.56584 23.611C9.31002 22.4537 12.4671 22.7154 14.9941 24.3443L18.2374 14.1949L14.9941 9.79184Z" fill="#D4D4FF"/>
<path d="M23.4279 9.05848C22.3005 8.58311 21.1064 8.37012 19.9166 8.37012C18.1524 8.37012 16.4824 8.83254 14.9941 9.79184V24.3444C17.5108 22.7222 20.669 22.4477 23.4279 23.611C24.5758 24.095 25.8089 24.3444 27.0547 24.3444C27.6795 24.3444 28.1861 23.8378 28.1861 23.213V11.7033C28.1861 10.686 27.4024 9.83643 26.3876 9.76465C25.527 9.70371 24.5483 9.53086 23.4279 9.05848Z" fill="#EFEDFF"/>
<path d="M13.338 18.8952C11.0745 18.0716 8.60696 18.1333 6.38989 19.0683C5.49681 19.445 4.55333 19.6717 3.58565 19.7423C3.33628 19.7605 3.14889 19.9774 3.16712 20.2268C3.16823 20.2417 3.16999 20.2563 3.17245 20.2708C3.20942 20.4869 3.3978 20.6466 3.61817 20.6465C3.62925 20.6465 3.64038 20.6462 3.65157 20.6454C4.71786 20.5675 5.75749 20.3176 6.74175 19.9026C8.74759 19.0565 10.9802 19.0009 13.0284 19.7461C13.2633 19.8317 13.5232 19.7103 13.6086 19.4754C13.6942 19.2404 13.573 18.9807 13.338 18.8952Z" fill="#4F71C5"/>
<path d="M13.338 20.9577C11.0745 20.1342 8.60696 20.1956 6.38989 21.1308C5.49669 21.5075 4.55321 21.7342 3.58565 21.8048C3.33628 21.823 3.14889 22.0399 3.16712 22.2893C3.18446 22.5274 3.38309 22.7091 3.61817 22.7091C3.62925 22.7091 3.64038 22.7087 3.65157 22.7079C4.71774 22.6301 5.75743 22.3801 6.74175 21.9651C8.74759 21.119 10.9803 21.0635 13.0284 21.8086C13.2634 21.8943 13.5232 21.7729 13.6086 21.538C13.6941 21.3029 13.573 21.0432 13.338 20.9577Z" fill="#4F71C5"/>
<path d="M26.4026 21.8048C25.4349 21.7342 24.4914 21.5075 23.5984 21.1309C21.3813 20.1957 18.9137 20.1342 16.6502 20.9577C16.4153 21.0432 16.2941 21.3029 16.3796 21.5379C16.4651 21.7729 16.7248 21.8938 16.9598 21.8085C19.008 21.0635 21.2407 21.119 23.2465 21.9651C24.2307 22.3801 25.2704 22.63 26.3367 22.7079C26.348 22.7087 26.359 22.7091 26.3701 22.7091C26.6051 22.7091 26.8038 22.5274 26.8212 22.2893C26.8394 22.04 26.652 21.8231 26.4026 21.8048Z" fill="#4F71C5"/>
<path d="M16.9598 17.7627C19.0079 17.0176 21.2406 17.0731 23.2465 17.9193C24.2308 18.3343 25.2705 18.5842 26.3367 18.6621C26.348 18.6629 26.359 18.6632 26.3701 18.6632C26.6051 18.6632 26.8038 18.4816 26.8212 18.2435C26.8394 17.9941 26.652 17.7772 26.4026 17.759C25.4351 17.6884 24.4915 17.4616 23.5984 17.085C21.3813 16.1498 18.9137 16.0883 16.6502 16.9118C16.4153 16.9973 16.2941 17.257 16.3796 17.492C16.4651 17.727 16.7248 17.8481 16.9598 17.7627Z" fill="#4F71C5"/>
<path d="M26.4026 19.8224C25.4348 19.7517 24.4914 19.525 23.5983 19.1484C21.3813 18.2133 18.9137 18.1518 16.6501 18.9753C16.4151 19.0608 16.294 19.3205 16.3795 19.5555C16.4649 19.7904 16.7247 19.9116 16.9597 19.8261C19.0078 19.081 21.2405 19.1366 23.2464 19.9826C24.2305 20.3976 25.2702 20.6475 26.3365 20.7254C26.3478 20.7262 26.3589 20.7266 26.3699 20.7266C26.6049 20.7266 26.8036 20.5449 26.821 20.3068C26.8393 20.0575 26.6519 19.8406 26.4026 19.8224Z" fill="#4F71C5"/>
<path d="M16.5297 1.7774L16.1693 1.56934H14.5851V2.74578L15.6243 3.34566C16.0568 3.59539 16.2056 4.15039 15.9558 4.58293C15.7061 5.01547 15.1511 5.16424 14.7186 4.91451L13.6784 4.31639H12.7719V5.88641L14.1579 6.68422C14.7373 7.01873 14.9365 7.76217 14.602 8.34154C14.2675 8.92092 13.524 9.12014 12.9447 8.78563C12.6632 8.62309 12.1181 8.31178 11.5569 7.99086H9.90552L11.2058 9.87582C11.5467 10.0709 11.8657 10.2537 12.0392 10.3539C13.4833 11.1877 15.3365 10.6912 16.1702 9.24705C16.6579 8.40242 16.6898 7.41805 16.3438 6.57928C16.8225 6.351 17.2395 5.98133 17.5241 5.48838C18.273 4.19111 17.8269 2.52635 16.5297 1.7774Z" fill="#4F71C5"/>
<path d="M14.7064 0.72498C14.5653 0.643477 14.4032 0.603516 14.2573 0.603516C13.9428 0.603516 13.6382 0.764473 13.4696 1.05639L9.53396 7.87312C9.28429 8.30555 9.43201 8.85973 9.86537 9.10998C9.87457 9.11543 10.4743 9.4575 11.2057 9.87603C11.1091 9.1725 11.2361 8.54666 11.5569 7.99107L14.585 2.746C14.901 2.19873 15.4147 1.79355 16.0204 1.61373L16.1692 1.56955L14.7064 0.72498Z" fill="#3B5CAD"/>
<path d="M5.57202 15.2098L8.95171 14.3042L9.79136 15.4737C10.0849 15.8825 10.6513 15.9711 11.0549 15.6812C11.4612 15.3895 11.554 14.8238 11.2624 14.4176L6.8612 8.28711H6.07528V10.2976L7.8229 12.7318L5.76948 13.282L5.57202 15.2098Z" fill="#0CBD13"/>
<path d="M5.76953 13.2822H4.36475L5.57201 15.2099L5.76953 13.2822Z" fill="#70DCBA"/>
<path d="M6.40904 7.65855C5.81103 6.87439 4.5645 7.23709 4.46976 8.20131L3.62343 16.4622C3.57251 16.9597 3.93439 17.4043 4.43185 17.4553C4.92948 17.5064 5.37386 17.1442 5.42484 16.6468L6.12193 9.84269C6.18216 9.25471 6.44325 8.70551 6.8612 8.28756L6.40904 7.65855Z" fill="#27A600"/>
<path d="M24.6618 7.55758C25.0762 7.83754 25.639 7.72856 25.919 7.31412C26.1989 6.89981 26.0899 6.33695 25.6755 6.05699C24.8751 5.51629 23.9399 5.23047 22.9709 5.23047L22.0654 6.13592L22.9709 7.04137C23.5772 7.04137 24.162 7.21984 24.6618 7.55758Z" fill="#FF8300"/>
<path d="M26.0291 12.1942C25.646 11.8728 25.0748 11.9229 24.7535 12.306C24.2926 12.8555 23.6711 13.0921 22.9708 13.0921L22.0653 13.9976L22.9708 14.903C24.2673 14.903 25.3732 14.3855 26.1409 13.4698C26.4623 13.0866 26.4122 12.5155 26.0291 12.1942Z" fill="#FF8300"/>
<path d="M22.9708 7.04137C22.7307 6.80125 22.5957 6.47559 22.5957 6.13592C22.5957 5.79631 22.7307 5.47064 22.9708 5.23047C20.304 5.23047 18.1344 7.40002 18.1344 10.0668C18.1344 12.7336 20.304 14.9032 22.9708 14.9032C22.7307 14.6631 22.5957 14.3374 22.5957 13.9977C22.5957 13.6581 22.7307 13.3325 22.9708 13.0923C21.3025 13.0923 19.9452 11.735 19.9452 10.0667C19.9452 8.39846 21.3025 7.04137 22.9708 7.04137Z" fill="#EF7B00"/>
</g>
<defs>
<clipPath id="clip0_22469_12816">
<rect width="30" height="30" fill="white"/>
</clipPath>
</defs>
</svg>
