<svg width="60" height="60" viewBox="0 0 60 60" fill="none" xmlns="http://www.w3.org/2000/svg">
<path d="M19.823 46.849L21.5521 52.1709C21.6852 52.5808 21.5952 53.0304 21.3145 53.3574L19.9285 54.9719C19.4583 55.5196 19.5558 56.3521 20.1398 56.7764L23.6054 59.2942C24.1894 59.7185 25.0111 59.5539 25.3867 58.9376L26.494 57.1205C26.7182 56.7525 27.1181 56.5279 27.549 56.5279H32.4508C32.8818 56.5279 33.2816 56.7525 33.5059 57.1205L34.6131 58.9376C34.9888 59.5539 35.8105 59.7185 36.3945 59.2942L39.86 56.7764C40.444 56.3521 40.5414 55.5197 40.0713 54.9721L38.6853 53.3576C38.4046 53.0306 38.3146 52.5809 38.4477 52.1709L40.177 46.849H19.823Z" fill="#FF8300"/>
<path d="M42.5278 45.1412H48.1236C48.5546 45.1412 48.9544 45.3658 49.1786 45.7338L50.2859 47.5509C50.6615 48.1673 51.4832 48.3318 52.0672 47.9075L55.5328 45.3897C56.1168 44.9654 56.2142 44.133 55.7441 43.5854L54.3581 41.9709C54.0773 41.6439 53.9874 41.1942 54.1205 40.7843L55.6352 36.1223C55.7683 35.7125 56.1055 35.4016 56.5248 35.302L58.595 34.8106C59.2973 34.6438 59.7078 33.9131 59.4848 33.2266L58.1611 29.1525C57.938 28.466 57.1764 28.1162 56.5103 28.394L54.5466 29.2132C54.1488 29.3791 53.6933 29.3258 53.3447 29.0726L48.8177 25.7834L42.5278 45.1412Z" fill="#F45D5C"/>
<path d="M47.9197 23.0198L49.6489 17.6978C49.7821 17.288 50.1193 16.9771 50.5385 16.8776L52.6088 16.3861C53.3111 16.2193 53.7215 15.4886 53.4984 14.8022L52.1747 10.7281C51.9517 10.0416 51.1901 9.69178 50.524 9.96966L48.5602 10.7889C48.1624 10.9548 47.7069 10.9015 47.3583 10.6482L43.3927 7.76699C43.044 7.51373 42.8526 7.09695 42.8875 6.66739L43.0597 4.5466C43.1181 3.82707 42.55 3.21094 41.8281 3.21094H37.5445C36.8227 3.21094 36.2546 3.82707 36.313 4.54648L36.4853 6.66727C36.5202 7.09683 36.3287 7.51361 35.98 7.76687L31.4529 11.056L47.9197 23.0198Z" fill="#FF8300"/>
<path d="M17.4722 45.1412H11.8764C11.4454 45.1412 11.0456 45.3658 10.8214 45.7338L9.71413 47.5509C9.33848 48.1673 8.51676 48.3318 7.93278 47.9075L4.46724 45.3897C3.88326 44.9654 3.78585 44.133 4.25593 43.5854L5.6419 41.9709C5.92266 41.6439 6.01266 41.1942 5.87951 40.7843L4.36481 36.1223C4.23166 35.7125 3.89449 35.4016 3.47521 35.302L1.40497 34.8106C0.702658 34.6438 0.29222 33.9131 0.515248 33.2266L1.83895 29.1525C2.06198 28.466 2.82357 28.1162 3.48967 28.394L5.45342 29.2132C5.85118 29.3791 6.30668 29.3258 6.65533 29.0726L11.1823 25.7834L17.4722 45.1412Z" fill="#FFDD00"/>
<path d="M12.0803 23.0198L10.3511 17.6978C10.2179 17.288 9.88076 16.9771 9.46148 16.8776L7.39124 16.3861C6.68893 16.2193 6.27849 15.4886 6.50152 14.8022L7.82522 10.7281C8.04825 10.0416 8.80984 9.69178 9.47594 9.96966L11.4397 10.7889C11.8375 10.9548 12.2929 10.9015 12.6416 10.6482L16.6072 7.76699C16.9559 7.51373 17.1473 7.09695 17.1124 6.66739L16.9402 4.5466C16.8818 3.82707 17.4498 3.21094 18.1718 3.21094H22.4554C23.1772 3.21094 23.7453 3.82707 23.6869 4.54648L23.5146 6.66727C23.4797 7.09683 23.6712 7.51361 24.0198 7.76687L28.547 11.056L12.0803 23.0198Z" fill="#27A600"/>
<path d="M23.0779 7.94379L22.7054 3.35761C22.579 1.80179 23.8075 0.469482 25.3684 0.469482H34.6317C36.1927 0.469482 37.4211 1.80179 37.2948 3.35761L36.9222 7.94379C36.8468 8.87271 37.2609 9.77391 38.0148 10.3217L46.5904 16.5521C47.3444 17.0999 48.3293 17.2152 49.1895 16.8564L53.4361 15.0849C54.8767 14.4839 56.5235 15.2406 57.0059 16.7251L59.8684 25.535C60.3508 27.0195 59.4632 28.5997 57.9446 28.9603L53.4678 30.0232C52.561 30.2385 51.8319 30.9108 51.544 31.7971L48.2685 41.8782C47.9804 42.7646 48.1751 43.737 48.7822 44.4441L51.7793 47.9355C52.7961 49.1198 52.5852 50.9198 51.3225 51.8373L43.8283 57.2821C42.5656 58.1995 40.7885 57.8437 39.9763 56.5108L37.582 52.5815C37.097 51.7856 36.2324 51.3 35.3003 51.3H24.7004C23.7684 51.3 22.9038 51.7856 22.4189 52.5815L20.0246 56.5108C19.2123 57.8437 17.4354 58.1995 16.1725 57.2821L8.67838 51.8373C7.41563 50.9198 7.20479 49.1198 8.22157 47.9355L11.2187 44.4441C11.8258 43.7369 12.0205 42.7646 11.7324 41.8782L8.45679 31.7971C8.16874 30.9108 7.43977 30.2385 6.53296 30.0232L2.05615 28.9603C0.537504 28.5997 -0.350066 27.0196 0.132325 25.535L2.99487 16.7251C3.47726 15.2406 5.12404 14.4839 6.56464 15.0849L10.8112 16.8564C11.6714 17.2152 12.6564 17.0999 13.4104 16.5521L21.9858 10.3217C22.7393 9.77391 23.1533 8.87271 23.0779 7.94379ZM22.5249 30.3699C22.5249 34.4983 25.8716 37.8451 30 37.8451C34.1284 37.8451 37.4752 34.4983 37.4752 30.3699C37.4752 26.2415 34.1284 22.8948 30 22.8948C25.8716 22.8948 22.5249 26.2415 22.5249 30.3699Z" fill="#3B5CAD"/>
<path d="M30 17.7838C23.0489 17.7838 17.4139 23.4188 17.4139 30.37C17.4139 37.3211 23.0489 42.9561 30 42.9561C36.9512 42.9561 42.5861 37.3211 42.5861 30.37C42.5861 23.4188 36.9512 17.7838 30 17.7838ZM30 35.7074C27.0521 35.7074 24.6624 33.3177 24.6624 30.37C24.6624 27.4222 27.0521 25.0325 30 25.0325C32.9478 25.0325 35.3375 27.4222 35.3375 30.37C35.3375 33.3177 32.9479 35.7074 30 35.7074Z" fill="#4F71C5"/>
<path d="M40.916 19.0864C41.2282 17.1607 39.9202 15.3466 37.9945 15.0344C36.0688 14.7222 34.2547 16.0303 33.9425 17.956C33.6303 19.8817 34.9383 21.6958 36.864 22.008C38.7897 22.3202 40.6039 21.0121 40.916 19.0864Z" fill="white"/>
<path d="M35.3376 18.6942C35.4279 19.7754 36.3334 20.6248 37.4379 20.6248C38.5424 20.6248 39.4479 19.7753 39.5381 18.6942H35.3376Z" fill="#353544"/>
<path d="M35.3376 18.9307C35.4279 17.8495 36.3334 17 37.4379 17C38.5424 17 39.4479 17.8496 39.5381 18.9307H35.3376Z" fill="#353544"/>
<path d="M26.0433 19.085C26.3555 17.1593 25.0475 15.3451 23.1218 15.033C21.1961 14.7208 19.3819 16.0288 19.0697 17.9545C18.7576 19.8802 20.0656 21.6943 21.9913 22.0065C23.917 22.3187 25.7311 21.0107 26.0433 19.085Z" fill="white"/>
<path d="M20.4621 18.6942C20.5523 19.7754 21.4578 20.6248 22.5623 20.6248C23.6668 20.6248 24.5723 19.7753 24.6625 18.6942H20.4621Z" fill="#353544"/>
<path d="M20.462 18.9307C20.5523 17.8495 21.4578 17 22.5623 17C23.6668 17 24.5723 17.8496 24.6625 18.9307H20.462Z" fill="#353544"/>
<path d="M31.3584 22.4661C31.1404 22.4661 30.9218 22.387 30.7491 22.2271C30.3011 21.8115 29.6988 21.8115 29.2508 22.2271C28.8879 22.5637 28.3207 22.5423 27.9839 22.1792C27.6473 21.8162 27.6687 21.2489 28.0317 20.9124C29.1723 19.8551 30.8275 19.8551 31.9681 20.9124C32.331 21.2489 32.3526 21.8162 32.0159 22.1792C31.8395 22.3697 31.5992 22.4661 31.3584 22.4661Z" fill="#353544"/>
</svg>
