<svg width="512" height="512" viewBox="0 0 512 512" fill="none" xmlns="http://www.w3.org/2000/svg">
<path d="M256 128V176C211.84 176 176 211.84 176 256C176 267.36 178.4 278.24 182.64 288H128V232L148.32 225.52C150.72 217.04 154.08 208.96 158.24 201.36L148.48 182.48L182.48 148.48L201.36 158.24C208.96 154.08 217.04 150.72 225.52 148.32L232 128H256Z" fill="#FCD770"/>
<path d="M384 224V280L363.68 286.48C361.28 294.96 357.92 303.04 353.76 310.64L363.52 329.52L329.52 363.44L310.64 353.76C303.04 357.92 294.96 361.28 286.48 363.68L280 384H256V336C300.16 336 336 300.16 336 256C336 244.64 333.6 233.76 329.36 224H384Z" fill="#FCD770"/>
<path d="M240 288H182.64H128H32C23.2 288 16 295.2 16 304V480C16 488.8 23.2 496 32 496H240C248.8 496 256 488.8 256 480V416V384V336V304C256 295.2 248.8 288 240 288Z" fill="#27A600"/>
<path d="M480 16H272C263.2 16 256 23.2 256 32V96V128V176V208C256 216.8 263.2 224 272 224H480C488.8 224 496 216.8 496 208V32C496 23.2 488.8 16 480 16Z" fill="#27A600"/>
<path d="M392 162C419.76 177.28 420.56 178 421.28 178.72C432.8 190.32 440 206.32 440 224H384H329.36H312C312 194.16 332.4 169.12 360 162V162.08V176C360 184.8 367.2 192 376 192C380.4 192 384.4 190.24 387.28 187.28C390.24 184.4 392 180.4 392 176V162.08V162Z" fill="#B4DD7F"/>
<path d="M107.04 430.96L118.24 456L136 496H72V488C72 469.52 79.84 452.8 92.4 441.12C96.72 437.12 101.68 433.68 107.04 430.96Z" fill="#FF826E"/>
<path d="M179.6 441.12C180.16 441.68 180.72 442.16 181.28 442.72C192.8 454.32 200 470.32 200 488V496H136L153.76 456L164.96 430.96C170.32 433.68 175.28 437.12 179.6 441.12V441.12Z" fill="#FF826E"/>
<path d="M153.76 456L136 496L118.24 456H153.76Z" fill="#FFEAA7"/>
<path d="M192 376V416C192 426.24 187.04 435.28 179.6 441.12C175.28 437.12 170.32 433.68 164.96 430.96C156.32 426.48 146.4 424 136 424H144C157.28 424 168 413.28 168 400V377.92C168 371.84 164.56 366.32 159.12 363.6L136 352V320C166.96 320 192 345.04 192 376V376Z" fill="#B27946"/>
<path d="M104 400C104 413.28 114.72 424 128 424H136C125.6 424 115.68 426.48 107.04 430.96C101.68 433.68 96.72 437.12 92.4 441.12C84.96 435.28 80 426.24 80 416V376C80 345.04 105.04 320 136 320V352L112.88 363.6C107.44 366.32 104 371.84 104 377.92V400Z" fill="#B27946"/>
<path d="M424 92.88C424 100.08 421.84 107.2 417.84 113.28L408 128V113.92C408 107.84 404.56 102.32 399.12 99.6L376 88V56H387.12C407.52 56 424 72.48 424 92.88Z" fill="#656D78"/>
<path d="M376 56V88L352.88 99.6C347.44 102.32 344 107.84 344 113.92V128L334.16 113.28C330.16 107.2 328 100.08 328 92.88C328 82.72 332.16 73.44 338.8 66.8C345.44 60.16 354.72 56 364.88 56H376Z" fill="#656D78"/>
<path d="M392 162.08V176C392 180.4 390.24 184.4 387.28 187.28C384.4 190.24 380.4 192 376 192C367.2 192 360 184.8 360 176V162.08V162C365.12 160.72 370.48 160 376 160C381.52 160 386.88 160.72 392 162V162.08Z" fill="#F0D0B4"/>
<path d="M408 128V136C408 149.28 397.28 160 384 160H376H368C354.72 160 344 149.28 344 136V128V113.92C344 107.84 347.44 102.32 352.88 99.6L376 88L399.12 99.6C404.56 102.32 408 107.84 408 113.92V128Z" fill="#F0D0B4"/>
<path d="M164.96 430.96L153.76 456H118.24L107.04 430.96C115.68 426.48 125.6 424 136 424C146.4 424 156.32 426.48 164.96 430.96Z" fill="#F0D0B4"/>
<path d="M168 377.92V400C168 413.28 157.28 424 144 424H136H128C114.72 424 104 413.28 104 400V377.92C104 371.84 107.44 366.32 112.88 363.6L136 352L159.12 363.6C164.56 366.32 168 371.84 168 377.92Z" fill="#F0D0B4"/>
<path d="M144 96V144H16V48H144V96Z" fill="#27A600"/>
<path d="M496 368V464H368V416V368H496Z" fill="#FFEAA7"/>
<path d="M392 392H472V408H392V392Z" fill="black"/>
<path d="M424 424H440V440H424V424Z" fill="black"/>
<path d="M456 424H472V440H456V424Z" fill="black"/>
<path d="M392 424H408V440H392V424Z" fill="black"/>
<path d="M40 72H120V88H40V72Z" fill="#FFDD00"/>
<path d="M104 104H120V120H104V104Z" fill="#FFDD00"/>
<path d="M72 104H88V120H72V104Z" fill="#FFDD00"/>
<path d="M40 104H56V120H40V104Z" fill="#FFDD00"/>
<path d="M392 285.832V232H480C493.232 232 504 221.232 504 208V32C504 18.768 493.232 8 480 8H272C258.768 8 248 18.768 248 32V88H152V40H8V152H152V104H248V120H226.168L219.16 141.872C212.984 143.856 207.008 146.32 201.328 149.224L180.936 138.728L138.744 180.92L149.24 201.312C146.344 206.984 143.88 212.952 141.888 219.144L120 226.168V280H32C18.768 280 8 290.768 8 304V480C8 493.232 18.768 504 32 504H240C253.232 504 264 493.232 264 480V424H360V472H504V360H360V408H264V392H285.832L292.84 370.128C299.024 368.136 305 365.68 310.672 362.776L331.064 373.272L373.256 331.08L362.76 310.688C365.656 305.016 368.12 299.048 370.112 292.856L392 285.832ZM136 136H24V56H136V136ZM376 376H488V456H376V376ZM328 256C328 292.992 299.944 323.536 264 327.528V304C264 290.768 253.232 280 240 280H188.176C185.456 272.32 184 264.28 184 256C184 219.008 212.056 188.464 248 184.472V208C248 221.232 258.768 232 272 232H323.824C326.544 239.68 328 247.72 328 256ZM320.64 216C323.352 197.176 335.424 181.392 352 173.48V176C352 189.232 362.768 200 376 200C389.232 200 400 189.232 400 176V173.48C416.576 181.392 428.648 197.176 431.36 216H320.64ZM336 92.84C336 76.936 348.936 64 364.84 64H368V83.056L349.264 92.424C344.28 94.92 340.464 98.96 338.232 103.8C336.808 100.336 336 96.64 336 92.84ZM368 168.64C370.624 168.264 373.28 168 376 168C378.72 168 381.376 168.264 384 168.64V176C384 180.408 380.416 184 376 184C371.584 184 368 180.408 368 176V168.64ZM413.768 103.792C411.536 98.952 407.72 94.912 402.736 92.416L384 83.056V64H387.16C403.064 64 416 76.936 416 92.84C416 96.64 415.2 100.336 413.768 103.792ZM368 152C359.176 152 352 144.824 352 136V113.888C352 110.84 353.696 108.096 356.424 106.736L376 96.944L395.576 106.736C398.304 108.096 400 110.84 400 113.888V136C400 144.824 392.824 152 384 152H368ZM264 32C264 27.592 267.584 24 272 24H480C484.416 24 488 27.592 488 32V208C488 212.408 484.416 216 480 216H447.528C444.704 190.608 428.616 169.224 406.376 158.816C412.304 153 416 144.936 416 136V130.424L424.472 117.72C429.4 110.328 432 101.72 432 92.848C432 68.12 411.88 48 387.16 48H364.848C340.12 48 320 68.12 320 92.84C320 101.72 322.6 110.32 327.528 117.712L336 130.424V136C336 144.936 339.696 153 345.624 158.816C323.384 169.224 307.296 190.608 304.472 216H272C267.584 216 264 212.408 264 208V32ZM136 237.832L154.848 231.792L156.016 227.656C158.256 219.744 161.36 212.224 165.232 205.288L167.336 201.544L158.296 183.984L183.992 158.296L201.544 167.328L205.296 165.232C212.256 161.336 219.784 158.232 227.672 156.008L231.808 154.84L237.832 136H248V168.408C203.216 172.464 168 210.176 168 256C168 264.216 169.208 272.232 171.408 280H136V237.832ZM88 416V376C88 352.264 105.336 332.552 128 328.72V347.056L109.264 356.424C101.088 360.512 96 368.736 96 377.888V400C96 408.936 99.696 417 105.624 422.816C101.144 424.912 96.92 427.456 93 430.392C89.816 426.264 88 421.272 88 416ZM128 416C119.176 416 112 408.824 112 400V377.888C112 374.84 113.696 372.096 116.424 370.736L136 360.944L155.576 370.736C158.304 372.096 160 374.84 160 377.888V400C160 408.824 152.824 416 144 416H128ZM136 432C142.416 432 148.552 433.136 154.296 435.128L148.576 448H123.424L117.704 435.128C123.448 433.136 129.584 432 136 432ZM141.464 464L136 476.296L130.536 464H141.464ZM168.528 442.504C182.712 452.68 192 469.256 192 488H148.312L168.528 442.504ZM184 416C184 421.272 182.184 426.264 179 430.384C175.08 427.448 170.856 424.912 166.376 422.808C172.304 417 176 408.936 176 400V377.888C176 368.736 170.912 360.52 162.736 356.424L144 347.056V328.72C166.664 332.544 184 352.256 184 376V416ZM103.472 442.504L123.688 488H80C80 469.256 89.288 452.68 103.472 442.504ZM248 480C248 484.408 244.416 488 240 488H208C208 470.216 201.488 453.952 190.76 441.376C196.696 434.272 200 425.392 200 416V376C200 340.712 171.288 312 136 312C100.712 312 72 340.712 72 376V416C72 425.392 75.304 434.272 81.24 441.376C70.512 453.952 64 470.216 64 488H32C27.584 488 24 484.408 24 480V304C24 299.592 27.584 296 32 296H240C244.416 296 248 299.592 248 304V480ZM357.152 280.2L355.984 284.336C353.744 292.248 350.64 299.768 346.768 306.704L344.664 310.448L353.704 328.008L328.008 353.696L310.448 344.664L306.704 346.76C299.76 350.648 292.232 353.76 284.328 355.984L280.192 357.152L274.168 376H264V343.592C308.784 339.536 344 301.824 344 256C344 247.784 342.792 239.768 340.592 232H376V274.168L357.152 280.2Z" fill="#3B5CAD"/>
<path d="M40 312H56V328H40V312Z" fill="#FFDD00"/>
<path d="M216 312H232V328H216V312Z" fill="#FFDD00"/>
<path d="M280 40H296V56H280V40Z" fill="#FFDD00"/>
<path d="M456 40H472V56H456V40Z" fill="#FFDD00"/>
</svg>
