<svg width="60" height="60" viewBox="0 0 60 60" fill="none" xmlns="http://www.w3.org/2000/svg">
<g clip-path="url(#clip0)">
<path d="M45 30C45 34.287 43.2012 38.1537 40.3184 40.887C37.6286 43.4366 33.9971 42.6562 30 42.6562C26.0029 42.6562 22.3714 43.4366 19.6816 40.887C16.7987 38.1538 15 34.287 15 30C15 21.7159 21.7159 15 30 15C38.2841 15 45 21.7159 45 30Z" fill="#EAF6FF"/>
<path d="M59.3843 25.8138L53.6808 24.342C53.3972 24.2687 53.1717 24.0505 53.0957 23.7676C52.5536 21.7529 51.7564 19.8431 50.7384 18.0759C50.5921 17.822 50.5968 17.5082 50.7457 17.2556L53.7377 12.182C53.9278 11.8597 53.8757 11.4498 53.6112 11.1852L48.8145 6.38848C48.55 6.12398 48.1399 6.07195 47.8177 6.26191L42.744 9.25395C42.4915 9.40289 42.1778 9.40758 41.9237 9.26121C40.1565 8.2432 38.2467 7.44609 36.2319 6.90398C35.949 6.82793 35.7308 6.60246 35.6576 6.31887L34.1857 0.615352C34.0922 0.253125 33.7655 0 33.3914 0H26.6078C26.2337 0 25.907 0.253125 25.8135 0.615352L24.3416 6.31887C24.2684 6.60246 24.0502 6.82793 23.7673 6.90398C21.7526 7.44609 19.8428 8.2432 18.0756 9.26121C17.8216 9.40758 17.5078 9.40277 17.2553 9.25395L12.1818 6.26191C11.8595 6.07184 11.4496 6.12398 11.185 6.38848L6.38848 11.1853C6.12398 11.4498 6.07195 11.8598 6.26191 12.1821L9.25395 17.2557C9.40289 17.5083 9.40758 17.822 9.26121 18.0761C8.2432 19.8432 7.44609 21.753 6.90398 23.7677C6.82781 24.0506 6.60246 24.2688 6.31887 24.3421L0.615352 25.8139C0.253125 25.9075 0 26.2342 0 26.6082V33.3919C0 33.7659 0.253125 34.0927 0.615352 34.1862L6.31887 35.658C6.60246 35.7313 6.82793 35.9495 6.90398 36.2324C7.44609 38.2471 8.2432 40.1569 9.26121 41.9241C9.40758 42.178 9.40277 42.4918 9.25395 42.7444L6.26191 47.818C6.07184 48.1403 6.12398 48.5502 6.38848 48.8148L11.1852 53.6115C11.4497 53.876 11.8597 53.928 12.182 53.7381L17.2555 50.7461C17.508 50.5971 17.8218 50.5924 18.0758 50.7388C19.843 51.7568 21.7528 52.5539 23.7676 53.096C24.0505 53.1721 24.2687 53.3975 24.342 53.6811L25.8138 59.3846C25.9073 59.7469 26.2341 60 26.6081 60H33.3918C33.7658 60 34.0925 59.7469 34.1861 59.3846L35.6579 53.6811C35.7312 53.3975 35.9494 53.1721 36.2323 53.096C38.247 52.5539 40.1568 51.7568 41.9241 50.7388C42.178 50.5924 42.4918 50.5972 42.7444 50.7461L47.818 53.7381C48.1403 53.9282 48.5502 53.876 48.8148 53.6115L53.6115 48.8148C53.876 48.5503 53.928 48.1403 53.7381 47.818L50.7461 42.7444C50.5971 42.4918 50.5924 42.1781 50.7388 41.9241C51.7568 40.1569 52.5539 38.2471 53.096 36.2324C53.1721 35.9495 53.3975 35.7313 53.6811 35.658L59.3846 34.1862C59.7469 34.0927 60 33.7659 60 33.3919V26.6082C59.9996 26.2341 59.7465 25.9073 59.3843 25.8138ZM42.927 43.6395C39.5572 46.8338 35.0077 48.7924 29.9999 48.7924C24.9921 48.7924 20.4425 46.8338 17.0728 43.6395C13.461 40.2152 11.2075 35.3708 11.2075 30C11.2075 19.6214 19.6213 11.2076 29.9999 11.2076C40.3785 11.2076 48.7923 19.6214 48.7923 30C48.7923 35.3708 46.5388 40.2152 42.927 43.6395Z" fill="#3B5CAD"/>
<path d="M40.3184 38.604V40.8868C37.6289 43.4368 33.9973 45.0001 30 45.0001C26.0027 45.0001 22.3711 43.4368 19.6816 40.8868V38.604C19.6816 37.472 20.4012 36.4653 21.4723 36.0985L25.268 34.8013L27.1863 34.145H32.8137L34.7321 34.8013L38.5278 36.0985C39.5989 36.4653 40.3184 37.472 40.3184 38.604Z" fill="#27A600"/>
<path d="M31.8109 44.8914C31.2182 44.9639 30.6134 45.0001 30 45.0001C26.0029 45.0001 22.3715 43.4367 19.6816 40.887V38.6041C19.6816 37.4717 20.4012 36.4648 21.472 36.0991L27.1859 34.1445H30.8076L25.0937 36.0991C24.0229 36.4648 23.3033 37.4717 23.3033 38.6041V40.887C25.5803 43.0455 28.5332 44.4978 31.8109 44.8914Z" fill="#259204"/>
<path d="M25.8143 0.615352L24.3446 6.31008C24.2697 6.60012 24.0458 6.82945 23.7566 6.90738C22.2974 7.30055 20.8933 7.82754 19.5591 8.47606L20.8777 9.25418C21.1302 9.40324 21.444 9.40793 21.6981 9.26156C23.5979 8.1675 25.6616 7.32785 27.8431 6.78703L29.5949 0H26.6086C26.2346 0 25.9078 0.253125 25.8143 0.615352Z" fill="#2E4682"/>
<path d="M27.3894 53.0958C25.3752 52.554 23.4656 51.7565 21.6981 50.7384C21.444 50.5921 21.1302 50.5969 20.8777 50.7458L19.5591 51.524C20.8983 52.1749 22.3081 52.7036 23.7731 53.0971C24.0523 53.1721 24.268 53.3936 24.3403 53.6734L25.8144 59.3848C25.908 59.747 26.2347 60.0001 26.6087 60.0001H29.595L27.9641 53.6809C27.8905 53.3972 27.6723 53.1718 27.3894 53.0958Z" fill="#2E4682"/>
<path d="M12.8835 41.9244C11.8655 40.1567 11.0678 38.2472 10.5261 36.2328C10.4501 35.9499 10.2246 35.7316 9.94102 35.6584L4.23715 34.1863C3.87492 34.0927 3.6218 33.766 3.6218 33.392V26.6082C3.6218 26.2341 3.87492 25.9074 4.23715 25.8139L9.94102 24.3418C10.2246 24.2686 10.4501 24.0502 10.5261 23.7673C11.0679 21.753 11.8655 19.8434 12.8835 18.0758C13.0297 17.8218 13.025 17.508 12.8762 17.2556L9.88418 12.1817C9.69422 11.8595 9.74625 11.4495 10.0107 11.185L13.9123 7.28352L12.1816 6.2627C11.8594 6.07262 11.4493 6.12465 11.1848 6.38926L6.38895 11.1849C6.12445 11.4494 6.07242 11.8595 6.26238 12.1816L9.25441 17.2556C9.40324 17.508 9.40793 17.8218 9.26168 18.0758C8.24367 19.8434 7.44598 21.753 6.90434 23.7673C6.82828 24.0502 6.60281 24.2686 6.31922 24.3418L0.615352 25.8139C0.253125 25.9074 0 26.2341 0 26.6082V33.392C0 33.766 0.253125 34.0927 0.615352 34.1863L6.31922 35.6584C6.60281 35.7316 6.82828 35.9499 6.90434 36.2328C7.44609 38.2472 8.24367 40.1567 9.26168 41.9244C9.40793 42.1783 9.40324 42.4922 9.25441 42.7446L6.26238 47.8184C6.07242 48.1407 6.12445 48.5506 6.38895 48.8151L11.1848 53.6109C11.4493 53.8754 11.8594 53.9274 12.1816 53.7375L13.9123 52.7166L10.0107 48.8151C9.74625 48.5506 9.69422 48.1406 9.88418 47.8184L12.8762 42.7445C13.025 42.492 13.0297 42.1783 12.8835 41.9244Z" fill="#2E4682"/>
<path d="M34.7321 34.8013C33.6985 36.0669 32.127 36.8767 30.3692 36.8767H29.6321C27.8743 36.8767 26.3017 36.0669 25.2681 34.8013L27.1864 34.145H32.8138L34.7321 34.8013Z" fill="#FF8300"/>
<path d="M25.1714 25.3845V31.2442C25.1714 33.7075 27.1683 35.7045 29.6316 35.7045H30.3689C32.8321 35.7045 34.8291 33.7076 34.8291 31.2442V25.3845C34.8291 24.6302 34.2176 24.0186 33.4632 24.0186H26.5372C25.7829 24.0186 25.1714 24.6302 25.1714 25.3845Z" fill="#FFCEBF"/>
<path d="M31.2076 35.6246C30.936 35.6776 30.6559 35.7042 30.3685 35.7042H29.6321C27.1681 35.7042 25.1714 33.7075 25.1714 31.2435V25.3847C25.1714 24.6301 25.7835 24.0181 26.538 24.0181H28.9526C28.198 24.0181 27.5859 24.6301 27.5859 25.3847V31.2435C27.5858 33.4201 29.1444 35.2334 31.2076 35.6246Z" fill="#FFB09E"/>
<path d="M25.1715 26.9109H27.1076C27.8455 26.9109 28.5508 26.607 29.0577 26.0707L30.3824 24.6689L31.2428 26.1695C31.5057 26.6281 31.9939 26.9109 32.5227 26.9109H34.8292V23.8972C34.8292 22.0685 33.3467 20.5859 31.5179 20.5859H28.4826C26.6539 20.5859 25.1714 22.0684 25.1714 23.8972V26.9109H25.1715Z" fill="#535865"/>
<path d="M28.4827 20.5859H30.8973C29.0683 20.5859 27.5858 22.0685 27.5858 23.8974V26.8672C27.43 26.8961 27.2695 26.9107 27.1078 26.9107H25.1714V23.8974C25.1713 22.0685 26.6537 20.5859 28.4827 20.5859Z" fill="#444853"/>
</g>
<defs>
<clipPath id="clip0">
<rect width="60" height="60" fill="white"/>
</clipPath>
</defs>
</svg>
