<svg width="40" height="40" viewBox="0 0 40 40" fill="none" xmlns="http://www.w3.org/2000/svg">
<path d="M15.329 12.6894H2.15672C0.965625 12.6894 0 11.7238 0 10.5327C0 9.3416 0.965625 8.37598 2.15672 8.37598H15.329V12.6894Z" fill="#FF8300"/>
<path d="M15.329 12.6894V8.37598H10.0737L5.98297 12.4667C5.91016 12.5395 5.83969 12.6138 5.77148 12.6894H15.329Z" fill="#E07300"/>
<path d="M15.9402 24.1671H2.76805C1.57695 24.1671 0.611328 23.2014 0.611328 22.0104C0.611328 20.8193 1.57695 19.8536 2.76805 19.8536H15.9403L15.9402 24.1671Z" fill="#FF8300"/>
<path d="M15.9395 19.8536H5.18164C5.40781 20.207 5.67391 20.5421 5.9825 20.8507L9.29891 24.1671H15.9395L15.9395 19.8536Z" fill="#E07300"/>
<path d="M23.6044 31.4315H10.4321C9.24102 31.4315 8.27539 30.4659 8.27539 29.2748C8.27539 28.0837 9.24102 27.118 10.4321 27.118H23.6044V31.4315Z" fill="#FF8300"/>
<path d="M16.5634 31.4315H23.604V27.118H12.25L16.5634 31.4315Z" fill="#E07300"/>
<path d="M27.0812 10.0638C27.0812 6.86928 26.3593 5.38139 24.6693 5.6728C22.3562 6.07163 22.077 9.94014 24.0711 12.0937L27.0812 10.0638Z" fill="#8EA3E2"/>
<path d="M29.7145 20.8853C29.7146 20.8849 29.7149 20.8844 29.715 20.8839C28.729 20.0031 28.1 18.4819 27.7054 16.7524C23.4157 19.6328 18.5018 19.8167 15.9619 19.7928L20.361 24.1918C23.0908 23.9437 26.6049 23.1703 29.7145 20.8853Z" fill="#FFDD00"/>
<path d="M21.2929 24.0885C20.9189 22.5621 20.6454 21.0067 20.472 19.4857C18.6768 19.7726 17.0864 19.8033 15.9619 19.7927L20.361 24.1918C20.6624 24.1644 20.9739 24.1301 21.2929 24.0885Z" fill="#FFDD00"/>
<path d="M31.7927 21.6864C31.6572 21.6864 31.5259 21.6777 31.3979 21.6622C30.2407 24.98 26.4375 27.4857 24.6084 28.4393L27.0575 30.8885H37.2193L39.9999 28.2497C39.9999 26.1532 38.7643 21.6864 31.7927 21.6864Z" fill="#A0BCE7"/>
<path d="M20.3613 24.1919L24.6088 28.4393C26.438 27.4857 30.2412 24.9799 31.3983 21.6622C30.7455 21.5833 30.1887 21.3087 29.7148 20.8854C26.6052 23.1703 23.0911 23.9437 20.3613 24.1919Z" fill="#18C51F"/>
<path d="M27.0808 10.0638C24.3536 10.0638 21.7522 10.9082 20.0925 9.24846C19.8886 9.04463 19.6947 8.8337 19.5121 8.61448C17.2302 10.1561 15.5038 8.98057 14.1712 7.69299L12.3447 9.5194V16.1754L15.962 19.7927C18.5019 19.8166 23.4158 19.6328 27.7054 16.7524C27.2055 14.561 27.0808 12.0371 27.0808 10.0638Z" fill="#A0BCE7"/>
<path d="M20.0925 9.24846C19.8886 9.04463 19.6947 8.83377 19.5121 8.61456C17.2302 10.1562 15.5038 8.98057 14.1712 7.69299L12.3447 9.51948V16.1755L15.962 19.7928C17.0865 19.8034 18.6768 19.7727 20.4718 19.4858C20.0468 15.7566 20.2207 12.2371 20.9727 9.87252C20.6569 9.72065 20.3621 9.51807 20.0925 9.24846Z" fill="#8EA3E2"/>
<path d="M26.5403 28.2497C25.9581 28.2497 25.4109 28.023 24.9993 27.6114L17.7537 20.3658C17.0413 19.6533 16.6183 18.7066 16.5432 17.7018C16.386 15.598 15.3621 12.5369 12.3448 9.51953L7.69033 14.174C6.31807 15.5463 6.31807 17.7711 7.69033 19.1433L20.5788 32.0319C22.1712 33.6242 24.2883 34.5011 26.5403 34.5011H36.4862C38.4268 34.5011 40 32.9279 40 30.9873V28.2497H26.5403Z" fill="#616A84"/>
<path d="M26.5135 34.5008C23.978 32.0192 22.2278 28.0298 21.2337 23.8459L17.7537 20.3659C17.0413 19.6534 16.6183 18.7067 16.5432 17.7019C16.386 15.5981 15.3621 12.537 12.3448 9.51965L7.69033 14.1741C6.31807 15.5464 6.31807 17.7712 7.69033 19.1434L20.5788 32.0319C22.1648 33.6179 24.2715 34.4939 26.5135 34.5008Z" fill="#4B5165"/>
<path d="M12.9969 18.5842C12.847 18.5842 12.697 18.527 12.5826 18.4126L10.5505 16.3805C10.3217 16.1516 10.3217 15.7806 10.5505 15.5519C10.7794 15.323 11.1504 15.323 11.3792 15.5519L13.4113 17.584C13.6401 17.8128 13.6401 18.1838 13.4113 18.4127C13.2969 18.5269 13.1469 18.5842 12.9969 18.5842Z" fill="#18C51F"/>
<path d="M27.2559 14.4641H24.6035C24.2799 14.4641 24.0176 14.2018 24.0176 13.8782C24.0176 13.5546 24.2799 13.2922 24.6035 13.2922H27.2559C27.5795 13.2922 27.8418 13.5546 27.8418 13.8782C27.8418 14.2018 27.5795 14.4641 27.2559 14.4641Z" fill="#4F71C5"/>
<path d="M19.5118 8.6146C18.9684 7.96249 18.5248 7.23655 18.2186 6.40288C17.8731 5.46178 16.6733 5.19069 15.9644 5.8996L14.1709 7.69303C15.5036 8.98061 17.23 10.1562 19.5118 8.6146Z" fill="#FF8300"/>
</svg>
