<svg width="16" height="16" viewBox="0 0 16 16" fill="none" xmlns="http://www.w3.org/2000/svg">
<g clip-path="url(#clip0)">
<path d="M15.9142 2.56234C15.8244 2.41222 15.6764 2.30697 15.5056 2.27261L6.44259 0.0876873C6.1439 0.0297866 5.84922 0.194787 5.74584 0.480183L2.29127 9.25634L3.44456 9.67662L6.71838 1.33191L14.5931 3.34138C14.1013 4.86601 12.931 8.04822 11.8092 11.0112C10.8312 13.5964 10.2684 14.4816 9.19866 14.6624C9.1974 14.6612 9.19623 14.6599 9.19623 14.6581C7.01005 14.9645 7.04928 12.1774 7.04928 12.1774L0.0672033 9.3571C-0.428964 12.502 1.98753 13.2584 1.98753 13.2584L7.09939 15.5793C7.10062 15.5799 7.89861 15.96 8.76593 15.9209C11.1053 15.8659 11.9275 14.1672 12.9576 11.4457C14.4458 7.51253 15.9563 3.10548 15.9711 3.05874C16.0244 2.89199 16.0033 2.71214 15.9142 2.56234Z" fill="#3E4247"/>
<path d="M11.7831 6.1011C11.8363 6.11566 11.8914 6.12339 11.9459 6.12339C12.2151 6.12339 12.4615 5.94386 12.537 5.67147C12.6267 5.34428 12.4329 5.00629 12.1062 4.91714L9.44625 4.09615C9.12314 4.00671 8.78136 4.19891 8.69221 4.52578C8.60303 4.85293 8.79501 5.19096 9.12301 5.28043L11.7831 6.1011Z" fill="#3E4247"/>
<path d="M7.62685 6.98487C7.52024 7.30711 7.69333 7.65412 8.01466 7.76167L10.6607 8.70723C10.7249 8.72861 10.7881 8.73821 10.8518 8.73857C11.1099 8.73993 11.3516 8.57713 11.4378 8.31936C11.5447 7.998 11.3719 7.65047 11.0493 7.54298L8.40428 6.59804C8.08104 6.49107 7.73473 6.66413 7.62685 6.98487Z" fill="#3E4247"/>
<path d="M7.3941 9.16061C7.07218 9.05289 6.72458 9.22866 6.61933 9.55187C6.51349 9.87256 6.68991 10.2205 7.01182 10.3257L9.66338 11.2673C9.72727 11.289 9.79089 11.2983 9.85539 11.2983C10.1129 11.2983 10.3531 11.1343 10.438 10.8767C10.5438 10.5542 10.368 10.2069 10.0461 10.1016L7.3941 9.16061Z" fill="#3E4247"/>
<path d="M7.29589 3.38086C7.67167 3.38086 7.97657 3.67738 7.97657 4.04264C7.97657 4.40819 7.67167 4.70439 7.29589 4.70439C6.91983 4.70439 6.61493 4.40816 6.61493 4.04264C6.61496 3.67738 6.91983 3.38086 7.29589 3.38086Z" fill="#3E4247"/>
<path d="M6.333 5.8418C6.7091 5.8418 7.01368 6.13803 7.01368 6.50326C7.01368 6.86819 6.7091 7.16439 6.333 7.16439C5.95694 7.16439 5.65204 6.86819 5.65204 6.50326C5.65204 6.13806 5.95694 5.8418 6.333 5.8418Z" fill="#3E4247"/>
<path d="M5.30599 8.37891C5.68209 8.37891 5.98696 8.67546 5.98696 9.04134C5.98696 9.40653 5.68209 9.70244 5.30599 9.70244C4.92993 9.70244 4.62503 9.4066 4.62503 9.04134C4.62503 8.67546 4.92993 8.37891 5.30599 8.37891Z" fill="#3E4247"/>
</g>
<defs>
<clipPath id="clip0">
<rect width="16" height="16" fill="white"/>
</clipPath>
</defs>
</svg>
