<svg width="60" height="60" viewBox="0 0 60 60" fill="none" xmlns="http://www.w3.org/2000/svg">
<g clip-path="url(#clip0)">
<path d="M8.57056 34.3047H3.02283C1.35335 34.3047 0 32.9513 0 31.2819V28.757C0 27.0875 1.35335 25.7341 3.02283 25.7341H8.57056V34.3047Z" fill="#FF8300"/>
<path d="M16.6727 22.5429C21.5179 22.5429 25.4458 18.615 25.4458 13.7697C25.4458 8.92446 21.5179 4.99658 16.6727 4.99658C11.8274 4.99658 7.89951 8.92446 7.89951 13.7697C7.89951 18.615 11.8274 22.5429 16.6727 22.5429Z" fill="#3B5CAD"/>
<path d="M16.6727 17.551C18.761 17.551 20.454 15.8581 20.454 13.7697C20.454 11.6814 18.761 9.9884 16.6727 9.9884C14.5843 9.9884 12.8914 11.6814 12.8914 13.7697C12.8914 15.8581 14.5843 17.551 16.6727 17.551Z" fill="#FCF5C8"/>
<path d="M34.2191 22.543C39.0645 22.543 42.9924 18.6151 42.9924 13.7697C42.9924 8.92439 39.0645 4.99646 34.2191 4.99646C29.3738 4.99646 25.4459 8.92439 25.4459 13.7697C25.4459 18.6151 29.3738 22.543 34.2191 22.543Z" fill="#3B5CAD"/>
<path d="M34.2193 17.551C36.3076 17.551 38.0006 15.8581 38.0006 13.7697C38.0006 11.6814 36.3076 9.9884 34.2193 9.9884C32.1309 9.9884 30.438 11.6814 30.438 13.7697C30.438 15.8581 32.1309 17.551 34.2193 17.551Z" fill="#FCF5C8"/>
<path d="M36.9283 52.2907H13.9636C9.49981 52.2907 5.88129 48.6722 5.88129 44.2084V29.5052C5.88129 25.0415 9.49981 21.4229 13.9636 21.4229H36.9283C41.392 21.4229 45.0106 25.0414 45.0106 29.5052V44.2084C45.0106 48.6721 41.392 52.2907 36.9283 52.2907Z" fill="#FF8300"/>
<path opacity="0.2" d="M18.7784 49.3912C18.7666 49.0464 18.658 48.7119 18.4648 48.4261L16.3174 45.2475C15.6484 44.2572 16.0887 42.9019 17.2121 42.4939L18.1463 42.1547C19.1131 41.8036 19.5869 40.7128 19.1835 39.7666C18.8101 38.8907 17.8172 38.4595 16.9224 38.7845L15.9886 39.1235C12.6676 40.3292 11.3719 44.3319 13.3463 47.2547L15.2119 50.0163L15.2897 52.2907H18.8774L18.7784 49.3912Z" fill="#F45D5C"/>
<path d="M14.7237 47.0493C12.7332 47.0493 11.1195 45.4356 11.1195 43.4451V30.2643C11.1195 28.2738 12.7332 26.6602 14.7237 26.6602H36.1659C38.1564 26.6602 39.77 28.2738 39.77 30.2642V43.4451C39.77 45.4356 38.1563 47.0493 36.1658 47.0493H14.7237Z" fill="#27A600"/>
<path d="M45.0107 43.5262L54.8853 47.1202C57.3711 48.025 60.0001 46.1841 60.0001 43.5387V30.1712C60.0001 27.5258 57.3711 25.685 54.8853 26.5897L45.0107 30.1837V43.5262Z" fill="#FFDD00"/>
<path opacity="0.2" d="M56.6724 40.9236C56.0124 40.9236 55.4772 40.3884 55.4772 39.7284V38.8548C55.4772 38.1946 56.0124 37.6595 56.6724 37.6595C57.3324 37.6595 57.8676 38.1946 57.8676 38.8548V39.7284C57.8676 40.3884 57.3325 40.9236 56.6724 40.9236Z" fill="#EFC5DB"/>
<path opacity="0.2" d="M56.6724 35.1693C56.0124 35.1693 55.4772 34.634 55.4772 33.974V31.0778C55.4772 30.4177 56.0124 29.8826 56.6724 29.8826C57.3324 29.8826 57.8676 30.4178 57.8676 31.0778V33.974C57.8676 34.634 57.3325 35.1693 56.6724 35.1693Z" fill="#EFC5DB"/>
<path d="M24.9378 53.8652L21.2512 54.9253C20.1026 55.2555 18.9497 54.4179 18.9089 53.2235L18.7779 49.3897C18.7661 49.0449 18.6574 48.7105 18.4643 48.4246L16.3168 45.246C15.6479 44.2558 16.0882 42.9004 17.2116 42.4925L20.8172 41.1831C21.1415 41.0654 21.4259 40.8586 21.6382 40.5867L23.9977 37.5622C24.7327 36.6199 26.1579 36.6199 26.893 37.5622L29.2525 40.5867C29.4646 40.8587 29.7492 41.0654 30.0735 41.1831L33.6791 42.4925C34.8025 42.9004 35.2428 44.2558 34.5738 45.246L32.4264 48.4246C32.2332 48.7105 32.1246 49.0449 32.1127 49.3897L31.9818 53.2235C31.9409 54.4179 30.788 55.2556 29.6395 54.9253L25.9528 53.8652C25.621 53.7698 25.2694 53.7698 24.9378 53.8652Z" fill="#FFDD00"/>
<path opacity="0.2" d="M14.9416 33.6728C15.9275 33.6728 16.7268 33.0305 16.7268 32.2382C16.7268 31.4459 15.9275 30.8036 14.9416 30.8036C13.9557 30.8036 13.1564 31.4459 13.1564 32.2382C13.1564 33.0305 13.9557 33.6728 14.9416 33.6728Z" fill="#EFC5DB"/>
<path opacity="0.2" d="M35.9501 33.6728C36.936 33.6728 37.7353 33.0305 37.7353 32.2382C37.7353 31.4459 36.936 30.8036 35.9501 30.8036C34.9642 30.8036 34.1649 31.4459 34.1649 32.2382C34.1649 33.0305 34.9642 33.6728 35.9501 33.6728Z" fill="#EFC5DB"/>
<path d="M18.0022 32.2381C19.9573 32.2381 21.5422 30.6532 21.5422 28.6981C21.5422 26.743 19.9573 25.1581 18.0022 25.1581C16.0472 25.1581 14.4622 26.743 14.4622 28.6981C14.4622 30.6532 16.0472 32.2381 18.0022 32.2381Z" fill="white"/>
<path d="M21.4828 29.1953C21.7508 28.0615 21.049 26.9252 19.9152 26.6572C18.7815 26.3892 17.6451 27.091 17.3771 28.2247C17.1091 29.3585 17.811 30.4948 18.9447 30.7628C20.0785 31.0308 21.2148 30.329 21.4828 29.1953Z" fill="#4E5660"/>
<path d="M32.8896 32.2381C34.8447 32.2381 36.4296 30.6532 36.4296 28.6981C36.4296 26.743 34.8447 25.1581 32.8896 25.1581C30.9345 25.1581 29.3496 26.743 29.3496 28.6981C29.3496 30.6532 30.9345 32.2381 32.8896 32.2381Z" fill="white"/>
<path d="M35.7982 30.1922C36.622 29.3684 36.622 28.0327 35.7982 27.2089C34.9744 26.3851 33.6388 26.3851 32.815 27.2089C31.9912 28.0327 31.9912 29.3684 32.815 30.1922C33.6388 31.016 34.9744 31.016 35.7982 30.1922Z" fill="#4E5660"/>
<path d="M25.447 33.4555C26.3218 33.4555 27.0309 32.527 27.0309 31.3816C27.0309 30.2362 26.3218 29.3076 25.447 29.3076C24.5722 29.3076 23.8631 30.2362 23.8631 31.3816C23.8631 32.527 24.5722 33.4555 25.447 33.4555Z" fill="#4E5660"/>
</g>
<defs>
<clipPath id="clip0">
<rect width="60" height="60" fill="white"/>
</clipPath>
</defs>
</svg>
