<svg width="60" height="52" viewBox="0 0 60 52" fill="none" xmlns="http://www.w3.org/2000/svg">
<path d="M45.6545 43.9977V15.1355C45.6545 12.5426 42.9651 10.8243 40.6122 11.9141L34.5722 14.7115C33.5149 15.2012 32.2847 15.1409 31.2803 14.5502L27.7439 12.4703C24.7091 10.6855 20.9454 10.6855 17.9106 12.4703L14.3741 14.5502C13.3697 15.1409 12.1395 15.2012 11.0822 14.7115L5.04215 11.9141C2.68936 10.8243 0 12.5425 0 15.1355V43.9977C0 47.9591 3.21131 51.1704 7.17275 51.1704C10.8194 51.1704 16.6551 49.3364 21.8157 46.8285L45.6545 43.9977Z" fill="#279A03"/>
<path d="M7.17273 51.1702C11.1342 51.1702 14.3455 47.9588 14.3455 43.9974V4.83355C14.3455 2.24052 17.0348 0.522272 19.3877 1.61207L25.4278 4.40948C26.4851 4.89916 27.7153 4.83892 28.7197 4.24825L32.2562 2.16833C35.291 0.383507 39.0547 0.383507 42.0895 2.16833L45.626 4.24825C46.6304 4.83892 47.8606 4.89916 48.9179 4.40948L54.9579 1.61207C57.3106 0.522272 60 2.24052 60 4.83355V43.9974C60 47.9588 56.7886 51.1702 52.8272 51.1702H7.17273Z" fill="#27A600"/>
<path d="M48.3337 26.071H26.0118C23.7122 26.071 21.8481 24.2068 21.8481 21.9073V16.954C21.8481 14.6543 23.7123 12.7903 26.0118 12.7903H48.3337C50.6333 12.7903 52.4974 14.6545 52.4974 16.954V21.9073C52.4975 24.2068 50.6333 26.071 48.3337 26.071Z" fill="#FFDD00"/>
<path d="M49.4411 35.8055H24.9044C24.1454 35.8055 23.5299 35.1901 23.5299 34.431C23.5299 33.6719 24.1454 33.0565 24.9044 33.0565H49.4411C50.2003 33.0565 50.8156 33.6719 50.8156 34.431C50.8156 35.1901 50.2003 35.8055 49.4411 35.8055Z" fill="#C2C8CF"/>
<path d="M49.4411 44.0908H24.9044C24.1454 44.0908 23.5299 43.4754 23.5299 42.7163C23.5299 41.9572 24.1454 41.3418 24.9044 41.3418H49.4411C50.2003 41.3418 50.8156 41.9572 50.8156 42.7163C50.8156 43.4754 50.2003 44.0908 49.4411 44.0908Z" fill="#C2C8CF"/>
<path d="M28.4537 22.2535C28.4537 23.0458 27.6545 23.6881 26.6685 23.6881C25.6826 23.6881 24.8834 23.0458 24.8834 22.2535C24.8834 21.4612 25.6826 20.8188 26.6685 20.8188C27.6545 20.8188 28.4537 21.4612 28.4537 22.2535Z" fill="#EAADCD"/>
<path d="M49.4623 22.2535C49.4623 23.0458 48.6631 23.6881 47.6771 23.6881C46.6912 23.6881 45.8919 23.0458 45.8919 22.2535C45.8919 21.4612 46.6912 20.8188 47.6771 20.8188C48.6631 20.8188 49.4623 21.4612 49.4623 22.2535Z" fill="#EAADCD"/>
<path d="M33.0122 20.0729C33.761 18.2664 32.9036 16.1949 31.0971 15.4461C29.2906 14.6973 27.2191 15.5547 26.4703 17.3612C25.7215 19.1677 26.5789 21.2392 28.3854 21.988C30.1919 22.7368 32.2634 21.8794 33.0122 20.0729Z" fill="white"/>
<path d="M33.2691 18.7136C33.2691 19.8788 32.3245 20.8235 31.1593 20.8235C29.994 20.8235 29.0495 19.8789 29.0495 18.7136C29.0495 17.5483 29.994 16.6038 31.1593 16.6038C32.3245 16.6038 33.2691 17.5483 33.2691 18.7136Z" fill="#3B3B44"/>
<path d="M47.8542 20.1124C48.6343 18.3196 47.8133 16.2339 46.0205 15.4538C44.2277 14.6737 42.1419 15.4947 41.3619 17.2875C40.5818 19.0803 41.4028 21.1661 43.1956 21.9462C44.9884 22.7262 47.0741 21.9053 47.8542 20.1124Z" fill="white"/>
<path d="M48.1491 18.7136C48.1491 19.8788 47.2045 20.8235 46.0393 20.8235C44.8741 20.8235 43.9295 19.8789 43.9295 18.7136C43.9295 17.5483 44.8741 16.6038 46.0393 16.6038C47.2045 16.6038 48.1491 17.5483 48.1491 18.7136Z" fill="#3B3B44"/>
<path d="M37.1728 23.4711C38.0476 23.4711 38.7567 22.5426 38.7567 21.3972C38.7567 20.2518 38.0476 19.3232 37.1728 19.3232C36.2981 19.3232 35.5889 20.2518 35.5889 21.3972C35.5889 22.5426 36.2981 23.4711 37.1728 23.4711Z" fill="#3B3B44"/>
<path d="M7.17273 48.1454C7.17273 49.9728 9.14843 51.1338 10.7339 50.2252C12.8917 48.9887 14.3455 46.6629 14.3455 43.9975V14.5656C13.3464 15.141 12.1295 15.1964 11.0822 14.7113L9.5646 14.0084V43.9975C9.5646 44.8925 9.0705 45.6742 8.34082 46.0843C7.60456 46.4982 7.17273 47.3008 7.17273 48.1454Z" fill="#237D07"/>
</svg>
