<svg width="60" height="56" viewBox="0 0 60 56" fill="none" xmlns="http://www.w3.org/2000/svg">
<path d="M54.3745 19.0023H0V10.4321C0 4.9252 4.46426 0.460938 9.97112 0.460938H44.4034C49.9102 0.460938 54.3745 4.9252 54.3745 10.4321V19.0023Z" fill="#FF8300"/>
<path opacity="0.2" d="M16.6831 14.8924C17.669 14.8924 18.4683 14.2501 18.4683 13.4578C18.4683 12.6655 17.669 12.0232 16.6831 12.0232C15.6971 12.0232 14.8979 12.6655 14.8979 13.4578C14.8979 14.2501 15.6971 14.8924 16.6831 14.8924Z" fill="#EFC5DB"/>
<path opacity="0.2" d="M37.6915 14.8924C38.6775 14.8924 39.4767 14.2501 39.4767 13.4578C39.4767 12.6655 38.6775 12.0232 37.6915 12.0232C36.7056 12.0232 35.9064 12.6655 35.9064 13.4578C35.9064 14.2501 36.7056 14.8924 37.6915 14.8924Z" fill="#EFC5DB"/>
<path d="M19.7437 13.4578C21.6988 13.4578 23.2837 11.8729 23.2837 9.91781C23.2837 7.96272 21.6988 6.37781 19.7437 6.37781C17.7886 6.37781 16.2037 7.96272 16.2037 9.91781C16.2037 11.8729 17.7886 13.4578 19.7437 13.4578Z" fill="white"/>
<path d="M34.631 13.4578C36.5861 13.4578 38.171 11.8729 38.171 9.91781C38.171 7.96272 36.5861 6.37781 34.631 6.37781C32.6759 6.37781 31.091 7.96272 31.091 9.91781C31.091 11.8729 32.6759 13.4578 34.631 13.4578Z" fill="white"/>
<path d="M19.743 12.025C20.9082 12.025 21.8528 11.0804 21.8528 9.91522C21.8528 8.75001 20.9082 7.80542 19.743 7.80542C18.5778 7.80542 17.6332 8.75001 17.6332 9.91522C17.6332 11.0804 18.5778 12.025 19.743 12.025Z" fill="#3B3B44"/>
<path d="M34.6304 12.025C35.7956 12.025 36.7402 11.0804 36.7402 9.91522C36.7402 8.75001 35.7956 7.80542 34.6304 7.80542C33.4652 7.80542 32.5206 8.75001 32.5206 9.91522C32.5206 11.0804 33.4652 12.025 34.6304 12.025Z" fill="#3B3B44"/>
<path d="M27.1865 13.5693C26.5592 13.5693 25.9321 13.3321 25.4204 12.8576C25.1784 12.6333 25.164 12.2551 25.3884 12.0131C25.6128 11.7711 25.9911 11.7567 26.2329 11.9812C26.7945 12.5018 27.5786 12.5016 28.1398 11.9812C28.3817 11.757 28.7599 11.7711 28.9843 12.0131C29.2087 12.2551 29.1944 12.6332 28.9523 12.8576C28.4407 13.332 27.8136 13.5693 27.1865 13.5693Z" fill="#3B3B44"/>
<path d="M54.3745 19.0023H0V45.5716C0 51.0784 4.46426 55.5427 9.97112 55.5427H44.4034C49.9102 55.5427 54.3745 51.0784 54.3745 45.5716V19.0023Z" fill="#3B5CAD"/>
<path d="M0 34.424H54.3745V37.173H0V34.424Z" fill="#31509C"/>
<path d="M20.91 31.7991C22.0968 34.2911 24.236 37.6525 25.7923 39.2088C27.3486 40.7651 30.7101 42.9043 33.202 44.0911C33.49 43.8517 33.7686 43.6 34.0349 43.3338L50.0303 27.3385L37.6626 14.9708L21.6673 30.9662C21.4011 31.2324 21.1494 31.5111 20.91 31.7991Z" fill="#27A600"/>
<path d="M28.3795 36.6265C26.8232 35.0702 24.086 32.7679 20.9109 31.8032C19.6928 33.2687 18.8285 35.0013 18.3959 36.8676L17.5621 40.465C18.2537 42.4455 18.9108 43.5639 20.1766 44.8297C21.4423 46.0954 22.5607 46.7524 24.5411 47.4441L28.1385 46.6102C30.0049 46.1775 31.7375 45.3133 33.203 44.0952C32.2381 40.92 29.9357 38.1828 28.3795 36.6265Z" fill="url(#paint0_linear)"/>
<path d="M21.9255 43.0784C20.6597 41.8127 19.0941 40.9551 17.5616 40.4633L16.9911 42.9244C16.2827 45.9806 19.0234 48.7211 22.0795 48.0128L24.5406 47.4424C24.0488 45.9097 23.1911 44.3441 21.9255 43.0784Z" fill="#4E5660"/>
<path d="M52.6283 6.30882L58.695 12.3755C60.4349 14.1154 60.4349 16.9363 58.695 18.6763L55.1238 22.2475L42.7563 9.88001L46.3275 6.30882C48.0674 4.56894 50.8883 4.56894 52.6283 6.30882Z" fill="#FFDD00"/>
<path d="M42.7555 9.87854L55.1231 22.2462L50.0301 27.3391L37.6625 14.9716L42.7555 9.87854Z" fill="#4E5660"/>
<path opacity="0.2" d="M13.9636 5.24176H10.5178C9.85779 5.24176 9.32257 4.70666 9.32257 4.04654C9.32257 3.38642 9.85779 2.85132 10.5178 2.85132H13.9636C14.6236 2.85132 15.1588 3.38642 15.1588 4.04654C15.1588 4.70666 14.6237 5.24176 13.9636 5.24176Z" fill="#F07A79"/>
<path opacity="0.2" d="M5.16856 7.42369C4.88888 7.42369 4.608 7.32616 4.38115 7.12727C3.88478 6.69209 3.83518 5.93707 4.27024 5.4407C4.54848 5.12325 4.85553 4.82671 5.18302 4.55922C5.69434 4.14149 6.44709 4.21751 6.86482 4.7287C7.28231 5.2399 7.20641 5.99289 6.69521 6.4105C6.47004 6.59444 6.25896 6.79823 6.06772 7.01636C5.83155 7.28588 5.50083 7.42369 5.16856 7.42369Z" fill="#F07A79"/>
<defs>
<linearGradient id="paint0_linear" x1="25.3824" y1="47.2143" x2="25.3824" y2="35.7519" gradientUnits="userSpaceOnUse">
<stop stop-color="#F9EDAF"/>
<stop offset="1" stop-color="#FFFCDD"/>
</linearGradient>
</defs>
</svg>
