<svg width="60" height="60" viewBox="0 0 60 60" fill="none" xmlns="http://www.w3.org/2000/svg">
<path d="M0 50.5695C0 55.7778 4.22223 60 9.43052 60H39.034C44.2422 60 48.4645 55.7778 48.4645 50.5695V9.43052C48.4645 4.22223 44.2424 0 39.034 0H9.43052C4.22223 0 0 4.22223 0 9.43052L0 50.5695Z" fill="#27A600"/>
<path opacity="0.1" d="M36.0098 47.7914L31.8624 49.147C29.9971 49.7567 28.2047 48.6136 27.7228 46.957C27.5031 46.202 26.8349 45.6659 26.0489 45.6415C24.8475 45.6042 23.9322 46.7396 24.2574 47.8967C24.472 48.6606 24.8242 49.3921 25.3093 50.0612C26.9994 52.3919 30.0407 53.5149 32.9765 52.5553L37.1238 51.1996C39.0725 50.5627 40.8688 49.4598 42.3184 48.01L48.4647 41.8637V36.7928L39.7831 45.4744C38.7249 46.5327 37.4323 47.3264 36.0098 47.7914Z" fill="#F5C98D"/>
<path d="M6.04645 49.6876V42.585L24.1911 39.2961L42.4183 42.585V49.6876C42.4183 52.0437 40.5082 53.9538 38.1521 53.9538H10.3127C7.95641 53.9538 6.04645 52.0439 6.04645 49.6876Z" fill="#FFDD00"/>
<path d="M6.04645 42.5846V36.4382C6.04645 34.0821 7.95653 32.172 10.3127 32.172H38.1521C40.5082 32.172 42.4183 34.0821 42.4183 36.4382V42.5846H6.04645Z" fill="#FF8300"/>
<path opacity="0.1" d="M42.4181 47.9103V42.8395L39.7829 45.4747C38.7248 46.5328 37.4321 47.3266 36.0096 47.7915L31.8622 49.1471C29.9967 49.7568 28.2045 48.6138 27.7226 46.9571C27.5029 46.2021 26.8346 45.6661 26.0487 45.6417C24.8472 45.6043 23.9319 46.7397 24.257 47.8968C24.4717 48.6608 24.8238 49.3923 25.3089 50.0614C26.9991 52.392 30.0403 53.5151 32.9762 52.5554L37.1234 51.1998C39.0721 50.5629 40.8684 49.4599 42.3181 48.0101L42.4181 47.9103Z" fill="#04B048"/>
<path d="M21.592 14.8374H7.96435C7.20514 14.8374 6.58984 14.2221 6.58984 13.4629C6.58984 12.7037 7.20514 12.0884 7.96435 12.0884H21.5921C22.3513 12.0884 22.9666 12.7037 22.9666 13.4629C22.9665 14.222 22.3512 14.8374 21.592 14.8374Z" fill="#FFDD00"/>
<path d="M14.1244 8.84288H7.96435C7.20514 8.84288 6.58984 8.22758 6.58984 7.46837C6.58984 6.70917 7.20514 6.09387 7.96435 6.09387H14.1244C14.8836 6.09387 15.4989 6.70917 15.4989 7.46837C15.4989 8.22758 14.8835 8.84288 14.1244 8.84288Z" fill="#FFDD00"/>
<path d="M58.5391 19.6648L57.2437 18.3695C55.2959 16.4216 52.1376 16.4216 50.1898 18.3695L47.1718 21.3874L46.9279 22.9606L45.2279 23.3313L31.4335 37.1258C31.0446 37.5147 30.6919 37.9354 30.3776 38.3825C30.6489 41.1411 31.012 43.1852 32.3677 44.5409C33.7235 45.8967 35.7676 46.2598 38.5261 46.5311C38.9731 46.2168 39.3939 45.864 39.7829 45.4751L53.5774 31.6806L53.948 29.9806L55.5213 29.7367V29.7368L58.5392 26.7189C60.4869 24.7709 60.4869 21.6128 58.5391 19.6648Z" fill="#3B5CAD"/>
<path d="M38.526 46.5307C37.9108 44.4549 36.7955 42.8241 35.4398 41.4685C34.0841 40.1128 32.4533 38.9975 30.3775 38.3823C29.8366 39.1517 29.4107 39.9991 29.1166 40.8987L27.761 45.0461C26.9339 47.5765 29.3318 49.9743 31.8621 49.1473L36.0095 47.7917C36.9092 47.4975 37.7567 47.0716 38.526 46.5307Z" fill="#FBF2BE"/>
<path d="M45.2205 23.3342L47.1641 21.3907L55.5121 29.7387L53.5685 31.6823L45.2205 23.3342Z" fill="#FFDD00"/>
<path opacity="0.1" d="M13.6969 27.6725C14.6829 27.6725 15.4821 27.0302 15.4821 26.2378C15.4821 25.4455 14.6829 24.8032 13.6969 24.8032C12.711 24.8032 11.9117 25.4455 11.9117 26.2378C11.9117 27.0302 12.711 27.6725 13.6969 27.6725Z" fill="#EAADCD"/>
<path opacity="0.1" d="M34.7054 27.6725C35.6913 27.6725 36.4906 27.0302 36.4906 26.2378C36.4906 25.4455 35.6913 24.8032 34.7054 24.8032C33.7195 24.8032 32.9202 25.4455 32.9202 26.2378C32.9202 27.0302 33.7195 27.6725 34.7054 27.6725Z" fill="#EAADCD"/>
<path d="M16.7575 26.2378C18.7126 26.2378 20.2975 24.6529 20.2975 22.6978C20.2975 20.7428 18.7126 19.1578 16.7575 19.1578C14.8024 19.1578 13.2175 20.7428 13.2175 22.6978C13.2175 24.6529 14.8024 26.2378 16.7575 26.2378Z" fill="white"/>
<path d="M31.6447 26.2378C33.5998 26.2378 35.1847 24.6529 35.1847 22.6978C35.1847 20.7428 33.5998 19.1578 31.6447 19.1578C29.6896 19.1578 28.1047 20.7428 28.1047 22.6978C28.1047 24.6529 29.6896 26.2378 31.6447 26.2378Z" fill="white"/>
<path d="M16.7576 24.8076C17.9228 24.8076 18.8674 23.863 18.8674 22.6978C18.8674 21.5326 17.9228 20.588 16.7576 20.588C15.5924 20.588 14.6478 21.5326 14.6478 22.6978C14.6478 23.863 15.5924 24.8076 16.7576 24.8076Z" fill="#3B3B44"/>
<path d="M31.645 24.8076C32.8102 24.8076 33.7548 23.863 33.7548 22.6978C33.7548 21.5326 32.8102 20.588 31.645 20.588C30.4798 20.588 29.5352 21.5326 29.5352 22.6978C29.5352 23.863 30.4798 24.8076 31.645 24.8076Z" fill="#3B3B44"/>
<path d="M24.2012 26.3505C23.574 26.3505 22.947 26.1133 22.4353 25.6389C22.1933 25.4145 22.1789 25.0364 22.4033 24.7944C22.6278 24.5524 23.0058 24.5383 23.2478 24.7624C23.8091 25.283 24.5934 25.2829 25.1547 24.7624C25.3968 24.5384 25.7747 24.5524 25.9992 24.7944C26.2235 25.0364 26.2092 25.4145 25.9672 25.6389C25.4557 26.1131 24.8285 26.3505 24.2012 26.3505Z" fill="#3B3B44"/>
</svg>
