<svg width="26" height="30" viewBox="0 0 26 30" fill="none" xmlns="http://www.w3.org/2000/svg">
<path d="M12.9999 8.12486C15.2435 8.12486 17.0623 6.30605 17.0623 4.06243C17.0623 1.81881 15.2435 0 12.9999 0C10.7563 0 8.9375 1.81881 8.9375 4.06243C8.9375 6.30605 10.7563 8.12486 12.9999 8.12486Z" fill="#FF8300"/>
<path d="M12.9996 5.87018C13.9981 5.87018 14.8075 5.06076 14.8075 4.06229C14.8075 3.06381 13.9981 2.25439 12.9996 2.25439C12.0011 2.25439 11.1917 3.06381 11.1917 4.06229C11.1917 5.06076 12.0011 5.87018 12.9996 5.87018Z" fill="#FBEDB4"/>
<path d="M24.0271 13.0532H1.97223V26.0276C1.97223 28.2215 3.75072 29.9999 5.9446 29.9999H20.0548C22.2486 29.9999 24.0271 28.2215 24.0271 26.0276V13.0532Z" fill="#27A600"/>
<path d="M23.4458 13.9784H2.55381C1.53656 13.9784 0.711914 13.1538 0.711914 12.1365V9.3503C0.711914 7.42839 2.26994 5.87036 4.19185 5.87036H21.8077C23.7296 5.87036 25.2877 7.42839 25.2877 9.3503V12.1365C25.2876 13.1538 24.4629 13.9784 23.4458 13.9784Z" fill="#3B5CAD"/>
<path d="M6.45776 19.6917C6.45776 17.9347 8.033 16.5103 9.97625 16.5103C11.0792 16.5103 12.0635 16.9692 12.7085 17.6874C12.8634 17.8598 13.1362 17.8598 13.2911 17.6874C13.9361 16.9692 14.9204 16.5103 16.0233 16.5103C17.9665 16.5103 19.5418 17.9347 19.5418 19.6917C19.5418 22.5451 17.0749 24.9735 14.6851 26.4927C13.6581 27.1456 12.3416 27.1456 11.3146 26.4927C8.9247 24.9735 6.45776 22.5451 6.45776 19.6917Z" fill="#FFDD00"/>
<path opacity="0.1" d="M16.0744 25.5026C15.6209 25.865 15.1514 26.1963 14.6849 26.4929C13.6512 27.15 12.3283 27.1391 11.2956 26.4806C9.14211 25.1074 6.93161 22.9975 6.5244 20.5046C6.44791 20.0364 6.04536 19.6917 5.57091 19.6917C4.97844 19.6917 4.52151 20.2207 4.61575 20.8056C5.11099 23.8797 7.59251 26.4154 10.2785 28.1229C11.9386 29.1782 14.0622 29.1776 15.7214 28.1229C16.2579 27.7818 16.7862 27.4077 17.2922 27.0029C17.7098 26.6688 17.7696 26.0555 17.4312 25.6415C17.0942 25.2294 16.4902 25.1704 16.0744 25.5026Z" fill="#FFC98A"/>
<path d="M9.16522 20.7381C9.16522 19.7082 10.0885 18.8733 11.2275 18.8733C11.874 18.8733 12.4509 19.1423 12.829 19.5632C12.9198 19.6643 13.0797 19.6643 13.1705 19.5632C13.5486 19.1423 14.1255 18.8733 14.7719 18.8733C15.9109 18.8733 16.8342 19.7082 16.8342 20.7381C16.8342 22.4106 15.3882 23.834 13.9874 24.7245C13.3855 25.1072 12.6138 25.1072 12.0119 24.7245C10.6112 23.8339 9.16522 22.4106 9.16522 20.7381Z" fill="#FF8300"/>
<path opacity="0.1" d="M23.6954 9.38306C23.4383 9.38306 23.2009 9.21585 23.1232 8.95691C22.9503 8.37992 22.4093 7.97695 21.8078 7.97695C21.4777 7.97695 21.2101 7.7094 21.2101 7.37935C21.2101 7.04929 21.4777 6.78174 21.8078 6.78174C22.9331 6.78174 23.9448 7.53508 24.2681 8.6137C24.3628 8.92984 24.1834 9.263 23.8672 9.35778C23.8101 9.37494 23.7522 9.38306 23.6954 9.38306Z" fill="#FFCCD3"/>
<path opacity="0.1" d="M23.7785 12.1559C23.4484 12.1559 23.1808 11.8883 23.1808 11.5582V11.2575C23.1808 10.9275 23.4484 10.6599 23.7785 10.6599C24.1085 10.6599 24.3761 10.9275 24.3761 11.2575V11.5582C24.3761 11.8883 24.1085 12.1559 23.7785 12.1559Z" fill="#FFCCD3"/>
<path opacity="0.1" d="M8.64035 11.2827C8.64035 11.6789 8.24072 12 7.74769 12C7.25473 12 6.8551 11.6789 6.8551 11.2827C6.8551 10.8866 7.25473 10.5654 7.74769 10.5654C8.24072 10.5654 8.64035 10.8866 8.64035 11.2827Z" fill="#FDC5DC"/>
<path opacity="0.1" d="M19.1445 11.2827C19.1445 11.6789 18.7449 12 18.2519 12C17.7589 12 17.3593 11.6789 17.3593 11.2827C17.3593 10.8866 17.7589 10.5654 18.2519 10.5654C18.7449 10.5654 19.1445 10.8866 19.1445 11.2827Z" fill="#FDC5DC"/>
<path d="M9.27817 11.2827C10.2557 11.2827 11.0482 10.4902 11.0482 9.51267C11.0482 8.53513 10.2557 7.74268 9.27817 7.74268C8.30063 7.74268 7.50818 8.53513 7.50818 9.51267C7.50818 10.4902 8.30063 11.2827 9.27817 11.2827Z" fill="white"/>
<path d="M11.0482 9.51267C11.0482 10.0953 10.5759 10.5676 9.99326 10.5676C9.41065 10.5676 8.93835 10.0953 8.93835 9.51267C8.93835 8.93006 9.41065 8.45776 9.99326 8.45776C10.5759 8.45776 11.0482 8.93006 11.0482 9.51267Z" fill="#383842"/>
<path d="M16.7215 11.2827C17.699 11.2827 18.4915 10.4902 18.4915 9.51267C18.4915 8.53513 17.699 7.74268 16.7215 7.74268C15.7439 7.74268 14.9515 8.53513 14.9515 9.51267C14.9515 10.4902 15.7439 11.2827 16.7215 11.2827Z" fill="white"/>
<path d="M18.4881 9.51267C18.4881 10.0953 18.0159 10.5676 17.4333 10.5676C16.8506 10.5676 16.3784 10.0953 16.3784 9.51267C16.3784 8.93006 16.8506 8.45776 17.4333 8.45776C18.0158 8.45776 18.4881 8.93006 18.4881 9.51267Z" fill="#383842"/>
<path d="M12.9999 11.8913C13.4373 11.8913 13.7918 11.4271 13.7918 10.8544C13.7918 10.2817 13.4373 9.81738 12.9999 9.81738C12.5625 9.81738 12.2079 10.2817 12.2079 10.8544C12.2079 11.4271 12.5625 11.8913 12.9999 11.8913Z" fill="#383842"/>
</svg>
