<svg width="60" height="60" viewBox="0 0 60 60" fill="none" xmlns="http://www.w3.org/2000/svg">
<path d="M40.6758 60H10.1561C4.54708 60 -1.14441e-05 55.4529 -1.14441e-05 49.8438V19.3241C-1.14441e-05 13.7151 4.54708 9.16797 10.1561 9.16797H40.6757C46.2847 9.16797 50.8318 13.7151 50.8318 19.3241V49.8438C50.8319 55.4529 46.2849 60 40.6758 60Z" fill="#27A600"/>
<path d="M36.7655 24.0665H14.0654C13.3063 24.0665 12.6909 23.4512 12.6909 22.692C12.6909 21.9328 13.3063 21.3175 14.0654 21.3175H36.7656C37.5247 21.3175 38.1401 21.9328 38.1401 22.692C38.14 23.4511 37.5245 24.0665 36.7655 24.0665Z" fill="#EFC534"/>
<path d="M36.7659 33.2927H14.0658C13.3068 33.2927 12.6913 32.6774 12.6913 31.9182C12.6913 31.159 13.3068 30.5437 14.0658 30.5437H36.766C37.5251 30.5437 38.1406 31.159 38.1406 31.9182C38.1404 32.6773 37.525 33.2927 36.7659 33.2927Z" fill="#EFC534"/>
<path d="M25.4152 34.5827C23.9998 33.1672 23.9998 30.8724 25.4152 29.457L32.0085 22.8637C33.4242 21.4484 35.7187 21.4485 37.1342 22.8637C38.5496 24.2792 38.5496 26.5741 37.1342 27.9894L30.5409 34.5827C29.1254 35.998 26.8307 35.9982 25.4152 34.5827Z" fill="#3B5CAD"/>
<path d="M45.1881 28.0382C41.5358 31.6906 35.6142 31.6906 31.9618 28.0382C28.3095 24.3859 28.3095 18.4643 31.9618 14.8119L39.4202 7.35352C43.0726 3.70117 48.9942 3.70117 52.6465 7.35352C56.2989 11.0059 56.2989 16.9275 52.6465 20.5798L45.1881 28.0382Z" fill="#E17503"/>
<path d="M47.403 25.194C54.3601 25.194 60 19.5541 60 12.597C60 5.63987 54.3601 0 47.403 0C40.4458 0 34.806 5.63987 34.806 12.597C34.806 19.5541 40.4458 25.194 47.403 25.194Z" fill="#FF8300"/>
<path opacity="0.2" d="M14.9128 50.3612C15.8988 50.3612 16.698 49.7189 16.698 48.9266C16.698 48.1342 15.8988 47.4919 14.9128 47.4919C13.9269 47.4919 13.1277 48.1342 13.1277 48.9266C13.1277 49.7189 13.9269 50.3612 14.9128 50.3612Z" fill="#EAADCD"/>
<path opacity="0.2" d="M35.9214 50.3612C36.9074 50.3612 37.7066 49.7189 37.7066 48.9266C37.7066 48.1342 36.9074 47.4919 35.9214 47.4919C34.9355 47.4919 34.1363 48.1342 34.1363 48.9266C34.1363 49.7189 34.9355 50.3612 35.9214 50.3612Z" fill="#EAADCD"/>
<path d="M17.9735 48.9266C19.9286 48.9266 21.5135 47.3416 21.5135 45.3866C21.5135 43.4315 19.9286 41.8466 17.9735 41.8466C16.0184 41.8466 14.4335 43.4315 14.4335 45.3866C14.4335 47.3416 16.0184 48.9266 17.9735 48.9266Z" fill="white"/>
<path d="M21.4739 45.862C21.7396 44.727 21.0349 43.5916 19.9 43.326C18.7651 43.0603 17.6297 43.765 17.364 44.8999C17.0984 46.0348 17.803 47.1702 18.9379 47.4359C20.0729 47.7015 21.2083 46.9969 21.4739 45.862Z" fill="#4E5660"/>
<path d="M32.8608 48.9266C34.8159 48.9266 36.4008 47.3416 36.4008 45.3866C36.4008 43.4315 34.8159 41.8466 32.8608 41.8466C30.9057 41.8466 29.3208 43.4315 29.3208 45.3866C29.3208 47.3416 30.9057 48.9266 32.8608 48.9266Z" fill="white"/>
<path d="M35.7677 46.8754C36.5915 46.0516 36.5915 44.716 35.7677 43.8922C34.9439 43.0684 33.6083 43.0684 32.7845 43.8922C31.9607 44.716 31.9607 46.0516 32.7845 46.8754C33.6083 47.6992 34.9439 47.6992 35.7677 46.8754Z" fill="#4E5660"/>
<path d="M25.4182 50.144C26.293 50.144 27.0021 49.2154 27.0021 48.07C27.0021 46.9246 26.293 45.9961 25.4182 45.9961C24.5435 45.9961 23.8343 46.9246 23.8343 48.07C23.8343 49.2154 24.5435 50.144 25.4182 50.144Z" fill="#4E5660"/>
<path opacity="0.2" d="M5.43156 16.8704C5.1759 16.8704 4.91845 16.7888 4.70068 16.6203C4.17873 16.2161 4.08323 15.4655 4.48733 14.9435C5.85897 13.1721 7.92514 12.1561 10.1561 12.1561C10.8163 12.1561 11.3514 12.6913 11.3514 13.3513C11.3514 14.0113 10.8163 14.5466 10.1561 14.5466C8.67013 14.5466 7.29287 15.2247 6.37745 16.4069C6.142 16.7111 5.78869 16.8704 5.43156 16.8704Z" fill="#FFFDE3"/>
<path opacity="0.2" d="M4.18322 22.6579C3.5231 22.6579 2.988 22.1227 2.988 21.4627V20.403C2.988 19.743 3.5231 19.2078 4.18322 19.2078C4.84334 19.2078 5.37844 19.743 5.37844 20.403V21.4627C5.37844 22.1228 4.84334 22.6579 4.18322 22.6579Z" fill="#FFFDE3"/>
</svg>
