<svg width="60" height="60" viewBox="0 0 60 60" fill="none" xmlns="http://www.w3.org/2000/svg">
<path d="M10.4093 0.262817C9.85769 0.262817 9.41055 0.709949 9.41055 1.26154V6.00381L13.877 7.49844V3.73039C13.8769 1.81529 12.3244 0.262817 10.4093 0.262817Z" fill="#12A4E7"/>
<path d="M56.7212 27.4611V38.0732L24.7682 41.8192L0 38.0731V21.5578C0 16.3554 4.21781 12.1377 9.42131 12.1377L26.0155 8.776L41.3965 12.1377C49.8604 12.1377 56.7212 18.9985 56.7212 27.4611Z" fill="#F45D5C"/>
<path d="M9.41431 6.00528L13.8807 7.4999V3.73197C13.8807 3.27074 13.7899 2.83089 13.6264 2.42834H9.41431V6.00528Z" fill="#12A4E7"/>
<path d="M47.6295 5.41479H4.40112C3.37645 5.41479 2.54578 6.24547 2.54578 7.27002C2.54578 9.95854 4.72526 12.138 7.41378 12.138H44.6167C47.3052 12.138 49.4847 9.95854 49.4847 7.27002C49.4847 6.24535 48.654 5.41479 47.6295 5.41479Z" fill="#13B81A"/>
<path d="M16.6137 35.706C18.4157 35.706 19.8766 34.245 19.8766 32.443V21.5585C19.8766 19.2829 18.0319 17.4382 15.7564 17.4382H8.37422C6.09864 17.4382 4.25394 19.2829 4.25394 21.5585V32.443C4.25394 34.245 5.71485 35.706 7.51689 35.706H16.6137Z" fill="#F4D952"/>
<path d="M41.3982 17.4382H32.1313C29.8557 17.4382 28.011 19.2829 28.011 21.5585V32.443C28.011 34.245 29.4719 35.706 31.274 35.706H33.1959L34.0888 35.7058L37.7095 35.706L40.1269 35.7058H47.4058C49.6241 35.7058 51.4221 33.9078 51.4221 31.6895V27.4619C51.422 21.926 46.9342 17.4382 41.3982 17.4382Z" fill="#F4D952"/>
<path d="M56.7206 38.0723V51.6054H3.24898C1.4552 51.6054 -0.000579834 50.1496 -0.000579834 48.3558V38.0723H56.7206Z" fill="#13B81A"/>
<path d="M58.029 44.3394H55.8836C54.7951 44.3394 53.9128 45.2217 53.9128 46.3102V51.6042H58.0289C59.1174 51.6042 59.9997 50.7218 59.9997 49.6334V46.3102C59.9998 45.2218 59.1175 44.3394 58.029 44.3394Z" fill="#53D959"/>
<path d="M2.4893 39.9756H-0.000579834V47.9739H2.4893C3.92607 47.9739 5.09082 46.8091 5.09082 45.3722V42.5771C5.09093 41.1403 3.92619 39.9756 2.4893 39.9756Z" fill="#53D959"/>
<path d="M43.5411 59.7366C47.5868 59.7366 50.8666 56.4568 50.8666 52.4111C50.8666 48.3653 47.5868 45.0856 43.5411 45.0856C39.4953 45.0856 36.2156 48.3653 36.2156 52.4111C36.2156 56.4568 39.4953 59.7366 43.5411 59.7366Z" fill="#586576"/>
<path d="M43.5408 55.6675C45.3383 55.6675 46.7955 54.2103 46.7955 52.4128C46.7955 50.6153 45.3383 49.1581 43.5408 49.1581C41.7433 49.1581 40.2861 50.6153 40.2861 52.4128C40.2861 54.2103 41.7433 55.6675 43.5408 55.6675Z" fill="#F4D952"/>
<path d="M16.4294 59.7366C20.4751 59.7366 23.7549 56.4568 23.7549 52.4111C23.7549 48.3653 20.4751 45.0856 16.4294 45.0856C12.3836 45.0856 9.10385 48.3653 9.10385 52.4111C9.10385 56.4568 12.3836 59.7366 16.4294 59.7366Z" fill="#586576"/>
<path d="M16.4283 55.6675C18.2259 55.6675 19.6831 54.2103 19.6831 52.4128C19.6831 50.6153 18.2259 49.1581 16.4283 49.1581C14.6308 49.1581 13.1736 50.6153 13.1736 52.4128C13.1736 54.2103 14.6308 55.6675 16.4283 55.6675Z" fill="#F4D952"/>
</svg>
