<svg width="60" height="58" viewBox="0 0 60 58" fill="none" xmlns="http://www.w3.org/2000/svg">
<path d="M7.86038 40.0433C8.31337 43.5768 6.65058 48.2794 4.34333 51.7559C2.73504 54.1793 4.52309 57.3965 7.43082 57.3323C14.8645 57.168 21.4823 53.6409 24.6662 48.1515L7.86038 40.0433Z" fill="#3B5CAD"/>
<path d="M30 48.995C46.5685 48.995 60 38.1764 60 24.8311C60 11.4858 46.5685 0.667236 30 0.667236C13.4315 0.667236 0 11.4858 0 24.8311C0 38.1764 13.4315 48.995 30 48.995Z" fill="#27A600"/>
<path opacity="0.2" d="M19.4957 21.164C20.4816 21.164 21.2809 20.5217 21.2809 19.7294C21.2809 18.9371 20.4816 18.2948 19.4957 18.2948C18.5098 18.2948 17.7105 18.9371 17.7105 19.7294C17.7105 20.5217 18.5098 21.164 19.4957 21.164Z" fill="#EAADCD"/>
<path opacity="0.2" d="M40.5041 21.164C41.4901 21.164 42.2893 20.5217 42.2893 19.7294C42.2893 18.9371 41.4901 18.2948 40.5041 18.2948C39.5182 18.2948 38.719 18.9371 38.719 19.7294C38.719 20.5217 39.5182 21.164 40.5041 21.164Z" fill="#EAADCD"/>
<path d="M26.0884 15.9529C25.97 14.1426 24.4627 12.6971 22.6492 12.6506C20.6516 12.5994 19.0162 14.2034 19.0162 16.1894C19.0162 16.2902 19.0204 16.39 19.0287 16.4886C19.0792 17.0874 19.7288 17.444 20.2657 17.1744C20.3777 17.1182 20.4959 17.0675 20.6167 17.0197L20.6154 17.0181C21.1863 16.3643 21.8479 16.1264 22.5561 16.1264C23.2643 16.1264 23.9258 16.3643 24.4967 17.0181L24.4952 17.0196C24.616 17.0674 24.7341 17.118 24.846 17.1742C25.3891 17.4468 26.0367 17.0784 26.0848 16.4726C26.0986 16.3025 26.1 16.1291 26.0884 15.9529Z" fill="white"/>
<path d="M29.9999 20.947C29.2294 20.947 28.4588 20.6894 27.8159 20.1743C27.2196 19.6965 27.1234 18.8258 27.6011 18.2295C28.0788 17.6331 28.9496 17.5371 29.5459 18.0148C29.8132 18.2289 30.1866 18.2289 30.454 18.0148C31.0501 17.537 31.9209 17.6331 32.3987 18.2295C32.8764 18.8258 32.7803 19.6965 32.1839 20.1743C31.541 20.6894 30.7705 20.947 29.9999 20.947Z" fill="#3B3B44"/>
<path d="M22.5562 16.6638C23.2645 16.6638 23.9275 16.7931 24.4969 17.0184C24.6058 16.7639 24.666 16.4841 24.666 16.1898C24.666 15.0245 23.7214 14.08 22.5562 14.08C21.391 14.08 20.4464 15.0245 20.4464 16.1898C20.4464 16.4841 20.5067 16.7638 20.6155 17.0184C21.185 16.7931 21.8481 16.6638 22.5562 16.6638Z" fill="#3B3B44"/>
<path d="M40.9757 15.9529C40.8573 14.1426 39.35 12.6971 37.5365 12.6506C35.5389 12.5994 33.9035 14.2034 33.9035 16.1894C33.9035 16.2902 33.9077 16.39 33.9161 16.4886C33.9665 17.0874 34.6161 17.444 35.153 17.1744C35.265 17.1182 35.3832 17.0675 35.504 17.0197L35.5027 17.0181C36.0737 16.3643 36.7351 16.1264 37.4434 16.1264C38.1517 16.1264 38.8132 16.3643 39.3841 17.0181L39.3825 17.0196C39.5034 17.0674 39.6214 17.118 39.7333 17.1742C40.2764 17.4468 40.924 17.0784 40.9722 16.4726C40.9858 16.3025 40.9872 16.1291 40.9757 15.9529Z" fill="white"/>
<path d="M37.4435 16.6638C38.1517 16.6638 38.8148 16.7931 39.3842 17.0184C39.4931 16.7639 39.5533 16.4841 39.5533 16.1898C39.5533 15.0245 38.6087 14.08 37.4435 14.08C36.2783 14.08 35.3336 15.0245 35.3336 16.1898C35.3336 16.4841 35.3938 16.7638 35.5027 17.0184C36.0721 16.7931 36.7352 16.6638 37.4435 16.6638Z" fill="#3B3B44"/>
<path d="M30.0001 37.6861C32.3145 37.6861 34.1907 35.8098 34.1907 33.4954C34.1907 31.1809 32.3145 29.3047 30.0001 29.3047C27.6856 29.3047 25.8094 31.1809 25.8094 33.4954C25.8094 35.8098 27.6856 37.6861 30.0001 37.6861Z" fill="#FFDD00"/>
<path d="M16.394 37.6861C18.7084 37.6861 20.5847 35.8098 20.5847 33.4954C20.5847 31.1809 18.7084 29.3047 16.394 29.3047C14.0796 29.3047 12.2033 31.1809 12.2033 33.4954C12.2033 35.8098 14.0796 37.6861 16.394 37.6861Z" fill="#FFDD00"/>
<path d="M43.6058 33.4958C45.9202 33.4958 47.7965 31.6195 47.7965 29.3051C47.7965 26.9906 45.9202 25.1144 43.6058 25.1144C41.2914 25.1144 39.4151 26.9906 39.4151 29.3051C39.4151 31.6195 41.2914 33.4958 43.6058 33.4958Z" fill="#FFDD00"/>
<path d="M7.89652 42.1992C7.79707 43.4547 7.50711 44.7836 7.07648 46.106C9.96221 48.2022 13.3427 49.8067 17.1358 50.8943C16.5874 51.2483 16.0095 51.5724 15.4063 51.8651C14.388 52.3591 14.0879 53.669 14.7815 54.5634C15.3001 55.232 16.2168 55.4457 16.9776 55.0751C20.0617 53.5728 22.6302 51.3811 24.3463 48.6777C17.3826 47.8681 11.889 45.5462 7.89652 42.1992Z" fill="#32509B"/>
</svg>
