<svg width="60" height="60" viewBox="0 0 60 60" fill="none" xmlns="http://www.w3.org/2000/svg">
<path d="M36.9398 29.9074H23.0602V13.37C23.0602 11.0609 24.932 9.18909 27.2411 9.18909H32.7589C35.068 9.18909 36.9398 11.0609 36.9398 13.37V29.9074Z" fill="#18C51F"/>
<path d="M55.1183 25.5887H41.2386V4.181C41.2386 1.87195 43.1104 0.00012207 45.4194 0.00012207H50.9373C53.2463 0.00012207 55.1183 1.87195 55.1183 4.181V25.5887Z" fill="#4F71C5"/>
<path d="M18.7615 43.8114H4.8819V25.5886C4.8819 23.2795 6.75373 21.4076 9.06289 21.4076H14.5807C16.8898 21.4076 18.7616 23.2794 18.7616 25.5886V43.8114H18.7615Z" fill="#FFDD00"/>
<path d="M36.939 43.8133H23.0594V29.9091C23.0594 27.6001 24.9312 25.7281 27.2402 25.7281H32.7581C35.0671 25.7281 36.939 27.6 36.939 29.9091V43.8133Z" fill="#27A600"/>
<path d="M55.1183 43.8114H41.2386V25.5886C41.2386 23.2795 43.1104 21.4076 45.4194 21.4076H50.9373C53.2463 21.4076 55.1183 23.2794 55.1183 25.5886V43.8114Z" fill="#3B5CAD"/>
<path d="M48.9218 60.0001H11.0783C6.18364 60.0001 1.91492 56.6738 0.71874 51.9274L0.144676 49.6499C-0.602216 46.6865 1.63822 43.8115 4.69416 43.8115H55.3058C58.3619 43.8115 60.6022 46.6866 59.8553 49.6499L59.2814 51.9274C58.0852 56.6738 53.8166 60.0001 48.9218 60.0001Z" fill="#FF8300"/>
<path opacity="0.2" d="M19.4958 55.8861C20.4817 55.8861 21.281 55.2438 21.281 54.4515C21.281 53.6591 20.4817 53.0168 19.4958 53.0168C18.5099 53.0168 17.7106 53.6591 17.7106 54.4515C17.7106 55.2438 18.5099 55.8861 19.4958 55.8861Z" fill="#EFC5DB"/>
<path opacity="0.2" d="M40.5044 55.8861C41.4903 55.8861 42.2896 55.2438 42.2896 54.4515C42.2896 53.6591 41.4903 53.0168 40.5044 53.0168C39.5185 53.0168 38.7192 53.6591 38.7192 54.4515C38.7192 55.2438 39.5185 55.8861 40.5044 55.8861Z" fill="#EFC5DB"/>
<path d="M22.5564 54.4517C24.5115 54.4517 26.0964 52.8668 26.0964 50.9117C26.0964 48.9566 24.5115 47.3717 22.5564 47.3717C20.6014 47.3717 19.0164 48.9566 19.0164 50.9117C19.0164 52.8668 20.6014 54.4517 22.5564 54.4517Z" fill="#FCF5C8"/>
<path d="M26.0957 50.9091C26.0957 52.0743 25.1512 53.0189 23.9859 53.0189C22.8207 53.0189 21.8761 52.0743 21.8761 50.9091C21.8761 49.7439 22.8207 48.7993 23.9859 48.7993C25.1512 48.7992 26.0957 49.7439 26.0957 50.9091Z" fill="#4E5660"/>
<path d="M37.4438 54.4517C39.3989 54.4517 40.9838 52.8668 40.9838 50.9117C40.9838 48.9566 39.3989 47.3717 37.4438 47.3717C35.4887 47.3717 33.9038 48.9566 33.9038 50.9117C33.9038 52.8668 35.4887 54.4517 37.4438 54.4517Z" fill="#FCF5C8"/>
<path d="M40.3497 52.4004C41.1735 51.5766 41.1735 50.241 40.3497 49.4172C39.5259 48.5934 38.1902 48.5934 37.3664 49.4172C36.5426 50.241 36.5426 51.5766 37.3664 52.4004C38.1902 53.2242 39.5259 53.2242 40.3497 52.4004Z" fill="#4E5660"/>
<path d="M30.0012 55.6678C30.876 55.6678 31.5851 54.7393 31.5851 53.5938C31.5851 52.4484 30.876 51.5199 30.0012 51.5199C29.1264 51.5199 28.4173 52.4484 28.4173 53.5938C28.4173 54.7393 29.1264 55.6678 30.0012 55.6678Z" fill="#4E5660"/>
</svg>
