<svg width="40" height="40" viewBox="0 0 40 40" fill="none" xmlns="http://www.w3.org/2000/svg">
<path d="M11.864 12.8984H9.1215C8.82071 12.8984 8.57697 13.1423 8.57697 13.443V24.134H12.4086V13.443C12.4086 13.1423 12.1648 12.8984 11.864 12.8984Z" fill="#FF8086"/>
<path d="M18.2455 18.5176H15.503C15.2022 18.5176 14.9584 18.7614 14.9584 19.0622V24.1354H18.79V19.0622C18.79 18.7614 18.5463 18.5176 18.2455 18.5176Z" fill="#F9D11F"/>
<path d="M24.627 7.875H21.8845C21.5837 7.875 21.3398 8.11883 21.3398 8.41961V24.1352H25.1715V8.41961C25.1715 8.11883 24.9277 7.875 24.627 7.875Z" fill="#5766CB"/>
<path d="M31.0084 2.03516H28.2659C27.9651 2.03516 27.7213 2.27898 27.7213 2.57977V24.1337H31.5529V2.57969C31.553 2.27898 31.3091 2.03516 31.0084 2.03516Z" fill="#95C230"/>
<path d="M10.7312 12.8984H9.12148C8.8207 12.8984 8.57687 13.1423 8.57687 13.443V24.134H10.1866V13.443C10.1867 13.1423 10.4305 12.8984 10.7312 12.8984Z" fill="#E5646E"/>
<path d="M17.1127 18.5176H15.503C15.2022 18.5176 14.9584 18.7614 14.9584 19.0622V24.1354H16.5681V19.0622C16.5681 18.7614 16.812 18.5176 17.1127 18.5176Z" fill="#FFA402"/>
<path d="M23.4942 7.875H21.8845C21.5837 7.875 21.3398 8.11883 21.3398 8.41961V24.1352H22.9496V8.41961C22.9496 8.11883 23.1934 7.875 23.4942 7.875Z" fill="#3D4FC3"/>
<path d="M29.8757 2.03516H28.2659C27.9652 2.03516 27.7214 2.27898 27.7214 2.57977V24.1337H29.3312V2.57969C29.3311 2.27898 29.5749 2.03516 29.8757 2.03516Z" fill="#79A517"/>
<path d="M32.5465 24.7386H7.47947C7.14611 24.7386 6.87579 24.4684 6.87579 24.1349C6.87579 23.8015 7.14603 23.5312 7.47947 23.5312H32.5465C32.8799 23.5312 33.1502 23.8015 33.1502 24.1349C33.1501 24.4684 32.8799 24.7386 32.5465 24.7386Z" fill="#DDEAFB"/>
<path d="M36.5787 31.0428C32.4059 30.9044 31.7977 29.2178 27.5454 28.5583C23.1098 27.8704 19.9934 31.0518 19.9934 31.0518L20.0073 33.3161H37.1391V31.6188C37.1391 31.3068 36.8905 31.0531 36.5787 31.0428Z" fill="#5766CB"/>
<path d="M27.0915 28.5007C22.8988 28.0861 19.9935 31.0514 19.9935 31.0514L20.0074 33.3156H21.6172V31.5056C21.6172 31.2031 21.7499 30.9162 21.981 30.7209C22.7287 30.0886 24.5813 28.748 27.0915 28.5007Z" fill="#3D4FC3"/>
<path d="M12.535 28.5583C8.29045 29.2165 7.67671 30.8983 3.52444 31.042C3.19881 31.0532 2.94131 31.3223 2.94131 31.6481V33.316H20.073L20.0869 31.0518C20.0869 31.0518 16.9707 27.8705 12.535 28.5583Z" fill="#5766CB"/>
<path d="M4.55117 31.5839C4.55117 31.3033 4.70211 31.0562 4.9282 30.9219C4.50617 30.9828 4.04297 31.0247 3.52453 31.0427C3.19891 31.0539 2.94141 31.323 2.94141 31.6487V33.3166H4.55117V31.5839V31.5839Z" fill="#3D4FC3"/>
<path d="M39.2527 33.2363H0.747344C0.334609 33.2363 0 33.5709 0 33.9837V35.3602C0 35.773 0.334609 36.1076 0.747344 36.1076H17.7359C17.9509 36.1076 18.1305 36.2627 18.1727 36.4735C18.3427 37.3238 19.0933 37.9644 19.9935 37.9644C20.9122 37.9644 21.6751 37.2973 21.8241 36.421C21.8549 36.2395 22.0136 36.1075 22.1978 36.1075H39.2527C39.6654 36.1075 40 35.7729 40 35.3602V33.9836C40 33.5709 39.6654 33.2363 39.2527 33.2363Z" fill="#95C230"/>
<path d="M39.2527 34.4979H22.1977C22.0136 34.4979 21.8549 34.6298 21.824 34.8114C21.675 35.6877 20.9122 36.3548 19.9934 36.3548C19.0932 36.3548 18.3426 35.7141 18.1727 34.8639C18.1305 34.653 17.9509 34.498 17.7358 34.498H0.747344C0.374375 34.498 0.0660938 34.2245 0.01 33.8672C0.00398438 33.9052 0 33.944 0 33.9838V35.3603C0 35.773 0.334609 36.1077 0.747344 36.1077H17.7359C17.9509 36.1077 18.1305 36.2627 18.1727 36.4737C18.3427 37.3239 19.0933 37.9645 19.9935 37.9645C20.9122 37.9645 21.6751 37.2974 21.8241 36.4212C21.8549 36.2396 22.0136 36.1077 22.1978 36.1077H39.2527C39.6655 36.1077 40 35.773 40 35.3603V33.9838C40 33.944 39.996 33.9052 39.99 33.8672C39.9339 34.2244 39.6256 34.4979 39.2527 34.4979Z" fill="#79A517"/>
</svg>
