<svg width="60" height="60" viewBox="0 0 60 60" fill="none" xmlns="http://www.w3.org/2000/svg">
<path d="M44.9125 54.8376H15.0875C9.60606 54.8376 5.16248 50.394 5.16248 44.9126V15.0875C5.16248 9.60606 9.60606 5.16248 15.0875 5.16248H44.9125C50.3939 5.16248 54.8375 9.60606 54.8375 15.0875V44.9125C54.8375 50.394 50.3939 54.8376 44.9125 54.8376Z" fill="#27A600"/>
<path opacity="0.2" d="M31.3589 31.7228L27.8646 30.454L27.3585 29.8052C26.6681 28.9202 25.4022 28.7379 24.4901 29.3923C23.5248 30.0849 23.3295 31.4415 24.0602 32.3783L24.9401 33.5062C25.1794 33.8129 25.5002 34.046 25.8658 34.1788L29.931 35.655C31.1976 36.1149 31.6941 37.643 30.9398 38.7596L28.5186 42.3434C28.3009 42.6658 28.1783 43.0429 28.1651 43.4316L28.0505 46.7864H32.2361L32.3252 44.1818L34.4062 41.1015C36.6871 37.725 35.1827 33.1114 31.3589 31.7228Z" fill="#18C51F"/>
<path d="M3.28137 20.206C2.59101 19.8903 2.2873 19.0747 2.60296 18.3845L8.91061 4.5908C9.22627 3.90021 10.0418 3.59686 10.7322 3.9124C11.4226 4.22805 11.7263 5.04367 11.4107 5.73391L5.103 19.5276C4.78627 20.2202 3.96982 20.5208 3.28137 20.206Z" fill="#FF8300"/>
<path d="M10.4497 20.206C9.75938 19.8903 9.45567 19.0747 9.77133 18.3845L16.079 4.5908C16.3946 3.90021 17.2102 3.59686 17.9006 3.9124C18.591 4.22805 18.8947 5.04367 18.579 5.73391L12.2714 19.5276C11.9548 20.2202 11.1382 20.5208 10.4497 20.206Z" fill="#FF8300"/>
<path d="M50.6381 16.3669C50.6381 12.8506 47.7875 10 44.2712 10C42.5295 10 40.9519 10.6999 39.8024 11.8333C39.5354 12.0967 39.1029 12.0967 38.8357 11.8333C37.6864 10.6999 36.1087 10 34.3669 10C30.8506 10 28 12.8506 28 16.3669C28 19.3136 30.7608 23.8822 36.6755 27.7761C38.2782 28.8312 40.3601 28.8312 41.9628 27.7761C47.8773 23.8822 50.6381 19.3135 50.6381 16.3669Z" fill="#FFDD00"/>
<path d="M20.0756 48.4776L15.919 49.6729C14.624 50.0453 13.3241 49.1008 13.2781 47.7542L13.1303 43.4317C13.1171 43.043 12.9946 42.6658 12.7768 42.3435L10.3556 38.7596C9.60134 37.643 10.0978 36.1149 11.3644 35.655L15.4297 34.1788C15.7953 34.046 16.1161 33.8129 16.3553 33.5062L19.0155 30.096C19.8443 29.0336 21.4511 29.0336 22.2799 30.096L24.9402 33.5062C25.1795 33.8129 25.5003 34.046 25.8658 34.1788L29.9311 35.655C31.1976 36.1149 31.6941 37.6431 30.9398 38.7596L28.5187 42.3434C28.3009 42.6658 28.1784 43.0429 28.1651 43.4316L28.0174 47.7541C27.9714 49.1007 26.6715 50.0452 25.3764 49.6727L21.2198 48.4775C20.846 48.3701 20.4495 48.3701 20.0756 48.4776Z" fill="url(#paint0_linear)"/>
<path d="M20.0756 48.4776L15.919 49.6729C14.624 50.0453 13.3241 49.1008 13.2781 47.7542L13.1303 43.4317C13.1171 43.043 12.9946 42.6658 12.7768 42.3435L10.3556 38.7596C9.60134 37.643 10.0978 36.1149 11.3644 35.655L15.4297 34.1788C15.7953 34.046 16.1161 33.8129 16.3553 33.5062L19.0155 30.096C19.8443 29.0336 21.4511 29.0336 22.2799 30.096L24.9402 33.5062C25.1795 33.8129 25.5003 34.046 25.8658 34.1788L29.9311 35.655C31.1976 36.1149 31.6941 37.6431 30.9398 38.7596L28.5187 42.3434C28.3009 42.6658 28.1784 43.0429 28.1651 43.4316L28.0174 47.7541C27.9714 49.1007 26.6715 50.0452 25.3764 49.6727L21.2198 48.4775C20.846 48.3701 20.4495 48.3701 20.0756 48.4776Z" fill="#FFDD00"/>
<path d="M52.0194 38.3624C49.0055 38.3624 46.5537 40.8144 46.5537 43.8284V46.5451H43.8369C40.8231 46.5451 38.3711 48.9971 38.3711 52.011C38.3711 55.0249 40.8231 57.4767 43.8369 57.4767C46.8508 57.4767 49.3027 55.0247 49.3027 52.011V49.2941H52.0195C55.0334 49.2941 57.4853 46.8422 57.4853 43.8284C57.4853 40.8144 55.0333 38.3624 52.0194 38.3624ZM46.5535 52.0109C46.5535 53.5088 45.3348 54.7276 43.8368 54.7276C42.3387 54.7276 41.12 53.5088 41.12 52.0109C41.12 50.5129 42.3387 49.294 43.8368 49.294H46.5535V52.0109ZM52.0194 46.5451H49.3026V43.8284C49.3026 42.3303 50.5213 41.1114 52.0193 41.1114C53.5174 41.1114 54.736 42.3302 54.736 43.8284C54.7363 45.3264 53.5175 46.5451 52.0194 46.5451Z" fill="#3B5CAD"/>
<defs>
<linearGradient id="paint0_linear" x1="20.6477" y1="50.5347" x2="20.6477" y2="30.295" gradientUnits="userSpaceOnUse">
<stop stop-color="#F4D952"/>
<stop offset="1" stop-color="#F9EDAF"/>
</linearGradient>
</defs>
</svg>
