<svg width="30" height="30" viewBox="0 0 30 30" fill="none" xmlns="http://www.w3.org/2000/svg">
<g clip-path="url(#clip0)">
<path d="M18.0379 15.1793H6.45322C5.669 15.1793 5.0332 14.5436 5.0332 13.7593V2.16089C5.0332 1.38423 5.66279 0.754639 6.43945 0.754639H18.0379C18.8221 0.754639 19.4579 1.39038 19.4579 2.17466V13.7593C19.4579 14.5436 18.8222 15.1793 18.0379 15.1793Z" fill="#E8EAEF"/>
<path d="M18.0368 0.754639H16.2031C16.9873 0.754639 17.6231 1.39038 17.6231 2.1746V13.7593C17.6231 14.5435 16.9873 15.1793 16.2031 15.1793H18.0368C18.821 15.1793 19.4567 14.5436 19.4567 13.7593V2.17466C19.4568 1.39038 18.821 0.754639 18.0368 0.754639Z" fill="#D8DBE3"/>
<path d="M12.8255 29.2455H1.42002C0.635742 29.2455 0 28.6097 0 27.8255V16.42C0 15.6357 0.635742 15 1.42002 15H12.8255C13.6097 15 14.2455 15.6357 14.2455 16.42V27.8255C14.2455 28.6097 13.6097 29.2455 12.8255 29.2455Z" fill="#E8EAEF"/>
<path d="M12.8246 15H11.0137C11.7979 15 12.4337 15.6357 12.4337 16.42V27.8255C12.4337 28.6097 11.7979 29.2455 11.0137 29.2455H12.8246C13.6088 29.2455 14.2446 28.6097 14.2446 27.8255V16.42C14.2446 15.6357 13.6088 15 12.8246 15Z" fill="#D8DBE3"/>
<path d="M1.81055 27.0552V17.1906C1.81055 16.981 1.98047 16.811 2.19012 16.811H12.0547C12.2644 16.811 12.4343 16.981 12.4343 17.1906V27.0552C12.4343 27.2649 12.2644 27.4348 12.0547 27.4348H2.19018C1.98053 27.4347 1.81055 27.2648 1.81055 27.0552Z" fill="#FFDD00"/>
<path d="M12.0566 16.811H10.2988C10.5085 16.811 10.6784 16.981 10.6784 17.1906V27.0552C10.6784 27.2649 10.5085 27.4348 10.2988 27.4348H12.0566C12.2663 27.4348 12.4362 27.2649 12.4362 27.0552V17.1906C12.4362 16.981 12.2663 16.811 12.0566 16.811Z" fill="#F5D500"/>
<path d="M6.86719 12.9662V2.96795C6.86719 2.7583 7.03711 2.58838 7.24676 2.58838H17.245C17.4547 2.58838 17.6246 2.7583 17.6246 2.96795V12.9662C17.6246 13.1759 17.4547 13.3458 17.245 13.3458H7.24676C7.03711 13.3457 6.86719 13.1758 6.86719 12.9662Z" fill="#27A600"/>
<path d="M17.2441 2.58838H15.4863C15.696 2.58838 15.8659 2.7583 15.8659 2.96795V12.9662C15.8659 13.1759 15.696 13.3458 15.4863 13.3458H17.2441C17.4538 13.3458 17.6237 13.1759 17.6237 12.9662V2.96795C17.6238 2.7583 17.4538 2.58838 17.2441 2.58838Z" fill="#289906"/>
<path d="M14.5804 9.79898L12.9451 5.46568C12.9435 5.46164 12.942 5.45766 12.9403 5.45367C12.8568 5.2507 12.6612 5.11963 12.4418 5.11963H12.4413C12.2217 5.1198 12.0261 5.25129 11.9429 5.45449C11.9415 5.45783 11.9402 5.46117 11.939 5.46451L10.2887 9.79764C10.2023 10.0245 10.3161 10.2783 10.5429 10.3647C10.7697 10.4511 11.0236 10.3372 11.11 10.1105L11.4132 9.31436H13.4581L13.7581 10.1092C13.8246 10.2852 13.9917 10.3937 14.1694 10.3937C14.2209 10.3937 14.2734 10.3845 14.3244 10.3652C14.5515 10.2796 14.6661 10.026 14.5804 9.79898ZM11.7479 8.43551L12.4403 6.61752L13.1264 8.43551H11.7479Z" fill="white"/>
<path d="M8.40823 21.446C8.59128 21.2032 8.70003 20.9013 8.70003 20.5745C8.70003 19.7746 8.04922 19.1238 7.2493 19.1238H5.97266C5.72996 19.1238 5.5332 19.3205 5.5332 19.5632V23.9582C5.5332 24.0751 5.57979 24.1872 5.66258 24.2697C5.74496 24.3517 5.85647 24.3977 5.97266 24.3977H5.97459C5.97471 24.3977 7.14864 24.3925 7.47225 24.3925C8.36686 24.3925 9.09471 23.6646 9.09471 22.77C9.09466 22.2238 8.82313 21.7402 8.40823 21.446ZM7.2493 20.0026C7.56459 20.0026 7.82112 20.2592 7.82112 20.5744C7.82112 20.8897 7.56459 21.1463 7.2493 21.1463C7.15461 21.1463 6.97555 21.1468 6.78084 21.1475H6.41211V20.0026H7.2493ZM7.47219 23.5135C7.2786 23.5135 6.7816 23.5154 6.41205 23.5169V22.0279C6.53053 22.0274 6.65996 22.0269 6.78319 22.0265H7.47213C7.88211 22.0265 8.21569 22.36 8.21569 22.77C8.21569 23.1799 7.88217 23.5135 7.47219 23.5135Z" fill="#64580D"/>
<path d="M28.5794 29.2455H17.1739C16.3897 29.2455 15.7539 28.6097 15.7539 27.8255V16.4062C15.7539 15.6296 16.3835 15 17.1602 15H28.5794C29.3637 15 29.9994 15.6357 29.9994 16.42V27.8255C29.9994 28.6097 29.3637 29.2455 28.5794 29.2455Z" fill="#E8EAEF"/>
<path d="M28.5804 15H26.7695C27.5537 15 28.1895 15.6357 28.1895 16.42V27.8255C28.1895 28.6097 27.5537 29.2455 26.7695 29.2455H28.5804C29.3646 29.2455 30.0004 28.6097 30.0004 27.8255V16.42C30.0004 15.6357 29.3646 15 28.5804 15Z" fill="#D8DBE3"/>
<path d="M17.5645 27.0552V17.1906C17.5645 16.981 17.7344 16.811 17.944 16.811H27.8086C28.0183 16.811 28.1882 16.981 28.1882 17.1906V27.0552C28.1882 27.2649 28.0183 27.4348 27.8086 27.4348H17.944C17.7344 27.4347 17.5645 27.2648 17.5645 27.0552Z" fill="#FF8300"/>
<path d="M27.8105 16.811H26.0527C26.2624 16.811 26.4323 16.981 26.4323 17.1906V27.0552C26.4323 27.2649 26.2624 27.4348 26.0527 27.4348H27.8105C28.0202 27.4348 28.1901 27.2649 28.1901 27.0552V17.1906C28.1901 16.981 28.0202 16.811 27.8105 16.811Z" fill="#E17400"/>
<path d="M24.8953 23.182C24.7093 23.026 24.4321 23.0505 24.2763 23.2366C24.2348 23.2861 24.1897 23.3326 24.1425 23.3747C23.9003 23.5904 23.593 23.6997 23.2287 23.6997C22.2594 23.6997 21.4707 22.9111 21.4707 21.9416C21.4707 20.9722 22.2594 20.1836 23.2287 20.1836C23.5811 20.1836 23.9209 20.2874 24.2114 20.4836C24.4126 20.6195 24.6857 20.5666 24.8216 20.3655C24.9574 20.1643 24.9045 19.8912 24.7034 19.7553C24.2671 19.4605 23.7571 19.3047 23.2287 19.3047C21.7747 19.3047 20.5918 20.4876 20.5918 21.9416C20.5918 23.3957 21.7747 24.5786 23.2287 24.5786C23.8067 24.5786 24.3249 24.3892 24.727 24.031C24.8061 23.9606 24.8811 23.8833 24.95 23.8011C25.1058 23.615 25.0814 23.3378 24.8953 23.182Z" fill="white"/>
</g>
<defs>
<clipPath id="clip0">
<rect width="30" height="30" fill="white"/>
</clipPath>
</defs>
</svg>
