<svg width="30" height="30" viewBox="0 0 30 30" fill="none" xmlns="http://www.w3.org/2000/svg">
<g clip-path="url(#clip0)">
<path d="M23.6098 1.36633H6.49108C3.57707 1.36633 1.21484 3.72856 1.21484 6.64257V24.7075H16.4551L28.7854 21.0728V6.54193C28.7854 3.68356 26.4683 1.36633 23.6098 1.36633Z" fill="#27A600"/>
<path d="M1.21484 6.64263V24.7076H6.49108V1.36633C3.57708 1.36633 1.21484 3.72862 1.21484 6.64263Z" fill="#289906"/>
<path d="M3.12305 22.1451H27.1284V27.2695H3.12305V22.1451Z" fill="#FFDD00"/>
<path d="M27.1277 30H6.50733C3.58909 30 1.21484 27.6258 1.21484 24.7075C1.21484 21.7892 3.58909 19.415 6.50733 19.415H27.1277C28.0433 19.415 28.7854 20.1573 28.7854 21.0728C28.7854 21.9883 28.0433 22.7306 27.1277 22.7306H6.50733C5.41723 22.7306 4.53038 23.6174 4.53038 24.7076C4.53038 25.7977 5.41723 26.6846 6.50733 26.6846H27.1277C28.0433 26.6846 28.7854 27.4268 28.7854 28.3424C28.7854 29.2578 28.0433 30 27.1277 30Z" fill="#FF8300"/>
<path d="M10.6554 7.11741L11.3989 6.63586C11.8431 6.34811 12.415 6.34811 12.8592 6.63586L13.6027 7.11741C14.4964 7.69626 15.6761 7.05478 15.6761 5.99002V1.36626C15.676 0.611713 15.0644 0 14.3098 0H9.94829C9.19368 0 8.58203 0.611713 8.58203 1.36626V5.99002C8.58197 7.05478 9.76165 7.69626 10.6554 7.11741Z" fill="#3B5CAD"/>
<path opacity="0.2" d="M12.3867 14.84C12.8797 14.84 13.2793 14.5189 13.2793 14.1227C13.2793 13.7265 12.8797 13.4054 12.3867 13.4054C11.8938 13.4054 11.4941 13.7265 11.4941 14.1227C11.4941 14.5189 11.8938 14.84 12.3867 14.84Z" fill="#EAADCD"/>
<path opacity="0.2" d="M22.8906 14.84C23.3836 14.84 23.7832 14.5189 23.7832 14.1227C23.7832 13.7265 23.3836 13.4054 22.8906 13.4054C22.3977 13.4054 21.998 13.7265 21.998 14.1227C21.998 14.5189 22.3977 14.84 22.8906 14.84Z" fill="#EAADCD"/>
<path d="M13.9165 14.1224C14.894 14.1224 15.6865 13.3299 15.6865 12.3524C15.6865 11.3749 14.894 10.5824 13.9165 10.5824C12.9389 10.5824 12.1465 11.3749 12.1465 12.3524C12.1465 13.3299 12.9389 14.1224 13.9165 14.1224Z" fill="white"/>
<path d="M15.6587 12.6017C15.7927 12.0348 15.4418 11.4666 14.875 11.3326C14.3081 11.1986 13.7399 11.5495 13.6059 12.1164C13.4719 12.6833 13.8228 13.2515 14.3897 13.3854C14.9566 13.5194 15.5247 13.1685 15.6587 12.6017Z" fill="#3B3B44"/>
<path d="M21.3598 14.1224C22.3374 14.1224 23.1299 13.3299 23.1299 12.3524C23.1299 11.3749 22.3374 10.5824 21.3598 10.5824C20.3823 10.5824 19.5898 11.3749 19.5898 12.3524C19.5898 13.3299 20.3823 14.1224 21.3598 14.1224Z" fill="white"/>
<path d="M22.8156 13.0997C23.2275 12.6878 23.2275 12.02 22.8156 11.6081C22.4037 11.1962 21.7358 11.1962 21.3239 11.6081C20.912 12.02 20.912 12.6878 21.3239 13.0997C21.7358 13.5116 22.4037 13.5116 22.8156 13.0997Z" fill="#3B3B44"/>
<path d="M17.6396 14.7308C18.077 14.7308 18.4316 14.2665 18.4316 13.6938C18.4316 13.1211 18.077 12.6569 17.6396 12.6569C17.2022 12.6569 16.8477 13.1211 16.8477 13.6938C16.8477 14.2665 17.2022 14.7308 17.6396 14.7308Z" fill="#3B3B44"/>
</g>
<defs>
<clipPath id="clip0">
<rect width="30" height="30" fill="white"/>
</clipPath>
</defs>
</svg>
