<svg width="31" height="30" viewBox="0 0 31 30" fill="none" xmlns="http://www.w3.org/2000/svg">
<path d="M4.06705 21.3551C3.78622 21.3551 3.55859 21.1275 3.55859 20.8467V7.11783C3.55859 6.837 3.78628 6.60938 4.06705 6.60938C4.34788 6.60938 4.5755 6.83706 4.5755 7.11783V20.8467C4.5755 21.1274 4.34788 21.3551 4.06705 21.3551Z" fill="#95A5A5"/>
<path d="M12.7109 24.9141H15.7618V28.4734C15.7618 29.035 15.3065 29.4903 14.7448 29.4903H13.7279C13.1662 29.4903 12.7109 29.035 12.7109 28.4734V24.9141Z" fill="#2C3E50"/>
<path d="M24.4063 24.9141H27.4572V28.4734C27.4572 29.035 27.0019 29.4903 26.4402 29.4903H25.4232C24.8616 29.4903 24.4062 29.035 24.4062 28.4734V24.9141H24.4063Z" fill="#2C3E50"/>
<path d="M28.1945 0H11.9742C10.9158 0.066797 10.1097 0.975141 10.1691 2.03388V22.8814L11.3727 25.6473C11.4388 25.815 11.5986 25.9271 11.7787 25.9322H28.39C28.5701 25.9271 28.7299 25.815 28.796 25.6473L29.9996 22.8814V2.03388C30.059 0.975081 29.2529 0.066797 28.1945 0Z" fill="#27A600"/>
<path d="M30.0005 22.8809L28.7969 25.6468C28.7308 25.8144 28.571 25.9265 28.3909 25.9317H11.7795C11.5994 25.9265 11.4397 25.8144 11.3735 25.6468L10.1699 22.8809H30.0005Z" fill="#FF8300"/>
<path d="M13.2201 2.0332H26.9489C27.5106 2.0332 27.9659 2.48851 27.9659 3.05017V3.55863C27.9659 4.1203 27.5106 4.5756 26.9489 4.5756H13.2201C12.6584 4.5756 12.2031 4.1203 12.2031 3.55863V3.05017C12.2031 2.48851 12.6584 2.0332 13.2201 2.0332Z" fill="#FF8300"/>
<path d="M13.7286 20.8466C14.571 20.8466 15.254 20.1637 15.254 19.3212C15.254 18.4787 14.571 17.7958 13.7286 17.7958C12.8861 17.7958 12.2031 18.4787 12.2031 19.3212C12.2031 20.1637 12.8861 20.8466 13.7286 20.8466Z" fill="#FFDD00"/>
<path d="M26.4395 20.8458C27.282 20.8458 27.9649 20.1628 27.9649 19.3203C27.9649 18.4779 27.282 17.7949 26.4395 17.7949C25.597 17.7949 24.9141 18.4779 24.9141 19.3203C24.9141 20.1628 25.597 20.8458 26.4395 20.8458Z" fill="#FFDD00"/>
<path d="M13.2201 6.60938H26.9489C27.5106 6.60938 27.9659 7.06468 27.9659 7.62635V14.745C27.9659 15.3067 27.5106 15.762 26.9489 15.762H13.2201C12.6584 15.762 12.2031 15.3067 12.2031 14.745V7.62635C12.2031 7.06468 12.6584 6.60938 13.2201 6.60938Z" fill="#EAF6FF"/>
<path d="M18.306 20.3379H21.8653C22.427 20.3379 22.8823 20.7932 22.8823 21.3549V22.8803H17.2891V21.3549C17.2891 20.7932 17.7444 20.3379 18.306 20.3379Z" fill="#3B5CAD"/>
<path d="M4.06712 9.15182C6.03287 9.15182 7.62643 7.55826 7.62643 5.59251C7.62643 3.62676 6.03287 2.0332 4.06712 2.0332C2.10137 2.0332 0.507812 3.62676 0.507812 5.59251C0.507812 7.55826 2.10137 9.15182 4.06712 9.15182Z" fill="#FF8300"/>
<path d="M3.55988 18.8145H4.57685C5.13852 18.8145 5.59382 19.2698 5.59382 19.8314V29.4924H2.54297V19.8314C2.54297 19.2698 2.99827 18.8145 3.55988 18.8145Z" fill="#7F8C8D"/>
<path d="M30.0001 30.0003H0.508455C0.227682 30.0003 0 29.7727 0 29.4919C0 29.211 0.227682 28.9834 0.508455 28.9834H30C30.2808 28.9834 30.5085 29.2111 30.5085 29.4919C30.5085 29.7727 30.2809 30.0003 30.0001 30.0003Z" fill="#BDC3C7"/>
</svg>
