<svg width="30" height="30" viewBox="0 0 30 30" fill="none" xmlns="http://www.w3.org/2000/svg">
<g clip-path="url(#clip0)">
<path d="M15 30C23.2843 30 30 23.2843 30 15C30 6.71573 23.2843 0 15 0C6.71573 0 0 6.71573 0 15C0 23.2843 6.71573 30 15 30Z" fill="#FFD93B"/>
<path d="M14.999 24.8765C10.9697 24.8765 7.42873 22.2946 6.18841 18.4518C6.06935 18.0824 6.27185 17.6859 6.64123 17.5668C7.01248 17.4468 7.40716 17.6503 7.52623 18.0196C8.57904 21.2793 11.5819 23.4703 14.999 23.4703C18.4162 23.4703 21.419 21.2803 22.4719 18.0196C22.5909 17.6503 22.9856 17.4468 23.3569 17.5668C23.7262 17.6859 23.9287 18.0824 23.8097 18.4518C22.5694 22.2946 19.0284 24.8765 14.999 24.8765Z" fill="#3E4347"/>
<path d="M30.0008 15.0001C30.0008 23.2876 23.2836 30.0001 15.0008 30.0001C10.2852 30.0001 6.07578 27.8251 3.32422 24.4172C5.89766 26.4985 9.17422 27.7407 12.7414 27.7407C21.0242 27.7407 27.7414 21.0282 27.7414 12.7407C27.7414 9.17349 26.4992 5.89692 24.418 3.32349C27.8211 6.07505 30.0008 10.2844 30.0008 15.0001Z" fill="#F4C534"/>
<path d="M12.5062 12.5493C11.8012 11.5875 10.53 10.9481 9.08062 10.9481C7.62469 10.9546 6.35344 11.594 5.64844 12.5559C5.68125 10.6912 7.20375 9.18933 9.08062 9.18933C10.9444 9.18933 12.4734 10.6846 12.5062 12.5493Z" fill="#3E4347"/>
<path d="M24.352 12.5493C23.647 11.5875 22.3757 10.9481 20.9263 10.9481C19.4704 10.9546 18.1991 11.594 17.4941 12.5559C17.527 10.6912 19.0495 9.18933 20.9263 9.18933C22.791 9.18933 24.3191 10.6846 24.352 12.5493Z" fill="#3E4347"/>
</g>
<defs>
<clipPath id="clip0">
<rect width="30" height="30" fill="white"/>
</clipPath>
</defs>
</svg>
