<svg width="28" height="34" viewBox="0 0 28 34" fill="none" xmlns="http://www.w3.org/2000/svg">
<path d="M4.89424 31.3506C4.74142 31.3251 4.5886 31.2869 4.43578 31.2105C3.59525 30.8157 3.23866 29.8351 3.63346 28.9946L5.69656 24.5627C6.09136 23.7222 7.07197 23.3656 7.9125 23.7604C8.75302 24.1552 9.10961 25.1358 8.71482 25.9763L6.65171 30.4082C6.33333 31.0832 5.60742 31.4525 4.89424 31.3506Z" fill="#EDA398"/>
<path d="M22.7739 31.58C22.1753 31.58 21.6022 31.2616 21.3093 30.7013L18.9788 26.3968C18.5458 25.5817 18.8387 24.5756 19.6538 24.1299C20.4688 23.6969 21.4749 23.9898 21.9206 24.8049L24.2512 29.1094C24.6842 29.9244 24.3913 30.9305 23.5762 31.3763C23.3088 31.5163 23.0413 31.58 22.7739 31.58Z" fill="#EDA398"/>
<path d="M20.1854 28.7144C21.9302 28.8163 23.815 26.9188 23.815 26.9188C23.815 26.9188 22.6561 21.8119 19.1284 21.4426C16.7215 21.2134 14.6074 21.3025 14.1235 21.328C13.6268 21.3025 11.4236 21.2134 9.01664 21.4426C5.48898 21.8119 4.33008 26.9188 4.33008 26.9188C4.33008 26.9188 6.22763 28.8163 7.95962 28.7144L7.43748 28.689C7.43748 28.689 10.2774 29.9752 14.0725 30.0007C14.0853 30.0007 14.1107 30.0007 14.1235 30.0007C14.1362 30.0007 14.1617 30.0007 14.1744 30.0007C17.9695 29.9752 20.7076 28.689 20.7076 28.689L20.1854 28.7144Z" fill="#F26952"/>
<path opacity="0.3" d="M3.14648 21.8246C3.14648 21.8246 14.2007 25.6197 26.0317 20.7676" stroke="#FEE9CD" stroke-width="6.5501" stroke-miterlimit="10"/>
<path opacity="0.3" d="M3.14648 24.0788C3.14648 24.0788 14.2007 27.8739 26.0317 23.0217" stroke="#FEE9CD" stroke-width="6.5501" stroke-miterlimit="10"/>
<path opacity="0.3" d="M3.14648 26.3202C3.14648 26.3202 14.2007 30.1153 26.0317 25.2632" stroke="#FEE9CD" stroke-width="6.5501" stroke-miterlimit="10"/>
<path opacity="0.3" d="M3.14648 28.5744C3.14648 28.5744 14.2007 32.3695 26.0317 27.5173" stroke="#FEE9CD" stroke-width="6.5501" stroke-miterlimit="10"/>
<path d="M11.464 21.5064C10.7891 21.621 10.7891 22.1686 10.7891 22.1686C10.7891 23.3275 11.7315 24.2699 12.8904 24.2699H14.304C15.6412 24.2699 16.7364 23.3275 16.7364 21.9903C16.7364 21.9903 16.7874 21.3917 16.0742 21.3917C15.17 21.3917 13.4635 21.1625 11.464 21.5064Z" fill="#F1583A"/>
<path d="M4.19163 26.9698C4.2553 26.8806 4.38265 26.8551 4.48454 26.9061C4.93027 27.1863 6.33114 27.9504 7.84664 27.9886C7.96125 27.9886 8.06314 28.0777 8.06314 28.1923L8.07587 28.5999C8.07587 28.7272 7.97399 28.8291 7.85937 28.8291C6.10191 28.8036 4.57368 27.9249 4.05154 27.6447C3.72042 27.4537 4.19163 26.9698 4.19163 26.9698Z" fill="#F1583A"/>
<path d="M23.9311 26.9698C23.8674 26.8806 23.7401 26.8551 23.6382 26.9061C23.1925 27.1863 21.7916 27.9504 20.2761 27.9886C20.1615 27.9886 20.0596 28.0777 20.0596 28.1923L20.0469 28.5999C20.0469 28.7272 20.1488 28.8291 20.2634 28.8291C22.0208 28.8036 23.5491 27.9249 24.0712 27.6447C24.4023 27.4537 23.9311 26.9698 23.9311 26.9698Z" fill="#F1583A"/>
<path d="M8.49649 20.7804C8.01255 20.7804 7.52861 20.6913 7.08288 20.5003C6.02585 20.0545 5.19806 19.0739 4.94336 17.9405L5.01977 17.9277C5.26174 19.023 6.06406 19.9908 7.10835 20.4238C8.15264 20.8696 9.38796 20.7677 10.3558 20.1819L10.394 20.2583C9.83369 20.6021 9.17146 20.7804 8.49649 20.7804Z" fill="#0B0B0B"/>
<path d="M4.7012 16.2975C4.11538 16.2975 3.50409 16.0938 2.99468 15.7117C2.31972 15.2023 1.81031 14.3872 1.50466 13.3684C0.931575 11.4072 1.27543 9.21673 2.4216 7.52294C3.30033 6.22395 4.56112 5.4471 5.79643 5.42163V5.51078C4.58659 5.53625 3.35127 6.30036 2.49801 7.57389C1.36457 9.2422 1.02072 11.4072 1.59381 13.3557C1.79757 14.0561 2.21783 15.024 3.04562 15.6608C3.82247 16.2466 4.86676 16.3994 5.63088 16.0301L5.66908 16.1065C5.37617 16.2338 5.04506 16.2975 4.7012 16.2975Z" fill="#0B0B0B"/>
<path d="M22.4671 10.1594C22.4289 10.1594 22.3907 10.1594 22.3524 10.1467L22.3652 10.0702C22.6454 10.1212 22.9128 9.94289 23.0656 9.73913C23.2312 9.49716 23.2949 9.20425 23.3203 8.94954C23.575 6.88644 22.5689 4.74692 20.8242 3.62622L20.8752 3.5498C22.6581 4.68324 23.6769 6.86097 23.4095 8.96228C23.3713 9.22972 23.3203 9.53536 23.142 9.79007C22.9892 9.9811 22.7472 10.1594 22.4671 10.1594Z" fill="#0B0B0B"/>
<path d="M17.7676 19.2269C17.9841 19.558 18.3916 19.6853 18.7482 19.6344C19.1175 19.5835 19.4486 19.3797 19.7415 19.1377C21.257 17.9279 22.123 15.7502 21.9193 13.6743" stroke="#873B07" stroke-width="0.6194" stroke-miterlimit="10"/>
<path d="M6.54811 4.81034C6.54811 4.81034 3.56807 5.6254 2.47284 8.32527C1.49223 10.745 1.13564 13.916 3.17328 14.9221C3.17328 14.9221 4.4086 18.3988 5.27459 18.6153C6.15332 18.8318 6.67547 21.0732 10.2923 20.7167C13.9091 20.3601 16.2142 21.1242 17.8952 19.545C17.8952 19.545 19.4744 19.7615 20.9644 17.0744C21.996 15.215 22.1997 13.3557 22.3016 12.1968C22.4035 11.0379 22.378 9.87897 22.378 9.87897C22.378 9.87897 23.3586 9.14032 23.1549 7.66304C22.9384 6.18575 22.0724 4.5429 20.9771 3.72785C20.9771 3.72785 21.3592 2.9892 19.5381 1.69021C17.7296 0.378481 15.9722 0.977037 15.9722 0.977037C15.9722 0.977037 12.7374 -2.1431 6.54811 4.81034Z" fill="#0B0B0B"/>
<path d="M13.8075 23.4422H13.6929C12.5722 23.4422 11.668 23.0856 11.668 21.9649V18.5901C11.668 17.4694 12.5722 16.5652 13.6929 16.5652H13.8075C14.9282 16.5652 15.8324 17.4694 15.8324 18.5901V21.9649C15.8451 23.0856 14.9282 23.4422 13.8075 23.4422Z" fill="#FCBCB1"/>
<path opacity="0.2" d="M15.8441 20.8442V18.5901C15.8441 17.4694 14.9399 16.5652 13.8192 16.5652H13.7046C12.5839 16.5652 11.6797 17.4694 11.6797 18.5901V21.1881C12.5584 21.3154 14.0357 21.3791 15.8441 20.8442Z" fill="#993028"/>
<path d="M7.42689 16.4506C7.49057 17.8769 6.39534 19.0741 4.98173 19.1377C3.56812 19.2014 2.37101 18.0934 2.30733 16.6671C2.24365 15.2407 3.33888 14.0436 4.75249 13.98C6.16611 13.929 7.36322 15.037 7.42689 16.4506Z" fill="#EDA398"/>
<path opacity="0.2" d="M5.14388 19.0593C6.24704 19.0106 7.10809 18.2192 7.06711 17.2917C7.02613 16.3642 6.09863 15.6518 4.99548 15.7006C3.89233 15.7493 3.03127 16.5407 3.07225 17.4682C3.11323 18.3957 4.04073 19.108 5.14388 19.0593Z" fill="#993028"/>
<path opacity="0.2" d="M5.14388 19.0593C6.24704 19.0106 7.10809 18.2192 7.06711 17.2917C7.02613 16.3642 6.09863 15.6518 4.99548 15.7006C3.89233 15.7493 3.03127 16.5407 3.07225 17.4682C3.11323 18.3957 4.04073 19.108 5.14388 19.0593Z" fill="#993028"/>
<path opacity="0.5" d="M2.75408 17.0489C2.88143 16.8834 3.00878 16.7305 3.16161 16.6032C3.30169 16.4631 3.46725 16.3357 3.63281 16.2339C3.96393 16.0046 4.35872 15.8518 4.75351 15.7627C4.95728 15.7117 5.16104 15.699 5.3648 15.699L5.67045 15.7244C5.77233 15.7244 5.87421 15.7627 5.97609 15.7754C6.17986 15.8009 6.37089 15.89 6.54918 15.9537C6.65106 15.9791 6.72747 16.0428 6.81662 16.081L7.08406 16.2211C7.12226 16.2466 7.135 16.2975 7.12227 16.3357C7.0968 16.3739 7.05859 16.3867 7.00765 16.3739H6.99491L6.74021 16.2466C6.65106 16.2084 6.57465 16.1574 6.47277 16.132C6.29447 16.081 6.11618 16.0046 5.92515 15.9791C5.55583 15.9027 5.17377 15.9155 4.80445 15.9919C4.43513 16.0683 4.09128 16.2339 3.76016 16.4249C3.44178 16.6286 3.13614 16.8706 2.88143 17.1508C2.85596 17.189 2.79229 17.189 2.76681 17.1508C2.72861 17.1253 2.72861 17.0871 2.75408 17.0489Z" fill="#993028"/>
<path opacity="0.5" d="M4.585 17.4822C4.76329 17.2147 4.99253 16.9982 5.24723 16.8199C5.51467 16.6416 5.80758 16.527 6.12596 16.4506C6.27879 16.4124 6.44434 16.3997 6.59717 16.3997C6.76273 16.4124 6.91555 16.4124 7.06837 16.4633C7.22119 16.4888 7.37402 16.5525 7.5141 16.6034C7.65419 16.6671 7.79428 16.7435 7.92163 16.8199C7.9471 16.8327 7.95984 16.8709 7.9471 16.9091C7.93437 16.9345 7.89616 16.9473 7.87069 16.9345H7.85796C7.71787 16.8836 7.59052 16.8072 7.45043 16.7562C7.31034 16.718 7.17025 16.6671 7.03017 16.6544C6.73726 16.6034 6.44435 16.6162 6.16417 16.6798C5.88399 16.7435 5.61655 16.8581 5.36185 17.0237C5.11988 17.1765 4.87791 17.3675 4.66141 17.5586C4.63594 17.584 4.59774 17.584 4.57227 17.5586C4.57227 17.5331 4.57227 17.5076 4.585 17.4822Z" fill="#993028"/>
<path d="M23.1418 14.7211C24.4093 14.095 24.9242 12.5496 24.2919 11.2695C23.6595 9.98932 22.1193 9.45913 20.8517 10.0853C19.5842 10.7114 19.0693 12.2568 19.7016 13.5369C20.334 14.8171 21.8742 15.3473 23.1418 14.7211Z" fill="#EDA398"/>
<path opacity="0.2" d="M20.4155 14.1075C20.8231 14.948 21.9692 15.2154 22.9626 14.7315C23.9559 14.2475 24.4271 13.1651 24.0069 12.3373C23.5994 11.4967 22.4532 11.2293 21.4598 11.7132C20.4665 12.1972 19.9953 13.2669 20.4155 14.1075Z" fill="#993028"/>
<path opacity="0.5" d="M24.0831 11.8021C23.892 11.7129 23.7137 11.6493 23.51 11.5983C23.319 11.5474 23.1152 11.5219 22.9114 11.4964C22.5039 11.4582 22.0964 11.5092 21.7016 11.6238C21.4978 11.6747 21.3195 11.7639 21.1412 11.853L20.8865 12.0186C20.7974 12.0695 20.7337 12.1459 20.6446 12.2096C20.479 12.337 20.3516 12.4898 20.2243 12.6426C20.1479 12.719 20.1097 12.8082 20.046 12.8846L19.8804 13.1393C19.855 13.1775 19.8677 13.2284 19.9059 13.2539C19.9441 13.2794 19.9951 13.2666 20.0205 13.2284V13.2157L20.1861 12.9865C20.2498 12.91 20.288 12.8209 20.3644 12.7572C20.5045 12.6171 20.6191 12.477 20.7719 12.3624C21.0648 12.1205 21.4087 11.9422 21.7653 11.8403C22.1218 11.7257 22.5039 11.7002 22.886 11.7257C23.268 11.7511 23.6501 11.8148 24.0067 11.9422C24.0449 11.9549 24.0958 11.9294 24.1085 11.8912C24.1467 11.853 24.1213 11.8148 24.0831 11.8021Z" fill="#993028"/>
<path opacity="0.5" d="M22.6828 13.0627C22.4027 12.9099 22.097 12.8335 21.7786 12.808C21.4603 12.7826 21.1419 12.8208 20.8362 12.9099C20.6834 12.9481 20.5306 13.0245 20.3905 13.1009C20.2504 13.1901 20.1231 13.2665 20.0084 13.3811C19.8811 13.483 19.7919 13.6104 19.6901 13.725C19.5882 13.8523 19.5118 13.9924 19.4354 14.1198C19.4226 14.1452 19.4226 14.1834 19.4608 14.2089C19.4863 14.2217 19.5245 14.2217 19.55 14.1962L19.5627 14.1834C19.6646 14.0688 19.741 13.9415 19.8429 13.8396C19.9448 13.7377 20.0466 13.6231 20.1613 13.5339C20.3905 13.3429 20.6452 13.2156 20.9254 13.1392C21.2055 13.0627 21.4985 13.0373 21.7914 13.05C22.0843 13.0627 22.3772 13.1137 22.6574 13.1901C22.6956 13.2028 22.721 13.1774 22.7338 13.1392C22.721 13.1137 22.7083 13.0755 22.6828 13.0627Z" fill="#993028"/>
<path d="M21.3975 10.7325C21.8815 15.3682 19.8566 19.7109 14.1767 20.284C8.85333 20.8061 5.42755 17.0747 4.94361 12.4391C4.45967 7.80344 7.7581 3.67723 12.3046 3.20602C16.8511 2.73482 20.9263 6.10966 21.3975 10.7325Z" fill="#FCBCB1"/>
<path d="M15.1061 10.3757C14.8514 10.3757 14.584 10.312 14.3293 10.1974C13.8963 9.99366 13.5015 9.62434 13.1831 9.11493C13.0685 8.93664 12.9793 8.74561 12.8902 8.54185C12.9029 8.61826 12.9029 8.69467 12.9029 8.77108C12.9029 9.21681 12.6992 9.62434 12.3808 9.80263C12.0624 9.98093 11.6676 9.99366 11.2728 9.84084C9.52809 9.1404 8.30551 8.09611 7.73242 6.83532L7.80883 6.79712C8.36918 8.04517 9.57903 9.07673 11.2983 9.76443C11.6676 9.91725 12.0369 9.90452 12.3298 9.73896C12.6228 9.5734 12.8138 9.20408 12.801 8.78382C12.801 8.50364 12.7246 8.2362 12.6355 7.9815C12.5973 7.87961 12.5591 7.77773 12.5209 7.67585L12.5973 7.65038C12.6355 7.75226 12.6737 7.84141 12.7119 7.94329C12.8647 8.32535 13.0175 8.72014 13.234 9.07673C13.5397 9.5734 13.9217 9.94272 14.342 10.1338C14.8387 10.363 15.399 10.3502 15.8193 10.1083C16.2778 9.8281 16.4943 9.25502 16.3414 8.79655L16.4179 8.77108C16.6853 9.38237 17.2074 9.87905 17.8187 10.1338C18.0734 10.2356 18.5701 10.3885 18.9904 10.1592C19.1814 10.0573 19.3215 9.85357 19.3724 9.63708C19.4106 9.45878 19.3724 9.29322 19.2833 9.16587L19.347 9.11493C19.4616 9.25502 19.4998 9.44605 19.4488 9.64981C19.3979 9.89178 19.2323 10.121 19.0286 10.2356C18.5828 10.4776 18.0607 10.3248 17.7805 10.2229C17.2329 9.99366 16.7617 9.58614 16.4688 9.07673C16.4943 9.49699 16.2523 9.95546 15.8575 10.1974C15.6665 10.312 15.3863 10.3757 15.1061 10.3757Z" fill="#0B0B0B"/>
<path opacity="0.4" d="M13.475 17.1256C13.5132 18.0553 12.3288 18.8703 10.8261 18.934C9.32333 18.9977 8.07528 18.2972 8.02434 17.3676C7.98613 16.4379 9.17051 15.6228 10.6733 15.5592C12.1888 15.4828 13.4368 16.1832 13.475 17.1256Z" fill="url(#paint0_radial)"/>
<path opacity="0.4" d="M20.7993 14.3875C21.1177 15.2663 20.2262 16.3997 18.8126 16.9091C17.399 17.4185 15.9981 17.1256 15.6797 16.2341C15.3614 15.3554 16.2528 14.222 17.6664 13.7126C19.08 13.2031 20.4809 13.5088 20.7993 14.3875Z" fill="url(#paint1_radial)"/>
<path d="M10.1005 16.1703C11.1204 16.1703 11.9471 15.3379 11.9471 14.311C11.9471 13.2841 11.1204 12.4517 10.1005 12.4517C9.08066 12.4517 8.25391 13.2841 8.25391 14.311C8.25391 15.3379 9.08066 16.1703 10.1005 16.1703Z" fill="black" stroke="black" stroke-width="1.0171" stroke-miterlimit="10"/>
<path d="M10.1522 16.2977C11.1651 16.2977 11.9861 15.471 11.9861 14.4511C11.9861 13.4312 11.1651 12.6045 10.1522 12.6045C9.13941 12.6045 8.31836 13.4312 8.31836 14.4511C8.31836 15.471 9.13941 16.2977 10.1522 16.2977Z" fill="white"/>
<path d="M10.1531 15.6481C10.8072 15.6481 11.3375 15.1122 11.3375 14.451C11.3375 13.7899 10.8072 13.2539 10.1531 13.2539C9.49901 13.2539 8.96875 13.7899 8.96875 14.451C8.96875 15.1122 9.49901 15.6481 10.1531 15.6481Z" fill="black"/>
<path d="M9.54178 14.3493C9.54178 14.5149 9.35075 14.6422 9.10878 14.6422C8.86681 14.6422 8.67578 14.5149 8.67578 14.3493C8.67578 14.1837 8.86681 14.0564 9.10878 14.0564C9.35075 14.0691 9.54178 14.1965 9.54178 14.3493Z" fill="white"/>
<path d="M15.716 13.0501C16.098 14.0053 17.1805 14.4637 18.1229 14.0817C19.0654 13.6996 19.5238 12.6171 19.1418 11.662C18.7597 10.7069 17.6772 10.2484 16.7348 10.6304C15.7797 11.0125 15.3212 12.095 15.716 13.0501Z" fill="black" stroke="black" stroke-width="1.0171" stroke-miterlimit="10"/>
<path d="M15.7304 13.203C16.1124 14.1454 17.1822 14.6166 18.1246 14.2345C19.067 13.8525 19.5127 12.7827 19.1307 11.8276C18.7486 10.8852 17.6789 10.414 16.7365 10.796C15.7941 11.1781 15.3483 12.2479 15.7304 13.203Z" fill="white"/>
<path d="M16.3302 12.9609C16.5722 13.5722 17.2727 13.8779 17.8839 13.6359C18.4952 13.3939 18.7881 12.6935 18.5334 12.0822C18.2915 11.4709 17.591 11.1653 16.9797 11.4072C16.3685 11.6492 16.0755 12.3496 16.3302 12.9609Z" fill="black"/>
<path d="M17.9588 12.184C18.0225 12.3368 18.2517 12.375 18.4682 12.2859C18.6847 12.1967 18.8248 12.0057 18.7611 11.8529C18.6975 11.7 18.4682 11.6618 18.2517 11.751C18.0352 11.8529 17.8951 12.0439 17.9588 12.184Z" fill="white"/>
<path d="M13.0552 15.8647C13.1826 16.0048 13.3099 16.1321 13.4627 16.234C13.6155 16.3359 13.7684 16.425 13.9467 16.4887C14.1122 16.5524 14.3033 16.5778 14.4815 16.5778C14.5707 16.5906 14.6598 16.5651 14.7617 16.5651C14.8509 16.5524 14.94 16.5269 15.0419 16.5142H15.0546C15.0801 16.5142 15.0928 16.5269 15.1056 16.5524C15.1056 16.5778 15.0928 16.5906 15.0801 16.6033C14.991 16.6288 14.9018 16.667 14.7999 16.6925C14.698 16.7179 14.6089 16.7307 14.507 16.7307C14.3033 16.7561 14.0995 16.7179 13.9212 16.6543C13.7302 16.5906 13.5519 16.5014 13.3991 16.3741C13.2462 16.2467 13.1061 16.0939 13.017 15.9284C13.0043 15.9029 13.017 15.8774 13.0297 15.8774C13.017 15.8392 13.0425 15.8392 13.0552 15.8647Z" fill="#993028"/>
<path d="M13.3993 16.6289C13.5394 16.7563 13.705 16.8582 13.8833 16.9218C14.0616 16.9855 14.2526 16.9983 14.4436 16.9728C14.4564 16.9728 14.4691 16.9855 14.4691 16.9983C14.4691 17.011 14.4691 17.0237 14.4564 17.0237C14.2653 17.0747 14.0488 17.0619 13.8578 16.9983C13.6668 16.9346 13.4885 16.82 13.3611 16.6671C13.3484 16.6544 13.3611 16.6417 13.3611 16.6289C13.3739 16.6162 13.3866 16.6162 13.3993 16.6289Z" fill="#993028"/>
<path d="M7.37616 10.4394C7.65634 9.0131 7.73275 8.35086 7.91104 6.89905C8.38225 7.94334 10.3562 9.45883 11.1331 9.52251C11.5788 9.56071 12.0755 9.61165 12.4066 9.31874C12.7504 9.02583 12.8268 8.44001 12.5212 8.12163C12.8268 8.60557 13.1452 9.08951 13.5655 9.4843C13.9857 9.87909 14.5206 10.172 15.081 10.1975C15.6795 10.2229 16.2781 9.9173 16.6219 9.43336C16.9658 8.93668 17.0295 8.27445 16.8002 7.72684C17.2078 8.3636 17.628 9.0131 18.1884 9.53524C18.736 10.0574 19.4492 10.4522 20.2133 10.4904C20.9774 10.5286 21.7797 10.1338 22.0854 9.44609C22.4165 8.73292 22.1745 7.8924 21.8943 7.15375C21.2576 5.40903 20.4043 3.63883 18.8888 2.55633C17.8573 1.81769 16.5837 1.4611 15.3229 1.39743C14.0622 1.34649 12.7886 1.57572 11.5788 1.95778C9.05721 2.70916 6.66299 4.19918 5.24938 6.44058C4.38338 7.81598 3.95038 9.47156 4.065 11.0889C4.12868 11.8913 4.31971 12.7063 4.68903 13.4195C5.17297 14.3619 5.86067 13.5596 6.3064 12.961C6.86675 12.2351 7.19787 11.3436 7.37616 10.4394Z" fill="#0B0B0B"/>
<g opacity="0.4">
<path opacity="0.4" d="M9.80817 5.65102C10.203 6.35146 10.7888 6.95002 11.4765 7.37028C11.642 7.47216 11.8331 7.54857 12.0241 7.54857C12.1132 7.54857 12.2024 7.5231 12.2915 7.4849C12.368 7.43395 12.4316 7.37028 12.4826 7.29387C12.5717 7.12831 12.5972 6.92455 12.5462 6.74625C12.508 6.55522 12.4316 6.37693 12.3425 6.1859C12.3297 6.16043 12.3425 6.12223 12.368 6.10949C12.3934 6.09676 12.4316 6.10949 12.4444 6.13496C12.6863 6.52975 13.0047 6.8736 13.374 7.15378C13.5651 7.29387 13.7561 7.42122 13.9599 7.5231C14.1636 7.61225 14.3929 7.68866 14.6221 7.68866C14.8513 7.7014 15.0806 7.63772 15.2461 7.49763C15.4244 7.35754 15.5008 7.12831 15.5263 6.91181C15.5518 6.68258 15.5008 6.45334 15.4244 6.23684C15.348 6.02034 15.2206 5.81658 15.106 5.61282C15.0933 5.60008 15.106 5.58735 15.1188 5.57461C15.1315 5.56188 15.1442 5.57461 15.157 5.58735C15.2716 5.79111 15.3989 5.99487 15.4881 6.21137C15.5772 6.42787 15.6282 6.66984 15.6154 6.92455C15.6027 7.16652 15.5008 7.42122 15.3098 7.57404C15.1188 7.7396 14.8641 7.80328 14.6221 7.80328C14.3801 7.80328 14.1381 7.72687 13.9217 7.63772C13.7052 7.53584 13.5014 7.40848 13.3104 7.2684C12.9283 6.97549 12.5972 6.6189 12.3425 6.22411L12.4444 6.17317C12.5335 6.3642 12.6227 6.55522 12.6609 6.75899C12.6991 6.96275 12.6863 7.20472 12.5717 7.39575C12.5208 7.49763 12.4316 7.57404 12.3425 7.63772C12.2406 7.68866 12.126 7.71413 12.0241 7.71413C11.8076 7.70139 11.6038 7.62498 11.4255 7.51037C10.7251 7.07737 10.1393 6.45334 9.75723 5.72743C9.74449 5.7147 9.75723 5.70196 9.76996 5.68923C9.7827 5.62555 9.79543 5.63829 9.80817 5.65102Z" fill="#A05320"/>
</g>
<g opacity="0.4">
<path opacity="0.4" d="M19.0802 6.58079C19.1949 6.8737 19.2967 7.16661 19.4878 7.39584C19.6661 7.62508 19.959 7.7779 20.2391 7.73969C20.3792 7.72696 20.5066 7.65055 20.5957 7.53593C20.6849 7.42131 20.7486 7.28122 20.774 7.14114C20.825 6.84823 20.7613 6.54258 20.6849 6.23694C20.6849 6.2242 20.6849 6.21147 20.7103 6.19873C20.7231 6.19873 20.7358 6.19873 20.7486 6.2242C20.8377 6.51711 20.9396 6.83549 20.8886 7.15387C20.8632 7.31943 20.7995 7.47225 20.6976 7.59961C20.5957 7.72696 20.4429 7.82884 20.2646 7.85431C19.9208 7.90525 19.6024 7.71422 19.3986 7.45952C19.2076 7.19208 19.1057 6.88643 19.0293 6.59352C19.0293 6.58079 19.0293 6.56805 19.0548 6.55532C19.0548 6.56805 19.0675 6.56805 19.0802 6.58079Z" fill="#A05320"/>
</g>
<g opacity="0.4">
<path opacity="0.4" d="M3.78459 11.6748C3.74638 11.8786 3.82279 12.0951 3.96288 12.2479C4.10297 12.4007 4.294 12.5026 4.49776 12.5026C4.70153 12.5026 4.89255 12.388 5.00717 12.2224C5.13452 12.0696 5.1982 11.8531 5.14726 11.6621H5.26188C5.21093 11.8277 5.37649 12.0314 5.55479 12.0442C5.74581 12.0696 5.93684 11.9677 6.06419 11.8149C6.19155 11.6621 6.26796 11.4583 6.33163 11.2546C6.39531 11.0508 6.45899 10.847 6.52266 10.6433C6.7519 9.81549 6.87925 8.96223 6.90472 8.10897C6.90472 8.09623 6.91746 8.0835 6.93019 8.0835C6.94293 8.0835 6.95566 8.09623 6.95566 8.10897C6.95566 8.54196 6.93019 8.97496 6.87925 9.40796C6.82831 9.84096 6.73916 10.2612 6.62455 10.6815C6.5736 10.8852 6.50993 11.1017 6.43352 11.3055C6.36984 11.5093 6.29343 11.7258 6.14061 11.9041C6.00052 12.0824 5.77128 12.2097 5.51658 12.1842C5.38923 12.1715 5.28735 12.0951 5.21093 11.9932C5.13452 11.8913 5.09632 11.764 5.13452 11.6366C5.14726 11.5984 5.17273 11.5857 5.21093 11.5984C5.23641 11.6112 5.24914 11.6239 5.24914 11.6494C5.30008 11.8786 5.22367 12.1333 5.08358 12.3116C4.94349 12.4899 4.71426 12.6172 4.48503 12.6172C4.24306 12.6172 4.02656 12.4899 3.88647 12.3116C3.74638 12.1333 3.66997 11.8913 3.72091 11.6748C3.72091 11.6621 3.73365 11.6494 3.75912 11.6494C3.77185 11.6494 3.78459 11.6621 3.78459 11.6748Z" fill="#A05320"/>
</g>
<g opacity="0.4">
<path opacity="0.4" d="M15.6025 3.53701C15.7553 3.68983 15.9082 3.84265 16.0865 3.97001C16.2648 4.09736 16.4558 4.17377 16.6595 4.17377C16.8633 4.17377 17.0671 4.09736 17.169 3.9318C17.2708 3.76624 17.2708 3.53701 17.1308 3.40966L17.2199 3.32051C17.3727 3.51154 17.6274 3.63889 17.8694 3.61342C17.984 3.60068 18.0986 3.54974 18.1878 3.4606C18.2642 3.37145 18.3151 3.25683 18.3279 3.12948C18.3406 3.00213 18.3279 2.87478 18.2897 2.76016C18.2515 2.64554 18.1878 2.53092 18.0986 2.42904C17.9331 2.22528 17.7166 2.05972 17.5001 1.9069C17.4873 1.89416 17.4873 1.88143 17.4873 1.86869C17.5001 1.85596 17.5128 1.85596 17.5255 1.85596C17.742 2.00878 17.9713 2.1616 18.1496 2.36537C18.2387 2.46725 18.3151 2.5946 18.3661 2.72195C18.417 2.84931 18.4297 3.00213 18.417 3.14222C18.4043 3.2823 18.3533 3.42239 18.2515 3.53701C18.1496 3.65162 18.0095 3.7153 17.8694 3.72804C17.5765 3.75351 17.2963 3.61342 17.1053 3.39692C17.0798 3.37145 17.0925 3.33324 17.118 3.30777C17.1435 3.2823 17.1817 3.29504 17.1944 3.30777C17.2836 3.39692 17.3345 3.52427 17.3345 3.63889C17.3345 3.76624 17.309 3.88086 17.2454 3.98274C17.1817 4.08462 17.0798 4.17377 16.9779 4.21198C16.8633 4.26292 16.7487 4.27565 16.6341 4.27565C16.4048 4.26292 16.1883 4.17377 16.0101 4.03368C15.8318 3.89359 15.6789 3.72804 15.5388 3.57521C15.5261 3.56248 15.5261 3.54974 15.5388 3.53701C15.5771 3.52427 15.6025 3.52427 15.6025 3.53701Z" fill="#A05320"/>
</g>
<g opacity="0.4">
<path opacity="0.4" d="M3.80977 8.22364C3.84798 8.33825 3.96259 8.4274 4.08994 8.45287C4.2173 8.47834 4.34465 8.46561 4.44653 8.40193C4.67577 8.27458 4.81585 8.03261 4.95594 7.80337C5.23612 7.34491 5.43988 6.82276 5.56723 6.30062C5.56723 6.28788 5.5927 6.27515 5.60544 6.27515C5.61817 6.27515 5.63091 6.28788 5.63091 6.31335C5.54176 6.86097 5.35073 7.39585 5.05782 7.87979C4.98141 7.9944 4.91774 8.12176 4.81585 8.22364C4.72671 8.33825 4.62483 8.44014 4.48474 8.50381C4.35739 8.58022 4.19183 8.59296 4.05174 8.55475C3.91165 8.51655 3.77156 8.40193 3.74609 8.24911C3.74609 8.23637 3.75883 8.22364 3.77156 8.2109C3.79703 8.19817 3.80977 8.2109 3.80977 8.22364Z" fill="#A05320"/>
</g>
<g opacity="0.4">
<path opacity="0.4" d="M10.9797 3.3843C11.2217 3.48618 11.4636 3.57533 11.7183 3.63901C11.8457 3.67721 11.973 3.70268 12.1004 3.71542C12.2277 3.72815 12.3551 3.75362 12.4825 3.75362C12.6098 3.75362 12.7244 3.71542 12.8136 3.63901C12.9027 3.56259 12.9409 3.44798 12.9409 3.32062C12.9409 3.07866 12.7881 2.84942 12.6225 2.64566C12.6098 2.63292 12.6098 2.62019 12.6225 2.60745C12.6353 2.59472 12.648 2.59472 12.6607 2.60745C12.7499 2.70933 12.839 2.81122 12.9027 2.92583C12.9791 3.04045 13.0301 3.18054 13.0301 3.32062C13.0301 3.46071 12.9919 3.61354 12.8772 3.72815C12.7626 3.83003 12.6098 3.86824 12.4697 3.86824C12.3296 3.86824 12.1895 3.8555 12.0622 3.83003C11.9348 3.80456 11.7947 3.77909 11.6674 3.74089C11.4127 3.66448 11.158 3.56259 10.9288 3.43524C10.916 3.42251 10.916 3.40977 10.916 3.39704C10.9542 3.3843 10.967 3.3843 10.9797 3.3843Z" fill="#A05320"/>
</g>
<g opacity="0.4">
<path opacity="0.4" d="M7.16032 18.5518C7.31314 18.9976 7.60605 19.3924 8.00084 19.6471C8.39563 19.9018 8.87957 20.0037 9.35078 19.9272C9.36351 19.9272 9.37625 19.94 9.38898 19.9527C9.38898 19.9654 9.37625 19.9782 9.36351 19.9909C8.89231 20.1055 8.35743 20.0164 7.93717 19.749C7.5169 19.4815 7.19852 19.0485 7.10938 18.5646C7.10938 18.5518 7.12211 18.5391 7.13485 18.5264C7.14758 18.5264 7.16032 18.5391 7.16032 18.5518Z" fill="#A05320"/>
</g>
<path d="M6.51127 5.84218C5.97639 5.40918 5.53065 4.8743 5.21227 4.27574C5.16133 4.17386 5.09766 4.05924 5.09766 3.93189C5.09766 3.81727 5.17407 3.68992 5.28868 3.66445C5.45424 3.62625 5.5816 3.80454 5.65801 3.95736C5.95092 4.47951 6.23109 5.01439 6.524 5.53653C6.29477 4.78515 6.19289 4.0083 6.21836 3.23145C6.21836 3.11684 6.23109 2.98948 6.28203 2.8876C6.33297 2.78572 6.43486 2.68384 6.54947 2.68384C6.66409 2.68384 6.77871 2.76025 6.84238 2.86213C6.90606 2.96401 6.91879 3.09137 6.93153 3.20598C7.02068 4.03377 6.98247 4.88703 6.82965 5.71482" fill="#0B0B0B"/>
<path d="M6.91727 12.5153C6.91727 12.5153 8.03797 9.42067 9.1714 9.73905C10.2921 10.0574 8.57285 12.1969 8.29267 12.4771C8.01249 12.77 6.75171 13.7124 6.91727 12.5153Z" fill="#0B0B0B"/>
<path d="M18.978 9.14038C18.978 9.14038 16.4055 7.09001 15.6159 7.956C14.8263 8.80926 17.4116 9.73894 17.7936 9.82808C18.1757 9.91723 19.7548 10.0701 18.978 9.14038Z" fill="#0B0B0B"/>
<path opacity="0.05" d="M20.7401 14.683C22.1326 13.2905 22.1326 11.0327 20.7401 9.6402C19.3475 8.24765 17.0897 8.24765 15.6972 9.6402C14.3047 11.0327 14.3047 13.2905 15.6972 14.683C17.0897 16.0756 19.3475 16.0756 20.7401 14.683Z" fill="white"/>
<path d="M18.3154 16.2852C16.0994 16.2852 14.291 14.4768 14.291 12.2609C14.291 10.045 16.0994 8.23657 18.3154 8.23657C20.5313 8.23657 22.3397 10.045 22.3397 12.2609C22.3397 14.4768 20.544 16.2852 18.3154 16.2852ZM18.3154 8.89881C16.4687 8.89881 14.9532 10.4016 14.9532 12.2609C14.9532 14.1203 16.456 15.623 18.3154 15.623C20.162 15.623 21.6775 14.1203 21.6775 12.2609C21.6775 10.4016 20.1747 8.89881 18.3154 8.89881Z" fill="#26263A"/>
<g opacity="0.46">
<path opacity="0.46" d="M16.6477 10.1723C16.533 10.4779 16.4184 10.7581 16.3166 11.0383C16.2147 11.3184 16.1383 11.5986 16.0873 11.8661C16.0491 12.0061 16.0491 12.1462 16.0236 12.2863C16.0236 12.4264 15.9982 12.5665 16.0109 12.7066C15.9982 12.9995 16.0491 13.2924 16.0746 13.6235V13.6363C16.0746 13.6872 16.0364 13.7254 15.9982 13.7254C15.9727 13.7254 15.9472 13.7127 15.9345 13.6999C15.6925 13.458 15.5015 13.1396 15.4251 12.7957L15.3869 12.6684C15.3741 12.6302 15.3741 12.5792 15.3614 12.541C15.3487 12.4519 15.3359 12.3627 15.3359 12.2736C15.3359 12.1844 15.3359 12.0953 15.3487 12.0061C15.3487 11.917 15.3741 11.8279 15.3869 11.7387C15.4506 11.3821 15.5906 11.051 15.7817 10.7708C15.9727 10.4779 16.2147 10.236 16.533 10.0577C16.5713 10.0322 16.6222 10.0449 16.6477 10.0959C16.6477 10.1086 16.6604 10.1341 16.6477 10.1723Z" fill="white"/>
</g>
<path d="M13.8574 14.069C14.3796 14.0181 14.9909 13.0375 15.3856 13.9417C15.7804 14.8459 14.5197 15.4954 14.5197 15.4954" fill="#FCBCB1"/>
<path d="M13.0559 11.3182C13.0941 11.5984 13.1451 11.8786 13.196 12.146C13.247 12.4262 13.3106 12.6936 13.3743 12.9611C13.4507 13.2285 13.5144 13.496 13.6418 13.7379C13.6672 13.8016 13.7054 13.8525 13.7436 13.9035C13.7819 13.9544 13.8201 13.9799 13.8583 13.9672C13.9729 13.9544 14.1002 13.8908 14.2148 13.8271C14.3295 13.7507 14.4441 13.6743 14.5714 13.5978C14.6988 13.5342 14.8389 13.445 15.0172 13.4578C15.1063 13.4705 15.1827 13.5087 15.2464 13.5596C15.3101 13.6106 15.361 13.6743 15.3992 13.7379C15.4374 13.8016 15.4756 13.8653 15.4884 13.9417L15.5266 14.0563C15.5393 14.0945 15.5393 14.1327 15.5393 14.1709C15.552 14.2473 15.5393 14.3238 15.5393 14.4002C15.5138 14.4766 15.5138 14.553 15.4756 14.6167C15.4247 14.7567 15.3355 14.8714 15.2337 14.986C15.0426 15.2025 14.8007 15.368 14.546 15.4954C14.5332 15.5081 14.5078 15.4954 14.495 15.4827C14.4823 15.4699 14.495 15.4445 14.5078 15.4445C14.737 15.3044 14.9662 15.1261 15.1318 14.9096C15.2209 14.8077 15.2973 14.6931 15.3356 14.5657C15.361 14.502 15.3738 14.4384 15.3865 14.3747C15.3865 14.311 15.3992 14.2473 15.3865 14.1837C15.3865 14.1582 15.3738 14.12 15.3738 14.0945L15.3356 14.0054C15.3228 13.9417 15.2846 13.878 15.2464 13.8271C15.1827 13.7125 15.0936 13.6233 14.979 13.6233C14.8643 13.6106 14.7497 13.6743 14.6351 13.7379C14.5205 13.8016 14.4059 13.8908 14.2785 13.9672C14.1512 14.0436 14.0238 14.12 13.8583 14.1327C13.7436 14.1327 13.6672 14.069 13.6163 14.0054C13.5654 13.9417 13.5271 13.878 13.4889 13.8143C13.3616 13.5469 13.2852 13.2667 13.2215 12.9993C13.0941 12.4517 13.0177 11.8913 12.9668 11.3182C12.9668 11.3055 12.9795 11.28 12.9923 11.28C13.0305 11.2928 13.0432 11.3055 13.0559 11.3182Z" fill="#993028"/>
<path opacity="0.05" d="M10.4437 17.6454C12.2577 16.8788 13.1067 14.7867 12.34 12.9727C11.5734 11.1587 9.48132 10.3097 7.66733 11.0764C5.85334 11.8431 5.00433 13.9351 5.771 15.7491C6.53768 17.5631 8.62972 18.4121 10.4437 17.6454Z" fill="white"/>
<path d="M9.15917 18.5013C6.94324 18.5013 5.13483 16.6929 5.13483 14.477C5.1221 12.2483 6.9305 10.4399 9.15917 10.4399C11.3751 10.4399 13.1835 12.2483 13.1835 14.4643C13.1835 16.6929 11.3751 18.5013 9.15917 18.5013ZM9.15917 11.1022C7.31256 11.1022 5.79706 12.6049 5.79706 14.4643C5.79706 16.3109 7.29982 17.8264 9.15917 17.8264C11.0058 17.8264 12.5213 16.3236 12.5213 14.4643C12.5085 12.6177 11.0058 11.1022 9.15917 11.1022Z" fill="#26263A"/>
<g opacity="0.46">
<path opacity="0.46" d="M7.47774 12.3883C7.36313 12.694 7.24851 12.9742 7.14663 13.2543C7.04475 13.5345 6.96834 13.8147 6.91739 14.0821C6.87919 14.2222 6.87919 14.3623 6.85372 14.5024C6.85372 14.6425 6.82825 14.7826 6.84098 14.9226C6.82825 15.2156 6.87919 15.5085 6.90466 15.8396V15.8523C6.90466 15.9033 6.86645 15.9415 6.82825 15.9415C6.80278 15.9415 6.77731 15.9287 6.76457 15.916C6.5226 15.674 6.33157 15.3556 6.25516 15.0118L6.21696 14.8844C6.20422 14.8462 6.20422 14.7953 6.19149 14.7571C6.17875 14.6679 6.16602 14.5788 6.16602 14.4897C6.16602 14.4005 6.16602 14.3114 6.17875 14.2222C6.17875 14.1331 6.20422 14.0439 6.21696 13.9548C6.28063 13.5982 6.42072 13.2671 6.61175 12.9869C6.80278 12.694 7.04475 12.452 7.36313 12.2737C7.40133 12.2483 7.45227 12.261 7.47774 12.3119C7.49048 12.3247 7.49048 12.3501 7.47774 12.3883Z" fill="white"/>
</g>
<path d="M12.8263 13.8398L12.4824 13.3176C12.5206 13.2794 13.5777 12.3116 14.7875 12.6172L14.6729 13.2667C13.705 13.0247 12.839 13.827 12.8263 13.8398Z" fill="#26263A"/>
<path d="M6.84204 4.55581L6.76562 4.53034C7.32598 3.14219 8.33206 1.93235 9.59285 1.13003C10.8536 0.327708 12.3691 -0.0670839 13.8719 0.00932751C14.636 0.0475332 15.1454 0.225826 15.502 0.569678C15.744 0.811647 15.8841 1.16823 15.8713 1.51209C15.8586 1.77953 15.7567 2.02149 15.5657 2.17432L15.5147 2.11064C15.6803 1.97055 15.7822 1.75405 15.7822 1.51209C15.7949 1.1937 15.6548 0.862588 15.4383 0.633354C15.0945 0.302238 14.5978 0.13668 13.8592 0.0857389C12.3819 0.0093275 10.8791 0.40412 9.64379 1.1937C8.39573 1.99602 7.40239 3.1804 6.84204 4.55581Z" fill="#0B0B0B"/>
<path d="M13.6781 30.4971L2.98047 27.95L3.43894 15.4695C3.43894 15.4695 9.83203 16.5902 13.8564 18.5005C13.8436 18.5259 13.6781 30.4971 13.6781 30.4971Z" fill="#D0D0DF"/>
<path d="M13.6648 30.6881L2.22852 28.0901L2.72519 15.6096C2.72519 15.6096 9.55128 16.7685 13.8558 18.6915C13.8431 18.717 13.6648 30.6881 13.6648 30.6881Z" fill="#E7E5F0"/>
<path d="M13.6515 30.8664L2.21524 28.2685L2.08789 15.7625C2.08789 15.7625 10.0219 17.1888 13.8425 18.8698C13.8298 18.8953 13.6515 30.8664 13.6515 30.8664Z" fill="white"/>
<path d="M14.0582 30.4971L24.8322 28.0902L24.361 15.5969C24.361 15.5969 17.917 16.6412 13.8672 18.4878C13.8927 18.526 14.0582 30.4971 14.0582 30.4971Z" fill="#D0D0DF"/>
<path d="M14.0719 30.6882L25.5845 28.2303L25.0879 15.7498C25.0879 15.7498 18.2108 16.8195 13.8809 18.6916C13.8936 18.7171 14.0719 30.6882 14.0719 30.6882Z" fill="#E7E5F0"/>
<path d="M14.0836 30.8664L25.5963 28.4085L25.7236 15.9153C25.7236 15.9153 17.7386 17.2397 13.8926 18.8699C13.9053 18.8953 14.0836 30.8664 14.0836 30.8664Z" fill="white"/>
<path d="M12.5944 31.8726L1.51473 29.8986C1.15814 29.835 0.865234 29.4784 0.865234 29.0963V17.087C0.865234 16.7049 1.15814 16.4502 1.51473 16.5139L12.5944 18.4879C12.951 18.5515 13.2439 18.9081 13.2439 19.2902V31.2995C13.2439 31.6816 12.951 31.9363 12.5944 31.8726Z" fill="#2B9E98"/>
<path d="M12.5931 31.8724L1.61528 29.9239C1.25869 29.8602 0.978516 29.5036 0.978516 29.1343V17.2269C0.978516 16.8448 1.25869 16.5901 1.61528 16.6538L12.5931 18.6023C12.9496 18.666 13.2298 19.0225 13.2298 19.3919V31.2993C13.2425 31.6814 12.9496 31.9361 12.5931 31.8724Z" fill="#27A600"/>
<path d="M15.1417 31.8726L26.2213 29.8986C26.5779 29.835 26.8708 29.4784 26.8708 29.0963V17.087C26.8708 16.7049 26.5779 16.4502 26.2213 16.5139L15.1417 18.4879C14.7851 18.5515 14.4922 18.9081 14.4922 19.2902V31.2995C14.5049 31.6816 14.7851 31.9363 15.1417 31.8726Z" fill="#2B9E98"/>
<path d="M15.1407 31.8724L26.1184 29.9239C26.475 29.8602 26.7552 29.5036 26.7552 29.1343V17.2269C26.7552 16.8448 26.475 16.5901 26.1184 16.6538L15.1407 18.6023C14.7841 18.666 14.5039 19.0225 14.5039 19.3919V31.2993C14.5039 31.6814 14.7841 31.9361 15.1407 31.8724Z" fill="#27A600"/>
<path d="M14.7456 31.9998H13.0646C12.8735 31.9998 12.7207 31.8469 12.7207 31.6559V18.9461C12.7207 18.7551 12.8735 18.6023 13.0646 18.6023H14.7456C14.9366 18.6023 15.0895 18.7551 15.0895 18.9461V31.6559C15.0895 31.8469 14.9366 31.9998 14.7456 31.9998Z" fill="#289906"/>
<path d="M0.140606 23.022C0.140606 23.022 -0.228715 24.9577 0.229753 25.7218C0.688222 26.486 2.42021 26.2185 2.54757 25.8365C2.67492 25.4417 1.07028 25.378 1.07028 25.378C1.07028 25.378 2.70039 25.4671 2.71312 25.0214C2.73859 24.5757 0.981132 24.5502 0.981132 24.5502C0.981132 24.5502 2.59851 24.5375 2.57304 24.0153C2.54757 23.4804 0.828309 23.6715 0.828309 23.6715C0.828309 23.6715 2.75133 23.5441 2.59851 23.1748C2.43295 22.8055 0.930191 22.9838 0.930191 22.9838C0.930191 22.9838 1.41413 22.1942 1.04481 22.1178C0.700957 22.0414 0.140606 23.022 0.140606 23.022Z" fill="#FCBCB1"/>
<path d="M27.7369 23.022C27.7369 23.022 28.1062 24.9577 27.6477 25.7218C27.1892 26.486 25.4572 26.2185 25.3299 25.8365C25.2025 25.4417 26.8072 25.378 26.8072 25.378C26.8072 25.378 25.1771 25.4671 25.1643 25.0214C25.1389 24.5757 26.8963 24.5502 26.8963 24.5502C26.8963 24.5502 25.279 24.5375 25.3044 24.0153C25.3299 23.4804 27.0491 23.6715 27.0491 23.6715C27.0491 23.6715 25.1261 23.5441 25.279 23.1748C25.4445 22.8055 26.9473 22.9838 26.9473 22.9838C26.9473 22.9838 26.4633 22.1942 26.8327 22.1178C27.1765 22.0414 27.7369 23.022 27.7369 23.022Z" fill="#FCBCB1"/>
<path d="M24.8601 19.0103L25.0129 19.5579C25.0257 19.6216 25.0766 19.6725 25.153 19.698L25.6879 19.8763C25.8535 19.9273 25.8789 20.1565 25.7388 20.2584L25.2676 20.5768C25.204 20.615 25.1785 20.6786 25.1785 20.755L25.1658 21.3281C25.1658 21.5064 24.962 21.5956 24.8219 21.4937L24.3762 21.1371C24.3252 21.0989 24.2488 21.0862 24.1851 21.0989L23.6375 21.2645C23.472 21.3154 23.3192 21.1498 23.3701 20.9843L23.5611 20.4494C23.5866 20.3857 23.5739 20.3093 23.5357 20.2584L23.2045 19.7872C23.1027 19.6471 23.2045 19.4433 23.3828 19.4561L23.9559 19.4815C24.0196 19.4815 24.096 19.4561 24.1342 19.3924L24.4781 18.9339C24.5799 18.7938 24.8092 18.832 24.8601 19.0103Z" fill="#FF8300"/>
<path d="M4.63551 26.7787L4.78833 27.3263C4.80107 27.39 4.85201 27.4409 4.92842 27.4664L5.4633 27.6447C5.62886 27.6956 5.65433 27.9249 5.51424 28.0267L5.04303 28.3451C4.97936 28.3833 4.95389 28.447 4.95389 28.5234L4.94115 29.0965C4.94115 29.2748 4.73739 29.3639 4.5973 29.2621L4.15157 28.9055C4.10063 28.8673 4.02422 28.8545 3.96054 28.8673L3.41292 29.0328C3.24737 29.0838 3.09454 28.9182 3.14548 28.7526L3.33651 28.2178C3.36198 28.1541 3.34925 28.0777 3.31104 28.0267L2.97993 27.5555C2.87804 27.4154 2.97993 27.2117 3.15822 27.2244L3.73131 27.2499C3.79498 27.2499 3.87139 27.2244 3.9096 27.1607L4.25345 26.7023C4.36807 26.5749 4.58457 26.6131 4.63551 26.7787Z" fill="#FFDD00"/>
<path d="M21.1414 18.5262L21.2942 19.0739C21.3069 19.1375 21.3579 19.1885 21.4343 19.2139L21.9692 19.3922C22.1347 19.4432 22.1602 19.6724 22.0201 19.7743L21.5489 20.0927C21.4852 20.1309 21.4597 20.1946 21.4597 20.271L21.447 20.8441C21.447 21.0223 21.2432 21.1115 21.1032 21.0096L20.6574 20.653C20.6065 20.6148 20.5301 20.6021 20.4664 20.6148L19.9188 20.7804C19.7532 20.8313 19.6004 20.6658 19.6513 20.5002L19.8424 19.9653C19.8678 19.9016 19.8551 19.8252 19.8169 19.7743L19.4858 19.3031C19.3839 19.163 19.4858 18.9592 19.6641 18.972L20.2372 18.9974C20.3008 18.9974 20.3773 18.972 20.4155 18.9083L20.7593 18.4498C20.8739 18.3225 21.0904 18.3607 21.1414 18.5262Z" fill="#3B5CAD"/>
<path d="M22.0815 22.3342L22.489 22.729C22.54 22.7799 22.6036 22.8054 22.68 22.7927L23.2404 22.6908C23.4187 22.6526 23.546 22.8436 23.4696 22.9964L23.2149 23.5058C23.1895 23.5695 23.1895 23.6459 23.2149 23.6969L23.4824 24.1935C23.5715 24.3464 23.4442 24.5374 23.2659 24.4992L22.7055 24.41C22.6418 24.3973 22.5654 24.4228 22.5145 24.4737L22.1197 24.894C22.0051 25.0213 21.7886 24.9577 21.7504 24.7794L21.6612 24.219C21.6485 24.1553 21.6103 24.0917 21.5466 24.0662L21.0372 23.8242C20.8844 23.7478 20.8716 23.5186 21.0245 23.4422L21.5339 23.1875C21.5976 23.1493 21.6358 23.0983 21.6485 23.0219L21.7249 22.4615C21.7504 22.2833 21.9541 22.2196 22.0815 22.3342Z" fill="#FFDD00"/>
<defs>
<radialGradient id="paint0_radial" cx="0" cy="0" r="1" gradientUnits="userSpaceOnUse" gradientTransform="translate(10.7591 17.2414) rotate(-0.659202) scale(2.51669 1.86119)">
<stop offset="0.1454" stop-color="#993028"/>
<stop offset="1" stop-color="#FCBCB1"/>
</radialGradient>
<radialGradient id="paint1_radial" cx="0" cy="0" r="1" gradientUnits="userSpaceOnUse" gradientTransform="translate(18.2418 15.3096) rotate(-17.9709) scale(2.51674 1.86113)">
<stop offset="0.1454" stop-color="#993028"/>
<stop offset="1" stop-color="#FCBCB1"/>
</radialGradient>
</defs>
</svg>
