<svg width="30" height="30" viewBox="0 0 30 30" fill="none" xmlns="http://www.w3.org/2000/svg">
<path d="M5.55637 30.0002H24.4436C27.5123 30.0002 30 27.5126 30 24.4439V5.55661C30 2.48795 27.5124 0.000244141 24.4436 0.000244141H5.55637C2.48771 0.000244141 0 2.48788 0 5.55661V24.4439C0 27.5126 2.48764 30.0002 5.55637 30.0002Z" fill="#EAF6FF"/>
<path d="M6.81286 29.9996H5.55649C2.48777 29.9996 0 27.5125 0 24.4438V5.5565C0 2.48778 2.48777 0 5.55649 0H6.81286C3.74414 0 1.25637 2.48778 1.25637 5.5565V24.4438C1.25637 27.5125 3.74414 29.9996 6.81286 29.9996Z" fill="#D6E9F8"/>
<path d="M5.555 27.9147C3.64102 27.9147 2.08398 26.3576 2.08398 24.4437V5.55646C2.08398 3.64255 3.64109 2.08545 5.555 2.08545H24.4423C26.3562 2.08545 27.9133 3.64255 27.9133 5.55646V24.4437C27.9133 26.3576 26.3562 27.9147 24.4423 27.9147H5.555Z" fill="#27A600"/>
<path d="M17.116 11.4C17.308 11.4 17.468 11.464 17.596 11.592C17.724 11.72 17.788 11.88 17.788 12.072C17.788 12.256 17.724 12.412 17.596 12.54C17.468 12.66 17.308 12.72 17.116 12.72H16.612V14.268C16.612 14.476 16.54 14.652 16.396 14.796C16.26 14.932 16.088 15 15.88 15C15.68 15 15.512 14.932 15.376 14.796C15.24 14.652 15.172 14.476 15.172 14.268V12.72H12.052C11.876 12.72 11.712 12.652 11.56 12.516C11.408 12.372 11.332 12.204 11.332 12.012C11.332 11.836 11.392 11.676 11.512 11.532L15.304 6.888C15.456 6.696 15.656 6.6 15.904 6.6C16.104 6.6 16.272 6.672 16.408 6.816C16.544 6.952 16.612 7.124 16.612 7.332V11.4H17.116ZM15.172 11.4V9L13.228 11.4H15.172Z" fill="#F6F9F9"/>
<path d="M7.40588 24.511C7.40487 24.511 7.40385 24.511 7.40291 24.511C6.94699 24.5136 6.45591 24.5153 6.10316 24.5154V19.8277C6.10316 19.5398 5.86976 19.3064 5.58185 19.3064C5.29394 19.3064 5.06055 19.5398 5.06055 19.8277V25.0323C5.06055 25.2862 5.24347 25.5032 5.49373 25.5461C5.53091 25.5526 5.56451 25.5583 6.13669 25.5583C6.41387 25.5583 6.81744 25.5569 7.40878 25.5536C7.69669 25.552 7.9288 25.3173 7.92718 25.0294C7.92556 24.7425 7.69244 24.511 7.40588 24.511Z" fill="#F6F9F9"/>
<path d="M25.111 24.511C25.11 24.511 25.109 24.511 25.1081 24.511C24.6522 24.5136 24.1611 24.5153 23.8082 24.5154V19.8277C23.8082 19.5398 23.5748 19.3064 23.2869 19.3064C22.999 19.3064 22.7656 19.5398 22.7656 19.8277V25.0323C22.7656 25.2862 22.9485 25.5032 23.1987 25.5461C23.2359 25.5526 23.2696 25.5583 23.842 25.5583C24.1191 25.5583 24.5226 25.5569 25.1139 25.5536C25.4018 25.552 25.6339 25.3173 25.6323 25.0294C25.6307 24.7425 25.3976 24.511 25.111 24.511Z" fill="#F6F9F9"/>
<path d="M11.3661 20.3969C11.654 20.3969 11.8874 20.1635 11.8874 19.8756C11.8874 19.5876 11.654 19.3542 11.3661 19.3542H9.19123C8.90332 19.3542 8.66992 19.5876 8.66992 19.8756V25.037C8.66992 25.3249 8.90332 25.5583 9.19123 25.5583H11.3661C11.654 25.5583 11.8874 25.3249 11.8874 25.037C11.8874 24.7491 11.654 24.5157 11.3661 24.5157H9.71253V22.9776H11.2057C11.4936 22.9776 11.727 22.7442 11.727 22.4563C11.727 22.1684 11.4936 21.935 11.2057 21.935H9.71253V20.3969H11.3661V20.3969Z" fill="#F6F9F9"/>
<path d="M21.0516 20.3969C21.3395 20.3969 21.5729 20.1635 21.5729 19.8756C21.5729 19.5876 21.3395 19.3542 21.0516 19.3542H18.8768C18.5889 19.3542 18.3555 19.5876 18.3555 19.8756V25.037C18.3555 25.3249 18.5889 25.5583 18.8768 25.5583H21.0516C21.3395 25.5583 21.5729 25.3249 21.5729 25.037C21.5729 24.7491 21.3395 24.5157 21.0516 24.5157H19.3981V22.9776H20.8913C21.1792 22.9776 21.4126 22.7442 21.4126 22.4563C21.4126 22.1684 21.1792 21.935 20.8913 21.935H19.3981V20.3969H21.0516V20.3969Z" fill="#F6F9F9"/>
<path d="M17.0205 19.3424C16.7473 19.2515 16.4522 19.3995 16.3614 19.6728L15.0357 23.6636L13.6448 19.6566C13.5505 19.3846 13.2532 19.2408 12.9814 19.335C12.7094 19.4294 12.5655 19.7265 12.6598 19.9985L14.4421 25.133C14.5326 25.3876 14.7741 25.5579 15.0441 25.5579C15.0455 25.5579 15.047 25.5578 15.0484 25.5578C15.3202 25.556 15.5615 25.3819 15.6501 25.1212L17.3509 20.0014C17.4416 19.7283 17.2937 19.4332 17.0205 19.3424Z" fill="#F6F9F9"/>
</svg>
