<svg width="30" height="30" viewBox="0 0 30 30" fill="none" xmlns="http://www.w3.org/2000/svg">
<path d="M5.55637 30.0002H24.4436C27.5123 30.0002 30 27.5126 30 24.4439V5.55661C30 2.48795 27.5124 0.000244141 24.4436 0.000244141H5.55637C2.48771 0.000244141 0 2.48788 0 5.55661V24.4439C0 27.5126 2.48764 30.0002 5.55637 30.0002Z" fill="#EAF6FF"/>
<path d="M6.81286 29.9996H5.55649C2.48777 29.9996 0 27.5125 0 24.4438V5.5565C0 2.48778 2.48777 0 5.55649 0H6.81286C3.74414 0 1.25637 2.48778 1.25637 5.5565V24.4438C1.25637 27.5125 3.74414 29.9996 6.81286 29.9996Z" fill="#D6E9F8"/>
<path d="M5.555 27.9147C3.64102 27.9147 2.08398 26.3576 2.08398 24.4437V5.55646C2.08398 3.64255 3.64109 2.08545 5.555 2.08545H24.4423C26.3562 2.08545 27.9133 3.64255 27.9133 5.55646V24.4437C27.9133 26.3576 26.3562 27.9147 24.4423 27.9147H5.555Z" fill="#27A600"/>
<path d="M14.3254 9.36C14.8534 9.36 15.3294 9.484 15.7534 9.732C16.1854 9.972 16.5214 10.304 16.7614 10.728C17.0094 11.152 17.1334 11.624 17.1334 12.144C17.1334 12.68 16.9814 13.176 16.6774 13.632C16.3734 14.088 15.9694 14.452 15.4654 14.724C14.9614 14.988 14.4174 15.12 13.8334 15.12C13.5214 15.12 13.1974 15.072 12.8614 14.976C12.5334 14.88 12.2654 14.748 12.0574 14.58C11.9614 14.5 11.8814 14.388 11.8174 14.244C11.7534 14.1 11.7214 13.964 11.7214 13.836C11.7214 13.692 11.7814 13.564 11.9014 13.452C12.0294 13.332 12.1934 13.272 12.3934 13.272C12.5374 13.272 12.7174 13.348 12.9334 13.5C13.2694 13.708 13.5654 13.812 13.8214 13.812C14.1494 13.812 14.4574 13.736 14.7454 13.584C15.0334 13.432 15.2614 13.228 15.4294 12.972C15.6054 12.716 15.6934 12.44 15.6934 12.144C15.6934 11.712 15.5454 11.36 15.2494 11.088C14.9534 10.816 14.6014 10.68 14.1934 10.68C14.0094 10.68 13.8454 10.704 13.7014 10.752C13.5574 10.8 13.3854 10.872 13.1854 10.968C13.0414 11.04 12.9254 11.092 12.8374 11.124C12.7574 11.156 12.6734 11.172 12.5854 11.172C12.2734 11.172 12.0494 11.088 11.9134 10.92C11.7854 10.752 11.7214 10.552 11.7214 10.32C11.7214 10.24 11.7254 10.184 11.7334 10.152L12.1054 7.176C12.1374 7.008 12.2174 6.872 12.3454 6.768C12.4814 6.656 12.6414 6.6 12.8254 6.6H16.2934C16.4854 6.6 16.6454 6.664 16.7734 6.792C16.9014 6.92 16.9654 7.08 16.9654 7.272C16.9654 7.456 16.9014 7.612 16.7734 7.74C16.6454 7.86 16.4854 7.92 16.2934 7.92H13.3174L13.0894 9.66C13.2414 9.572 13.4334 9.5 13.6654 9.444C13.8974 9.388 14.1174 9.36 14.3254 9.36Z" fill="#F6F9F9"/>
<path d="M7.40588 24.511C7.40487 24.511 7.40385 24.511 7.40291 24.511C6.94699 24.5136 6.45591 24.5153 6.10316 24.5154V19.8277C6.10316 19.5398 5.86976 19.3064 5.58185 19.3064C5.29394 19.3064 5.06055 19.5398 5.06055 19.8277V25.0323C5.06055 25.2862 5.24347 25.5032 5.49373 25.5461C5.53091 25.5526 5.56451 25.5583 6.13669 25.5583C6.41387 25.5583 6.81744 25.5569 7.40878 25.5536C7.69669 25.552 7.9288 25.3173 7.92718 25.0294C7.92556 24.7425 7.69244 24.511 7.40588 24.511Z" fill="#F6F9F9"/>
<path d="M25.111 24.511C25.11 24.511 25.109 24.511 25.1081 24.511C24.6522 24.5136 24.1611 24.5153 23.8082 24.5154V19.8277C23.8082 19.5398 23.5748 19.3064 23.2869 19.3064C22.999 19.3064 22.7656 19.5398 22.7656 19.8277V25.0323C22.7656 25.2862 22.9485 25.5032 23.1987 25.5461C23.2359 25.5526 23.2696 25.5583 23.842 25.5583C24.1191 25.5583 24.5226 25.5569 25.1139 25.5536C25.4018 25.552 25.6339 25.3173 25.6323 25.0294C25.6307 24.7425 25.3976 24.511 25.111 24.511Z" fill="#F6F9F9"/>
<path d="M11.3661 20.3969C11.654 20.3969 11.8874 20.1635 11.8874 19.8756C11.8874 19.5876 11.654 19.3542 11.3661 19.3542H9.19123C8.90332 19.3542 8.66992 19.5876 8.66992 19.8756V25.037C8.66992 25.3249 8.90332 25.5583 9.19123 25.5583H11.3661C11.654 25.5583 11.8874 25.3249 11.8874 25.037C11.8874 24.7491 11.654 24.5157 11.3661 24.5157H9.71253V22.9776H11.2057C11.4936 22.9776 11.727 22.7442 11.727 22.4563C11.727 22.1684 11.4936 21.935 11.2057 21.935H9.71253V20.3969H11.3661V20.3969Z" fill="#F6F9F9"/>
<path d="M21.0516 20.3969C21.3395 20.3969 21.5729 20.1635 21.5729 19.8756C21.5729 19.5876 21.3395 19.3542 21.0516 19.3542H18.8768C18.5889 19.3542 18.3555 19.5876 18.3555 19.8756V25.037C18.3555 25.3249 18.5889 25.5583 18.8768 25.5583H21.0516C21.3395 25.5583 21.5729 25.3249 21.5729 25.037C21.5729 24.7491 21.3395 24.5157 21.0516 24.5157H19.3981V22.9776H20.8913C21.1792 22.9776 21.4126 22.7442 21.4126 22.4563C21.4126 22.1684 21.1792 21.935 20.8913 21.935H19.3981V20.3969H21.0516V20.3969Z" fill="#F6F9F9"/>
<path d="M17.0205 19.3424C16.7473 19.2515 16.4522 19.3995 16.3614 19.6728L15.0357 23.6636L13.6448 19.6566C13.5505 19.3846 13.2532 19.2408 12.9814 19.335C12.7094 19.4294 12.5655 19.7265 12.6598 19.9985L14.4421 25.133C14.5326 25.3876 14.7741 25.5579 15.0441 25.5579C15.0455 25.5579 15.047 25.5578 15.0484 25.5578C15.3202 25.556 15.5615 25.3819 15.6501 25.1212L17.3509 20.0014C17.4416 19.7283 17.2937 19.4332 17.0205 19.3424Z" fill="#F6F9F9"/>
</svg>
