<svg width="30" height="30" viewBox="0 0 30 30" fill="none" xmlns="http://www.w3.org/2000/svg">
<path d="M5.55637 30.0002H24.4436C27.5123 30.0002 30 27.5126 30 24.4439V5.55661C30 2.48795 27.5124 0.000244141 24.4436 0.000244141H5.55637C2.48771 0.000244141 0 2.48788 0 5.55661V24.4439C0 27.5126 2.48764 30.0002 5.55637 30.0002Z" fill="#EAF6FF"/>
<path d="M6.81286 29.9996H5.55649C2.48777 29.9996 0 27.5125 0 24.4438V5.5565C0 2.48778 2.48777 0 5.55649 0H6.81286C3.74414 0 1.25637 2.48778 1.25637 5.5565V24.4438C1.25637 27.5125 3.74414 29.9996 6.81286 29.9996Z" fill="#D6E9F8"/>
<path d="M5.555 27.9147C3.64102 27.9147 2.08398 26.3576 2.08398 24.4437V5.55646C2.08398 3.64255 3.64109 2.08545 5.555 2.08545H24.4423C26.3562 2.08545 27.9133 3.64255 27.9133 5.55646V24.4437C27.9133 26.3576 26.3562 27.9147 24.4423 27.9147H5.555Z" fill="#27A600"/>
<path d="M16.6832 13.68C16.8752 13.68 17.0352 13.744 17.1632 13.872C17.2912 14 17.3552 14.16 17.3552 14.352C17.3552 14.536 17.2912 14.692 17.1632 14.82C17.0352 14.94 16.8752 15 16.6832 15H12.6032C12.3952 15 12.2312 14.936 12.1112 14.808C11.9912 14.68 11.9312 14.516 11.9312 14.316C11.9312 14.116 12.0032 13.94 12.1472 13.788L14.7632 10.992C15.0592 10.672 15.2912 10.352 15.4592 10.032C15.6352 9.704 15.7232 9.404 15.7232 9.132C15.7232 8.772 15.5952 8.46 15.3392 8.196C15.0832 7.932 14.7872 7.8 14.4512 7.8C14.2192 7.8 13.9832 7.88 13.7432 8.04C13.5112 8.192 13.2992 8.396 13.1072 8.652C12.9632 8.844 12.7792 8.94 12.5552 8.94C12.3792 8.94 12.2152 8.872 12.0632 8.736C11.9192 8.6 11.8472 8.448 11.8472 8.28C11.8472 8.16 11.8872 8.04 11.9672 7.92C12.0472 7.792 12.1672 7.648 12.3272 7.488C12.6312 7.184 12.9832 6.94 13.3832 6.756C13.7832 6.572 14.1672 6.48 14.5352 6.48C15.0632 6.48 15.5272 6.592 15.9272 6.816C16.3272 7.04 16.6352 7.348 16.8512 7.74C17.0672 8.132 17.1752 8.576 17.1752 9.072C17.1752 9.56 17.0432 10.064 16.7792 10.584C16.5232 11.096 16.1752 11.588 15.7352 12.06L14.2112 13.68H16.6832Z" fill="#F6F9F9"/>
<path d="M7.40588 24.511C7.40487 24.511 7.40385 24.511 7.40291 24.511C6.94699 24.5136 6.45591 24.5153 6.10316 24.5154V19.8277C6.10316 19.5398 5.86976 19.3064 5.58185 19.3064C5.29394 19.3064 5.06055 19.5398 5.06055 19.8277V25.0323C5.06055 25.2862 5.24347 25.5032 5.49373 25.5461C5.53091 25.5526 5.56451 25.5583 6.13669 25.5583C6.41387 25.5583 6.81744 25.5569 7.40878 25.5536C7.69669 25.552 7.9288 25.3173 7.92718 25.0294C7.92556 24.7425 7.69244 24.511 7.40588 24.511Z" fill="#F6F9F9"/>
<path d="M25.111 24.511C25.11 24.511 25.109 24.511 25.1081 24.511C24.6522 24.5136 24.1611 24.5153 23.8082 24.5154V19.8277C23.8082 19.5398 23.5748 19.3064 23.2869 19.3064C22.999 19.3064 22.7656 19.5398 22.7656 19.8277V25.0323C22.7656 25.2862 22.9485 25.5032 23.1987 25.5461C23.2359 25.5526 23.2696 25.5583 23.842 25.5583C24.1191 25.5583 24.5226 25.5569 25.1139 25.5536C25.4018 25.552 25.6339 25.3173 25.6323 25.0294C25.6307 24.7425 25.3976 24.511 25.111 24.511Z" fill="#F6F9F9"/>
<path d="M11.3661 20.3969C11.654 20.3969 11.8874 20.1635 11.8874 19.8756C11.8874 19.5876 11.654 19.3542 11.3661 19.3542H9.19123C8.90332 19.3542 8.66992 19.5876 8.66992 19.8756V25.037C8.66992 25.3249 8.90332 25.5583 9.19123 25.5583H11.3661C11.654 25.5583 11.8874 25.3249 11.8874 25.037C11.8874 24.7491 11.654 24.5157 11.3661 24.5157H9.71253V22.9776H11.2057C11.4936 22.9776 11.727 22.7442 11.727 22.4563C11.727 22.1684 11.4936 21.935 11.2057 21.935H9.71253V20.3969H11.3661V20.3969Z" fill="#F6F9F9"/>
<path d="M21.0516 20.3969C21.3395 20.3969 21.5729 20.1635 21.5729 19.8756C21.5729 19.5876 21.3395 19.3542 21.0516 19.3542H18.8768C18.5889 19.3542 18.3555 19.5876 18.3555 19.8756V25.037C18.3555 25.3249 18.5889 25.5583 18.8768 25.5583H21.0516C21.3395 25.5583 21.5729 25.3249 21.5729 25.037C21.5729 24.7491 21.3395 24.5157 21.0516 24.5157H19.3981V22.9776H20.8913C21.1792 22.9776 21.4126 22.7442 21.4126 22.4563C21.4126 22.1684 21.1792 21.935 20.8913 21.935H19.3981V20.3969H21.0516V20.3969Z" fill="#F6F9F9"/>
<path d="M17.0205 19.3424C16.7473 19.2515 16.4522 19.3995 16.3614 19.6728L15.0357 23.6636L13.6448 19.6566C13.5505 19.3846 13.2532 19.2408 12.9814 19.335C12.7094 19.4294 12.5655 19.7265 12.6598 19.9985L14.4421 25.133C14.5326 25.3876 14.7741 25.5579 15.0441 25.5579C15.0455 25.5579 15.047 25.5578 15.0484 25.5578C15.3202 25.556 15.5615 25.3819 15.6501 25.1212L17.3509 20.0014C17.4416 19.7283 17.2937 19.4332 17.0205 19.3424Z" fill="#F6F9F9"/>
</svg>
