<svg width="30" height="30" viewBox="0 0 30 30" fill="none" xmlns="http://www.w3.org/2000/svg">
<path d="M19.0351 29.9998H3.19218C1.42919 29.9998 0 28.5706 0 26.8077V7.14652C0 5.38354 1.42919 3.95435 3.19218 3.95435H19.0351C20.7981 3.95435 22.2273 5.38354 22.2273 7.14652V26.8077C22.2273 28.5706 20.7981 29.9998 19.0351 29.9998Z" fill="#27A600"/>
<path d="M11.1338 11.4472C14.2948 11.4472 16.8574 8.88468 16.8574 5.72362C16.8574 2.56255 14.2948 0 11.1338 0C7.97271 0 5.41016 2.56255 5.41016 5.72362C5.41016 8.88468 7.97271 11.4472 11.1338 11.4472Z" fill="#FF8300"/>
<path d="M11.6627 2.66274C11.5447 2.6423 11.4236 2.62836 11.3027 2.62126C10.9458 2.60022 10.6735 2.29384 10.6945 1.93689C10.7155 1.57994 11.0225 1.30762 11.3789 1.32866C11.548 1.33868 11.718 1.35826 11.8838 1.387C12.2361 1.44799 12.4722 1.78311 12.4112 2.13541C12.3502 2.48758 12.015 2.72374 11.6627 2.66274Z" fill="#E3F9FB"/>
<path d="M8.15923 3.30277C7.92567 3.0321 7.95567 2.62325 8.2264 2.38962C8.49813 2.15513 8.80132 1.95369 9.1276 1.79101C9.44752 1.63138 9.83633 1.7614 9.99595 2.08132C10.1556 2.4013 10.0256 2.79004 9.70564 2.94967C9.47573 3.06436 9.26267 3.20573 9.07245 3.36994C8.80105 3.60397 8.39233 3.57284 8.15923 3.30277Z" fill="#E3F9FB"/>
<path d="M7.13324 7.34572C7.50886 7.34572 7.81336 7.10101 7.81336 6.79914C7.81336 6.49727 7.50886 6.25256 7.13324 6.25256C6.75762 6.25256 6.45312 6.49727 6.45312 6.79914C6.45312 7.10101 6.75762 7.34572 7.13324 7.34572Z" fill="#39D83F"/>
<path d="M15.1371 7.34572C15.5128 7.34572 15.8173 7.10101 15.8173 6.79914C15.8173 6.49727 15.5128 6.25256 15.1371 6.25256C14.7615 6.25256 14.457 6.49727 14.457 6.79914C14.457 7.10101 14.7615 7.34572 15.1371 7.34572Z" fill="#39D83F"/>
<path d="M8.29972 6.79916C9.04451 6.79916 9.64828 6.19539 9.64828 5.4506C9.64828 4.70582 9.04451 4.10205 8.29972 4.10205C7.55494 4.10205 6.95117 4.70582 6.95117 5.4506C6.95117 6.19539 7.55494 6.79916 8.29972 6.79916Z" fill="white"/>
<path d="M13.9716 6.79916C14.7164 6.79916 15.3202 6.19539 15.3202 5.4506C15.3202 4.70582 14.7164 4.10205 13.9716 4.10205C13.2268 4.10205 12.623 4.70582 12.623 5.4506C12.623 6.19539 13.2268 6.79916 13.9716 6.79916Z" fill="white"/>
<path d="M8.29986 6.25475C8.74377 6.25475 9.10363 5.89489 9.10363 5.45099C9.10363 5.00708 8.74377 4.64722 8.29986 4.64722C7.85595 4.64722 7.49609 5.00708 7.49609 5.45099C7.49609 5.89489 7.85595 6.25475 8.29986 6.25475Z" fill="#3B3B44"/>
<path d="M13.9717 6.25512C14.4156 6.25512 14.7755 5.89526 14.7755 5.45135C14.7755 5.00744 14.4156 4.64758 13.9717 4.64758C13.5278 4.64758 13.168 5.00744 13.168 5.45135C13.168 5.89526 13.5278 6.25512 13.9717 6.25512Z" fill="#3B3B44"/>
<path d="M11.135 6.94747C10.8709 6.94747 10.6069 6.84764 10.3914 6.64786C10.257 6.52328 10.249 6.31328 10.3736 6.17888C10.4983 6.04447 10.7082 6.03651 10.8426 6.16115C11.0175 6.32324 11.2525 6.32324 11.4274 6.16115C11.5617 6.03657 11.7718 6.04447 11.8964 6.17888C12.021 6.31328 12.0131 6.52321 11.8786 6.64786C11.6632 6.84764 11.3992 6.94747 11.135 6.94747Z" fill="#3B3B44"/>
<path d="M17.1567 15.9501H5.07188C4.65034 15.9501 4.30859 15.6085 4.30859 15.1869C4.30859 14.7653 4.65034 14.4236 5.07188 14.4236H17.1567C17.5783 14.4236 17.92 14.7653 17.92 15.1869C17.92 15.6085 17.5782 15.9501 17.1567 15.9501Z" fill="#EFC534"/>
<path d="M17.1567 20.2308H5.07188C4.65034 20.2308 4.30859 19.889 4.30859 19.4675C4.30859 19.0459 4.65034 18.7042 5.07188 18.7042H17.1567C17.5783 18.7042 17.92 19.0459 17.92 19.4675C17.92 19.889 17.5782 20.2308 17.1567 20.2308Z" fill="#EFC534"/>
<path d="M17.1567 24.5118H5.07188C4.65034 24.5118 4.30859 24.1701 4.30859 23.7485C4.30859 23.3269 4.65034 22.9852 5.07188 22.9852H17.1567C17.5783 22.9852 17.92 23.3269 17.92 23.7485C17.92 24.1701 17.5782 24.5118 17.1567 24.5118Z" fill="#EFC534"/>
<path d="M28.9216 12.0007L27.1696 10.2487C26.8334 9.91254 26.2884 9.91254 25.9522 10.2487L23.9121 12.2888L26.8815 15.2582L28.9216 13.2181C29.2579 12.882 29.2579 12.3369 28.9216 12.0007Z" fill="#4E5660"/>
<path d="M19.4174 23.7179L15.4516 19.7521L13.5457 23.8234C13.3041 24.3396 13.4116 24.9519 13.8146 25.3549C14.2176 25.7579 14.83 25.8654 15.3461 25.6238L19.4174 23.7179Z" fill="#FFDD00"/>
<path d="M17.7878 23.5616L15.608 21.3818C14.9536 20.7275 14.9536 19.6665 15.608 19.0121L22.6842 11.9358C23.3386 11.2815 24.3996 11.2815 25.0539 11.9358L27.2337 14.1156C27.8881 14.77 27.8881 15.831 27.2337 16.4853L20.1575 23.5616C19.5031 24.216 18.4422 24.216 17.7878 23.5616Z" fill="#3B5CAD"/>
<path d="M21.884 21.8417L21.5315 21.4893C21.0598 21.0176 21.0598 20.2528 21.5315 19.781L25.1545 16.158C25.4791 15.8335 26.0052 15.8335 26.3297 16.158L27.2151 17.0435C27.5396 17.368 27.5396 17.8942 27.2151 18.2187L23.5921 21.8417C23.1205 22.3134 22.3557 22.3134 21.884 21.8417Z" fill="#27A600"/>
<path d="M18.9723 18.6558C18.8025 18.6558 18.6326 18.5909 18.503 18.4614C18.2438 18.2022 18.2438 17.7819 18.503 17.5227L20.2887 15.7369C20.5479 15.4778 20.9681 15.4778 21.2273 15.7369C21.4865 15.9961 21.4866 16.4164 21.2274 16.6756L19.4417 18.4614C19.3121 18.5909 19.1422 18.6558 18.9723 18.6558Z" fill="#E3F9FB"/>
<path d="M22.6578 14.9696C22.488 14.9696 22.3181 14.9048 22.1885 14.7752C21.9293 14.516 21.9293 14.0958 22.1885 13.8365L22.5349 13.4901C22.7941 13.231 23.2144 13.231 23.4736 13.4901C23.7328 13.7493 23.7328 14.1696 23.4736 14.4288L23.1272 14.7752C22.9976 14.9048 22.8278 14.9696 22.6578 14.9696Z" fill="#E3F9FB"/>
</svg>
