<svg width="27" height="30" viewBox="0 0 27 30" fill="none" xmlns="http://www.w3.org/2000/svg">
<path d="M23.7104 16.7219H20.1263C19.5395 16.7219 19.0676 17.1939 19.0676 17.7806V22.0663C19.0676 21.4796 18.5957 21.0076 18.0089 21.0076H14.412C13.8252 21.0076 13.3533 21.4796 13.3533 22.0663V24.8979C13.3533 24.3112 12.8814 23.8393 12.2946 23.8393H8.71046C8.12372 23.8393 7.65178 24.3112 7.65178 24.8979V27.5255C7.65178 26.9388 7.17984 26.4668 6.59311 26.4668H2.99617C2.40944 26.4668 1.9375 26.9388 1.9375 27.5255V29.5408H24.7691V17.7806C24.7691 17.1939 24.2972 16.7219 23.7104 16.7219Z" fill="#FFDDA8"/>
<path d="M20.6105 17.1684C20.3681 17.1684 20.1641 16.9643 20.1641 16.7219V0.446428C20.1641 0.204081 20.3681 0 20.6105 0C20.8528 0 21.0569 0.204081 21.0569 0.446428V16.7219C21.0569 16.977 20.8528 17.1684 20.6105 17.1684Z" fill="#FFDDA8"/>
<path d="M7.65178 29.5535H1.9375V27.5382C1.9375 26.9514 2.40944 26.4795 2.99617 26.4795H6.58035C7.16709 26.4795 7.63903 26.9514 7.63903 27.5382V29.5535H7.65178Z" fill="#FFDD00"/>
<path d="M13.3558 29.5536H7.6543V24.9107C7.6543 24.324 8.12624 23.8521 8.71297 23.8521H12.2972C12.8839 23.8521 13.3558 24.324 13.3558 24.9107V29.5536Z" fill="#FF8300"/>
<path d="M19.0687 29.5537H13.3672V22.0792C13.3672 21.4924 13.8391 21.0205 14.4259 21.0205H18.01C18.5968 21.0205 19.0687 21.4924 19.0687 22.0792V29.5537Z" fill="#1F86FF"/>
<path d="M24.7699 29.5535H19.0684V17.7933C19.0684 17.2066 19.5403 16.7346 20.127 16.7346H23.7112C24.2979 16.7346 24.7699 17.2066 24.7699 17.7933V29.5535Z" fill="#27A600"/>
<path d="M26.352 30H0.446428C0.204081 30 0 29.796 0 29.5536C0 29.3113 0.204081 29.1072 0.446428 29.1072H26.352C26.5944 29.1072 26.7985 29.3113 26.7985 29.5536C26.7985 29.796 26.5944 30 26.352 30Z" fill="#3B5CAD"/>
<path d="M20.6133 4.7065H26.3531C26.5316 4.7065 26.6082 4.48966 26.4806 4.37486L24.9883 3.06109C24.899 2.98456 24.899 2.84425 24.9883 2.76772L26.4806 1.45395C26.6082 1.33915 26.5316 1.12231 26.3531 1.12231H20.6133V4.7065Z" fill="#00B24D"/>
<path d="M21.0705 6.39038L14.846 9.77048C14.2975 10.0766 14.1445 10.5996 13.9404 11.2883L12.7031 15.6633L14.3358 16.2246L15.7388 14.4261L16.9123 10.8674L20.0373 8.96691C20.9174 8.41844 21.3383 7.37252 21.0705 6.39038Z" fill="#00B24D"/>
<path d="M21.0714 6.39038L20.3571 6.78579C20.2423 7.39803 19.8597 7.95926 19.2984 8.30365L16.4413 10.0383C16.2627 10.1531 16.1224 10.319 16.0586 10.5103L15.6505 11.7475C15.2296 13.023 14.2602 14.0562 13.0229 14.5664L12.7168 15.6633L15.7525 14.4261L16.926 10.8674L20.051 8.96691C20.9183 8.41844 21.3392 7.37252 21.0714 6.39038Z" fill="#098F38"/>
<path d="M15.7399 14.4133L17.5256 16.5307C17.819 16.9261 18.0868 17.1939 18.023 17.6276L17.6021 21.0077H16.5052L16.2246 18.0996C16.2118 17.921 16.097 17.7679 15.9312 17.7041L12.6914 15.6506L15.7399 14.4133Z" fill="#3B5CAD"/>
<path d="M12.7179 15.6504L12.5393 18.8647C12.5266 19.1325 12.5649 19.3111 12.4628 19.5024L10.3965 23.8392H11.5572L14.6567 19.7193C14.8353 19.5024 14.8608 19.2218 14.9245 18.954L15.7409 14.4004L12.7179 15.6504Z" fill="#5472BA"/>
<path d="M15.5225 7.07906L16.0327 8.07396C16.275 8.5459 16.0837 9.10712 15.6245 9.34947L15.2291 9.55355C14.7572 9.7959 14.196 9.60457 13.9536 9.14539L13.4434 8.15049C13.2011 7.67855 13.3924 7.11733 13.8516 6.87498L14.247 6.6709C14.7062 6.42855 15.2801 6.60712 15.5225 7.07906Z" fill="#FFDDA8"/>
</svg>
