<svg width="28" height="30" viewBox="0 0 28 30" fill="none" xmlns="http://www.w3.org/2000/svg">
<path d="M25.4867 2.19019H7.60052C6.2678 2.19019 5.1875 3.2706 5.1875 4.6032V27.5876C5.1875 28.9202 6.26791 30.0006 7.60052 30.0006H25.4867C26.8194 30.0006 27.8997 28.9202 27.8997 27.5876V4.60326C27.8997 3.27066 26.8193 2.19019 25.4867 2.19019Z" fill="#289906"/>
<path d="M22.4613 0H4.57513C3.24246 0 2.16211 1.08036 2.16211 2.41302V25.3974C2.16211 26.73 3.24246 27.8104 4.57513 27.8104H22.4613C23.794 27.8104 24.8743 26.73 24.8743 25.3974V2.41302C24.8743 1.08036 23.7939 0 22.4613 0Z" fill="#27A600"/>
<path d="M18.4607 5.66821H8.58008C8.02779 5.66821 7.58008 6.11593 7.58008 6.66821V11.3352C7.58008 11.8874 8.02779 12.3352 8.58008 12.3352H18.4607C19.013 12.3352 19.4607 11.8874 19.4607 11.3351V6.66821C19.4607 6.11593 19.013 5.66821 18.4607 5.66821Z" fill="#E3F9FB"/>
<path d="M16.4855 8.4287H10.5535C10.2403 8.4287 9.98633 8.17487 9.98633 7.86156C9.98633 7.54832 10.2402 7.29443 10.5535 7.29443H16.4855C16.7986 7.29443 17.0526 7.54826 17.0526 7.86156C17.0525 8.17487 16.7986 8.4287 16.4855 8.4287Z" fill="#3B5CAD"/>
<path d="M16.4855 10.7075H10.5535C10.2403 10.7075 9.98633 10.4537 9.98633 10.1404C9.98633 9.82707 10.2402 9.57324 10.5535 9.57324H16.4855C16.7986 9.57324 17.0526 9.82707 17.0526 10.1404C17.0525 10.4537 16.7986 10.7075 16.4855 10.7075Z" fill="#3B5CAD"/>
<path d="M3.72089 4.80457H1.00453C0.449767 4.80457 0 5.25427 0 5.8091C0 6.36387 0.449767 6.81363 1.00453 6.81363H3.72095C4.27572 6.81363 4.72549 6.36387 4.72549 5.8091C4.72549 5.25427 4.27572 4.80457 3.72089 4.80457Z" fill="#EFC534"/>
<path d="M3.72089 10.2024H1.00453C0.449767 10.2024 0 10.6521 0 11.2069C0 11.7617 0.449767 12.2115 1.00453 12.2115H3.72095C4.27572 12.2115 4.72549 11.7617 4.72549 11.2069C4.72549 10.6522 4.27572 10.2024 3.72089 10.2024Z" fill="#EFC534"/>
<path d="M3.72089 15.5988H1.00453C0.449767 15.5988 0 16.0485 0 16.6033C0 17.1581 0.449767 17.6078 1.00453 17.6078H3.72095C4.27572 17.6078 4.72549 17.1581 4.72549 16.6033C4.72549 16.0485 4.27572 15.5988 3.72089 15.5988Z" fill="#EFC534"/>
<path d="M3.72089 20.9967H1.00453C0.449767 20.9967 0 21.4464 0 22.0012C0 22.556 0.449767 23.0058 1.00453 23.0058H3.72095C4.27572 23.0058 4.72549 22.556 4.72549 22.0012C4.72549 21.4464 4.27572 20.9967 3.72089 20.9967Z" fill="#EFC534"/>
</svg>
