<svg width="30" height="30" viewBox="0 0 30 30" fill="none" xmlns="http://www.w3.org/2000/svg">
<g clip-path="url(#clip0)">
<path d="M14.0206 15.0035H10.3548V13.269C10.3548 11.6914 9.07585 10.4126 7.4984 10.4126C5.92072 10.4126 4.64195 11.6914 4.64195 13.269V15.0035H0.976181C0.436935 15.0035 0 15.4404 0 15.9795V26.1926C0 28.2954 1.70471 30.0001 3.80745 30.0001H14.0204C14.5596 30.0001 14.9966 29.5629 14.9966 29.0239V15.9795C14.9966 15.4404 14.5596 15.0035 14.0206 15.0035Z" fill="#27A600"/>
<path d="M14.0206 28.5582H3.80745C1.70471 28.5582 0 26.8535 0 24.7507V26.1925C0 28.2952 1.70471 29.9999 3.80745 29.9999H14.0204C14.5596 29.9999 14.9966 29.563 14.9966 29.0237V27.582C14.9966 28.1212 14.5596 28.5582 14.0206 28.5582Z" fill="#279A04"/>
<path d="M29.0178 15.0034H15.9733C15.4341 15.0034 14.9972 15.4404 14.9972 15.9794V19.6451H13.2627C11.6852 19.6451 10.4062 20.9241 10.4062 22.5016C10.4062 24.0793 11.6852 25.358 13.2627 25.358H14.9972V29.0238C14.9972 29.5628 15.4343 29.9998 15.9733 29.9998H26.1863C28.289 29.9998 29.9937 28.2953 29.9937 26.1923V15.9794C29.9937 15.4404 29.5568 15.0034 29.0178 15.0034Z" fill="#FFDD00"/>
<path d="M29.0167 15.0034H28.3225V24.7689C28.3225 26.8719 26.6178 28.5763 24.5151 28.5763H14.9961V29.0238C14.9961 29.563 15.4333 30 15.9723 30H26.1852C28.2879 30 29.9927 28.2953 29.9927 26.1925V15.9794C29.9927 15.4404 29.5557 15.0034 29.0167 15.0034Z" fill="#F2D200"/>
<path d="M26.1787 0H15.9655C15.4263 0 14.9893 0.436935 14.9893 0.976181V4.64172H13.2549C11.6774 4.64172 10.3984 5.92072 10.3984 7.49817C10.3984 9.07585 11.6774 10.3548 13.2549 10.3548H14.9893V14.0204C14.9893 14.5594 15.4265 14.9966 15.9655 14.9966H19.6311V16.731C19.6311 18.3085 20.9101 19.5875 22.4877 19.5875C24.0652 19.5875 25.3442 18.3085 25.3442 16.731V14.9966H29.0097C29.549 14.9966 29.9859 14.5596 29.9859 14.0206V3.80745C29.9861 1.70471 28.2814 0 26.1787 0V0Z" fill="#FF8300"/>
<path d="M27.3585 0.1875C27.9582 0.860413 28.323 1.7471 28.323 2.71939V12.9323C28.323 13.4713 27.8861 13.9085 27.347 13.9085H25.2542C24.3855 13.9085 23.6813 14.6125 23.6813 15.4812V15.643C23.6813 17.2204 22.4023 18.4994 20.8248 18.4994C20.6062 18.4994 20.3938 18.474 20.1895 18.4276C20.7097 19.1311 21.5453 19.5875 22.4874 19.5875C24.0651 19.5875 25.3441 18.3088 25.3441 16.7311V14.9966H29.0096C29.5489 14.9966 29.9858 14.5597 29.9858 14.0207V3.8075C29.9858 2.11674 28.8833 0.684174 27.3585 0.1875Z" fill="#F17C00"/>
</g>
<defs>
<clipPath id="clip0">
<rect width="30" height="30" fill="white"/>
</clipPath>
</defs>
</svg>
