<svg width="30" height="30" viewBox="0 0 30 30" fill="none" xmlns="http://www.w3.org/2000/svg">
<g clip-path="url(#clip0)">
<path d="M15 30C23.2843 30 30 23.2843 30 15C30 6.71573 23.2843 0 15 0C6.71573 0 0 6.71573 0 15C0 23.2843 6.71573 30 15 30Z" fill="#FF8181"/>
<path d="M30.0008 15.0001C30.0008 23.2876 23.2836 30.0001 15.0008 30.0001C10.2852 30.0001 6.07578 27.8251 3.32422 24.4172C5.89766 26.4985 9.17422 27.7407 12.7414 27.7407C21.0242 27.7407 27.7414 21.0282 27.7414 12.7407C27.7414 9.17349 26.4992 5.89692 24.418 3.32349C27.8211 6.07505 30.0008 10.2844 30.0008 15.0001Z" fill="#F45D5C"/>
<path d="M12.9506 14.5639C12.9506 16.1642 11.4346 17.458 9.56805 17.458C7.70149 17.458 6.18555 16.1642 6.18555 14.5639C6.18555 14.2452 6.24273 13.9386 6.36367 13.6517C6.80617 14.8892 8.07555 15.312 9.56805 15.312C11.0615 15.312 12.3309 14.8892 12.7724 13.6517C12.8924 13.9395 12.9506 14.2452 12.9506 14.5639Z" fill="#3E4347"/>
<path d="M17.0488 14.5639C17.0488 16.1642 18.5648 17.458 20.4313 17.458C22.2979 17.458 23.8138 16.1642 23.8138 14.5639C23.8138 14.2452 23.7566 13.9386 23.6357 13.6517C23.1932 14.8892 21.9238 15.312 20.4313 15.312C18.9379 15.312 17.6685 14.8892 17.227 13.6517C17.107 13.9395 17.0488 14.2452 17.0488 14.5639Z" fill="#3E4347"/>
<path d="M21.8776 12.7585C19.4982 12.2691 18.1023 11.2669 17.4845 9.60286C17.3645 9.27942 17.5295 8.91942 17.8529 8.79942C18.1764 8.67942 18.5364 8.84442 18.6564 9.16786C18.9648 10.0004 19.6389 11.0213 22.1289 11.5332C22.4673 11.6025 22.6848 11.9335 22.6154 12.271C22.5451 12.616 22.2085 12.8279 21.8776 12.7585Z" fill="#3E4347"/>
<path d="M7.3776 12.2232C7.33635 11.8801 7.5801 11.5688 7.92229 11.5276C9.6426 11.3185 10.8576 10.4813 11.3442 9.17068C11.4642 8.84724 11.8242 8.6813 12.1476 8.80224C12.471 8.92224 12.637 9.28224 12.516 9.60568C11.8682 11.3513 10.2492 12.5044 8.07416 12.7688C7.72635 12.8091 7.41979 12.5626 7.3776 12.2232Z" fill="#3E4347"/>
<path d="M19.8966 23.7751C16.5638 22.4935 13.4447 22.4935 10.111 23.7751C9.60287 23.9598 9.19037 23.2679 9.54006 22.816C11.0879 20.7873 13.0322 19.6342 15.0001 19.6342C16.9679 19.6342 18.9207 20.7873 20.4601 22.816C20.8088 23.2679 20.3963 23.9589 19.8966 23.7751Z" fill="#3E4347"/>
</g>
<defs>
<clipPath id="clip0">
<rect width="30" height="30" fill="white"/>
</clipPath>
</defs>
</svg>
