<svg width="45" height="45" viewBox="0 0 45 45" fill="none" xmlns="http://www.w3.org/2000/svg">
<g clip-path="url(#clip0)">
<path d="M5.8948 30.7825C6.23454 33.4325 4.98745 36.9595 3.25701 39.5669C2.0508 41.3845 3.39183 43.7973 5.57263 43.7492C11.1479 43.6259 16.1112 40.9806 18.4992 36.8636L5.8948 30.7825Z" fill="#3B5CAD"/>
<path d="M22.5 37.4963C34.9264 37.4963 45 29.3824 45 19.3734C45 9.36438 34.9264 1.25049 22.5 1.25049C10.0736 1.25049 0 9.36438 0 19.3734C0 29.3824 10.0736 37.4963 22.5 37.4963Z" fill="#27A600"/>
<path opacity="0.2" d="M14.6221 16.6231C15.3615 16.6231 15.961 16.1414 15.961 15.5472C15.961 14.9529 15.3615 14.4712 14.6221 14.4712C13.8826 14.4712 13.2832 14.9529 13.2832 15.5472C13.2832 16.1414 13.8826 16.6231 14.6221 16.6231Z" fill="#EAADCD"/>
<path opacity="0.2" d="M30.3779 16.6231C31.1174 16.6231 31.7168 16.1414 31.7168 15.5472C31.7168 14.9529 31.1174 14.4712 30.3779 14.4712C29.6385 14.4712 29.0391 14.9529 29.0391 15.5472C29.0391 16.1414 29.6385 16.6231 30.3779 16.6231Z" fill="#EAADCD"/>
<path d="M19.5659 12.7147C19.4771 11.3569 18.3466 10.2728 16.9865 10.238C15.4883 10.1996 14.2617 11.4026 14.2617 12.8921C14.2617 12.9676 14.2649 13.0425 14.2711 13.1164C14.309 13.5655 14.7962 13.833 15.1988 13.6308C15.2828 13.5887 15.3715 13.5507 15.4621 13.5148L15.4611 13.5135C15.8893 13.0232 16.3855 12.8448 16.9166 12.8448C17.4478 12.8448 17.9439 13.0232 18.3721 13.5135L18.371 13.5147C18.4616 13.5506 18.5502 13.5885 18.6341 13.6306C19.0414 13.8351 19.5271 13.5588 19.5632 13.1044C19.5735 12.9769 19.5746 12.8468 19.5659 12.7147Z" fill="white"/>
<path d="M22.4996 16.4602C21.9217 16.4602 21.3438 16.2671 20.8616 15.8807C20.4144 15.5224 20.3422 14.8694 20.7005 14.4222C21.0588 13.9748 21.7118 13.9029 22.159 14.2611C22.3596 14.4217 22.6396 14.4217 22.8401 14.2611C23.2873 13.9028 23.9403 13.9748 24.2987 14.4222C24.657 14.8694 24.5849 15.5224 24.1376 15.8807C23.6554 16.2671 23.0775 16.4602 22.4996 16.4602Z" fill="#3B3B44"/>
<path d="M16.9183 13.2477C17.4495 13.2477 17.9467 13.3447 18.3738 13.5136C18.4555 13.3228 18.5006 13.1129 18.5006 12.8922C18.5006 12.0182 17.7922 11.3098 16.9183 11.3098C16.0444 11.3098 15.3359 12.0182 15.3359 12.8922C15.3359 13.1129 15.3811 13.3227 15.4628 13.5136C15.8898 13.3447 16.3872 13.2477 16.9183 13.2477Z" fill="#3B3B44"/>
<path d="M30.7319 12.7147C30.6431 11.3569 29.5126 10.2728 28.1525 10.238C26.6543 10.1996 25.4277 11.4026 25.4277 12.8921C25.4277 12.9676 25.4309 13.0425 25.4371 13.1164C25.475 13.5655 25.9622 13.833 26.3648 13.6308C26.4488 13.5887 26.5375 13.5507 26.6281 13.5148L26.6271 13.5135C27.0553 13.0232 27.5514 12.8448 28.0826 12.8448C28.6139 12.8448 29.11 13.0232 29.5381 13.5135L29.537 13.5147C29.6276 13.5506 29.7162 13.5885 29.8001 13.6306C30.2074 13.8351 30.6931 13.5588 30.7292 13.1044C30.7394 12.9769 30.7405 12.8468 30.7319 12.7147Z" fill="white"/>
<path d="M28.0824 13.2477C28.6136 13.2477 29.1109 13.3447 29.538 13.5136C29.6196 13.3228 29.6648 13.1129 29.6648 12.8922C29.6648 12.0182 28.9564 11.3098 28.0824 11.3098C27.2085 11.3098 26.5 12.0182 26.5 12.8922C26.5 13.1129 26.5452 13.3227 26.6268 13.5136C27.0539 13.3447 27.5512 13.2477 28.0824 13.2477Z" fill="#3B3B44"/>
<path d="M22.5004 29.0145C24.2363 29.0145 25.6434 27.6074 25.6434 25.8715C25.6434 24.1357 24.2363 22.7285 22.5004 22.7285C20.7646 22.7285 19.3574 24.1357 19.3574 25.8715C19.3574 27.6074 20.7646 29.0145 22.5004 29.0145Z" fill="#FFDD00"/>
<path d="M12.2953 29.0145C14.0312 29.0145 15.4384 27.6074 15.4384 25.8715C15.4384 24.1357 14.0312 22.7285 12.2953 22.7285C10.5595 22.7285 9.15234 24.1357 9.15234 25.8715C9.15234 27.6074 10.5595 29.0145 12.2953 29.0145Z" fill="#FFDD00"/>
<path d="M32.7035 25.872C34.4394 25.872 35.8466 24.4648 35.8466 22.729C35.8466 20.9931 34.4394 19.5859 32.7035 19.5859C30.9677 19.5859 29.5605 20.9931 29.5605 22.729C29.5605 24.4648 30.9677 25.872 32.7035 25.872Z" fill="#FFDD00"/>
<path d="M5.92167 32.3994C5.84709 33.341 5.62962 34.3377 5.30664 35.3295C7.47094 36.9017 10.0063 38.105 12.8511 38.9207C12.4399 39.1863 12.0064 39.4293 11.554 39.6488C10.7903 40.0193 10.5652 41.0018 11.0854 41.6726C11.4743 42.174 12.1619 42.3343 12.7324 42.0563C15.0456 40.9296 16.9719 39.2858 18.259 37.2582C13.0362 36.6511 8.91605 34.9096 5.92167 32.3994Z" fill="#32509B"/>
</g>
<defs>
<clipPath id="clip0">
<rect width="45" height="45" fill="white"/>
</clipPath>
</defs>
</svg>
