<svg width="32" height="30" viewBox="0 0 32 30" fill="none" xmlns="http://www.w3.org/2000/svg">
<path d="M16.3708 20.4584H4.08754C1.83008 20.4584 0 18.6283 0 16.3708V4.08754C0 1.83001 1.83008 0 4.08754 0H16.3708C18.6283 0 20.4584 1.83008 20.4584 4.08754V16.3708C20.4585 18.6283 18.6284 20.4584 16.3708 20.4584Z" fill="#FF8300"/>
<path d="M4.72452 6.9221C5.24116 6.9221 5.65997 6.58552 5.65997 6.17034C5.65997 5.75515 5.24116 5.41858 4.72452 5.41858C4.20788 5.41858 3.78906 5.75515 3.78906 6.17034C3.78906 6.58552 4.20788 6.9221 4.72452 6.9221Z" fill="#EFC5DB"/>
<path d="M15.7323 6.9221C16.249 6.9221 16.6678 6.58552 16.6678 6.17034C16.6678 5.75515 16.249 5.41858 15.7323 5.41858C15.2157 5.41858 14.7969 5.75515 14.7969 6.17034C14.7969 6.58552 15.2157 6.9221 15.7323 6.9221Z" fill="#EFC5DB"/>
<path d="M8.17859 4.19199C8.11652 3.24338 7.32668 2.48592 6.37639 2.46156C5.32963 2.43476 4.47266 3.27526 4.47266 4.31594C4.47266 4.36874 4.47485 4.42103 4.47923 4.4727C4.50566 4.78648 4.84606 4.97344 5.1274 4.83208C5.18609 4.80264 5.24803 4.77609 5.31135 4.75103L5.31066 4.75016C5.60985 4.40757 5.95651 4.28293 6.3276 4.28293C6.69875 4.28293 7.04535 4.40757 7.34453 4.75016L7.34372 4.75097C7.40704 4.77602 7.46892 4.80252 7.52754 4.83195C7.81214 4.97481 8.15147 4.78179 8.17671 4.46431C8.18385 4.37519 8.1846 4.28425 8.17859 4.19199Z" fill="white"/>
<path d="M10.2287 6.80938C9.82491 6.80938 9.42113 6.67441 9.08423 6.40447C8.77177 6.15413 8.72135 5.69787 8.97169 5.3854C9.22202 5.07287 9.67829 5.02258 9.99075 5.27285C10.1309 5.38509 10.3265 5.38509 10.4666 5.27285C10.779 5.02252 11.2353 5.07287 11.4857 5.3854C11.736 5.69787 11.6857 6.15413 11.3731 6.40447C11.0363 6.67441 10.6325 6.80938 10.2287 6.80938Z" fill="#3B3B44"/>
<path d="M6.32822 4.56465C6.69937 4.56465 7.04678 4.63242 7.34516 4.75047C7.40221 4.61713 7.43378 4.47051 7.43378 4.31625C7.43378 3.70567 6.93881 3.21069 6.32822 3.21069C5.71763 3.21069 5.22266 3.70567 5.22266 4.31625C5.22266 4.47051 5.25422 4.61707 5.31128 4.75047C5.60959 4.63242 5.95707 4.56465 6.32822 4.56465Z" fill="#3B3B44"/>
<path d="M15.9813 4.19199C15.9193 3.24338 15.1294 2.48592 14.1791 2.46156C13.1324 2.43476 12.2754 3.27526 12.2754 4.31594C12.2754 4.36874 12.2776 4.42103 12.282 4.4727C12.3083 4.78648 12.6487 4.97344 12.9301 4.83208C12.9888 4.80264 13.0508 4.77609 13.1141 4.75103L13.1134 4.75016C13.4126 4.40757 13.7592 4.28293 14.1303 4.28293C14.5015 4.28293 14.8481 4.40757 15.1473 4.75016L15.1465 4.75097C15.2098 4.77602 15.2717 4.80252 15.3303 4.83195C15.6149 4.97481 15.9542 4.78179 15.9794 4.46431C15.9866 4.37519 15.9873 4.28425 15.9813 4.19199Z" fill="white"/>
<path d="M14.129 4.56465C14.5001 4.56465 14.8476 4.63242 15.1459 4.75047C15.203 4.61713 15.2346 4.47051 15.2346 4.31625C15.2346 3.70567 14.7396 3.21069 14.129 3.21069C13.5184 3.21069 13.0234 3.70567 13.0234 4.31625C13.0234 4.47051 13.055 4.61707 13.1121 4.75047C13.4104 4.63242 13.7578 4.56465 14.129 4.56465Z" fill="#3B3B44"/>
<path d="M28.5381 29.8889H19.8179C18.2152 29.8889 16.916 28.5896 16.916 26.987V18.2667C16.916 16.6641 18.2152 15.3649 19.8179 15.3649H28.5381C30.1408 15.3649 31.44 16.6641 31.44 18.2667V26.987C31.44 28.5896 30.1408 29.8889 28.5381 29.8889Z" fill="#3B5CAD"/>
<path d="M20.369 25.7908C22.1974 24.8743 23.8906 23.6965 25.3925 22.2931C25.9354 21.7858 25.9216 20.9206 25.3616 20.4323C24.8793 20.0117 24.1553 20.02 23.688 20.4571C22.3719 21.6883 20.8784 22.7331 19.2463 23.5512C18.5018 23.9244 17.6481 23.9319 16.916 23.612V26.9865C16.916 28.5892 18.2152 29.8884 19.8179 29.8884H23.1811C23.8603 29.8884 24.4388 29.3602 24.463 28.6814C24.4883 27.9688 23.9182 27.3832 23.2112 27.3832H19.8179C19.5988 27.3832 19.4213 27.2056 19.4213 26.9865V26.1548C19.7479 26.0642 20.066 25.9427 20.369 25.7908Z" fill="#3152A4"/>
<path d="M15.528 26.8479C18.1228 24.2531 18.1315 20.0515 15.5542 17.4459C12.8919 14.7543 8.51516 14.8753 5.90583 17.6183C3.30433 20.3532 2.79683 23.6665 1.21715 25.4281C0.138024 26.6315 0.599113 28.5347 2.10864 29.1127C6.64556 30.8499 12.3721 30.0038 15.528 26.8479Z" fill="#FFDD00"/>
<path d="M7.85453 21.6233C7.73779 21.6233 7.61935 21.5948 7.50968 21.5349C7.16064 21.3441 7.03237 20.9065 7.22315 20.5574C7.91096 19.299 9.51876 17.7554 11.9685 17.1968C12.3564 17.1084 12.7424 17.351 12.8308 17.7388C12.9192 18.1266 12.6765 18.5128 12.2887 18.6012C10.3055 19.0535 9.0246 20.2652 8.48716 21.2483C8.35633 21.4877 8.10931 21.6233 7.85453 21.6233Z" fill="#EFC534"/>
<path d="M28.8352 4.11312C27.1276 2.40556 24.5225 1.97447 22.3559 3.04095L17.9517 5.20885C15.7693 6.2831 13.8296 7.761 12.2259 9.5488C10.6223 11.3366 13.3037 14.4282 15.9119 17.0364C18.5201 19.6447 23.3996 20.7224 23.3996 20.7224C25.1873 19.1187 26.6652 17.179 27.7395 14.9967L29.9074 10.5925C30.9738 8.42583 30.5427 5.82069 28.8352 4.11312Z" fill="#27A600"/>
<path d="M12.2256 9.54944C11.1092 10.794 10.1554 12.1885 9.39667 13.7022C8.86662 14.7596 9.0733 16.0376 9.90968 16.8739L16.0747 23.0389C16.9111 23.8753 18.189 24.082 19.2464 23.552C20.7602 22.7931 22.1547 21.8394 23.3992 20.723L12.2256 9.54944Z" fill="#4E5660"/>
<path d="M8.92464 27.4352C8.58719 27.4352 8.28593 27.1969 8.21867 26.8533C8.14213 26.463 8.39666 26.0845 8.78698 26.008C9.63412 25.8421 11.3265 25.245 12.2959 24.06C12.5477 23.7521 13.0015 23.7066 13.3095 23.9587C13.6173 24.2105 13.6628 24.6643 13.4108 24.9722C12.2618 26.3767 10.3511 27.1695 9.06393 27.4216C9.01721 27.4308 8.97061 27.4352 8.92464 27.4352Z" fill="#EFC534"/>
<path opacity="0.35" d="M7.15707 12.5798C6.93442 13.0239 6.77784 13.4919 6.68847 13.9705C5.72351 14.4521 4.84468 15.1005 4.09104 15.8927C2.94734 17.0949 2.15299 18.369 1.53125 19.5604C2.18437 20.0845 3.00132 20.4125 3.89356 20.4541C4.41127 19.4974 5.04309 18.5266 5.90608 17.6193C6.8364 16.6413 7.9915 15.9969 9.21337 15.6942C9.02635 15.0458 9.07965 14.3347 9.39663 13.7025C9.87945 12.7393 10.4412 11.8243 11.0735 10.9656C11.5208 10.3582 11.3436 9.49804 10.6871 9.12645C10.1371 8.81505 9.43922 8.96104 9.06412 9.46979C8.34055 10.4513 7.7024 11.492 7.15707 12.5798Z" fill="#FF7776"/>
</svg>
